M48
;GenerationSoftware,Autodesk,EAGLE,9.6.1*%
;CreationDate,2024-02-12T10:02:05Z*%
FMAT,2
ICI,OFF
METRIC,TZ,000.000
T6C0.250
T5C0.300
T4C0.350
T3C0.800
T2C0.813
T1C1.016
%
G90
M71
T1
X-24606Y1270
X-15081Y20320
X-24606Y6350
X-24606Y3810
T2
X27781Y5080
X27781Y12382
X25241Y12382
X25241Y5080
X18891Y-3969
X18891Y-1429
X11112Y-3969
X11112Y-1429
T3
X318Y3651
X-4763Y3651
X-7302Y3651
X-7302Y13811
X-4763Y13811
X-2223Y13811
X318Y13811
X5398Y13811
X-2223Y3651
X7937Y13811
X7937Y3651
X5398Y3651
X2857Y3651
X2857Y13811
T4
X-23019Y15081
X-23019Y14129
X-6826Y16192
X-7461Y15240
X-9208Y1587
X-10001Y952
X-16510Y9525
X-19209Y19685
X-16828Y-794
X-15240Y1111
X-13017Y952
X-15557Y4921
X-14129Y4921
X-19526Y1429
X-18733Y1905
X-15240Y9525
X-15716Y15875
X-14764Y15399
T5
X-22225Y9525
X-12065Y3810
X-10636Y5239
X-24765Y11112
X-22225Y8573
X-12224Y2064
X-21907Y10319
X-10319Y2699
X-12065Y2857
X-22701Y18415
X-17621Y-3651
X-26829Y7461
X-9049Y-1429
X-9049Y18733
T6
X-20638Y4763
X-21590Y5239
X-11589Y10478
X-12382Y11271
X-22066Y7620
X-22701Y7144
M30