G04 EAGLE Gerber RS-274X export*
G75*
%MOMM*%
%FSLAX34Y34*%
%LPD*%
%INBottom Copper*%
%IPPOS*%
%AMOC8*
5,1,8,0,0,1.08239X$1,22.5*%
G01*
%ADD10R,0.400000X1.399997*%
%ADD11C,1.000000*%
%ADD12R,1.000000X1.400000*%
%ADD13C,1.422400*%
%ADD14R,0.297181X0.550000*%
%ADD15R,0.550000X0.297181*%
%ADD16R,5.600000X5.600000*%
%ADD17P,1.649562X8X22.500000*%
%ADD18P,1.429621X8X202.500000*%
%ADD19P,1.429621X8X112.500000*%
%ADD20R,1.100000X1.000000*%
%ADD21R,1.000000X1.100000*%
%ADD22R,1.300000X1.500000*%
%ADD23C,1.524000*%
%ADD24C,0.304800*%
%ADD25C,0.406400*%
%ADD26C,0.750000*%
%ADD27C,0.600000*%
%ADD28C,0.508000*%
%ADD29C,0.254000*%
%ADD30C,0.152400*%
%ADD31C,0.550000*%

G36*
X150791Y-86377D02*
X150791Y-86377D01*
X150868Y-86378D01*
X150892Y-86369D01*
X150913Y-86367D01*
X150952Y-86347D01*
X151024Y-86320D01*
X167524Y-76820D01*
X167546Y-76801D01*
X167572Y-76789D01*
X167606Y-76751D01*
X167609Y-76749D01*
X167612Y-76745D01*
X167620Y-76736D01*
X167673Y-76689D01*
X167686Y-76663D01*
X167705Y-76641D01*
X167728Y-76574D01*
X167759Y-76509D01*
X167761Y-76480D01*
X167770Y-76453D01*
X167765Y-76382D01*
X167768Y-76311D01*
X167758Y-76284D01*
X167756Y-76255D01*
X167714Y-76164D01*
X167699Y-76124D01*
X167692Y-76116D01*
X167687Y-76106D01*
X300414Y-662D01*
X300468Y-618D01*
X300528Y-582D01*
X300563Y-541D01*
X300605Y-507D01*
X300643Y-448D01*
X300688Y-395D01*
X300708Y-345D01*
X300737Y-300D01*
X300754Y-232D01*
X300780Y-167D01*
X300789Y-93D01*
X300796Y-61D01*
X300794Y-39D01*
X300799Y0D01*
X300799Y150D01*
X301024Y280D01*
X301083Y331D01*
X301145Y377D01*
X301156Y397D01*
X301173Y411D01*
X301207Y482D01*
X301247Y548D01*
X301251Y573D01*
X301259Y591D01*
X301261Y635D01*
X301274Y713D01*
X301274Y19713D01*
X301269Y19740D01*
X301271Y19769D01*
X301249Y19837D01*
X301235Y19907D01*
X301219Y19931D01*
X301210Y19958D01*
X301163Y20012D01*
X301122Y20071D01*
X301098Y20087D01*
X301080Y20108D01*
X301015Y20140D01*
X300955Y20178D01*
X300927Y20183D01*
X300901Y20196D01*
X300800Y20205D01*
X300799Y20205D01*
X300799Y154415D01*
X300861Y154430D01*
X300933Y154439D01*
X300957Y154453D01*
X300985Y154460D01*
X301043Y154502D01*
X301105Y154538D01*
X301122Y154561D01*
X301145Y154577D01*
X301182Y154639D01*
X301225Y154697D01*
X301232Y154724D01*
X301247Y154748D01*
X301263Y154849D01*
X301274Y154889D01*
X301272Y154900D01*
X301274Y154913D01*
X301274Y173913D01*
X301259Y173989D01*
X301250Y174066D01*
X301239Y174086D01*
X301235Y174107D01*
X301191Y174172D01*
X301152Y174239D01*
X301133Y174255D01*
X301122Y174271D01*
X301084Y174295D01*
X301024Y174345D01*
X284524Y183845D01*
X284497Y183854D01*
X284473Y183871D01*
X284403Y183885D01*
X284335Y183908D01*
X284307Y183906D01*
X284279Y183912D01*
X284209Y183898D01*
X284137Y183892D01*
X284112Y183879D01*
X284084Y183874D01*
X284024Y183834D01*
X283961Y183801D01*
X283943Y183778D01*
X283919Y183762D01*
X283861Y183680D01*
X283834Y183647D01*
X283831Y183637D01*
X283824Y183626D01*
X283742Y183454D01*
X152570Y260203D01*
X152507Y260228D01*
X152448Y260261D01*
X152393Y260272D01*
X152341Y260292D01*
X152273Y260295D01*
X152206Y260307D01*
X152151Y260300D01*
X152145Y260300D01*
X151024Y260945D01*
X150951Y260969D01*
X150881Y261000D01*
X150857Y261001D01*
X150835Y261008D01*
X150759Y261002D01*
X150682Y261003D01*
X150658Y260994D01*
X150637Y260992D01*
X150598Y260972D01*
X150526Y260945D01*
X134026Y251445D01*
X134004Y251426D01*
X133978Y251414D01*
X133930Y251361D01*
X133877Y251314D01*
X133864Y251288D01*
X133845Y251266D01*
X133822Y251199D01*
X133791Y251134D01*
X133790Y251105D01*
X133780Y251078D01*
X133785Y251007D01*
X133782Y250936D01*
X133792Y250909D01*
X133794Y250880D01*
X133836Y250789D01*
X133851Y250749D01*
X133858Y250741D01*
X133864Y250729D01*
X134241Y250182D01*
X17700Y183674D01*
X17699Y183676D01*
X17650Y183728D01*
X17608Y183785D01*
X17583Y183799D01*
X17563Y183820D01*
X17498Y183849D01*
X17436Y183885D01*
X17407Y183889D01*
X17381Y183900D01*
X17310Y183901D01*
X17239Y183910D01*
X17211Y183903D01*
X17182Y183903D01*
X17089Y183868D01*
X17048Y183857D01*
X17039Y183850D01*
X17026Y183845D01*
X775Y174489D01*
X-15476Y183845D01*
X-15504Y183854D01*
X-15528Y183871D01*
X-15597Y183886D01*
X-15665Y183908D01*
X-15694Y183906D01*
X-15722Y183912D01*
X-15792Y183898D01*
X-15863Y183892D01*
X-15889Y183879D01*
X-15917Y183873D01*
X-15976Y183833D01*
X-16039Y183801D01*
X-16058Y183778D01*
X-16082Y183762D01*
X-16139Y183680D01*
X-16166Y183647D01*
X-16169Y183636D01*
X-16177Y183625D01*
X-16458Y183027D01*
X-48952Y201620D01*
X-49057Y201659D01*
X-49163Y201702D01*
X-49173Y201702D01*
X-49182Y201706D01*
X-49295Y201710D01*
X-49408Y201716D01*
X-49418Y201714D01*
X-49428Y201714D01*
X-49537Y201681D01*
X-49645Y201652D01*
X-49654Y201646D01*
X-49664Y201643D01*
X-49756Y201578D01*
X-49850Y201515D01*
X-49858Y201506D01*
X-49864Y201501D01*
X-49879Y201481D01*
X-49959Y201388D01*
X-50909Y199993D01*
X-50924Y199962D01*
X-50945Y199935D01*
X-50975Y199851D01*
X-51013Y199770D01*
X-51017Y199736D01*
X-51028Y199703D01*
X-51034Y199624D01*
X-51472Y199152D01*
X-51490Y199125D01*
X-51543Y199063D01*
X-51809Y198673D01*
X-51809Y198672D01*
X-51903Y198534D01*
X-51968Y198503D01*
X-52052Y198473D01*
X-52079Y198451D01*
X-52110Y198436D01*
X-52237Y198327D01*
X-53736Y196711D01*
X-53755Y196682D01*
X-53780Y196658D01*
X-53822Y196580D01*
X-53872Y196506D01*
X-53881Y196472D01*
X-53897Y196441D01*
X-53915Y196364D01*
X-54418Y195963D01*
X-54440Y195938D01*
X-54501Y195885D01*
X-54937Y195416D01*
X-55005Y195395D01*
X-55092Y195377D01*
X-55122Y195360D01*
X-55156Y195350D01*
X-55297Y195261D01*
X-57020Y193886D01*
X-57044Y193860D01*
X-57072Y193840D01*
X-57126Y193769D01*
X-57185Y193703D01*
X-57199Y193671D01*
X-57220Y193644D01*
X-57249Y193570D01*
X-57806Y193248D01*
X-57832Y193227D01*
X-57900Y193184D01*
X-58401Y192784D01*
X-58471Y192774D01*
X-58560Y192770D01*
X-58593Y192757D01*
X-58627Y192752D01*
X-58781Y192685D01*
X-60689Y191582D01*
X-60716Y191560D01*
X-60747Y191545D01*
X-60811Y191483D01*
X-60879Y191426D01*
X-60898Y191397D01*
X-60923Y191373D01*
X-60962Y191304D01*
X-61561Y191068D01*
X-61590Y191052D01*
X-61664Y191019D01*
X-62218Y190699D01*
X-62290Y190699D01*
X-62378Y190708D01*
X-62412Y190700D01*
X-62447Y190701D01*
X-62609Y190657D01*
X-64660Y189851D01*
X-64690Y189833D01*
X-64723Y189823D01*
X-64795Y189771D01*
X-64872Y189725D01*
X-64894Y189699D01*
X-64922Y189679D01*
X-64972Y189616D01*
X-65599Y189473D01*
X-65630Y189460D01*
X-65708Y189439D01*
X-66304Y189205D01*
X-66375Y189217D01*
X-66461Y189238D01*
X-66496Y189236D01*
X-66530Y189241D01*
X-66696Y189222D01*
X-68845Y188731D01*
X-68877Y188718D01*
X-68912Y188713D01*
X-68991Y188672D01*
X-69073Y188638D01*
X-69099Y188616D01*
X-69130Y188600D01*
X-69188Y188545D01*
X-69830Y188497D01*
X-69862Y188489D01*
X-69942Y188480D01*
X-70567Y188337D01*
X-70635Y188359D01*
X-70717Y188394D01*
X-70752Y188396D01*
X-70785Y188407D01*
X-70952Y188413D01*
X-73150Y188247D01*
X-73184Y188239D01*
X-73219Y188239D01*
X-73303Y188210D01*
X-73389Y188189D01*
X-73419Y188171D01*
X-73451Y188160D01*
X-73517Y188115D01*
X-74159Y188163D01*
X-74192Y188160D01*
X-74273Y188163D01*
X-74911Y188115D01*
X-74976Y188147D01*
X-75051Y188193D01*
X-75085Y188200D01*
X-75116Y188216D01*
X-75281Y188247D01*
X-77479Y188411D01*
X-77514Y188408D01*
X-77548Y188413D01*
X-77636Y188397D01*
X-77724Y188389D01*
X-77756Y188375D01*
X-77790Y188369D01*
X-77862Y188334D01*
X-78489Y188477D01*
X-78522Y188479D01*
X-78602Y188494D01*
X-79240Y188542D01*
X-79299Y188583D01*
X-79367Y188640D01*
X-79400Y188653D01*
X-79428Y188672D01*
X-79587Y188728D01*
X-80158Y188858D01*
X-80263Y188864D01*
X-80367Y188876D01*
X-80385Y188872D01*
X-80404Y188873D01*
X-80505Y188846D01*
X-80607Y188824D01*
X-80623Y188814D01*
X-80641Y188809D01*
X-80729Y188751D01*
X-80818Y188697D01*
X-80831Y188683D01*
X-80846Y188673D01*
X-80910Y188590D01*
X-80978Y188511D01*
X-80985Y188493D01*
X-80997Y188478D01*
X-81031Y188380D01*
X-81070Y188282D01*
X-81073Y188260D01*
X-81078Y188246D01*
X-81078Y188214D01*
X-81089Y188116D01*
X-81089Y144101D01*
X-81077Y144030D01*
X-81075Y143958D01*
X-81057Y143909D01*
X-81049Y143858D01*
X-81015Y143795D01*
X-80991Y143727D01*
X-80958Y143687D01*
X-80934Y143641D01*
X-80882Y143591D01*
X-80837Y143535D01*
X-80793Y143507D01*
X-80756Y143471D01*
X-80691Y143441D01*
X-80630Y143402D01*
X-80580Y143390D01*
X-80533Y143368D01*
X-80461Y143360D01*
X-80392Y143342D01*
X-80340Y143346D01*
X-80288Y143341D01*
X-80218Y143356D01*
X-80147Y143361D01*
X-80099Y143382D01*
X-80048Y143393D01*
X-79986Y143430D01*
X-79920Y143458D01*
X-79864Y143502D01*
X-79837Y143519D01*
X-79821Y143537D01*
X-79789Y143562D01*
X-77917Y145434D01*
X-74743Y146749D01*
X-71307Y146749D01*
X-69933Y146180D01*
X-69820Y146154D01*
X-69706Y146125D01*
X-69700Y146126D01*
X-69694Y146124D01*
X-69577Y146135D01*
X-69461Y146144D01*
X-69455Y146147D01*
X-69449Y146147D01*
X-69342Y146195D01*
X-69235Y146240D01*
X-69229Y146245D01*
X-69224Y146247D01*
X-69211Y146260D01*
X-69104Y146345D01*
X-63597Y151852D01*
X-61588Y153861D01*
X12213Y153861D01*
X12215Y153862D01*
X12217Y153861D01*
X12340Y153882D01*
X12456Y153901D01*
X12458Y153902D01*
X12460Y153902D01*
X12612Y153974D01*
X78531Y194450D01*
X78535Y194454D01*
X78540Y194456D01*
X78671Y194561D01*
X79246Y195136D01*
X79433Y195136D01*
X79435Y195137D01*
X79437Y195136D01*
X79559Y195157D01*
X79675Y195176D01*
X79677Y195177D01*
X79679Y195177D01*
X79831Y195249D01*
X79990Y195346D01*
X80781Y195157D01*
X80786Y195157D01*
X80791Y195155D01*
X80958Y195136D01*
X175766Y195136D01*
X198554Y172348D01*
X198628Y172295D01*
X198698Y172235D01*
X198728Y172223D01*
X198754Y172204D01*
X198841Y172177D01*
X198926Y172143D01*
X198967Y172139D01*
X198989Y172132D01*
X199021Y172133D01*
X199093Y172125D01*
X206682Y172125D01*
X207575Y171232D01*
X207575Y158968D01*
X206682Y158075D01*
X195418Y158075D01*
X194525Y158968D01*
X194525Y167438D01*
X194511Y167528D01*
X194503Y167619D01*
X194491Y167649D01*
X194486Y167681D01*
X194443Y167761D01*
X194407Y167846D01*
X194381Y167878D01*
X194370Y167898D01*
X194347Y167920D01*
X194302Y167976D01*
X193562Y168717D01*
X193504Y168759D01*
X193452Y168808D01*
X193404Y168830D01*
X193362Y168861D01*
X193294Y168882D01*
X193228Y168912D01*
X193177Y168918D01*
X193127Y168933D01*
X193055Y168931D01*
X192984Y168939D01*
X192933Y168928D01*
X192881Y168927D01*
X192814Y168902D01*
X192744Y168887D01*
X192699Y168860D01*
X192650Y168842D01*
X192594Y168797D01*
X192533Y168761D01*
X192499Y168721D01*
X192458Y168688D01*
X192419Y168628D01*
X192373Y168574D01*
X192353Y168525D01*
X192325Y168482D01*
X192308Y168412D01*
X192281Y168345D01*
X192273Y168274D01*
X192265Y168243D01*
X192267Y168220D01*
X192262Y168179D01*
X192262Y154181D01*
X191369Y153288D01*
X180106Y153288D01*
X179213Y154181D01*
X179213Y157314D01*
X179210Y157334D01*
X179212Y157353D01*
X179190Y157455D01*
X179173Y157557D01*
X179164Y157574D01*
X179159Y157594D01*
X179106Y157683D01*
X179058Y157774D01*
X179044Y157788D01*
X179033Y157805D01*
X178955Y157872D01*
X178880Y157944D01*
X178862Y157952D01*
X178846Y157965D01*
X178750Y158004D01*
X178657Y158047D01*
X178637Y158049D01*
X178618Y158057D01*
X178452Y158075D01*
X171143Y158075D01*
X170250Y158968D01*
X170250Y171232D01*
X171143Y172125D01*
X182407Y172125D01*
X183300Y171232D01*
X183300Y171098D01*
X183303Y171079D01*
X183301Y171059D01*
X183323Y170958D01*
X183339Y170856D01*
X183349Y170838D01*
X183353Y170819D01*
X183406Y170730D01*
X183455Y170638D01*
X183469Y170625D01*
X183479Y170608D01*
X183558Y170540D01*
X183633Y170469D01*
X183651Y170461D01*
X183666Y170448D01*
X183762Y170409D01*
X183856Y170365D01*
X183876Y170363D01*
X183894Y170356D01*
X184061Y170337D01*
X190104Y170337D01*
X190174Y170349D01*
X190246Y170351D01*
X190295Y170369D01*
X190347Y170377D01*
X190410Y170411D01*
X190477Y170435D01*
X190518Y170468D01*
X190564Y170492D01*
X190613Y170544D01*
X190669Y170589D01*
X190697Y170633D01*
X190733Y170670D01*
X190763Y170735D01*
X190802Y170796D01*
X190815Y170846D01*
X190837Y170893D01*
X190845Y170965D01*
X190862Y171034D01*
X190858Y171086D01*
X190864Y171138D01*
X190849Y171208D01*
X190843Y171279D01*
X190823Y171327D01*
X190812Y171378D01*
X190775Y171440D01*
X190747Y171506D01*
X190702Y171562D01*
X190686Y171589D01*
X190668Y171605D01*
X190642Y171637D01*
X173463Y188816D01*
X173389Y188869D01*
X173320Y188928D01*
X173289Y188941D01*
X173263Y188959D01*
X173176Y188986D01*
X173091Y189020D01*
X173050Y189025D01*
X173028Y189032D01*
X172996Y189031D01*
X172925Y189039D01*
X150486Y189039D01*
X150415Y189027D01*
X150343Y189025D01*
X150294Y189007D01*
X150243Y188999D01*
X150180Y188965D01*
X150112Y188941D01*
X150072Y188908D01*
X150025Y188884D01*
X149976Y188832D01*
X149920Y188787D01*
X149892Y188743D01*
X149856Y188706D01*
X149826Y188641D01*
X149787Y188580D01*
X149774Y188530D01*
X149752Y188483D01*
X149745Y188411D01*
X149727Y188342D01*
X149731Y188290D01*
X149725Y188238D01*
X149741Y188168D01*
X149746Y188097D01*
X149767Y188049D01*
X149778Y187998D01*
X149814Y187936D01*
X149843Y187870D01*
X149887Y187814D01*
X149904Y187787D01*
X149922Y187771D01*
X149947Y187739D01*
X150909Y186777D01*
X162824Y174863D01*
X162824Y172886D01*
X162827Y172866D01*
X162825Y172847D01*
X162847Y172745D01*
X162863Y172643D01*
X162873Y172626D01*
X162877Y172606D01*
X162930Y172517D01*
X162979Y172426D01*
X162993Y172412D01*
X163003Y172395D01*
X163082Y172328D01*
X163157Y172256D01*
X163175Y172248D01*
X163190Y172235D01*
X163286Y172196D01*
X163380Y172153D01*
X163400Y172151D01*
X163418Y172143D01*
X163585Y172125D01*
X165407Y172125D01*
X166300Y171232D01*
X166300Y158968D01*
X165407Y158075D01*
X154143Y158075D01*
X153250Y158968D01*
X153250Y171232D01*
X154143Y172125D01*
X155101Y172125D01*
X155172Y172136D01*
X155243Y172138D01*
X155292Y172156D01*
X155344Y172164D01*
X155407Y172198D01*
X155474Y172223D01*
X155515Y172255D01*
X155561Y172280D01*
X155610Y172332D01*
X155666Y172376D01*
X155695Y172420D01*
X155730Y172458D01*
X155761Y172523D01*
X155799Y172583D01*
X155812Y172634D01*
X155834Y172681D01*
X155842Y172752D01*
X155859Y172822D01*
X155855Y172874D01*
X155861Y172925D01*
X155846Y172996D01*
X155840Y173067D01*
X155820Y173115D01*
X155809Y173166D01*
X155772Y173227D01*
X155744Y173293D01*
X155699Y173349D01*
X155683Y173377D01*
X155665Y173392D01*
X155639Y173424D01*
X146598Y182466D01*
X146524Y182519D01*
X146454Y182578D01*
X146424Y182591D01*
X146398Y182609D01*
X146311Y182636D01*
X146226Y182670D01*
X146185Y182675D01*
X146163Y182682D01*
X146131Y182681D01*
X146059Y182689D01*
X112386Y182689D01*
X112315Y182677D01*
X112243Y182675D01*
X112194Y182657D01*
X112143Y182649D01*
X112080Y182615D01*
X112012Y182591D01*
X111972Y182558D01*
X111925Y182534D01*
X111876Y182482D01*
X111820Y182437D01*
X111792Y182393D01*
X111756Y182356D01*
X111726Y182291D01*
X111687Y182230D01*
X111674Y182180D01*
X111652Y182133D01*
X111645Y182061D01*
X111627Y181992D01*
X111631Y181940D01*
X111625Y181888D01*
X111641Y181818D01*
X111646Y181747D01*
X111667Y181699D01*
X111678Y181648D01*
X111714Y181586D01*
X111743Y181520D01*
X111787Y181464D01*
X111804Y181437D01*
X111822Y181421D01*
X111847Y181389D01*
X120889Y172348D01*
X120963Y172295D01*
X121032Y172235D01*
X121062Y172223D01*
X121089Y172204D01*
X121176Y172177D01*
X121260Y172143D01*
X121301Y172139D01*
X121324Y172132D01*
X121356Y172133D01*
X121427Y172125D01*
X124132Y172125D01*
X125025Y171232D01*
X125025Y158968D01*
X124132Y158075D01*
X112868Y158075D01*
X111975Y158968D01*
X111975Y171232D01*
X112140Y171397D01*
X112152Y171413D01*
X112167Y171425D01*
X112224Y171512D01*
X112284Y171596D01*
X112290Y171615D01*
X112300Y171632D01*
X112326Y171732D01*
X112356Y171831D01*
X112356Y171851D01*
X112361Y171871D01*
X112353Y171974D01*
X112350Y172077D01*
X112343Y172096D01*
X112341Y172116D01*
X112301Y172211D01*
X112265Y172308D01*
X112253Y172324D01*
X112245Y172342D01*
X112140Y172473D01*
X107436Y177178D01*
X107362Y177231D01*
X107292Y177290D01*
X107262Y177302D01*
X107236Y177321D01*
X107149Y177348D01*
X107064Y177382D01*
X107023Y177387D01*
X107001Y177394D01*
X106969Y177393D01*
X106897Y177401D01*
X83135Y177401D01*
X83134Y177401D01*
X83133Y177401D01*
X83013Y177381D01*
X82892Y177361D01*
X82891Y177361D01*
X82890Y177360D01*
X82738Y177289D01*
X76587Y173536D01*
X76558Y173511D01*
X76523Y173492D01*
X76465Y173431D01*
X76400Y173375D01*
X76381Y173342D01*
X76354Y173314D01*
X76318Y173237D01*
X76275Y173164D01*
X76267Y173126D01*
X76250Y173091D01*
X76241Y173006D01*
X76223Y172924D01*
X76228Y172885D01*
X76223Y172847D01*
X76241Y172763D01*
X76251Y172679D01*
X76267Y172644D01*
X76276Y172606D01*
X76319Y172533D01*
X76355Y172456D01*
X76382Y172428D01*
X76402Y172395D01*
X76466Y172340D01*
X76525Y172278D01*
X76559Y172260D01*
X76589Y172235D01*
X76668Y172203D01*
X76743Y172164D01*
X76781Y172158D01*
X76817Y172143D01*
X76984Y172125D01*
X82857Y172125D01*
X83750Y171232D01*
X83750Y158968D01*
X82857Y158075D01*
X74827Y158075D01*
X74737Y158061D01*
X74646Y158053D01*
X74616Y158041D01*
X74584Y158036D01*
X74504Y157993D01*
X74420Y157957D01*
X74388Y157931D01*
X74367Y157920D01*
X74345Y157897D01*
X74289Y157852D01*
X70972Y154535D01*
X70919Y154461D01*
X70859Y154392D01*
X70847Y154362D01*
X70828Y154335D01*
X70801Y154248D01*
X70767Y154164D01*
X70763Y154123D01*
X70756Y154100D01*
X70757Y154068D01*
X70749Y153997D01*
X70749Y143538D01*
X70760Y143468D01*
X70762Y143396D01*
X70780Y143347D01*
X70788Y143295D01*
X70822Y143232D01*
X70847Y143165D01*
X70879Y143124D01*
X70904Y143078D01*
X70956Y143029D01*
X71000Y142973D01*
X71044Y142945D01*
X71082Y142909D01*
X71147Y142879D01*
X71207Y142840D01*
X71258Y142827D01*
X71305Y142805D01*
X71376Y142797D01*
X71446Y142780D01*
X71498Y142784D01*
X71549Y142778D01*
X71620Y142793D01*
X71691Y142799D01*
X71739Y142819D01*
X71790Y142830D01*
X71851Y142867D01*
X71917Y142895D01*
X71973Y142940D01*
X72001Y142956D01*
X72016Y142974D01*
X72048Y143000D01*
X74483Y145434D01*
X77657Y146749D01*
X81093Y146749D01*
X84267Y145434D01*
X86697Y143005D01*
X88012Y139830D01*
X88012Y136395D01*
X86697Y133220D01*
X84267Y130791D01*
X81093Y129476D01*
X77657Y129476D01*
X74483Y130791D01*
X72053Y133220D01*
X71697Y134079D01*
X71673Y134118D01*
X71657Y134161D01*
X71609Y134222D01*
X71568Y134288D01*
X71532Y134317D01*
X71504Y134353D01*
X71438Y134395D01*
X71378Y134445D01*
X71336Y134461D01*
X71297Y134486D01*
X71221Y134505D01*
X71149Y134533D01*
X71103Y134535D01*
X71058Y134546D01*
X70981Y134540D01*
X70903Y134543D01*
X70859Y134531D01*
X70813Y134527D01*
X70742Y134497D01*
X70667Y134475D01*
X70629Y134449D01*
X70587Y134431D01*
X70480Y134345D01*
X70465Y134335D01*
X70462Y134331D01*
X70456Y134326D01*
X57346Y121216D01*
X55337Y119207D01*
X-25093Y119207D01*
X-39167Y133280D01*
X-39183Y133292D01*
X-39195Y133307D01*
X-39283Y133363D01*
X-39366Y133424D01*
X-39385Y133429D01*
X-39402Y133440D01*
X-39503Y133466D01*
X-39601Y133496D01*
X-39621Y133495D01*
X-39641Y133500D01*
X-39744Y133492D01*
X-39847Y133490D01*
X-39866Y133483D01*
X-39886Y133481D01*
X-39981Y133441D01*
X-40078Y133405D01*
X-40094Y133393D01*
X-40112Y133385D01*
X-40243Y133280D01*
X-42733Y130791D01*
X-45907Y129476D01*
X-49343Y129476D01*
X-52517Y130791D01*
X-54947Y133220D01*
X-56262Y136395D01*
X-56262Y139830D01*
X-54947Y143005D01*
X-52517Y145434D01*
X-50429Y146299D01*
X-50346Y146351D01*
X-50261Y146396D01*
X-50243Y146415D01*
X-50220Y146429D01*
X-50158Y146504D01*
X-50091Y146574D01*
X-50080Y146598D01*
X-50063Y146618D01*
X-50029Y146709D01*
X-49988Y146798D01*
X-49985Y146824D01*
X-49975Y146848D01*
X-49971Y146945D01*
X-49960Y147042D01*
X-49966Y147067D01*
X-49965Y147094D01*
X-49992Y147187D01*
X-50013Y147282D01*
X-50026Y147305D01*
X-50033Y147330D01*
X-50089Y147410D01*
X-50139Y147493D01*
X-50159Y147510D01*
X-50174Y147532D01*
X-50252Y147590D01*
X-50326Y147653D01*
X-50350Y147663D01*
X-50371Y147679D01*
X-50464Y147709D01*
X-50554Y147745D01*
X-50586Y147749D01*
X-50605Y147755D01*
X-50638Y147755D01*
X-50721Y147764D01*
X-58747Y147764D01*
X-58837Y147749D01*
X-58928Y147742D01*
X-58958Y147729D01*
X-58990Y147724D01*
X-59070Y147681D01*
X-59154Y147646D01*
X-59186Y147620D01*
X-59207Y147609D01*
X-59229Y147586D01*
X-59285Y147541D01*
X-64792Y142034D01*
X-64860Y141939D01*
X-64930Y141845D01*
X-64932Y141839D01*
X-64936Y141834D01*
X-64970Y141723D01*
X-65006Y141611D01*
X-65006Y141605D01*
X-65008Y141599D01*
X-65005Y141482D01*
X-65004Y141365D01*
X-65002Y141358D01*
X-65002Y141353D01*
X-64995Y141336D01*
X-64957Y141204D01*
X-64388Y139830D01*
X-64388Y136395D01*
X-65703Y133220D01*
X-68133Y130791D01*
X-71307Y129476D01*
X-74743Y129476D01*
X-77917Y130791D01*
X-79789Y132663D01*
X-79847Y132704D01*
X-79899Y132754D01*
X-79947Y132776D01*
X-79989Y132806D01*
X-80057Y132827D01*
X-80123Y132857D01*
X-80174Y132863D01*
X-80224Y132878D01*
X-80296Y132877D01*
X-80367Y132884D01*
X-80418Y132873D01*
X-80470Y132872D01*
X-80537Y132847D01*
X-80607Y132832D01*
X-80652Y132806D01*
X-80701Y132788D01*
X-80757Y132743D01*
X-80818Y132706D01*
X-80852Y132666D01*
X-80893Y132634D01*
X-80932Y132574D01*
X-80978Y132519D01*
X-80998Y132471D01*
X-81026Y132427D01*
X-81043Y132358D01*
X-81070Y132291D01*
X-81078Y132220D01*
X-81086Y132188D01*
X-81084Y132165D01*
X-81089Y132124D01*
X-81089Y120423D01*
X-83098Y118414D01*
X-108517Y92994D01*
X-108559Y92936D01*
X-108609Y92884D01*
X-108631Y92837D01*
X-108661Y92795D01*
X-108682Y92726D01*
X-108712Y92661D01*
X-108718Y92609D01*
X-108733Y92559D01*
X-108731Y92488D01*
X-108739Y92417D01*
X-108728Y92366D01*
X-108727Y92314D01*
X-108702Y92246D01*
X-108687Y92176D01*
X-108660Y92131D01*
X-108642Y92083D01*
X-108598Y92027D01*
X-108561Y91965D01*
X-108521Y91931D01*
X-108489Y91891D01*
X-108428Y91852D01*
X-108374Y91805D01*
X-108326Y91786D01*
X-108282Y91758D01*
X-108212Y91740D01*
X-108146Y91713D01*
X-108074Y91705D01*
X-108043Y91697D01*
X-108020Y91699D01*
X-107979Y91695D01*
X-33785Y91695D01*
X-33695Y91709D01*
X-33604Y91717D01*
X-33575Y91729D01*
X-33543Y91734D01*
X-33462Y91777D01*
X-33378Y91813D01*
X-33346Y91839D01*
X-33325Y91850D01*
X-33303Y91873D01*
X-33247Y91918D01*
X-12623Y112541D01*
X104927Y112541D01*
X104946Y112545D01*
X104966Y112542D01*
X105067Y112564D01*
X105169Y112581D01*
X105187Y112590D01*
X105206Y112595D01*
X105295Y112648D01*
X105387Y112696D01*
X105400Y112711D01*
X105417Y112721D01*
X105485Y112800D01*
X105556Y112875D01*
X105564Y112893D01*
X105577Y112908D01*
X105616Y113004D01*
X105660Y113098D01*
X105662Y113117D01*
X105669Y113136D01*
X105688Y113303D01*
X105688Y119369D01*
X106581Y120262D01*
X118844Y120262D01*
X119737Y119369D01*
X119737Y108331D01*
X119740Y108311D01*
X119738Y108292D01*
X119760Y108190D01*
X119777Y108088D01*
X119786Y108071D01*
X119791Y108051D01*
X119844Y107962D01*
X119892Y107871D01*
X119906Y107857D01*
X119917Y107840D01*
X119995Y107773D01*
X120070Y107701D01*
X120088Y107693D01*
X120104Y107680D01*
X120200Y107641D01*
X120293Y107598D01*
X120313Y107596D01*
X120332Y107588D01*
X120498Y107570D01*
X132440Y107570D01*
X132530Y107584D01*
X132621Y107592D01*
X132650Y107604D01*
X132682Y107609D01*
X132763Y107652D01*
X132847Y107688D01*
X132879Y107714D01*
X132900Y107725D01*
X132922Y107748D01*
X132978Y107793D01*
X140130Y114945D01*
X146202Y114945D01*
X146221Y114948D01*
X146241Y114946D01*
X146342Y114968D01*
X146444Y114984D01*
X146462Y114994D01*
X146481Y114998D01*
X146570Y115051D01*
X146662Y115100D01*
X146675Y115114D01*
X146692Y115124D01*
X146760Y115203D01*
X146831Y115278D01*
X146839Y115296D01*
X146852Y115311D01*
X146891Y115407D01*
X146935Y115501D01*
X146937Y115521D01*
X146944Y115539D01*
X146963Y115706D01*
X146963Y117782D01*
X147856Y118675D01*
X160119Y118675D01*
X161012Y117782D01*
X161012Y106518D01*
X160119Y105625D01*
X147856Y105625D01*
X146963Y106518D01*
X146963Y108594D01*
X146960Y108614D01*
X146962Y108633D01*
X146940Y108735D01*
X146923Y108837D01*
X146914Y108854D01*
X146909Y108874D01*
X146856Y108963D01*
X146808Y109054D01*
X146794Y109068D01*
X146783Y109085D01*
X146705Y109152D01*
X146630Y109224D01*
X146612Y109232D01*
X146596Y109245D01*
X146500Y109284D01*
X146407Y109327D01*
X146387Y109329D01*
X146368Y109337D01*
X146202Y109355D01*
X142760Y109355D01*
X142670Y109341D01*
X142579Y109333D01*
X142550Y109321D01*
X142518Y109316D01*
X142437Y109273D01*
X142353Y109237D01*
X142321Y109211D01*
X142300Y109200D01*
X142278Y109177D01*
X142222Y109132D01*
X137197Y104107D01*
X137155Y104049D01*
X137105Y103997D01*
X137083Y103949D01*
X137053Y103907D01*
X137032Y103839D01*
X137002Y103773D01*
X136996Y103722D01*
X136981Y103672D01*
X136983Y103600D01*
X136975Y103529D01*
X136986Y103478D01*
X136987Y103426D01*
X137012Y103359D01*
X137027Y103289D01*
X137054Y103244D01*
X137072Y103195D01*
X137116Y103139D01*
X137153Y103078D01*
X137193Y103044D01*
X137225Y103003D01*
X137286Y102964D01*
X137340Y102918D01*
X137388Y102898D01*
X137432Y102870D01*
X137502Y102853D01*
X137568Y102826D01*
X137640Y102818D01*
X137671Y102810D01*
X137694Y102812D01*
X137735Y102807D01*
X175302Y102807D01*
X175392Y102822D01*
X175483Y102829D01*
X175513Y102842D01*
X175545Y102847D01*
X175625Y102890D01*
X175709Y102925D01*
X175741Y102951D01*
X175762Y102962D01*
X175784Y102985D01*
X175840Y103030D01*
X187879Y115069D01*
X187937Y115100D01*
X187950Y115114D01*
X187967Y115124D01*
X188035Y115203D01*
X188106Y115278D01*
X188114Y115296D01*
X188127Y115311D01*
X188166Y115407D01*
X188210Y115501D01*
X188212Y115521D01*
X188219Y115539D01*
X188238Y115706D01*
X188238Y117782D01*
X189131Y118675D01*
X201394Y118675D01*
X202287Y117782D01*
X202287Y106518D01*
X201394Y105625D01*
X189131Y105625D01*
X188274Y106482D01*
X188258Y106494D01*
X188245Y106510D01*
X188158Y106566D01*
X188074Y106626D01*
X188055Y106632D01*
X188038Y106643D01*
X187938Y106668D01*
X187839Y106698D01*
X187819Y106698D01*
X187800Y106703D01*
X187697Y106695D01*
X187593Y106692D01*
X187574Y106685D01*
X187555Y106684D01*
X187460Y106643D01*
X187362Y106607D01*
X187346Y106595D01*
X187328Y106587D01*
X187197Y106482D01*
X180745Y100030D01*
X180703Y99972D01*
X180654Y99920D01*
X180632Y99873D01*
X180602Y99831D01*
X180581Y99762D01*
X180550Y99697D01*
X180545Y99645D01*
X180529Y99596D01*
X180531Y99524D01*
X180523Y99453D01*
X180534Y99402D01*
X180536Y99350D01*
X180560Y99282D01*
X180576Y99212D01*
X180602Y99168D01*
X180620Y99119D01*
X180665Y99063D01*
X180702Y99001D01*
X180741Y98967D01*
X180774Y98927D01*
X180834Y98888D01*
X180889Y98841D01*
X180937Y98822D01*
X180981Y98794D01*
X181050Y98776D01*
X181117Y98749D01*
X181188Y98741D01*
X181219Y98734D01*
X181243Y98735D01*
X181283Y98731D01*
X216217Y98731D01*
X216283Y98742D01*
X216349Y98742D01*
X216403Y98761D01*
X216460Y98771D01*
X216519Y98802D01*
X216581Y98823D01*
X216648Y98870D01*
X216678Y98886D01*
X216691Y98900D01*
X216719Y98919D01*
X221315Y102941D01*
X221389Y103030D01*
X221465Y103119D01*
X221467Y103126D01*
X221472Y103131D01*
X221513Y103238D01*
X221557Y103347D01*
X221558Y103356D01*
X221560Y103361D01*
X221560Y103380D01*
X221575Y103514D01*
X221575Y109844D01*
X222468Y110737D01*
X234732Y110737D01*
X235625Y109844D01*
X235625Y98581D01*
X234732Y97688D01*
X224086Y97688D01*
X224020Y97677D01*
X223954Y97676D01*
X223900Y97657D01*
X223843Y97648D01*
X223784Y97617D01*
X223722Y97595D01*
X223655Y97548D01*
X223625Y97533D01*
X223612Y97519D01*
X223584Y97499D01*
X219483Y93911D01*
X219471Y93896D01*
X219446Y93876D01*
X218676Y93106D01*
X218647Y93102D01*
X218588Y93071D01*
X218577Y93067D01*
X217486Y93140D01*
X217467Y93138D01*
X217435Y93141D01*
X206899Y93141D01*
X206828Y93130D01*
X206756Y93128D01*
X206707Y93110D01*
X206656Y93102D01*
X206593Y93068D01*
X206525Y93043D01*
X206485Y93011D01*
X206439Y92987D01*
X206389Y92935D01*
X206333Y92890D01*
X206305Y92846D01*
X206269Y92808D01*
X206239Y92743D01*
X206200Y92683D01*
X206188Y92632D01*
X206166Y92585D01*
X206158Y92514D01*
X206140Y92444D01*
X206144Y92392D01*
X206139Y92341D01*
X206154Y92271D01*
X206159Y92199D01*
X206180Y92151D01*
X206191Y92100D01*
X206228Y92039D01*
X206256Y91973D01*
X206301Y91917D01*
X206317Y91889D01*
X206335Y91874D01*
X206361Y91842D01*
X206971Y91232D01*
X216280Y81923D01*
X216354Y81870D01*
X216423Y81810D01*
X216453Y81798D01*
X216479Y81779D01*
X216566Y81752D01*
X216651Y81718D01*
X216692Y81714D01*
X216714Y81707D01*
X216747Y81708D01*
X216818Y81700D01*
X225207Y81700D01*
X226100Y80807D01*
X226100Y69543D01*
X225207Y68650D01*
X212943Y68650D01*
X212050Y69543D01*
X212050Y77932D01*
X212036Y78022D01*
X212028Y78113D01*
X212016Y78143D01*
X212011Y78175D01*
X211968Y78256D01*
X211932Y78339D01*
X211906Y78372D01*
X211895Y78392D01*
X211872Y78414D01*
X211827Y78470D01*
X203018Y87279D01*
X202944Y87332D01*
X202875Y87392D01*
X202845Y87404D01*
X202819Y87423D01*
X202732Y87450D01*
X202647Y87484D01*
X202606Y87488D01*
X202584Y87495D01*
X202551Y87494D01*
X202480Y87502D01*
X172288Y87502D01*
X172217Y87491D01*
X172145Y87489D01*
X172096Y87471D01*
X172045Y87463D01*
X171982Y87429D01*
X171914Y87404D01*
X171874Y87372D01*
X171828Y87347D01*
X171778Y87296D01*
X171722Y87251D01*
X171694Y87207D01*
X171658Y87169D01*
X171628Y87104D01*
X171589Y87044D01*
X171577Y86993D01*
X171555Y86946D01*
X171547Y86875D01*
X171529Y86805D01*
X171533Y86753D01*
X171528Y86702D01*
X171543Y86631D01*
X171548Y86560D01*
X171569Y86512D01*
X171580Y86461D01*
X171617Y86400D01*
X171645Y86334D01*
X171690Y86278D01*
X171706Y86250D01*
X171724Y86235D01*
X171750Y86203D01*
X174442Y83510D01*
X174516Y83457D01*
X174586Y83398D01*
X174616Y83385D01*
X174642Y83367D01*
X174729Y83340D01*
X174814Y83306D01*
X174855Y83301D01*
X174877Y83294D01*
X174909Y83295D01*
X174980Y83287D01*
X183932Y83287D01*
X184825Y82394D01*
X184825Y71131D01*
X183932Y70238D01*
X171668Y70238D01*
X170775Y71131D01*
X170775Y78957D01*
X170761Y79047D01*
X170753Y79138D01*
X170741Y79168D01*
X170736Y79200D01*
X170693Y79280D01*
X170657Y79364D01*
X170631Y79397D01*
X170620Y79417D01*
X170597Y79439D01*
X170552Y79495D01*
X166832Y83215D01*
X166758Y83268D01*
X166689Y83328D01*
X166659Y83340D01*
X166633Y83359D01*
X166545Y83386D01*
X166461Y83420D01*
X166420Y83424D01*
X166398Y83431D01*
X166365Y83430D01*
X166294Y83438D01*
X142723Y83438D01*
X142704Y83435D01*
X142684Y83437D01*
X142583Y83415D01*
X142481Y83399D01*
X142463Y83389D01*
X142444Y83385D01*
X142355Y83332D01*
X142263Y83283D01*
X142250Y83269D01*
X142233Y83259D01*
X142165Y83180D01*
X142094Y83105D01*
X142086Y83087D01*
X142073Y83072D01*
X142034Y82976D01*
X141990Y82882D01*
X141988Y82862D01*
X141981Y82844D01*
X141962Y82677D01*
X141962Y71131D01*
X141069Y70238D01*
X128806Y70238D01*
X127913Y71131D01*
X127913Y77407D01*
X127910Y77426D01*
X127912Y77446D01*
X127890Y77547D01*
X127873Y77649D01*
X127864Y77667D01*
X127859Y77686D01*
X127806Y77775D01*
X127758Y77867D01*
X127744Y77880D01*
X127733Y77897D01*
X127655Y77965D01*
X127580Y78036D01*
X127562Y78044D01*
X127546Y78057D01*
X127450Y78096D01*
X127357Y78140D01*
X127337Y78142D01*
X127318Y78149D01*
X127152Y78168D01*
X95098Y78168D01*
X95079Y78165D01*
X95059Y78167D01*
X94958Y78145D01*
X94856Y78128D01*
X94838Y78119D01*
X94819Y78114D01*
X94730Y78061D01*
X94638Y78013D01*
X94625Y77999D01*
X94608Y77988D01*
X94540Y77910D01*
X94469Y77835D01*
X94461Y77817D01*
X94448Y77801D01*
X94409Y77705D01*
X94365Y77612D01*
X94363Y77592D01*
X94356Y77573D01*
X94337Y77407D01*
X94337Y66368D01*
X93444Y65475D01*
X81181Y65475D01*
X80288Y66368D01*
X80288Y71619D01*
X80285Y71639D01*
X80287Y71658D01*
X80265Y71760D01*
X80248Y71862D01*
X80239Y71879D01*
X80234Y71899D01*
X80181Y71988D01*
X80133Y72079D01*
X80119Y72093D01*
X80108Y72110D01*
X80030Y72177D01*
X79955Y72249D01*
X79937Y72257D01*
X79921Y72270D01*
X79825Y72309D01*
X79732Y72352D01*
X79712Y72354D01*
X79693Y72362D01*
X79527Y72380D01*
X22726Y72380D01*
X22694Y72375D01*
X22621Y72373D01*
X20014Y72009D01*
X19977Y71998D01*
X19938Y71995D01*
X19860Y71962D01*
X19779Y71936D01*
X19747Y71914D01*
X19712Y71898D01*
X19581Y71794D01*
X1723Y53936D01*
X-137Y52076D01*
X-101077Y52076D01*
X-101096Y52073D01*
X-101116Y52075D01*
X-101217Y52053D01*
X-101319Y52036D01*
X-101337Y52027D01*
X-101356Y52022D01*
X-101445Y51969D01*
X-101537Y51921D01*
X-101550Y51907D01*
X-101567Y51896D01*
X-101635Y51818D01*
X-101706Y51743D01*
X-101714Y51725D01*
X-101727Y51709D01*
X-101766Y51613D01*
X-101810Y51520D01*
X-101812Y51500D01*
X-101819Y51481D01*
X-101838Y51315D01*
X-101838Y50513D01*
X-104488Y47863D01*
X-105918Y47863D01*
X-105938Y47860D01*
X-105957Y47862D01*
X-106059Y47840D01*
X-106161Y47823D01*
X-106178Y47814D01*
X-106198Y47809D01*
X-106287Y47756D01*
X-106378Y47708D01*
X-106392Y47694D01*
X-106409Y47683D01*
X-106476Y47605D01*
X-106548Y47530D01*
X-106556Y47512D01*
X-106569Y47496D01*
X-106608Y47400D01*
X-106651Y47307D01*
X-106653Y47287D01*
X-106661Y47268D01*
X-106679Y47102D01*
X-106679Y31732D01*
X-106668Y31662D01*
X-106666Y31590D01*
X-106648Y31541D01*
X-106640Y31490D01*
X-106606Y31426D01*
X-106581Y31359D01*
X-106549Y31318D01*
X-106524Y31272D01*
X-106472Y31223D01*
X-106428Y31167D01*
X-106384Y31139D01*
X-106346Y31103D01*
X-106281Y31073D01*
X-106221Y31034D01*
X-106170Y31021D01*
X-106123Y30999D01*
X-106052Y30991D01*
X-105982Y30974D01*
X-105930Y30978D01*
X-105879Y30972D01*
X-105808Y30988D01*
X-105737Y30993D01*
X-105689Y31013D01*
X-105638Y31025D01*
X-105577Y31061D01*
X-105511Y31089D01*
X-105455Y31134D01*
X-105427Y31151D01*
X-105412Y31168D01*
X-105380Y31194D01*
X-105062Y31512D01*
X-101313Y31512D01*
X-99425Y29624D01*
X-99351Y29571D01*
X-99282Y29512D01*
X-99252Y29499D01*
X-99225Y29481D01*
X-99139Y29454D01*
X-99054Y29420D01*
X-99013Y29415D01*
X-98990Y29408D01*
X-98958Y29409D01*
X-98887Y29401D01*
X-79966Y29401D01*
X-79895Y29413D01*
X-79823Y29415D01*
X-79774Y29433D01*
X-79723Y29441D01*
X-79660Y29475D01*
X-79592Y29499D01*
X-79552Y29532D01*
X-79506Y29556D01*
X-79456Y29608D01*
X-79400Y29653D01*
X-79372Y29697D01*
X-79336Y29734D01*
X-79306Y29799D01*
X-79267Y29860D01*
X-79255Y29910D01*
X-79233Y29957D01*
X-79225Y30029D01*
X-79207Y30098D01*
X-79211Y30150D01*
X-79206Y30202D01*
X-79221Y30272D01*
X-79226Y30343D01*
X-79247Y30391D01*
X-79258Y30442D01*
X-79295Y30504D01*
X-79323Y30570D01*
X-79367Y30626D01*
X-79384Y30653D01*
X-79402Y30669D01*
X-79427Y30701D01*
X-80347Y31620D01*
X-81662Y34795D01*
X-81662Y38230D01*
X-80347Y41405D01*
X-77917Y43834D01*
X-74743Y45149D01*
X-71307Y45149D01*
X-68133Y43834D01*
X-65703Y41405D01*
X-64388Y38230D01*
X-64388Y34795D01*
X-65703Y31620D01*
X-66623Y30701D01*
X-66664Y30643D01*
X-66714Y30591D01*
X-66736Y30543D01*
X-66766Y30501D01*
X-66787Y30433D01*
X-66817Y30367D01*
X-66823Y30316D01*
X-66838Y30266D01*
X-66837Y30194D01*
X-66844Y30123D01*
X-66833Y30072D01*
X-66832Y30020D01*
X-66807Y29953D01*
X-66792Y29883D01*
X-66766Y29838D01*
X-66748Y29789D01*
X-66703Y29733D01*
X-66666Y29672D01*
X-66626Y29638D01*
X-66594Y29597D01*
X-66534Y29558D01*
X-66479Y29512D01*
X-66431Y29492D01*
X-66387Y29464D01*
X-66318Y29447D01*
X-66251Y29420D01*
X-66180Y29412D01*
X-66149Y29404D01*
X-66125Y29406D01*
X-66084Y29401D01*
X-54566Y29401D01*
X-54495Y29413D01*
X-54423Y29415D01*
X-54374Y29433D01*
X-54323Y29441D01*
X-54260Y29475D01*
X-54192Y29499D01*
X-54152Y29532D01*
X-54106Y29556D01*
X-54056Y29608D01*
X-54000Y29653D01*
X-53972Y29697D01*
X-53936Y29734D01*
X-53906Y29799D01*
X-53867Y29860D01*
X-53855Y29910D01*
X-53833Y29957D01*
X-53825Y30029D01*
X-53807Y30098D01*
X-53811Y30150D01*
X-53806Y30202D01*
X-53821Y30272D01*
X-53826Y30343D01*
X-53847Y30391D01*
X-53858Y30442D01*
X-53895Y30504D01*
X-53923Y30570D01*
X-53967Y30626D01*
X-53984Y30653D01*
X-54002Y30669D01*
X-54027Y30701D01*
X-54947Y31620D01*
X-56262Y34795D01*
X-56262Y38230D01*
X-54947Y41405D01*
X-52517Y43834D01*
X-49343Y45149D01*
X-45907Y45149D01*
X-42733Y43834D01*
X-40303Y41405D01*
X-38988Y38230D01*
X-38988Y34795D01*
X-40303Y31620D01*
X-41223Y30701D01*
X-41264Y30643D01*
X-41314Y30591D01*
X-41336Y30543D01*
X-41366Y30501D01*
X-41387Y30433D01*
X-41417Y30367D01*
X-41423Y30316D01*
X-41438Y30266D01*
X-41437Y30194D01*
X-41444Y30123D01*
X-41433Y30072D01*
X-41432Y30020D01*
X-41407Y29953D01*
X-41392Y29883D01*
X-41366Y29838D01*
X-41348Y29789D01*
X-41303Y29733D01*
X-41266Y29672D01*
X-41226Y29638D01*
X-41194Y29597D01*
X-41134Y29558D01*
X-41079Y29512D01*
X-41031Y29492D01*
X-40987Y29464D01*
X-40918Y29447D01*
X-40851Y29420D01*
X-40780Y29412D01*
X-40749Y29404D01*
X-40725Y29406D01*
X-40684Y29401D01*
X-29166Y29401D01*
X-29095Y29413D01*
X-29023Y29415D01*
X-28974Y29433D01*
X-28923Y29441D01*
X-28860Y29475D01*
X-28792Y29499D01*
X-28752Y29532D01*
X-28706Y29556D01*
X-28656Y29608D01*
X-28600Y29653D01*
X-28572Y29697D01*
X-28536Y29734D01*
X-28506Y29799D01*
X-28467Y29860D01*
X-28455Y29910D01*
X-28433Y29957D01*
X-28425Y30029D01*
X-28407Y30098D01*
X-28411Y30150D01*
X-28406Y30202D01*
X-28421Y30272D01*
X-28426Y30343D01*
X-28447Y30391D01*
X-28458Y30442D01*
X-28495Y30504D01*
X-28523Y30570D01*
X-28567Y30626D01*
X-28584Y30653D01*
X-28602Y30669D01*
X-28627Y30701D01*
X-29547Y31620D01*
X-30862Y34795D01*
X-30862Y38230D01*
X-29547Y41405D01*
X-27117Y43834D01*
X-23943Y45149D01*
X-20507Y45149D01*
X-17333Y43834D01*
X-14903Y41405D01*
X-13588Y38230D01*
X-13588Y34795D01*
X-14903Y31620D01*
X-15823Y30701D01*
X-15864Y30643D01*
X-15914Y30591D01*
X-15936Y30543D01*
X-15966Y30501D01*
X-15987Y30433D01*
X-16017Y30367D01*
X-16023Y30316D01*
X-16038Y30266D01*
X-16037Y30194D01*
X-16044Y30123D01*
X-16033Y30072D01*
X-16032Y30020D01*
X-16007Y29953D01*
X-15992Y29883D01*
X-15966Y29838D01*
X-15948Y29789D01*
X-15903Y29733D01*
X-15866Y29672D01*
X-15826Y29638D01*
X-15794Y29597D01*
X-15734Y29558D01*
X-15679Y29512D01*
X-15631Y29492D01*
X-15587Y29464D01*
X-15518Y29447D01*
X-15451Y29420D01*
X-15380Y29412D01*
X-15349Y29404D01*
X-15325Y29406D01*
X-15284Y29401D01*
X-3766Y29401D01*
X-3695Y29413D01*
X-3623Y29415D01*
X-3574Y29433D01*
X-3523Y29441D01*
X-3460Y29475D01*
X-3392Y29499D01*
X-3352Y29532D01*
X-3306Y29556D01*
X-3256Y29608D01*
X-3200Y29653D01*
X-3172Y29697D01*
X-3136Y29734D01*
X-3106Y29799D01*
X-3067Y29860D01*
X-3055Y29910D01*
X-3033Y29957D01*
X-3025Y30029D01*
X-3007Y30098D01*
X-3011Y30150D01*
X-3006Y30202D01*
X-3021Y30272D01*
X-3026Y30343D01*
X-3047Y30391D01*
X-3058Y30442D01*
X-3095Y30504D01*
X-3123Y30570D01*
X-3167Y30626D01*
X-3184Y30653D01*
X-3202Y30669D01*
X-3227Y30701D01*
X-4147Y31620D01*
X-5462Y34795D01*
X-5462Y38230D01*
X-4147Y41405D01*
X-1717Y43834D01*
X1457Y45149D01*
X4893Y45149D01*
X8067Y43834D01*
X10497Y41405D01*
X11066Y40031D01*
X11127Y39932D01*
X11187Y39832D01*
X11192Y39827D01*
X11195Y39822D01*
X11285Y39748D01*
X11374Y39672D01*
X11380Y39669D01*
X11385Y39665D01*
X11493Y39624D01*
X11602Y39580D01*
X11610Y39579D01*
X11615Y39577D01*
X11633Y39576D01*
X11769Y39561D01*
X15469Y39561D01*
X18639Y36392D01*
X18697Y36350D01*
X18749Y36301D01*
X18796Y36279D01*
X18838Y36248D01*
X18907Y36227D01*
X18972Y36197D01*
X19024Y36191D01*
X19074Y36176D01*
X19145Y36178D01*
X19216Y36170D01*
X19267Y36181D01*
X19319Y36182D01*
X19387Y36207D01*
X19457Y36222D01*
X19502Y36249D01*
X19550Y36267D01*
X19606Y36312D01*
X19668Y36348D01*
X19702Y36388D01*
X19742Y36421D01*
X19781Y36481D01*
X19828Y36535D01*
X19847Y36584D01*
X19875Y36627D01*
X19893Y36697D01*
X19920Y36763D01*
X19928Y36835D01*
X19936Y36866D01*
X19934Y36889D01*
X19938Y36930D01*
X19938Y38230D01*
X21253Y41405D01*
X23683Y43834D01*
X26857Y45149D01*
X30293Y45149D01*
X33467Y43834D01*
X35897Y41405D01*
X36466Y40031D01*
X36527Y39932D01*
X36587Y39832D01*
X36592Y39827D01*
X36595Y39822D01*
X36685Y39748D01*
X36774Y39672D01*
X36780Y39669D01*
X36785Y39665D01*
X36893Y39624D01*
X37002Y39580D01*
X37010Y39579D01*
X37015Y39577D01*
X37033Y39576D01*
X37169Y39561D01*
X39749Y39561D01*
X44039Y35272D01*
X44097Y35230D01*
X44149Y35180D01*
X44196Y35158D01*
X44238Y35128D01*
X44307Y35107D01*
X44372Y35077D01*
X44424Y35071D01*
X44474Y35056D01*
X44545Y35058D01*
X44616Y35050D01*
X44667Y35061D01*
X44719Y35062D01*
X44787Y35087D01*
X44857Y35102D01*
X44902Y35129D01*
X44950Y35146D01*
X45006Y35191D01*
X45068Y35228D01*
X45102Y35268D01*
X45142Y35300D01*
X45181Y35360D01*
X45228Y35415D01*
X45247Y35463D01*
X45275Y35507D01*
X45293Y35577D01*
X45320Y35643D01*
X45328Y35714D01*
X45336Y35746D01*
X45334Y35769D01*
X45338Y35810D01*
X45338Y38230D01*
X46653Y41405D01*
X49083Y43834D01*
X52257Y45149D01*
X55693Y45149D01*
X58867Y43834D01*
X61297Y41405D01*
X62612Y38230D01*
X62612Y34795D01*
X61297Y31620D01*
X58767Y29090D01*
X58755Y29074D01*
X58740Y29062D01*
X58684Y28974D01*
X58623Y28891D01*
X58618Y28872D01*
X58607Y28855D01*
X58581Y28754D01*
X58551Y28655D01*
X58552Y28636D01*
X58547Y28616D01*
X58555Y28513D01*
X58557Y28410D01*
X58564Y28391D01*
X58566Y28371D01*
X58606Y28276D01*
X58642Y28179D01*
X58654Y28163D01*
X58662Y28145D01*
X58767Y28014D01*
X76182Y10599D01*
X76256Y10546D01*
X76325Y10486D01*
X76356Y10474D01*
X76382Y10455D01*
X76469Y10428D01*
X76554Y10394D01*
X76594Y10390D01*
X76617Y10383D01*
X76649Y10384D01*
X76720Y10376D01*
X117899Y10376D01*
X117989Y10390D01*
X118080Y10398D01*
X118110Y10410D01*
X118142Y10415D01*
X118222Y10458D01*
X118306Y10494D01*
X118338Y10520D01*
X118359Y10531D01*
X118381Y10554D01*
X118437Y10599D01*
X119690Y11851D01*
X119743Y11925D01*
X119802Y11995D01*
X119815Y12025D01*
X119833Y12051D01*
X119860Y12138D01*
X119894Y12223D01*
X119899Y12264D01*
X119906Y12286D01*
X119905Y12318D01*
X119913Y12390D01*
X119913Y20419D01*
X120806Y21312D01*
X132069Y21312D01*
X132962Y20419D01*
X132962Y8156D01*
X132069Y7263D01*
X124040Y7263D01*
X123950Y7248D01*
X123859Y7241D01*
X123829Y7228D01*
X123797Y7223D01*
X123716Y7180D01*
X123632Y7145D01*
X123600Y7119D01*
X123580Y7108D01*
X123557Y7085D01*
X123501Y7040D01*
X122749Y6287D01*
X121977Y5516D01*
X121935Y5458D01*
X121886Y5406D01*
X121864Y5358D01*
X121834Y5316D01*
X121813Y5248D01*
X121782Y5182D01*
X121777Y5131D01*
X121761Y5081D01*
X121763Y5009D01*
X121755Y4938D01*
X121766Y4887D01*
X121768Y4835D01*
X121792Y4768D01*
X121808Y4698D01*
X121834Y4653D01*
X121852Y4604D01*
X121897Y4548D01*
X121934Y4487D01*
X121973Y4453D01*
X122006Y4412D01*
X122066Y4373D01*
X122121Y4327D01*
X122169Y4307D01*
X122213Y4279D01*
X122282Y4262D01*
X122349Y4235D01*
X122420Y4227D01*
X122451Y4219D01*
X122475Y4221D01*
X122516Y4216D01*
X162938Y4216D01*
X163028Y4231D01*
X163119Y4238D01*
X163149Y4251D01*
X163181Y4256D01*
X163261Y4299D01*
X163345Y4334D01*
X163378Y4360D01*
X163398Y4371D01*
X163420Y4394D01*
X163476Y4439D01*
X165525Y6488D01*
X165529Y6494D01*
X165538Y6501D01*
X165811Y6787D01*
X165857Y6855D01*
X165910Y6917D01*
X165926Y6955D01*
X166882Y7911D01*
X166886Y7917D01*
X166895Y7925D01*
X167764Y8836D01*
X169024Y8836D01*
X169031Y8837D01*
X169042Y8836D01*
X170032Y8860D01*
X170043Y8862D01*
X170053Y8861D01*
X170164Y8885D01*
X170274Y8906D01*
X170283Y8911D01*
X170294Y8913D01*
X170391Y8971D01*
X170489Y9026D01*
X170496Y9034D01*
X170505Y9039D01*
X170578Y9125D01*
X170654Y9208D01*
X170658Y9218D01*
X170665Y9226D01*
X170707Y9331D01*
X170752Y9434D01*
X170753Y9445D01*
X170757Y9455D01*
X170775Y9621D01*
X170775Y11419D01*
X171668Y12312D01*
X183932Y12312D01*
X184825Y11419D01*
X184825Y381D01*
X184828Y361D01*
X184826Y342D01*
X184848Y240D01*
X184864Y138D01*
X184874Y121D01*
X184878Y101D01*
X184931Y12D01*
X184980Y-79D01*
X184994Y-93D01*
X185004Y-110D01*
X185083Y-177D01*
X185158Y-249D01*
X185176Y-257D01*
X185191Y-270D01*
X185287Y-309D01*
X185381Y-352D01*
X185401Y-354D01*
X185419Y-362D01*
X185586Y-380D01*
X217639Y-380D01*
X217659Y-377D01*
X217678Y-379D01*
X217780Y-357D01*
X217882Y-341D01*
X217899Y-331D01*
X217919Y-327D01*
X218008Y-274D01*
X218099Y-225D01*
X218113Y-211D01*
X218130Y-201D01*
X218197Y-122D01*
X218269Y-47D01*
X218277Y-29D01*
X218290Y-14D01*
X218329Y82D01*
X218372Y176D01*
X218374Y196D01*
X218382Y214D01*
X218400Y381D01*
X218400Y3482D01*
X219293Y4375D01*
X231557Y4375D01*
X232450Y3482D01*
X232450Y-7782D01*
X231557Y-8675D01*
X219293Y-8675D01*
X218400Y-7782D01*
X218400Y-7239D01*
X218397Y-7219D01*
X218399Y-7200D01*
X218377Y-7098D01*
X218361Y-6996D01*
X218351Y-6979D01*
X218347Y-6959D01*
X218294Y-6870D01*
X218245Y-6779D01*
X218231Y-6765D01*
X218221Y-6748D01*
X218142Y-6681D01*
X218067Y-6609D01*
X218049Y-6601D01*
X218034Y-6588D01*
X217938Y-6549D01*
X217844Y-6506D01*
X217824Y-6504D01*
X217806Y-6496D01*
X217639Y-6478D01*
X194436Y-6478D01*
X194366Y-6489D01*
X194294Y-6491D01*
X194245Y-6509D01*
X194194Y-6517D01*
X194130Y-6551D01*
X194063Y-6576D01*
X194022Y-6608D01*
X193976Y-6633D01*
X193927Y-6685D01*
X193871Y-6729D01*
X193843Y-6773D01*
X193807Y-6811D01*
X193777Y-6876D01*
X193738Y-6936D01*
X193725Y-6987D01*
X193703Y-7034D01*
X193695Y-7105D01*
X193678Y-7175D01*
X193682Y-7227D01*
X193676Y-7278D01*
X193691Y-7349D01*
X193697Y-7420D01*
X193717Y-7468D01*
X193728Y-7519D01*
X193765Y-7580D01*
X193793Y-7646D01*
X193838Y-7702D01*
X193855Y-7730D01*
X193872Y-7745D01*
X193898Y-7777D01*
X197041Y-10920D01*
X197041Y-17655D01*
X192280Y-22416D01*
X185545Y-22416D01*
X180784Y-17655D01*
X180784Y-10920D01*
X183927Y-7777D01*
X183969Y-7719D01*
X184018Y-7667D01*
X184040Y-7620D01*
X184071Y-7578D01*
X184092Y-7509D01*
X184122Y-7444D01*
X184128Y-7392D01*
X184143Y-7342D01*
X184141Y-7271D01*
X184149Y-7200D01*
X184138Y-7149D01*
X184137Y-7097D01*
X184112Y-7029D01*
X184097Y-6959D01*
X184070Y-6914D01*
X184052Y-6866D01*
X184007Y-6810D01*
X183970Y-6748D01*
X183931Y-6714D01*
X183898Y-6674D01*
X183838Y-6635D01*
X183784Y-6588D01*
X183735Y-6569D01*
X183691Y-6541D01*
X183622Y-6523D01*
X183555Y-6496D01*
X183484Y-6488D01*
X183453Y-6480D01*
X183430Y-6482D01*
X183389Y-6478D01*
X116649Y-6478D01*
X116578Y-6489D01*
X116506Y-6491D01*
X116457Y-6509D01*
X116406Y-6517D01*
X116343Y-6551D01*
X116275Y-6576D01*
X116235Y-6608D01*
X116189Y-6633D01*
X116139Y-6685D01*
X116083Y-6729D01*
X116055Y-6773D01*
X116019Y-6811D01*
X115989Y-6876D01*
X115950Y-6936D01*
X115938Y-6987D01*
X115916Y-7034D01*
X115908Y-7105D01*
X115890Y-7175D01*
X115894Y-7227D01*
X115889Y-7278D01*
X115904Y-7349D01*
X115909Y-7420D01*
X115930Y-7468D01*
X115941Y-7519D01*
X115978Y-7580D01*
X116006Y-7646D01*
X116051Y-7702D01*
X116067Y-7730D01*
X116085Y-7745D01*
X116111Y-7777D01*
X119254Y-10920D01*
X119254Y-17655D01*
X114492Y-22416D01*
X107758Y-22416D01*
X106877Y-21535D01*
X106803Y-21482D01*
X106734Y-21423D01*
X106703Y-21410D01*
X106677Y-21392D01*
X106590Y-21365D01*
X106505Y-21331D01*
X106464Y-21326D01*
X106442Y-21319D01*
X106410Y-21320D01*
X106339Y-21312D01*
X94943Y-21312D01*
X94050Y-20419D01*
X94050Y-8156D01*
X94429Y-7777D01*
X94471Y-7719D01*
X94520Y-7667D01*
X94542Y-7620D01*
X94572Y-7578D01*
X94594Y-7509D01*
X94624Y-7444D01*
X94630Y-7392D01*
X94645Y-7342D01*
X94643Y-7271D01*
X94651Y-7200D01*
X94640Y-7149D01*
X94638Y-7097D01*
X94614Y-7029D01*
X94599Y-6959D01*
X94572Y-6914D01*
X94554Y-6866D01*
X94509Y-6810D01*
X94472Y-6748D01*
X94433Y-6714D01*
X94400Y-6674D01*
X94340Y-6635D01*
X94286Y-6588D01*
X94237Y-6569D01*
X94193Y-6541D01*
X94124Y-6523D01*
X94057Y-6496D01*
X93986Y-6488D01*
X93955Y-6480D01*
X93932Y-6482D01*
X93891Y-6478D01*
X90259Y-6478D01*
X90189Y-6489D01*
X90117Y-6491D01*
X90068Y-6509D01*
X90017Y-6517D01*
X89953Y-6551D01*
X89886Y-6576D01*
X89845Y-6608D01*
X89799Y-6633D01*
X89750Y-6684D01*
X89694Y-6729D01*
X89666Y-6773D01*
X89630Y-6811D01*
X89600Y-6876D01*
X89561Y-6936D01*
X89548Y-6987D01*
X89526Y-7034D01*
X89518Y-7105D01*
X89501Y-7175D01*
X89505Y-7227D01*
X89499Y-7278D01*
X89514Y-7349D01*
X89520Y-7420D01*
X89540Y-7468D01*
X89551Y-7519D01*
X89588Y-7580D01*
X89616Y-7646D01*
X89661Y-7702D01*
X89678Y-7730D01*
X89695Y-7745D01*
X89721Y-7777D01*
X90100Y-8156D01*
X90100Y-20419D01*
X89207Y-21312D01*
X77943Y-21312D01*
X77050Y-20419D01*
X77050Y-17810D01*
X77036Y-17720D01*
X77028Y-17629D01*
X77016Y-17599D01*
X77011Y-17567D01*
X76968Y-17486D01*
X76932Y-17402D01*
X76906Y-17370D01*
X76895Y-17350D01*
X76872Y-17327D01*
X76827Y-17271D01*
X76535Y-16979D01*
X76482Y-16941D01*
X76435Y-16895D01*
X76362Y-16855D01*
X76335Y-16836D01*
X76317Y-16830D01*
X76288Y-16814D01*
X66463Y-12745D01*
X66447Y-12741D01*
X66432Y-12733D01*
X66327Y-12713D01*
X66224Y-12688D01*
X66207Y-12690D01*
X66191Y-12687D01*
X66023Y-12701D01*
X65918Y-12722D01*
X65180Y-12229D01*
X65159Y-12219D01*
X65049Y-12159D01*
X64229Y-11819D01*
X64188Y-11720D01*
X64179Y-11706D01*
X64174Y-11690D01*
X64114Y-11601D01*
X64058Y-11511D01*
X64045Y-11500D01*
X64036Y-11486D01*
X63908Y-11378D01*
X21298Y17092D01*
X21282Y17099D01*
X21270Y17110D01*
X21171Y17150D01*
X21074Y17194D01*
X21057Y17196D01*
X21041Y17202D01*
X20875Y17221D01*
X20768Y17221D01*
X20140Y17848D01*
X20121Y17862D01*
X20025Y17943D01*
X19287Y18436D01*
X19266Y18541D01*
X19260Y18557D01*
X19259Y18574D01*
X19217Y18672D01*
X19180Y18771D01*
X19169Y18784D01*
X19162Y18800D01*
X19058Y18931D01*
X14908Y23081D01*
X14834Y23134D01*
X14764Y23193D01*
X14734Y23205D01*
X14708Y23224D01*
X14621Y23251D01*
X14536Y23285D01*
X14495Y23290D01*
X14473Y23297D01*
X14441Y23296D01*
X14369Y23304D01*
X-100157Y23304D01*
X-100247Y23289D01*
X-100338Y23282D01*
X-100368Y23269D01*
X-100400Y23264D01*
X-100480Y23221D01*
X-100564Y23186D01*
X-100596Y23160D01*
X-100617Y23149D01*
X-100639Y23126D01*
X-100695Y23081D01*
X-101313Y22463D01*
X-105062Y22463D01*
X-105380Y22781D01*
X-105438Y22823D01*
X-105490Y22872D01*
X-105537Y22894D01*
X-105579Y22924D01*
X-105648Y22945D01*
X-105713Y22976D01*
X-105765Y22981D01*
X-105815Y22997D01*
X-105886Y22995D01*
X-105957Y23003D01*
X-106008Y22992D01*
X-106060Y22990D01*
X-106128Y22966D01*
X-106198Y22950D01*
X-106243Y22924D01*
X-106291Y22906D01*
X-106347Y22861D01*
X-106409Y22824D01*
X-106443Y22785D01*
X-106483Y22752D01*
X-106522Y22692D01*
X-106569Y22637D01*
X-106588Y22589D01*
X-106616Y22545D01*
X-106634Y22476D01*
X-106661Y22409D01*
X-106669Y22338D01*
X-106677Y22307D01*
X-106675Y22283D01*
X-106679Y22243D01*
X-106679Y6531D01*
X-106665Y6441D01*
X-106657Y6350D01*
X-106645Y6320D01*
X-106640Y6288D01*
X-106597Y6208D01*
X-106561Y6124D01*
X-106535Y6092D01*
X-106524Y6071D01*
X-106501Y6049D01*
X-106456Y5993D01*
X-90924Y-9540D01*
X-90850Y-9593D01*
X-90780Y-9652D01*
X-90750Y-9665D01*
X-90724Y-9683D01*
X-90637Y-9710D01*
X-90552Y-9744D01*
X-90511Y-9749D01*
X-90489Y-9756D01*
X-90457Y-9755D01*
X-90385Y-9763D01*
X-88613Y-9763D01*
X-85963Y-12413D01*
X-85963Y-14963D01*
X-85957Y-15001D01*
X-85959Y-15039D01*
X-85937Y-15121D01*
X-85923Y-15205D01*
X-85905Y-15240D01*
X-85895Y-15277D01*
X-85848Y-15348D01*
X-85808Y-15423D01*
X-85780Y-15449D01*
X-85758Y-15482D01*
X-85691Y-15534D01*
X-85630Y-15592D01*
X-85594Y-15608D01*
X-85564Y-15632D01*
X-85484Y-15660D01*
X-85407Y-15696D01*
X-85368Y-15700D01*
X-85332Y-15713D01*
X-85246Y-15713D01*
X-85162Y-15723D01*
X-85124Y-15715D01*
X-85086Y-15715D01*
X-84924Y-15671D01*
X-84922Y-15671D01*
X-83772Y-15220D01*
X-83742Y-15202D01*
X-83709Y-15192D01*
X-83637Y-15140D01*
X-83561Y-15094D01*
X-83538Y-15068D01*
X-83510Y-15048D01*
X-83461Y-14985D01*
X-82833Y-14842D01*
X-82802Y-14830D01*
X-82724Y-14809D01*
X-82128Y-14575D01*
X-82057Y-14587D01*
X-81971Y-14608D01*
X-81937Y-14606D01*
X-81902Y-14611D01*
X-81736Y-14592D01*
X-79587Y-14103D01*
X-79555Y-14089D01*
X-79520Y-14084D01*
X-79441Y-14043D01*
X-79359Y-14010D01*
X-79332Y-13987D01*
X-79302Y-13971D01*
X-79244Y-13917D01*
X-78602Y-13869D01*
X-78570Y-13862D01*
X-78489Y-13852D01*
X-77865Y-13710D01*
X-77797Y-13732D01*
X-77715Y-13766D01*
X-77680Y-13769D01*
X-77647Y-13780D01*
X-77479Y-13786D01*
X-75281Y-13622D01*
X-75248Y-13613D01*
X-75213Y-13613D01*
X-75128Y-13585D01*
X-75042Y-13564D01*
X-75013Y-13545D01*
X-74980Y-13534D01*
X-74914Y-13489D01*
X-74273Y-13538D01*
X-74240Y-13535D01*
X-74159Y-13538D01*
X-73520Y-13490D01*
X-73456Y-13522D01*
X-73380Y-13568D01*
X-73346Y-13576D01*
X-73315Y-13591D01*
X-73150Y-13622D01*
X-70952Y-13788D01*
X-70918Y-13785D01*
X-70883Y-13790D01*
X-70796Y-13774D01*
X-70707Y-13766D01*
X-70675Y-13752D01*
X-70641Y-13746D01*
X-70570Y-13712D01*
X-69942Y-13855D01*
X-69909Y-13857D01*
X-69830Y-13872D01*
X-69191Y-13920D01*
X-69133Y-13961D01*
X-69064Y-14018D01*
X-69032Y-14031D01*
X-69004Y-14051D01*
X-68845Y-14106D01*
X-66696Y-14597D01*
X-66662Y-14599D01*
X-66629Y-14609D01*
X-66540Y-14607D01*
X-66451Y-14613D01*
X-66417Y-14604D01*
X-66383Y-14603D01*
X-66307Y-14579D01*
X-65708Y-14814D01*
X-65676Y-14821D01*
X-65599Y-14848D01*
X-64975Y-14991D01*
X-64923Y-15040D01*
X-64864Y-15107D01*
X-64834Y-15124D01*
X-64809Y-15148D01*
X-64660Y-15226D01*
X-62609Y-16032D01*
X-62575Y-16039D01*
X-62544Y-16054D01*
X-62455Y-16065D01*
X-62368Y-16084D01*
X-62334Y-16080D01*
X-62299Y-16084D01*
X-62221Y-16072D01*
X-61664Y-16394D01*
X-61633Y-16406D01*
X-61561Y-16443D01*
X-60965Y-16678D01*
X-60921Y-16734D01*
X-60873Y-16809D01*
X-60846Y-16830D01*
X-60824Y-16858D01*
X-60689Y-16957D01*
X-58781Y-18060D01*
X-58748Y-18072D01*
X-58719Y-18092D01*
X-58634Y-18115D01*
X-58551Y-18147D01*
X-58516Y-18148D01*
X-58482Y-18157D01*
X-58403Y-18157D01*
X-57900Y-18559D01*
X-57871Y-18575D01*
X-57845Y-18594D01*
X-57836Y-18601D01*
X-57833Y-18603D01*
X-57806Y-18623D01*
X-57252Y-18943D01*
X-57216Y-19006D01*
X-57180Y-19087D01*
X-57156Y-19112D01*
X-57139Y-19142D01*
X-57020Y-19261D01*
X-55297Y-20636D01*
X-55267Y-20653D01*
X-55242Y-20676D01*
X-55161Y-20712D01*
X-55083Y-20756D01*
X-55049Y-20762D01*
X-55017Y-20777D01*
X-54939Y-20788D01*
X-54501Y-21260D01*
X-54475Y-21280D01*
X-54418Y-21338D01*
X-53917Y-21737D01*
X-53892Y-21804D01*
X-53868Y-21890D01*
X-53848Y-21918D01*
X-53836Y-21951D01*
X-53736Y-22086D01*
X-52237Y-23702D01*
X-52210Y-23723D01*
X-52188Y-23750D01*
X-52113Y-23798D01*
X-52043Y-23853D01*
X-52010Y-23864D01*
X-51981Y-23883D01*
X-51905Y-23906D01*
X-51543Y-24438D01*
X-51520Y-24462D01*
X-51472Y-24527D01*
X-51036Y-24997D01*
X-51021Y-25067D01*
X-51010Y-25155D01*
X-50995Y-25186D01*
X-50988Y-25220D01*
X-50909Y-25368D01*
X-49734Y-27093D01*
X-49690Y-27139D01*
X-49655Y-27191D01*
X-49606Y-27227D01*
X-49564Y-27271D01*
X-49522Y-27293D01*
X-49282Y-27711D01*
X-49270Y-27725D01*
X-49263Y-27742D01*
X-49192Y-27820D01*
X-49126Y-27901D01*
X-49110Y-27911D01*
X-49098Y-27925D01*
X-49007Y-27976D01*
X-48918Y-28032D01*
X-48900Y-28036D01*
X-48884Y-28045D01*
X-48780Y-28065D01*
X-48678Y-28090D01*
X-48660Y-28088D01*
X-48642Y-28092D01*
X-48538Y-28077D01*
X-48433Y-28068D01*
X-48417Y-28061D01*
X-48398Y-28058D01*
X-48245Y-27991D01*
X595Y-83D01*
X133817Y-76210D01*
X133814Y-76221D01*
X133786Y-76287D01*
X133786Y-76316D01*
X133778Y-76343D01*
X133786Y-76415D01*
X133786Y-76486D01*
X133797Y-76512D01*
X133800Y-76541D01*
X133835Y-76603D01*
X133863Y-76669D01*
X133883Y-76689D01*
X133898Y-76714D01*
X133961Y-76766D01*
X133965Y-76772D01*
X133974Y-76777D01*
X133975Y-76778D01*
X134005Y-76808D01*
X134015Y-76812D01*
X134026Y-76820D01*
X150526Y-86320D01*
X150599Y-86344D01*
X150669Y-86375D01*
X150693Y-86376D01*
X150715Y-86383D01*
X150791Y-86377D01*
G37*
G36*
X-149209Y-86377D02*
X-149209Y-86377D01*
X-149132Y-86378D01*
X-149108Y-86369D01*
X-149087Y-86367D01*
X-149048Y-86347D01*
X-148976Y-86320D01*
X-132476Y-76820D01*
X-132454Y-76801D01*
X-132428Y-76789D01*
X-132394Y-76751D01*
X-132391Y-76749D01*
X-132388Y-76745D01*
X-132380Y-76736D01*
X-132327Y-76689D01*
X-132314Y-76663D01*
X-132295Y-76641D01*
X-132272Y-76574D01*
X-132241Y-76509D01*
X-132240Y-76480D01*
X-132230Y-76453D01*
X-132235Y-76382D01*
X-132232Y-76311D01*
X-132242Y-76284D01*
X-132244Y-76255D01*
X-132286Y-76164D01*
X-132301Y-76124D01*
X-132308Y-76116D01*
X-132314Y-76104D01*
X-132350Y-76052D01*
X-99994Y-57563D01*
X-99977Y-57549D01*
X-99958Y-57540D01*
X-99882Y-57472D01*
X-99803Y-57408D01*
X-99791Y-57389D01*
X-99776Y-57375D01*
X-99726Y-57286D01*
X-99671Y-57200D01*
X-99666Y-57179D01*
X-99656Y-57160D01*
X-99637Y-57060D01*
X-99613Y-56961D01*
X-99615Y-56940D01*
X-99611Y-56918D01*
X-99625Y-56818D01*
X-99633Y-56716D01*
X-99642Y-56696D01*
X-99645Y-56675D01*
X-99712Y-56521D01*
X-99825Y-56326D01*
X-99824Y-56317D01*
X-99838Y-56255D01*
X-99842Y-56192D01*
X-99871Y-56109D01*
X-99879Y-56077D01*
X-99888Y-56062D01*
X-99898Y-56034D01*
X-100803Y-54153D01*
X-100823Y-54125D01*
X-100835Y-54093D01*
X-100878Y-54042D01*
X-100903Y-54000D01*
X-100920Y-53985D01*
X-100944Y-53952D01*
X-100972Y-53931D01*
X-100994Y-53905D01*
X-101060Y-53860D01*
X-101249Y-53245D01*
X-101264Y-53215D01*
X-101291Y-53139D01*
X-101568Y-52562D01*
X-101562Y-52490D01*
X-101547Y-52403D01*
X-101552Y-52369D01*
X-101549Y-52334D01*
X-101581Y-52169D01*
X-102230Y-50063D01*
X-102245Y-50032D01*
X-102253Y-49998D01*
X-102300Y-49922D01*
X-102339Y-49843D01*
X-102364Y-49818D01*
X-102382Y-49788D01*
X-102440Y-49735D01*
X-102536Y-49098D01*
X-102546Y-49067D01*
X-102561Y-48987D01*
X-102750Y-48375D01*
X-102733Y-48305D01*
X-102705Y-48221D01*
X-102705Y-48186D01*
X-102697Y-48153D01*
X-102703Y-47985D01*
X-103031Y-45805D01*
X-103042Y-45772D01*
X-103044Y-45738D01*
X-103079Y-45656D01*
X-103106Y-45571D01*
X-103127Y-45543D01*
X-103141Y-45511D01*
X-103190Y-45449D01*
X-103190Y-44806D01*
X-103195Y-44773D01*
X-103198Y-44692D01*
X-103294Y-44059D01*
X-103267Y-43993D01*
X-103226Y-43913D01*
X-103221Y-43879D01*
X-103208Y-43847D01*
X-103190Y-43680D01*
X-103189Y-41476D01*
X-103194Y-41442D01*
X-103192Y-41407D01*
X-103214Y-41321D01*
X-103228Y-41233D01*
X-103245Y-41203D01*
X-103253Y-41169D01*
X-103293Y-41101D01*
X-103197Y-40464D01*
X-103197Y-40431D01*
X-103188Y-40351D01*
X-103188Y-39710D01*
X-103152Y-39649D01*
X-103100Y-39576D01*
X-103090Y-39543D01*
X-103072Y-39513D01*
X-103029Y-39351D01*
X-102700Y-37172D01*
X-102700Y-37137D01*
X-102693Y-37103D01*
X-102702Y-37015D01*
X-102703Y-36926D01*
X-102714Y-36893D01*
X-102718Y-36859D01*
X-102747Y-36785D01*
X-102557Y-36170D01*
X-102552Y-36137D01*
X-102532Y-36059D01*
X-102436Y-35426D01*
X-102391Y-35370D01*
X-102329Y-35306D01*
X-102314Y-35275D01*
X-102292Y-35248D01*
X-102225Y-35094D01*
X-101574Y-32988D01*
X-101570Y-32954D01*
X-101557Y-32922D01*
X-101553Y-32833D01*
X-101541Y-32745D01*
X-101547Y-32711D01*
X-101546Y-32676D01*
X-101563Y-32599D01*
X-101284Y-32019D01*
X-101275Y-31987D01*
X-101242Y-31913D01*
X-101053Y-31301D01*
X-101000Y-31253D01*
X-100929Y-31199D01*
X-100910Y-31170D01*
X-100884Y-31147D01*
X-100795Y-31005D01*
X-99838Y-29019D01*
X-99829Y-28986D01*
X-99811Y-28956D01*
X-99794Y-28869D01*
X-99769Y-28783D01*
X-99770Y-28749D01*
X-99763Y-28715D01*
X-99769Y-28636D01*
X-99523Y-28275D01*
X-99407Y-28104D01*
X-99393Y-28074D01*
X-99350Y-28005D01*
X-99072Y-27428D01*
X-99012Y-27389D01*
X-98934Y-27346D01*
X-98910Y-27321D01*
X-98881Y-27301D01*
X-98772Y-27174D01*
X-97530Y-25353D01*
X-97515Y-25322D01*
X-97494Y-25295D01*
X-97464Y-25211D01*
X-97426Y-25130D01*
X-97422Y-25096D01*
X-97410Y-25063D01*
X-97405Y-24984D01*
X-96967Y-24512D01*
X-96948Y-24485D01*
X-96896Y-24424D01*
X-96535Y-23895D01*
X-96470Y-23864D01*
X-96386Y-23834D01*
X-96359Y-23812D01*
X-96328Y-23797D01*
X-96201Y-23688D01*
X-96091Y-23570D01*
X-96088Y-23565D01*
X-96084Y-23561D01*
X-96020Y-23462D01*
X-95955Y-23365D01*
X-95954Y-23359D01*
X-95951Y-23354D01*
X-95922Y-23240D01*
X-95892Y-23127D01*
X-95892Y-23121D01*
X-95890Y-23116D01*
X-95900Y-23000D01*
X-95907Y-22882D01*
X-95909Y-22876D01*
X-95910Y-22871D01*
X-95955Y-22764D01*
X-96000Y-22654D01*
X-96004Y-22650D01*
X-96006Y-22644D01*
X-96111Y-22513D01*
X-117349Y-1275D01*
X-117349Y17290D01*
X-117360Y17360D01*
X-117362Y17432D01*
X-117380Y17481D01*
X-117388Y17532D01*
X-117422Y17596D01*
X-117447Y17663D01*
X-117479Y17704D01*
X-117504Y17750D01*
X-117556Y17799D01*
X-117600Y17855D01*
X-117644Y17883D01*
X-117682Y17919D01*
X-117747Y17949D01*
X-117807Y17988D01*
X-117858Y18001D01*
X-117905Y18023D01*
X-117976Y18031D01*
X-118046Y18048D01*
X-118098Y18044D01*
X-118149Y18050D01*
X-118220Y18034D01*
X-118291Y18029D01*
X-118339Y18009D01*
X-118390Y17997D01*
X-118451Y17961D01*
X-118517Y17933D01*
X-118573Y17888D01*
X-118601Y17871D01*
X-118616Y17854D01*
X-118648Y17828D01*
X-120363Y16113D01*
X-124112Y16113D01*
X-125365Y17366D01*
X-125439Y17419D01*
X-125508Y17478D01*
X-125538Y17491D01*
X-125565Y17509D01*
X-125651Y17536D01*
X-125736Y17570D01*
X-125777Y17575D01*
X-125800Y17582D01*
X-125832Y17581D01*
X-125903Y17589D01*
X-126675Y17589D01*
X-137705Y28619D01*
X-137705Y32602D01*
X-137708Y32621D01*
X-137706Y32641D01*
X-137728Y32742D01*
X-137745Y32844D01*
X-137754Y32862D01*
X-137759Y32881D01*
X-137812Y32970D01*
X-137860Y33062D01*
X-137874Y33075D01*
X-137885Y33092D01*
X-137963Y33160D01*
X-138038Y33231D01*
X-138056Y33239D01*
X-138072Y33252D01*
X-138168Y33291D01*
X-138261Y33335D01*
X-138281Y33337D01*
X-138300Y33344D01*
X-138466Y33363D01*
X-141849Y33363D01*
X-141856Y33368D01*
X-141957Y33393D01*
X-142055Y33423D01*
X-142075Y33423D01*
X-142095Y33428D01*
X-142198Y33420D01*
X-142301Y33417D01*
X-142320Y33410D01*
X-142340Y33409D01*
X-142435Y33368D01*
X-142450Y33363D01*
X-145909Y33363D01*
X-145980Y33351D01*
X-146051Y33349D01*
X-146100Y33331D01*
X-146152Y33323D01*
X-146215Y33289D01*
X-146282Y33265D01*
X-146323Y33232D01*
X-146369Y33208D01*
X-146418Y33156D01*
X-146474Y33111D01*
X-146502Y33067D01*
X-146538Y33030D01*
X-146568Y32965D01*
X-146607Y32904D01*
X-146620Y32854D01*
X-146642Y32807D01*
X-146650Y32735D01*
X-146667Y32666D01*
X-146663Y32614D01*
X-146669Y32562D01*
X-146654Y32492D01*
X-146648Y32421D01*
X-146628Y32373D01*
X-146617Y32322D01*
X-146580Y32260D01*
X-146552Y32194D01*
X-146507Y32138D01*
X-146491Y32111D01*
X-146473Y32095D01*
X-146447Y32063D01*
X-140244Y25860D01*
X-140170Y25807D01*
X-140100Y25747D01*
X-140070Y25735D01*
X-140044Y25716D01*
X-139957Y25690D01*
X-139872Y25655D01*
X-139831Y25651D01*
X-139809Y25644D01*
X-139777Y25645D01*
X-139705Y25637D01*
X-139661Y25637D01*
X-135064Y21039D01*
X-135064Y-4438D01*
X-170187Y-39561D01*
X-172547Y-39561D01*
X-172637Y-39576D01*
X-172728Y-39583D01*
X-172758Y-39596D01*
X-172790Y-39601D01*
X-172870Y-39644D01*
X-172954Y-39679D01*
X-172986Y-39705D01*
X-173007Y-39716D01*
X-173029Y-39739D01*
X-173085Y-39784D01*
X-174338Y-41037D01*
X-178087Y-41037D01*
X-180737Y-38387D01*
X-180737Y-34638D01*
X-178087Y-31988D01*
X-174338Y-31988D01*
X-173326Y-33000D01*
X-173310Y-33012D01*
X-173297Y-33027D01*
X-173210Y-33084D01*
X-173126Y-33144D01*
X-173107Y-33150D01*
X-173090Y-33160D01*
X-172990Y-33186D01*
X-172891Y-33216D01*
X-172871Y-33216D01*
X-172852Y-33220D01*
X-172749Y-33212D01*
X-172645Y-33210D01*
X-172626Y-33203D01*
X-172607Y-33201D01*
X-172512Y-33161D01*
X-172414Y-33125D01*
X-172398Y-33113D01*
X-172380Y-33105D01*
X-172249Y-33000D01*
X-141384Y-2135D01*
X-141331Y-2061D01*
X-141272Y-1992D01*
X-141259Y-1962D01*
X-141241Y-1935D01*
X-141214Y-1848D01*
X-141180Y-1764D01*
X-141175Y-1723D01*
X-141168Y-1700D01*
X-141169Y-1668D01*
X-141161Y-1597D01*
X-141161Y18198D01*
X-141176Y18288D01*
X-141183Y18379D01*
X-141196Y18409D01*
X-141201Y18441D01*
X-141244Y18522D01*
X-141279Y18605D01*
X-141305Y18638D01*
X-141316Y18658D01*
X-141339Y18680D01*
X-141384Y18736D01*
X-143973Y21325D01*
X-143973Y21369D01*
X-143988Y21459D01*
X-143995Y21550D01*
X-144008Y21580D01*
X-144013Y21612D01*
X-144056Y21693D01*
X-144091Y21777D01*
X-144117Y21809D01*
X-144128Y21829D01*
X-144151Y21852D01*
X-144196Y21907D01*
X-152455Y30167D01*
X-152455Y33725D01*
X-152470Y33815D01*
X-152477Y33906D01*
X-152490Y33935D01*
X-152495Y33967D01*
X-152538Y34048D01*
X-152573Y34132D01*
X-152599Y34164D01*
X-152610Y34185D01*
X-152633Y34207D01*
X-152671Y34254D01*
X-152671Y41019D01*
X-151778Y41912D01*
X-147470Y41912D01*
X-147463Y41907D01*
X-147362Y41882D01*
X-147263Y41852D01*
X-147243Y41852D01*
X-147224Y41847D01*
X-147121Y41855D01*
X-147018Y41858D01*
X-146999Y41865D01*
X-146979Y41866D01*
X-146884Y41907D01*
X-146869Y41912D01*
X-142469Y41912D01*
X-142462Y41907D01*
X-142361Y41882D01*
X-142262Y41852D01*
X-142242Y41852D01*
X-142223Y41847D01*
X-142120Y41855D01*
X-142017Y41858D01*
X-141998Y41865D01*
X-141978Y41866D01*
X-141883Y41907D01*
X-141868Y41912D01*
X-137469Y41912D01*
X-137460Y41907D01*
X-137360Y41881D01*
X-137261Y41851D01*
X-137241Y41852D01*
X-137222Y41847D01*
X-137118Y41855D01*
X-137015Y41857D01*
X-136996Y41864D01*
X-136976Y41866D01*
X-136882Y41906D01*
X-136865Y41912D01*
X-132466Y41912D01*
X-132459Y41907D01*
X-132358Y41882D01*
X-132259Y41852D01*
X-132239Y41852D01*
X-132220Y41847D01*
X-132117Y41855D01*
X-132014Y41858D01*
X-131995Y41865D01*
X-131975Y41866D01*
X-131880Y41907D01*
X-131865Y41912D01*
X-128398Y41912D01*
X-128379Y41915D01*
X-128359Y41913D01*
X-128258Y41935D01*
X-128156Y41952D01*
X-128138Y41961D01*
X-128119Y41966D01*
X-128030Y42019D01*
X-127938Y42067D01*
X-127925Y42081D01*
X-127908Y42092D01*
X-127840Y42170D01*
X-127769Y42245D01*
X-127761Y42263D01*
X-127748Y42279D01*
X-127709Y42375D01*
X-127665Y42468D01*
X-127663Y42488D01*
X-127656Y42507D01*
X-127637Y42673D01*
X-127637Y46121D01*
X-127632Y46128D01*
X-127607Y46229D01*
X-127577Y46328D01*
X-127577Y46348D01*
X-127572Y46367D01*
X-127580Y46470D01*
X-127583Y46573D01*
X-127590Y46592D01*
X-127591Y46612D01*
X-127632Y46707D01*
X-127637Y46722D01*
X-127637Y51121D01*
X-127632Y51130D01*
X-127606Y51230D01*
X-127576Y51329D01*
X-127577Y51349D01*
X-127572Y51368D01*
X-127580Y51472D01*
X-127582Y51575D01*
X-127589Y51594D01*
X-127591Y51614D01*
X-127631Y51708D01*
X-127637Y51725D01*
X-127637Y56124D01*
X-127632Y56131D01*
X-127607Y56232D01*
X-127577Y56331D01*
X-127577Y56351D01*
X-127572Y56370D01*
X-127580Y56473D01*
X-127583Y56576D01*
X-127590Y56595D01*
X-127591Y56615D01*
X-127632Y56710D01*
X-127637Y56725D01*
X-127637Y61125D01*
X-127632Y61132D01*
X-127607Y61233D01*
X-127577Y61332D01*
X-127577Y61352D01*
X-127572Y61371D01*
X-127580Y61474D01*
X-127583Y61577D01*
X-127590Y61596D01*
X-127591Y61616D01*
X-127632Y61711D01*
X-127637Y61726D01*
X-127637Y66126D01*
X-127632Y66133D01*
X-127607Y66234D01*
X-127577Y66333D01*
X-127577Y66353D01*
X-127572Y66372D01*
X-127580Y66475D01*
X-127583Y66578D01*
X-127590Y66597D01*
X-127591Y66617D01*
X-127632Y66712D01*
X-127637Y66727D01*
X-127637Y71126D01*
X-127632Y71135D01*
X-127606Y71235D01*
X-127576Y71334D01*
X-127577Y71354D01*
X-127572Y71373D01*
X-127580Y71477D01*
X-127582Y71580D01*
X-127589Y71599D01*
X-127591Y71619D01*
X-127631Y71713D01*
X-127637Y71730D01*
X-127637Y76129D01*
X-127632Y76136D01*
X-127610Y76224D01*
X-127603Y76239D01*
X-127601Y76255D01*
X-127577Y76336D01*
X-127577Y76356D01*
X-127572Y76375D01*
X-127579Y76459D01*
X-127576Y76484D01*
X-127581Y76507D01*
X-127583Y76581D01*
X-127590Y76600D01*
X-127591Y76620D01*
X-127620Y76688D01*
X-127628Y76724D01*
X-127637Y76739D01*
X-127637Y81130D01*
X-127632Y81137D01*
X-127607Y81238D01*
X-127577Y81337D01*
X-127577Y81357D01*
X-127572Y81376D01*
X-127580Y81479D01*
X-127583Y81582D01*
X-127590Y81601D01*
X-127591Y81621D01*
X-127632Y81716D01*
X-127637Y81731D01*
X-127637Y86131D01*
X-127632Y86138D01*
X-127607Y86239D01*
X-127577Y86338D01*
X-127577Y86358D01*
X-127572Y86377D01*
X-127580Y86480D01*
X-127583Y86583D01*
X-127590Y86602D01*
X-127591Y86622D01*
X-127632Y86717D01*
X-127637Y86732D01*
X-127637Y91131D01*
X-127632Y91140D01*
X-127606Y91240D01*
X-127576Y91339D01*
X-127577Y91359D01*
X-127572Y91378D01*
X-127580Y91482D01*
X-127582Y91585D01*
X-127589Y91604D01*
X-127591Y91624D01*
X-127631Y91718D01*
X-127637Y91735D01*
X-127637Y96134D01*
X-127632Y96141D01*
X-127607Y96242D01*
X-127577Y96341D01*
X-127577Y96361D01*
X-127572Y96380D01*
X-127580Y96483D01*
X-127583Y96586D01*
X-127590Y96605D01*
X-127591Y96625D01*
X-127632Y96720D01*
X-127637Y96735D01*
X-127637Y100202D01*
X-127640Y100221D01*
X-127638Y100241D01*
X-127660Y100342D01*
X-127677Y100444D01*
X-127686Y100462D01*
X-127691Y100481D01*
X-127744Y100570D01*
X-127792Y100662D01*
X-127806Y100675D01*
X-127817Y100692D01*
X-127895Y100760D01*
X-127970Y100831D01*
X-127988Y100839D01*
X-128004Y100852D01*
X-128100Y100891D01*
X-128193Y100935D01*
X-128213Y100937D01*
X-128232Y100944D01*
X-128398Y100963D01*
X-131846Y100963D01*
X-131853Y100968D01*
X-131954Y100993D01*
X-132053Y101023D01*
X-132073Y101023D01*
X-132092Y101028D01*
X-132195Y101020D01*
X-132298Y101017D01*
X-132317Y101010D01*
X-132337Y101009D01*
X-132432Y100968D01*
X-132447Y100963D01*
X-136846Y100963D01*
X-136855Y100968D01*
X-136955Y100994D01*
X-137054Y101024D01*
X-137074Y101023D01*
X-137093Y101028D01*
X-137197Y101020D01*
X-137300Y101018D01*
X-137319Y101011D01*
X-137339Y101009D01*
X-137433Y100969D01*
X-137450Y100963D01*
X-141849Y100963D01*
X-141856Y100968D01*
X-141957Y100993D01*
X-142056Y101023D01*
X-142076Y101023D01*
X-142095Y101028D01*
X-142198Y101020D01*
X-142301Y101017D01*
X-142320Y101010D01*
X-142340Y101009D01*
X-142435Y100968D01*
X-142450Y100963D01*
X-146850Y100963D01*
X-146857Y100968D01*
X-146958Y100993D01*
X-147057Y101023D01*
X-147077Y101023D01*
X-147096Y101028D01*
X-147199Y101020D01*
X-147302Y101017D01*
X-147321Y101010D01*
X-147341Y101009D01*
X-147436Y100968D01*
X-147451Y100963D01*
X-151851Y100963D01*
X-151858Y100968D01*
X-151959Y100993D01*
X-152058Y101023D01*
X-152078Y101023D01*
X-152097Y101028D01*
X-152200Y101020D01*
X-152303Y101017D01*
X-152322Y101010D01*
X-152342Y101009D01*
X-152437Y100968D01*
X-152452Y100963D01*
X-156377Y100963D01*
X-156467Y100948D01*
X-156558Y100941D01*
X-156588Y100928D01*
X-156620Y100923D01*
X-156700Y100880D01*
X-156784Y100845D01*
X-156816Y100819D01*
X-156837Y100808D01*
X-156859Y100785D01*
X-156915Y100740D01*
X-157961Y99694D01*
X-172239Y99694D01*
X-173285Y100740D01*
X-173359Y100793D01*
X-173428Y100852D01*
X-173458Y100865D01*
X-173485Y100883D01*
X-173572Y100910D01*
X-173656Y100944D01*
X-173697Y100949D01*
X-173720Y100956D01*
X-173752Y100955D01*
X-173823Y100963D01*
X-176856Y100963D01*
X-176865Y100968D01*
X-176965Y100994D01*
X-177064Y101024D01*
X-177084Y101023D01*
X-177103Y101028D01*
X-177207Y101020D01*
X-177310Y101018D01*
X-177329Y101011D01*
X-177349Y101009D01*
X-177443Y100969D01*
X-177460Y100963D01*
X-181859Y100963D01*
X-181866Y100968D01*
X-181967Y100993D01*
X-182066Y101023D01*
X-182086Y101023D01*
X-182105Y101028D01*
X-182208Y101020D01*
X-182311Y101017D01*
X-182330Y101010D01*
X-182350Y101009D01*
X-182445Y100968D01*
X-182460Y100963D01*
X-185927Y100963D01*
X-185946Y100960D01*
X-185966Y100962D01*
X-186067Y100940D01*
X-186169Y100923D01*
X-186187Y100914D01*
X-186206Y100909D01*
X-186295Y100856D01*
X-186387Y100808D01*
X-186400Y100794D01*
X-186417Y100783D01*
X-186485Y100705D01*
X-186556Y100630D01*
X-186564Y100612D01*
X-186577Y100596D01*
X-186616Y100500D01*
X-186660Y100407D01*
X-186662Y100387D01*
X-186669Y100368D01*
X-186688Y100202D01*
X-186688Y96754D01*
X-186693Y96747D01*
X-186718Y96646D01*
X-186748Y96547D01*
X-186748Y96527D01*
X-186753Y96508D01*
X-186745Y96405D01*
X-186742Y96302D01*
X-186735Y96283D01*
X-186734Y96263D01*
X-186693Y96168D01*
X-186688Y96153D01*
X-186688Y91754D01*
X-186693Y91745D01*
X-186719Y91645D01*
X-186749Y91546D01*
X-186748Y91526D01*
X-186753Y91507D01*
X-186745Y91403D01*
X-186743Y91300D01*
X-186736Y91281D01*
X-186734Y91261D01*
X-186694Y91167D01*
X-186688Y91150D01*
X-186688Y86751D01*
X-186693Y86744D01*
X-186718Y86643D01*
X-186748Y86544D01*
X-186748Y86524D01*
X-186753Y86505D01*
X-186745Y86402D01*
X-186742Y86299D01*
X-186735Y86280D01*
X-186734Y86260D01*
X-186693Y86165D01*
X-186688Y86150D01*
X-186688Y81750D01*
X-186693Y81743D01*
X-186718Y81642D01*
X-186748Y81543D01*
X-186748Y81523D01*
X-186753Y81504D01*
X-186745Y81401D01*
X-186742Y81298D01*
X-186735Y81279D01*
X-186734Y81259D01*
X-186693Y81164D01*
X-186688Y81149D01*
X-186688Y76749D01*
X-186693Y76742D01*
X-186709Y76678D01*
X-186722Y76649D01*
X-186726Y76617D01*
X-186748Y76542D01*
X-186748Y76522D01*
X-186753Y76503D01*
X-186747Y76426D01*
X-186749Y76405D01*
X-186744Y76383D01*
X-186742Y76297D01*
X-186735Y76278D01*
X-186734Y76258D01*
X-186700Y76178D01*
X-186697Y76165D01*
X-186689Y76152D01*
X-186688Y76148D01*
X-186688Y71749D01*
X-186693Y71740D01*
X-186719Y71640D01*
X-186749Y71541D01*
X-186748Y71521D01*
X-186753Y71502D01*
X-186745Y71398D01*
X-186743Y71295D01*
X-186736Y71276D01*
X-186734Y71256D01*
X-186694Y71162D01*
X-186688Y71145D01*
X-186688Y66746D01*
X-186693Y66739D01*
X-186718Y66638D01*
X-186748Y66539D01*
X-186748Y66519D01*
X-186753Y66500D01*
X-186745Y66397D01*
X-186742Y66294D01*
X-186735Y66275D01*
X-186734Y66255D01*
X-186693Y66160D01*
X-186688Y66145D01*
X-186688Y61745D01*
X-186693Y61738D01*
X-186718Y61637D01*
X-186748Y61538D01*
X-186748Y61518D01*
X-186753Y61499D01*
X-186745Y61396D01*
X-186742Y61293D01*
X-186735Y61274D01*
X-186734Y61254D01*
X-186693Y61159D01*
X-186688Y61144D01*
X-186688Y56744D01*
X-186693Y56737D01*
X-186718Y56636D01*
X-186748Y56537D01*
X-186748Y56517D01*
X-186753Y56498D01*
X-186745Y56395D01*
X-186742Y56292D01*
X-186735Y56273D01*
X-186734Y56253D01*
X-186693Y56158D01*
X-186688Y56143D01*
X-186688Y51744D01*
X-186693Y51735D01*
X-186719Y51635D01*
X-186749Y51536D01*
X-186748Y51516D01*
X-186753Y51497D01*
X-186745Y51393D01*
X-186743Y51290D01*
X-186736Y51271D01*
X-186734Y51251D01*
X-186694Y51157D01*
X-186688Y51140D01*
X-186688Y46741D01*
X-186693Y46734D01*
X-186718Y46633D01*
X-186748Y46534D01*
X-186748Y46514D01*
X-186753Y46495D01*
X-186745Y46392D01*
X-186742Y46289D01*
X-186735Y46270D01*
X-186734Y46250D01*
X-186693Y46155D01*
X-186688Y46140D01*
X-186688Y42673D01*
X-186685Y42654D01*
X-186687Y42634D01*
X-186665Y42533D01*
X-186648Y42431D01*
X-186639Y42413D01*
X-186634Y42394D01*
X-186581Y42305D01*
X-186533Y42213D01*
X-186519Y42200D01*
X-186508Y42183D01*
X-186430Y42115D01*
X-186355Y42044D01*
X-186337Y42036D01*
X-186321Y42023D01*
X-186225Y41984D01*
X-186132Y41940D01*
X-186112Y41938D01*
X-186093Y41931D01*
X-185927Y41912D01*
X-182479Y41912D01*
X-182472Y41907D01*
X-182371Y41882D01*
X-182273Y41852D01*
X-182253Y41852D01*
X-182233Y41847D01*
X-182130Y41855D01*
X-182027Y41858D01*
X-182008Y41865D01*
X-181988Y41866D01*
X-181893Y41907D01*
X-181878Y41912D01*
X-177479Y41912D01*
X-177470Y41907D01*
X-177370Y41881D01*
X-177271Y41851D01*
X-177251Y41852D01*
X-177232Y41847D01*
X-177128Y41855D01*
X-177025Y41857D01*
X-177006Y41864D01*
X-176986Y41866D01*
X-176892Y41906D01*
X-176875Y41912D01*
X-172476Y41912D01*
X-172469Y41907D01*
X-172368Y41882D01*
X-172269Y41852D01*
X-172249Y41852D01*
X-172230Y41847D01*
X-172127Y41855D01*
X-172024Y41858D01*
X-172005Y41865D01*
X-171985Y41866D01*
X-171890Y41907D01*
X-171875Y41912D01*
X-167475Y41912D01*
X-167468Y41907D01*
X-167367Y41882D01*
X-167268Y41852D01*
X-167248Y41852D01*
X-167229Y41847D01*
X-167126Y41855D01*
X-167023Y41858D01*
X-167004Y41865D01*
X-166984Y41866D01*
X-166889Y41907D01*
X-166874Y41912D01*
X-162474Y41912D01*
X-162467Y41907D01*
X-162366Y41882D01*
X-162267Y41852D01*
X-162247Y41852D01*
X-162228Y41847D01*
X-162125Y41855D01*
X-162022Y41858D01*
X-162003Y41865D01*
X-161983Y41866D01*
X-161888Y41907D01*
X-161873Y41912D01*
X-157546Y41912D01*
X-156653Y41019D01*
X-156653Y39254D01*
X-156638Y39164D01*
X-156631Y39072D01*
X-156618Y39043D01*
X-156615Y39021D01*
X-156615Y22199D01*
X-160002Y18811D01*
X-160055Y18737D01*
X-160115Y18668D01*
X-160127Y18638D01*
X-160146Y18611D01*
X-160173Y18524D01*
X-160207Y18440D01*
X-160211Y18399D01*
X-160218Y18376D01*
X-160217Y18344D01*
X-160225Y18273D01*
X-160225Y-3369D01*
X-161118Y-4262D01*
X-162653Y-4262D01*
X-162724Y-4274D01*
X-162795Y-4276D01*
X-162844Y-4294D01*
X-162896Y-4302D01*
X-162959Y-4335D01*
X-163026Y-4360D01*
X-163067Y-4393D01*
X-163113Y-4417D01*
X-163162Y-4469D01*
X-163218Y-4514D01*
X-163247Y-4558D01*
X-163282Y-4595D01*
X-163313Y-4660D01*
X-163351Y-4721D01*
X-163364Y-4771D01*
X-163386Y-4818D01*
X-163394Y-4890D01*
X-163411Y-4959D01*
X-163407Y-5011D01*
X-163413Y-5063D01*
X-163398Y-5133D01*
X-163392Y-5205D01*
X-163372Y-5252D01*
X-163361Y-5303D01*
X-163324Y-5365D01*
X-163296Y-5431D01*
X-163251Y-5487D01*
X-163235Y-5514D01*
X-163217Y-5530D01*
X-163191Y-5562D01*
X-163000Y-5753D01*
X-163000Y-10122D01*
X-166090Y-13212D01*
X-170460Y-13212D01*
X-173550Y-10122D01*
X-173550Y-5753D01*
X-173359Y-5562D01*
X-173317Y-5504D01*
X-173268Y-5452D01*
X-173246Y-5404D01*
X-173215Y-5362D01*
X-173194Y-5294D01*
X-173164Y-5228D01*
X-173158Y-5177D01*
X-173143Y-5127D01*
X-173145Y-5055D01*
X-173137Y-4984D01*
X-173148Y-4933D01*
X-173149Y-4881D01*
X-173174Y-4814D01*
X-173189Y-4744D01*
X-173216Y-4699D01*
X-173234Y-4650D01*
X-173279Y-4594D01*
X-173315Y-4533D01*
X-173355Y-4499D01*
X-173387Y-4458D01*
X-173448Y-4419D01*
X-173502Y-4373D01*
X-173551Y-4353D01*
X-173594Y-4325D01*
X-173664Y-4308D01*
X-173730Y-4281D01*
X-173802Y-4273D01*
X-173833Y-4265D01*
X-173856Y-4267D01*
X-173897Y-4262D01*
X-175382Y-4262D01*
X-176275Y-3369D01*
X-176275Y1713D01*
X-176286Y1784D01*
X-176288Y1856D01*
X-176306Y1905D01*
X-176314Y1956D01*
X-176348Y2019D01*
X-176373Y2087D01*
X-176405Y2128D01*
X-176430Y2174D01*
X-176481Y2223D01*
X-176526Y2279D01*
X-176570Y2307D01*
X-176608Y2343D01*
X-176673Y2373D01*
X-176733Y2412D01*
X-176784Y2425D01*
X-176831Y2447D01*
X-176902Y2454D01*
X-176972Y2472D01*
X-177024Y2468D01*
X-177075Y2474D01*
X-177146Y2458D01*
X-177217Y2453D01*
X-177265Y2432D01*
X-177316Y2421D01*
X-177377Y2385D01*
X-177443Y2356D01*
X-177499Y2312D01*
X-177527Y2295D01*
X-177542Y2277D01*
X-177574Y2252D01*
X-202339Y-22513D01*
X-202343Y-22518D01*
X-202347Y-22521D01*
X-202415Y-22619D01*
X-202483Y-22713D01*
X-202484Y-22718D01*
X-202488Y-22723D01*
X-202521Y-22836D01*
X-202555Y-22948D01*
X-202555Y-22954D01*
X-202557Y-22959D01*
X-202552Y-23076D01*
X-202549Y-23194D01*
X-202547Y-23199D01*
X-202547Y-23205D01*
X-202505Y-23315D01*
X-202464Y-23425D01*
X-202461Y-23430D01*
X-202459Y-23435D01*
X-202359Y-23570D01*
X-202249Y-23688D01*
X-202222Y-23709D01*
X-202200Y-23736D01*
X-202125Y-23784D01*
X-202055Y-23839D01*
X-202022Y-23850D01*
X-201993Y-23869D01*
X-201917Y-23892D01*
X-201554Y-24424D01*
X-201532Y-24447D01*
X-201483Y-24512D01*
X-201048Y-24982D01*
X-201032Y-25052D01*
X-201021Y-25140D01*
X-201006Y-25171D01*
X-200999Y-25205D01*
X-200920Y-25353D01*
X-199678Y-27174D01*
X-199654Y-27199D01*
X-199636Y-27229D01*
X-199570Y-27288D01*
X-199508Y-27352D01*
X-199478Y-27368D01*
X-199451Y-27391D01*
X-199380Y-27426D01*
X-199100Y-28005D01*
X-199082Y-28032D01*
X-199043Y-28104D01*
X-198683Y-28633D01*
X-198678Y-28704D01*
X-198680Y-28793D01*
X-198670Y-28826D01*
X-198667Y-28861D01*
X-198612Y-29019D01*
X-197655Y-31005D01*
X-197635Y-31033D01*
X-197622Y-31065D01*
X-197565Y-31133D01*
X-197514Y-31206D01*
X-197486Y-31227D01*
X-197463Y-31253D01*
X-197398Y-31298D01*
X-197208Y-31913D01*
X-197200Y-31928D01*
X-197199Y-31933D01*
X-197192Y-31944D01*
X-197166Y-32019D01*
X-196888Y-32596D01*
X-196894Y-32667D01*
X-196909Y-32755D01*
X-196904Y-32789D01*
X-196907Y-32824D01*
X-196876Y-32988D01*
X-196225Y-35094D01*
X-196210Y-35125D01*
X-196202Y-35159D01*
X-196155Y-35235D01*
X-196116Y-35314D01*
X-196091Y-35339D01*
X-196073Y-35369D01*
X-196015Y-35422D01*
X-195918Y-36059D01*
X-195908Y-36090D01*
X-195893Y-36170D01*
X-195704Y-36782D01*
X-195721Y-36851D01*
X-195749Y-36936D01*
X-195749Y-36970D01*
X-195757Y-37004D01*
X-195750Y-37172D01*
X-195421Y-39351D01*
X-195410Y-39384D01*
X-195408Y-39419D01*
X-195373Y-39501D01*
X-195346Y-39585D01*
X-195325Y-39613D01*
X-195311Y-39645D01*
X-195262Y-39707D01*
X-195262Y-40351D01*
X-195256Y-40383D01*
X-195253Y-40464D01*
X-195157Y-41097D01*
X-195184Y-41164D01*
X-195225Y-41243D01*
X-195230Y-41277D01*
X-195243Y-41309D01*
X-195261Y-41476D01*
X-195260Y-43680D01*
X-195255Y-43715D01*
X-195257Y-43749D01*
X-195235Y-43835D01*
X-195221Y-43923D01*
X-195204Y-43954D01*
X-195196Y-43987D01*
X-195156Y-44056D01*
X-195252Y-44692D01*
X-195251Y-44725D01*
X-195260Y-44806D01*
X-195260Y-45446D01*
X-195296Y-45508D01*
X-195348Y-45580D01*
X-195358Y-45613D01*
X-195376Y-45643D01*
X-195419Y-45805D01*
X-195747Y-47985D01*
X-195746Y-48020D01*
X-195754Y-48054D01*
X-195745Y-48142D01*
X-195744Y-48231D01*
X-195732Y-48264D01*
X-195729Y-48298D01*
X-195699Y-48372D01*
X-195889Y-48987D01*
X-195893Y-49020D01*
X-195914Y-49098D01*
X-196009Y-49731D01*
X-196055Y-49787D01*
X-196117Y-49851D01*
X-196132Y-49882D01*
X-196154Y-49909D01*
X-196220Y-50063D01*
X-196869Y-52169D01*
X-196874Y-52204D01*
X-196887Y-52236D01*
X-196891Y-52325D01*
X-196903Y-52413D01*
X-196896Y-52447D01*
X-196898Y-52482D01*
X-196880Y-52559D01*
X-197159Y-53139D01*
X-197169Y-53171D01*
X-197201Y-53245D01*
X-197389Y-53857D01*
X-197411Y-53877D01*
X-197425Y-53884D01*
X-197452Y-53912D01*
X-197513Y-53959D01*
X-197533Y-53988D01*
X-197558Y-54011D01*
X-197583Y-54051D01*
X-197594Y-54063D01*
X-197605Y-54086D01*
X-197647Y-54153D01*
X-198552Y-56034D01*
X-198570Y-56094D01*
X-198597Y-56151D01*
X-198605Y-56212D01*
X-198622Y-56270D01*
X-198619Y-56333D01*
X-198627Y-56393D01*
X-198644Y-56438D01*
X-198644Y-56455D01*
X-198650Y-56472D01*
X-198649Y-56577D01*
X-198653Y-56683D01*
X-198648Y-56700D01*
X-198647Y-56718D01*
X-198613Y-56818D01*
X-198583Y-56919D01*
X-198573Y-56934D01*
X-198567Y-56950D01*
X-198502Y-57034D01*
X-198441Y-57120D01*
X-198427Y-57131D01*
X-198416Y-57145D01*
X-198282Y-57245D01*
X-166111Y-76068D01*
X-166136Y-76104D01*
X-166147Y-76131D01*
X-166166Y-76153D01*
X-166186Y-76221D01*
X-166214Y-76287D01*
X-166214Y-76316D01*
X-166222Y-76343D01*
X-166214Y-76415D01*
X-166215Y-76486D01*
X-166203Y-76512D01*
X-166200Y-76541D01*
X-166165Y-76603D01*
X-166137Y-76669D01*
X-166117Y-76689D01*
X-166102Y-76714D01*
X-166039Y-76766D01*
X-166035Y-76772D01*
X-166026Y-76777D01*
X-166025Y-76778D01*
X-165995Y-76808D01*
X-165985Y-76812D01*
X-165974Y-76820D01*
X-149474Y-86320D01*
X-149401Y-86344D01*
X-149331Y-86375D01*
X-149307Y-86376D01*
X-149285Y-86383D01*
X-149209Y-86377D01*
G37*
G36*
X-110742Y106081D02*
X-110742Y106081D01*
X-110671Y106086D01*
X-110623Y106106D01*
X-110572Y106118D01*
X-110510Y106154D01*
X-110444Y106182D01*
X-110388Y106227D01*
X-110361Y106244D01*
X-110345Y106262D01*
X-110313Y106287D01*
X-93569Y123032D01*
X-93516Y123106D01*
X-93456Y123175D01*
X-93444Y123205D01*
X-93425Y123232D01*
X-93398Y123319D01*
X-93364Y123403D01*
X-93360Y123444D01*
X-93353Y123467D01*
X-93354Y123499D01*
X-93346Y123570D01*
X-93346Y183469D01*
X-93360Y183559D01*
X-93368Y183650D01*
X-93380Y183680D01*
X-93385Y183712D01*
X-93428Y183792D01*
X-93464Y183876D01*
X-93490Y183908D01*
X-93501Y183929D01*
X-93524Y183951D01*
X-93569Y184007D01*
X-95012Y185451D01*
X-95012Y189199D01*
X-92362Y191850D01*
X-91066Y191850D01*
X-91019Y191857D01*
X-90971Y191856D01*
X-90898Y191877D01*
X-90824Y191889D01*
X-90781Y191912D01*
X-90735Y191926D01*
X-90673Y191969D01*
X-90606Y192005D01*
X-90573Y192039D01*
X-90534Y192067D01*
X-90489Y192128D01*
X-90437Y192183D01*
X-90417Y192227D01*
X-90388Y192265D01*
X-90365Y192337D01*
X-90333Y192406D01*
X-90328Y192454D01*
X-90313Y192500D01*
X-90314Y192575D01*
X-90306Y192650D01*
X-90316Y192697D01*
X-90317Y192746D01*
X-90342Y192817D01*
X-90358Y192891D01*
X-90383Y192932D01*
X-90399Y192977D01*
X-90446Y193037D01*
X-90485Y193102D01*
X-90521Y193133D01*
X-90551Y193171D01*
X-90654Y193247D01*
X-90671Y193262D01*
X-90678Y193264D01*
X-90686Y193270D01*
X-91183Y193557D01*
X-91219Y193620D01*
X-91255Y193701D01*
X-91279Y193726D01*
X-91296Y193756D01*
X-91415Y193875D01*
X-93138Y195248D01*
X-93169Y195265D01*
X-93194Y195289D01*
X-93276Y195325D01*
X-93353Y195369D01*
X-93387Y195375D01*
X-93419Y195389D01*
X-93497Y195401D01*
X-93935Y195873D01*
X-93961Y195893D01*
X-94019Y195950D01*
X-94519Y196349D01*
X-94545Y196416D01*
X-94569Y196502D01*
X-94589Y196530D01*
X-94601Y196563D01*
X-94701Y196697D01*
X-96201Y198313D01*
X-96228Y198334D01*
X-96250Y198361D01*
X-96325Y198409D01*
X-96395Y198464D01*
X-96428Y198475D01*
X-96457Y198494D01*
X-96533Y198517D01*
X-96896Y199049D01*
X-96918Y199072D01*
X-96967Y199137D01*
X-97402Y199607D01*
X-97418Y199677D01*
X-97429Y199765D01*
X-97444Y199796D01*
X-97451Y199830D01*
X-97530Y199978D01*
X-98772Y201799D01*
X-98796Y201824D01*
X-98814Y201854D01*
X-98880Y201913D01*
X-98942Y201977D01*
X-98972Y201993D01*
X-98999Y202016D01*
X-99070Y202051D01*
X-99350Y202630D01*
X-99368Y202657D01*
X-99407Y202729D01*
X-99767Y203258D01*
X-99772Y203329D01*
X-99770Y203418D01*
X-99780Y203451D01*
X-99783Y203486D01*
X-99838Y203644D01*
X-100795Y205630D01*
X-100815Y205658D01*
X-100828Y205690D01*
X-100885Y205758D01*
X-100936Y205831D01*
X-100964Y205852D01*
X-100987Y205878D01*
X-101052Y205923D01*
X-101242Y206538D01*
X-101257Y206568D01*
X-101284Y206644D01*
X-101562Y207221D01*
X-101556Y207292D01*
X-101541Y207380D01*
X-101546Y207412D01*
X-101545Y207419D01*
X-101545Y207421D01*
X-101543Y207449D01*
X-101574Y207613D01*
X-102225Y209719D01*
X-102240Y209750D01*
X-102248Y209784D01*
X-102295Y209860D01*
X-102334Y209939D01*
X-102359Y209964D01*
X-102377Y209994D01*
X-102435Y210047D01*
X-102532Y210684D01*
X-102542Y210715D01*
X-102557Y210795D01*
X-102746Y211407D01*
X-102729Y211476D01*
X-102701Y211561D01*
X-102701Y211595D01*
X-102693Y211629D01*
X-102700Y211797D01*
X-103029Y213976D01*
X-103040Y214009D01*
X-103042Y214044D01*
X-103077Y214126D01*
X-103104Y214210D01*
X-103125Y214238D01*
X-103139Y214270D01*
X-103188Y214332D01*
X-103188Y214976D01*
X-103194Y215008D01*
X-103194Y215013D01*
X-103192Y215031D01*
X-103195Y215047D01*
X-103197Y215089D01*
X-103293Y215722D01*
X-103266Y215789D01*
X-103225Y215868D01*
X-103220Y215902D01*
X-103207Y215934D01*
X-103189Y216101D01*
X-103190Y218305D01*
X-103195Y218339D01*
X-103193Y218374D01*
X-103215Y218460D01*
X-103229Y218548D01*
X-103246Y218579D01*
X-103254Y218612D01*
X-103294Y218681D01*
X-103198Y219317D01*
X-103199Y219350D01*
X-103190Y219431D01*
X-103190Y220071D01*
X-103154Y220133D01*
X-103102Y220205D01*
X-103092Y220238D01*
X-103074Y220268D01*
X-103031Y220430D01*
X-102703Y222610D01*
X-102704Y222645D01*
X-102696Y222679D01*
X-102705Y222767D01*
X-102706Y222856D01*
X-102718Y222889D01*
X-102721Y222923D01*
X-102751Y222997D01*
X-102561Y223612D01*
X-102557Y223645D01*
X-102536Y223723D01*
X-102441Y224356D01*
X-102395Y224412D01*
X-102333Y224476D01*
X-102318Y224507D01*
X-102296Y224534D01*
X-102230Y224688D01*
X-101581Y226794D01*
X-101576Y226829D01*
X-101563Y226861D01*
X-101559Y226950D01*
X-101547Y227038D01*
X-101554Y227072D01*
X-101552Y227107D01*
X-101570Y227184D01*
X-101291Y227764D01*
X-101281Y227796D01*
X-101249Y227870D01*
X-101061Y228482D01*
X-101008Y228530D01*
X-100937Y228584D01*
X-100917Y228613D01*
X-100892Y228636D01*
X-100803Y228778D01*
X-100163Y230108D01*
X-100130Y230219D01*
X-100095Y230329D01*
X-100096Y230336D01*
X-100094Y230344D01*
X-100098Y230460D01*
X-100100Y230575D01*
X-100103Y230582D01*
X-100103Y230589D01*
X-100144Y230698D01*
X-100183Y230807D01*
X-100188Y230812D01*
X-100190Y230819D01*
X-100264Y230909D01*
X-100335Y231000D01*
X-100342Y231005D01*
X-100346Y231010D01*
X-100364Y231021D01*
X-100471Y231098D01*
X-133012Y249718D01*
X-132314Y250729D01*
X-132303Y250756D01*
X-132284Y250778D01*
X-132264Y250846D01*
X-132236Y250912D01*
X-132236Y250941D01*
X-132228Y250968D01*
X-132236Y251040D01*
X-132236Y251111D01*
X-132247Y251137D01*
X-132250Y251166D01*
X-132285Y251228D01*
X-132313Y251294D01*
X-132333Y251314D01*
X-132348Y251339D01*
X-132425Y251403D01*
X-132455Y251433D01*
X-132465Y251437D01*
X-132476Y251445D01*
X-148976Y260945D01*
X-149049Y260969D01*
X-149119Y261000D01*
X-149143Y261001D01*
X-149165Y261008D01*
X-149241Y261002D01*
X-149318Y261003D01*
X-149342Y260994D01*
X-149363Y260992D01*
X-149402Y260972D01*
X-149474Y260945D01*
X-165974Y251445D01*
X-165996Y251426D01*
X-166022Y251414D01*
X-166070Y251361D01*
X-166123Y251314D01*
X-166136Y251288D01*
X-166155Y251266D01*
X-166178Y251199D01*
X-166209Y251134D01*
X-166211Y251105D01*
X-166220Y251078D01*
X-166215Y251012D01*
X-198589Y232414D01*
X-198605Y232401D01*
X-198624Y232393D01*
X-198699Y232324D01*
X-198779Y232259D01*
X-198790Y232241D01*
X-198806Y232227D01*
X-198856Y232138D01*
X-198911Y232051D01*
X-198915Y232031D01*
X-198925Y232013D01*
X-198944Y231911D01*
X-198969Y231812D01*
X-198967Y231791D01*
X-198971Y231771D01*
X-198961Y231703D01*
X-198961Y231700D01*
X-198959Y231691D01*
X-198956Y231669D01*
X-198947Y231567D01*
X-198939Y231548D01*
X-198936Y231527D01*
X-198911Y231471D01*
X-198909Y231460D01*
X-198900Y231444D01*
X-198869Y231374D01*
X-198625Y230951D01*
X-198626Y230942D01*
X-198612Y230880D01*
X-198608Y230817D01*
X-198579Y230734D01*
X-198571Y230702D01*
X-198564Y230689D01*
X-198562Y230686D01*
X-198552Y230659D01*
X-197647Y228778D01*
X-197627Y228750D01*
X-197615Y228718D01*
X-197557Y228650D01*
X-197506Y228577D01*
X-197478Y228556D01*
X-197456Y228530D01*
X-197390Y228485D01*
X-197201Y227870D01*
X-197186Y227840D01*
X-197159Y227764D01*
X-196882Y227187D01*
X-196888Y227115D01*
X-196903Y227028D01*
X-196898Y226994D01*
X-196901Y226959D01*
X-196869Y226794D01*
X-196220Y224688D01*
X-196205Y224657D01*
X-196197Y224623D01*
X-196151Y224547D01*
X-196111Y224468D01*
X-196086Y224443D01*
X-196068Y224413D01*
X-196010Y224360D01*
X-195914Y223723D01*
X-195904Y223692D01*
X-195889Y223612D01*
X-195700Y223000D01*
X-195717Y222931D01*
X-195745Y222846D01*
X-195745Y222811D01*
X-195753Y222778D01*
X-195747Y222610D01*
X-195419Y220430D01*
X-195408Y220397D01*
X-195406Y220363D01*
X-195371Y220281D01*
X-195344Y220196D01*
X-195323Y220168D01*
X-195309Y220136D01*
X-195260Y220074D01*
X-195260Y219431D01*
X-195255Y219398D01*
X-195252Y219317D01*
X-195156Y218684D01*
X-195183Y218617D01*
X-195224Y218538D01*
X-195229Y218504D01*
X-195242Y218472D01*
X-195260Y218305D01*
X-195261Y216101D01*
X-195256Y216067D01*
X-195258Y216032D01*
X-195236Y215946D01*
X-195222Y215858D01*
X-195205Y215828D01*
X-195197Y215794D01*
X-195157Y215726D01*
X-195253Y215089D01*
X-195253Y215056D01*
X-195262Y214976D01*
X-195262Y214335D01*
X-195298Y214273D01*
X-195350Y214201D01*
X-195360Y214168D01*
X-195378Y214138D01*
X-195421Y213976D01*
X-195750Y211797D01*
X-195750Y211762D01*
X-195758Y211728D01*
X-195748Y211640D01*
X-195747Y211551D01*
X-195736Y211518D01*
X-195732Y211484D01*
X-195703Y211410D01*
X-195893Y210795D01*
X-195898Y210762D01*
X-195918Y210684D01*
X-196014Y210051D01*
X-196059Y209995D01*
X-196121Y209931D01*
X-196136Y209900D01*
X-196158Y209873D01*
X-196225Y209719D01*
X-196876Y207613D01*
X-196880Y207579D01*
X-196893Y207547D01*
X-196897Y207458D01*
X-196909Y207370D01*
X-196905Y207345D01*
X-196905Y207340D01*
X-196903Y207330D01*
X-196904Y207301D01*
X-196887Y207224D01*
X-197166Y206644D01*
X-197175Y206612D01*
X-197208Y206538D01*
X-197397Y205926D01*
X-197450Y205878D01*
X-197521Y205824D01*
X-197540Y205795D01*
X-197566Y205772D01*
X-197655Y205630D01*
X-198612Y203644D01*
X-198622Y203611D01*
X-198639Y203581D01*
X-198656Y203494D01*
X-198681Y203408D01*
X-198680Y203374D01*
X-198687Y203340D01*
X-198681Y203261D01*
X-199043Y202729D01*
X-199057Y202699D01*
X-199100Y202630D01*
X-199378Y202053D01*
X-199438Y202014D01*
X-199516Y201971D01*
X-199540Y201946D01*
X-199569Y201926D01*
X-199678Y201799D01*
X-200772Y200195D01*
X-200920Y199978D01*
X-200935Y199947D01*
X-200956Y199920D01*
X-200986Y199836D01*
X-201024Y199755D01*
X-201028Y199721D01*
X-201040Y199688D01*
X-201045Y199609D01*
X-201483Y199137D01*
X-201502Y199110D01*
X-201554Y199049D01*
X-201915Y198520D01*
X-201980Y198489D01*
X-202064Y198459D01*
X-202091Y198437D01*
X-202122Y198422D01*
X-202249Y198313D01*
X-202359Y198195D01*
X-202362Y198190D01*
X-202366Y198186D01*
X-202430Y198088D01*
X-202495Y197990D01*
X-202496Y197984D01*
X-202499Y197979D01*
X-202528Y197866D01*
X-202558Y197752D01*
X-202558Y197746D01*
X-202560Y197741D01*
X-202550Y197624D01*
X-202543Y197507D01*
X-202541Y197501D01*
X-202540Y197496D01*
X-202495Y197388D01*
X-202450Y197279D01*
X-202446Y197274D01*
X-202444Y197269D01*
X-202339Y197138D01*
X-201801Y196600D01*
X-201801Y193586D01*
X-201798Y193566D01*
X-201800Y193547D01*
X-201778Y193445D01*
X-201762Y193343D01*
X-201752Y193326D01*
X-201748Y193306D01*
X-201695Y193217D01*
X-201646Y193126D01*
X-201632Y193112D01*
X-201622Y193095D01*
X-201543Y193028D01*
X-201468Y192956D01*
X-201450Y192948D01*
X-201435Y192935D01*
X-201339Y192896D01*
X-201245Y192853D01*
X-201225Y192851D01*
X-201207Y192843D01*
X-201040Y192825D01*
X-199580Y192825D01*
X-199561Y192828D01*
X-199541Y192826D01*
X-199440Y192848D01*
X-199338Y192864D01*
X-199320Y192874D01*
X-199301Y192878D01*
X-199212Y192931D01*
X-199120Y192980D01*
X-199107Y192994D01*
X-199090Y193004D01*
X-199022Y193083D01*
X-198951Y193158D01*
X-198943Y193176D01*
X-198930Y193191D01*
X-198891Y193287D01*
X-198847Y193381D01*
X-198845Y193401D01*
X-198838Y193419D01*
X-198819Y193586D01*
X-198819Y195148D01*
X-197585Y196382D01*
X-197532Y196456D01*
X-197473Y196526D01*
X-197460Y196556D01*
X-197442Y196582D01*
X-197415Y196669D01*
X-197381Y196754D01*
X-197376Y196795D01*
X-197369Y196817D01*
X-197370Y196849D01*
X-197362Y196921D01*
X-197362Y199035D01*
X-194272Y202125D01*
X-189903Y202125D01*
X-186813Y199035D01*
X-186813Y194665D01*
X-188354Y193124D01*
X-188365Y193108D01*
X-188381Y193096D01*
X-188437Y193008D01*
X-188497Y192924D01*
X-188503Y192905D01*
X-188514Y192889D01*
X-188539Y192788D01*
X-188570Y192689D01*
X-188569Y192669D01*
X-188574Y192650D01*
X-188566Y192547D01*
X-188563Y192443D01*
X-188556Y192425D01*
X-188555Y192405D01*
X-188515Y192310D01*
X-188479Y192212D01*
X-188466Y192197D01*
X-188459Y192179D01*
X-188354Y192048D01*
X-188238Y191932D01*
X-188238Y180668D01*
X-189131Y179775D01*
X-201040Y179775D01*
X-201060Y179772D01*
X-201079Y179774D01*
X-201181Y179752D01*
X-201283Y179736D01*
X-201300Y179726D01*
X-201320Y179722D01*
X-201409Y179669D01*
X-201500Y179620D01*
X-201514Y179606D01*
X-201531Y179596D01*
X-201598Y179517D01*
X-201670Y179442D01*
X-201678Y179424D01*
X-201691Y179409D01*
X-201730Y179313D01*
X-201773Y179219D01*
X-201775Y179199D01*
X-201783Y179181D01*
X-201801Y179014D01*
X-201801Y178879D01*
X-201798Y178860D01*
X-201800Y178840D01*
X-201778Y178739D01*
X-201762Y178637D01*
X-201752Y178619D01*
X-201748Y178600D01*
X-201695Y178511D01*
X-201646Y178419D01*
X-201632Y178406D01*
X-201622Y178389D01*
X-201543Y178321D01*
X-201468Y178250D01*
X-201450Y178242D01*
X-201435Y178229D01*
X-201339Y178190D01*
X-201245Y178146D01*
X-201225Y178144D01*
X-201207Y178137D01*
X-201040Y178118D01*
X-186536Y178118D01*
X-185234Y176817D01*
X-185221Y176807D01*
X-185211Y176794D01*
X-185121Y176735D01*
X-185034Y176673D01*
X-185019Y176668D01*
X-185005Y176659D01*
X-184901Y176632D01*
X-184799Y176601D01*
X-184783Y176601D01*
X-184767Y176597D01*
X-184660Y176604D01*
X-184553Y176607D01*
X-184538Y176613D01*
X-184521Y176614D01*
X-184423Y176655D01*
X-184322Y176692D01*
X-184309Y176702D01*
X-184294Y176708D01*
X-184162Y176812D01*
X-183397Y177564D01*
X-183395Y177566D01*
X-183392Y177569D01*
X-182835Y178125D01*
X-182047Y178118D01*
X-182044Y178119D01*
X-182040Y178118D01*
X-169073Y178118D01*
X-167957Y177002D01*
X-167957Y126047D01*
X-167954Y126028D01*
X-167956Y126008D01*
X-167934Y125907D01*
X-167917Y125805D01*
X-167908Y125787D01*
X-167903Y125768D01*
X-167850Y125679D01*
X-167802Y125587D01*
X-167788Y125574D01*
X-167777Y125557D01*
X-167699Y125489D01*
X-167624Y125418D01*
X-167606Y125410D01*
X-167590Y125397D01*
X-167494Y125358D01*
X-167401Y125314D01*
X-167381Y125312D01*
X-167362Y125305D01*
X-167196Y125286D01*
X-166598Y125286D01*
X-164589Y123277D01*
X-164462Y123150D01*
X-164404Y123109D01*
X-164352Y123059D01*
X-164304Y123037D01*
X-164262Y123007D01*
X-164194Y122986D01*
X-164128Y122955D01*
X-164077Y122950D01*
X-164027Y122934D01*
X-163955Y122936D01*
X-163884Y122928D01*
X-163833Y122939D01*
X-163781Y122941D01*
X-163714Y122965D01*
X-163644Y122981D01*
X-163599Y123007D01*
X-163550Y123025D01*
X-163494Y123070D01*
X-163433Y123107D01*
X-163399Y123146D01*
X-163358Y123179D01*
X-163319Y123239D01*
X-163273Y123294D01*
X-163253Y123342D01*
X-163225Y123386D01*
X-163207Y123455D01*
X-163181Y123522D01*
X-163173Y123593D01*
X-163165Y123624D01*
X-163167Y123648D01*
X-163162Y123689D01*
X-163162Y133044D01*
X-162269Y133937D01*
X-157006Y133937D01*
X-156113Y133044D01*
X-156113Y125204D01*
X-156098Y125114D01*
X-156091Y125023D01*
X-156078Y124993D01*
X-156073Y124961D01*
X-156030Y124881D01*
X-155995Y124797D01*
X-155969Y124765D01*
X-155958Y124744D01*
X-155935Y124722D01*
X-155890Y124666D01*
X-147837Y116613D01*
X-147821Y116602D01*
X-147809Y116586D01*
X-147721Y116530D01*
X-147638Y116470D01*
X-147619Y116464D01*
X-147602Y116453D01*
X-147501Y116428D01*
X-147403Y116398D01*
X-147383Y116398D01*
X-147363Y116393D01*
X-147260Y116401D01*
X-147157Y116404D01*
X-147138Y116411D01*
X-147118Y116412D01*
X-147023Y116453D01*
X-146926Y116488D01*
X-146910Y116501D01*
X-146892Y116509D01*
X-146761Y116613D01*
X-139385Y123989D01*
X-139332Y124063D01*
X-139273Y124133D01*
X-139261Y124163D01*
X-139242Y124189D01*
X-139215Y124276D01*
X-139181Y124361D01*
X-139176Y124402D01*
X-139169Y124424D01*
X-139170Y124456D01*
X-139162Y124527D01*
X-139162Y133044D01*
X-138269Y133937D01*
X-133006Y133937D01*
X-132682Y133613D01*
X-132623Y133571D01*
X-132572Y133522D01*
X-132524Y133500D01*
X-132482Y133469D01*
X-132414Y133448D01*
X-132348Y133418D01*
X-132297Y133412D01*
X-132247Y133397D01*
X-132175Y133399D01*
X-132104Y133391D01*
X-132053Y133402D01*
X-132001Y133403D01*
X-131934Y133428D01*
X-131864Y133443D01*
X-131819Y133470D01*
X-131770Y133488D01*
X-131714Y133533D01*
X-131653Y133569D01*
X-131619Y133609D01*
X-131578Y133642D01*
X-131539Y133702D01*
X-131493Y133756D01*
X-131473Y133805D01*
X-131445Y133849D01*
X-131428Y133918D01*
X-131401Y133985D01*
X-131393Y134056D01*
X-131385Y134087D01*
X-131387Y134110D01*
X-131382Y134151D01*
X-131382Y138764D01*
X-131385Y138784D01*
X-131383Y138803D01*
X-131405Y138905D01*
X-131422Y139007D01*
X-131431Y139024D01*
X-131436Y139044D01*
X-131489Y139133D01*
X-131537Y139224D01*
X-131551Y139238D01*
X-131562Y139255D01*
X-131640Y139322D01*
X-131715Y139394D01*
X-131733Y139402D01*
X-131749Y139415D01*
X-131845Y139454D01*
X-131938Y139497D01*
X-131958Y139499D01*
X-131977Y139507D01*
X-132143Y139525D01*
X-137332Y139525D01*
X-138225Y140418D01*
X-138225Y151682D01*
X-137332Y152575D01*
X-132143Y152575D01*
X-132124Y152578D01*
X-132104Y152576D01*
X-132003Y152598D01*
X-131901Y152614D01*
X-131883Y152624D01*
X-131864Y152628D01*
X-131775Y152681D01*
X-131683Y152730D01*
X-131670Y152744D01*
X-131653Y152754D01*
X-131585Y152833D01*
X-131514Y152908D01*
X-131506Y152926D01*
X-131493Y152941D01*
X-131454Y153037D01*
X-131410Y153131D01*
X-131408Y153151D01*
X-131401Y153169D01*
X-131382Y153336D01*
X-131382Y179502D01*
X-131397Y179592D01*
X-131404Y179683D01*
X-131417Y179713D01*
X-131422Y179745D01*
X-131465Y179825D01*
X-131500Y179909D01*
X-131526Y179941D01*
X-131537Y179962D01*
X-131560Y179984D01*
X-131605Y180040D01*
X-145784Y194219D01*
X-145800Y194231D01*
X-145813Y194246D01*
X-145876Y194287D01*
X-145923Y194328D01*
X-145950Y194338D01*
X-145984Y194363D01*
X-146003Y194369D01*
X-146020Y194379D01*
X-146105Y194401D01*
X-146152Y194420D01*
X-146178Y194423D01*
X-146219Y194435D01*
X-146239Y194435D01*
X-146258Y194440D01*
X-146301Y194436D01*
X-146318Y194438D01*
X-146326Y194438D01*
X-146368Y194431D01*
X-146465Y194429D01*
X-146484Y194422D01*
X-146503Y194420D01*
X-146546Y194402D01*
X-146569Y194398D01*
X-146617Y194373D01*
X-146696Y194344D01*
X-146711Y194332D01*
X-146730Y194324D01*
X-146769Y194293D01*
X-146787Y194283D01*
X-146806Y194263D01*
X-146861Y194219D01*
X-147025Y194055D01*
X-154600Y194055D01*
X-159957Y199412D01*
X-159957Y206988D01*
X-154600Y212345D01*
X-147025Y212345D01*
X-141668Y206988D01*
X-141668Y199412D01*
X-141832Y199248D01*
X-141843Y199232D01*
X-141859Y199220D01*
X-141915Y199132D01*
X-141975Y199048D01*
X-141981Y199029D01*
X-141992Y199013D01*
X-142017Y198912D01*
X-142048Y198813D01*
X-142047Y198793D01*
X-142052Y198774D01*
X-142044Y198671D01*
X-142041Y198567D01*
X-142034Y198549D01*
X-142033Y198529D01*
X-141992Y198434D01*
X-141957Y198336D01*
X-141944Y198321D01*
X-141937Y198303D01*
X-141832Y198172D01*
X-125793Y182133D01*
X-125793Y153336D01*
X-125790Y153316D01*
X-125792Y153297D01*
X-125770Y153195D01*
X-125753Y153093D01*
X-125744Y153076D01*
X-125739Y153056D01*
X-125686Y152967D01*
X-125638Y152876D01*
X-125624Y152862D01*
X-125613Y152845D01*
X-125535Y152778D01*
X-125460Y152706D01*
X-125442Y152698D01*
X-125426Y152685D01*
X-125330Y152646D01*
X-125237Y152603D01*
X-125217Y152601D01*
X-125198Y152593D01*
X-125073Y152579D01*
X-124175Y151682D01*
X-124175Y140418D01*
X-125070Y139524D01*
X-125071Y139524D01*
X-125172Y139502D01*
X-125274Y139486D01*
X-125292Y139476D01*
X-125311Y139472D01*
X-125400Y139419D01*
X-125492Y139370D01*
X-125505Y139356D01*
X-125522Y139346D01*
X-125590Y139267D01*
X-125661Y139192D01*
X-125669Y139174D01*
X-125682Y139159D01*
X-125721Y139063D01*
X-125765Y138969D01*
X-125767Y138949D01*
X-125774Y138931D01*
X-125793Y138764D01*
X-125793Y117748D01*
X-125790Y117729D01*
X-125792Y117709D01*
X-125770Y117608D01*
X-125753Y117506D01*
X-125744Y117488D01*
X-125739Y117469D01*
X-125686Y117380D01*
X-125638Y117288D01*
X-125624Y117275D01*
X-125613Y117258D01*
X-125535Y117190D01*
X-125460Y117119D01*
X-125442Y117111D01*
X-125426Y117098D01*
X-125330Y117059D01*
X-125237Y117015D01*
X-125217Y117013D01*
X-125198Y117006D01*
X-125032Y116987D01*
X-122054Y116987D01*
X-119550Y114483D01*
X-119550Y110942D01*
X-121160Y109332D01*
X-121202Y109274D01*
X-121252Y109222D01*
X-121274Y109174D01*
X-121304Y109132D01*
X-121325Y109064D01*
X-121355Y108998D01*
X-121361Y108947D01*
X-121376Y108897D01*
X-121374Y108825D01*
X-121382Y108754D01*
X-121371Y108703D01*
X-121370Y108651D01*
X-121345Y108584D01*
X-121330Y108514D01*
X-121303Y108469D01*
X-121285Y108420D01*
X-121241Y108364D01*
X-121204Y108303D01*
X-121164Y108269D01*
X-121132Y108228D01*
X-121071Y108189D01*
X-121017Y108143D01*
X-120969Y108123D01*
X-120925Y108095D01*
X-120855Y108078D01*
X-120789Y108051D01*
X-120717Y108043D01*
X-120686Y108035D01*
X-120663Y108037D01*
X-120622Y108032D01*
X-118991Y108032D01*
X-118901Y108047D01*
X-118810Y108054D01*
X-118780Y108067D01*
X-118748Y108072D01*
X-118668Y108115D01*
X-118584Y108150D01*
X-118552Y108176D01*
X-118531Y108187D01*
X-118509Y108210D01*
X-118453Y108255D01*
X-117658Y109050D01*
X-114117Y109050D01*
X-111497Y106430D01*
X-111482Y106411D01*
X-111458Y106365D01*
X-111406Y106316D01*
X-111361Y106260D01*
X-111317Y106232D01*
X-111280Y106196D01*
X-111215Y106166D01*
X-111154Y106127D01*
X-111104Y106114D01*
X-111057Y106092D01*
X-110985Y106085D01*
X-110916Y106067D01*
X-110864Y106071D01*
X-110812Y106065D01*
X-110742Y106081D01*
G37*
G36*
X-231958Y70544D02*
X-231958Y70544D01*
X-231906Y70545D01*
X-231839Y70570D01*
X-231769Y70585D01*
X-231724Y70612D01*
X-231675Y70630D01*
X-231619Y70674D01*
X-231558Y70711D01*
X-231524Y70751D01*
X-231483Y70783D01*
X-231444Y70844D01*
X-231398Y70898D01*
X-231378Y70946D01*
X-231350Y70990D01*
X-231333Y71060D01*
X-231306Y71126D01*
X-231298Y71198D01*
X-231290Y71229D01*
X-231292Y71252D01*
X-231287Y71293D01*
X-231287Y73208D01*
X-228783Y75712D01*
X-225698Y75712D01*
X-225679Y75715D01*
X-225659Y75713D01*
X-225558Y75735D01*
X-225456Y75752D01*
X-225438Y75761D01*
X-225419Y75766D01*
X-225330Y75819D01*
X-225238Y75867D01*
X-225225Y75881D01*
X-225208Y75892D01*
X-225140Y75970D01*
X-225069Y76045D01*
X-225061Y76063D01*
X-225048Y76079D01*
X-225009Y76175D01*
X-224965Y76268D01*
X-224963Y76288D01*
X-224956Y76307D01*
X-224937Y76473D01*
X-224937Y77971D01*
X-223007Y79901D01*
X-222965Y79959D01*
X-222916Y80011D01*
X-222894Y80058D01*
X-222864Y80100D01*
X-222843Y80169D01*
X-222812Y80234D01*
X-222807Y80286D01*
X-222791Y80336D01*
X-222793Y80407D01*
X-222785Y80478D01*
X-222796Y80529D01*
X-222798Y80581D01*
X-222822Y80649D01*
X-222837Y80719D01*
X-222864Y80764D01*
X-222882Y80812D01*
X-222927Y80868D01*
X-222964Y80930D01*
X-223003Y80964D01*
X-223036Y81004D01*
X-223096Y81043D01*
X-223151Y81090D01*
X-223199Y81109D01*
X-223243Y81137D01*
X-223312Y81155D01*
X-223379Y81182D01*
X-223450Y81190D01*
X-223481Y81198D01*
X-223504Y81196D01*
X-223545Y81200D01*
X-224124Y81200D01*
X-226775Y83851D01*
X-226775Y87599D01*
X-224425Y89949D01*
X-224413Y89965D01*
X-224398Y89978D01*
X-224341Y90065D01*
X-224281Y90149D01*
X-224275Y90168D01*
X-224265Y90185D01*
X-224239Y90285D01*
X-224209Y90384D01*
X-224209Y90404D01*
X-224204Y90423D01*
X-224213Y90526D01*
X-224215Y90630D01*
X-224222Y90649D01*
X-224224Y90668D01*
X-224264Y90763D01*
X-224300Y90861D01*
X-224312Y90877D01*
X-224320Y90895D01*
X-224425Y91026D01*
X-226775Y93376D01*
X-226775Y97124D01*
X-224124Y99775D01*
X-223899Y99775D01*
X-223828Y99786D01*
X-223757Y99788D01*
X-223708Y99806D01*
X-223656Y99814D01*
X-223593Y99848D01*
X-223526Y99873D01*
X-223485Y99905D01*
X-223439Y99930D01*
X-223389Y99982D01*
X-223334Y100026D01*
X-223305Y100070D01*
X-223269Y100108D01*
X-223239Y100173D01*
X-223201Y100233D01*
X-223188Y100284D01*
X-223166Y100331D01*
X-223158Y100402D01*
X-223140Y100472D01*
X-223145Y100524D01*
X-223139Y100575D01*
X-223154Y100646D01*
X-223160Y100717D01*
X-223180Y100765D01*
X-223191Y100816D01*
X-223228Y100877D01*
X-223256Y100943D01*
X-223301Y100999D01*
X-223317Y101027D01*
X-223335Y101042D01*
X-223361Y101074D01*
X-223600Y101313D01*
X-223600Y105062D01*
X-220949Y107712D01*
X-217201Y107712D01*
X-215246Y105758D01*
X-215188Y105716D01*
X-215136Y105666D01*
X-215089Y105645D01*
X-215047Y105614D01*
X-214978Y105593D01*
X-214913Y105563D01*
X-214861Y105557D01*
X-214811Y105542D01*
X-214740Y105544D01*
X-214669Y105536D01*
X-214618Y105547D01*
X-214566Y105548D01*
X-214498Y105573D01*
X-214428Y105588D01*
X-214383Y105615D01*
X-214335Y105633D01*
X-214279Y105677D01*
X-214217Y105714D01*
X-214183Y105754D01*
X-214143Y105786D01*
X-214104Y105847D01*
X-214057Y105901D01*
X-214038Y105949D01*
X-214010Y105993D01*
X-213992Y106063D01*
X-213965Y106129D01*
X-213957Y106201D01*
X-213949Y106232D01*
X-213951Y106255D01*
X-213947Y106296D01*
X-213947Y166457D01*
X-213961Y166547D01*
X-213969Y166638D01*
X-213981Y166668D01*
X-213986Y166700D01*
X-214029Y166781D01*
X-214065Y166865D01*
X-214091Y166897D01*
X-214102Y166917D01*
X-214125Y166940D01*
X-214170Y166996D01*
X-226576Y179402D01*
X-226650Y179455D01*
X-226720Y179515D01*
X-226750Y179527D01*
X-226776Y179546D01*
X-226863Y179573D01*
X-226948Y179607D01*
X-226989Y179611D01*
X-227011Y179618D01*
X-227043Y179617D01*
X-227115Y179625D01*
X-228887Y179625D01*
X-231537Y182276D01*
X-231537Y186024D01*
X-229948Y187613D01*
X-229884Y187702D01*
X-229817Y187788D01*
X-229813Y187802D01*
X-229805Y187813D01*
X-229772Y187917D01*
X-229736Y188021D01*
X-229736Y188035D01*
X-229732Y188048D01*
X-229735Y188158D01*
X-229734Y188267D01*
X-229738Y188280D01*
X-229739Y188294D01*
X-229776Y188397D01*
X-229810Y188501D01*
X-229818Y188512D01*
X-229823Y188525D01*
X-229891Y188610D01*
X-229956Y188698D01*
X-229968Y188706D01*
X-229977Y188717D01*
X-230069Y188776D01*
X-230158Y188839D01*
X-230174Y188844D01*
X-230184Y188850D01*
X-230212Y188857D01*
X-230317Y188894D01*
X-231179Y189091D01*
X-231180Y189091D01*
X-231754Y189222D01*
X-231788Y189224D01*
X-231821Y189234D01*
X-231910Y189232D01*
X-231999Y189238D01*
X-232033Y189229D01*
X-232067Y189228D01*
X-232143Y189204D01*
X-232742Y189439D01*
X-232774Y189446D01*
X-232851Y189473D01*
X-233475Y189616D01*
X-233527Y189665D01*
X-233586Y189732D01*
X-233616Y189749D01*
X-233641Y189773D01*
X-233790Y189851D01*
X-235841Y190657D01*
X-235875Y190664D01*
X-235906Y190679D01*
X-235995Y190690D01*
X-236082Y190709D01*
X-236116Y190705D01*
X-236151Y190709D01*
X-236229Y190697D01*
X-236786Y191019D01*
X-236817Y191031D01*
X-236889Y191068D01*
X-237485Y191303D01*
X-237529Y191359D01*
X-237577Y191434D01*
X-237604Y191455D01*
X-237626Y191483D01*
X-237761Y191582D01*
X-239669Y192685D01*
X-239702Y192697D01*
X-239731Y192717D01*
X-239816Y192740D01*
X-239899Y192772D01*
X-239934Y192773D01*
X-239968Y192782D01*
X-240047Y192782D01*
X-240550Y193184D01*
X-240579Y193200D01*
X-240644Y193248D01*
X-241198Y193568D01*
X-241234Y193631D01*
X-241270Y193712D01*
X-241294Y193737D01*
X-241311Y193767D01*
X-241430Y193886D01*
X-243153Y195261D01*
X-243183Y195278D01*
X-243208Y195301D01*
X-243289Y195337D01*
X-243367Y195381D01*
X-243401Y195387D01*
X-243433Y195402D01*
X-243511Y195413D01*
X-243949Y195885D01*
X-243975Y195905D01*
X-244032Y195963D01*
X-244533Y196362D01*
X-244558Y196429D01*
X-244582Y196515D01*
X-244602Y196543D01*
X-244614Y196576D01*
X-244714Y196711D01*
X-246213Y198327D01*
X-246240Y198348D01*
X-246262Y198375D01*
X-246337Y198423D01*
X-246407Y198478D01*
X-246440Y198489D01*
X-246469Y198508D01*
X-246545Y198531D01*
X-246907Y199063D01*
X-246930Y199087D01*
X-246978Y199152D01*
X-247414Y199622D01*
X-247429Y199692D01*
X-247440Y199780D01*
X-247455Y199811D01*
X-247462Y199845D01*
X-247541Y199993D01*
X-248716Y201718D01*
X-248743Y201747D01*
X-248763Y201780D01*
X-248782Y201796D01*
X-248795Y201816D01*
X-248844Y201852D01*
X-248886Y201896D01*
X-248921Y201915D01*
X-248930Y201923D01*
X-249231Y202445D01*
X-249244Y202460D01*
X-249251Y202478D01*
X-249285Y202515D01*
X-249301Y202542D01*
X-249332Y202568D01*
X-249387Y202636D01*
X-249403Y202646D01*
X-249416Y202660D01*
X-249483Y202697D01*
X-249488Y202701D01*
X-249497Y202705D01*
X-249507Y202711D01*
X-249595Y202766D01*
X-249614Y202771D01*
X-249631Y202780D01*
X-249733Y202800D01*
X-249835Y202824D01*
X-249854Y202822D01*
X-249873Y202826D01*
X-249976Y202811D01*
X-250080Y202802D01*
X-250097Y202795D01*
X-250116Y202792D01*
X-250270Y202725D01*
X-298035Y175285D01*
X-298068Y175259D01*
X-298081Y175252D01*
X-298092Y175240D01*
X-298145Y175209D01*
X-298182Y175166D01*
X-298226Y175130D01*
X-298262Y175073D01*
X-298305Y175023D01*
X-298307Y175018D01*
X-299471Y174345D01*
X-299528Y174293D01*
X-299590Y174248D01*
X-299602Y174228D01*
X-299620Y174213D01*
X-299653Y174143D01*
X-299692Y174077D01*
X-299696Y174052D01*
X-299705Y174033D01*
X-299707Y173989D01*
X-299720Y173913D01*
X-299743Y154874D01*
X-299737Y154845D01*
X-299739Y154816D01*
X-299717Y154749D01*
X-299703Y154679D01*
X-299687Y154655D01*
X-299678Y154627D01*
X-299631Y154573D01*
X-299591Y154515D01*
X-299567Y154499D01*
X-299548Y154477D01*
X-299483Y154446D01*
X-299423Y154407D01*
X-299395Y154403D01*
X-299369Y154390D01*
X-299269Y154381D01*
X-299227Y154374D01*
X-299217Y154377D01*
X-299203Y154375D01*
X-298510Y154431D01*
X-298682Y117012D01*
X-298663Y116897D01*
X-298647Y116782D01*
X-298644Y116776D01*
X-298643Y116769D01*
X-298589Y116665D01*
X-298537Y116562D01*
X-298532Y116557D01*
X-298529Y116551D01*
X-298444Y116470D01*
X-298363Y116389D01*
X-298357Y116386D01*
X-298352Y116381D01*
X-298245Y116331D01*
X-298142Y116280D01*
X-298134Y116279D01*
X-298129Y116276D01*
X-298109Y116274D01*
X-297977Y116249D01*
X-295964Y116098D01*
X-295929Y116102D01*
X-295895Y116096D01*
X-295807Y116112D01*
X-295719Y116120D01*
X-295687Y116134D01*
X-295653Y116140D01*
X-295581Y116175D01*
X-295026Y116048D01*
X-294954Y116031D01*
X-294921Y116029D01*
X-294841Y116014D01*
X-294203Y115967D01*
X-294144Y115926D01*
X-294076Y115868D01*
X-294043Y115856D01*
X-294015Y115836D01*
X-293857Y115781D01*
X-291710Y115291D01*
X-291675Y115289D01*
X-291642Y115279D01*
X-291553Y115281D01*
X-291464Y115276D01*
X-291431Y115285D01*
X-291396Y115286D01*
X-291320Y115309D01*
X-290721Y115074D01*
X-290689Y115067D01*
X-290613Y115041D01*
X-289988Y114898D01*
X-289936Y114849D01*
X-289877Y114782D01*
X-289847Y114765D01*
X-289822Y114741D01*
X-289674Y114663D01*
X-287624Y113858D01*
X-287590Y113851D01*
X-287559Y113836D01*
X-287470Y113825D01*
X-287383Y113807D01*
X-287349Y113811D01*
X-287315Y113806D01*
X-287236Y113818D01*
X-286679Y113496D01*
X-286648Y113485D01*
X-286576Y113447D01*
X-285980Y113213D01*
X-285936Y113157D01*
X-285888Y113082D01*
X-285860Y113060D01*
X-285839Y113033D01*
X-285704Y112934D01*
X-283797Y111833D01*
X-283765Y111821D01*
X-283736Y111801D01*
X-283650Y111777D01*
X-283567Y111746D01*
X-283532Y111745D01*
X-283499Y111735D01*
X-283419Y111735D01*
X-282916Y111334D01*
X-282887Y111318D01*
X-282822Y111270D01*
X-282268Y110950D01*
X-282232Y110887D01*
X-282196Y110806D01*
X-282172Y110781D01*
X-282155Y110751D01*
X-282036Y110632D01*
X-280315Y109259D01*
X-280284Y109243D01*
X-280259Y109219D01*
X-280178Y109183D01*
X-280100Y109139D01*
X-280066Y109133D01*
X-280034Y109119D01*
X-279956Y109107D01*
X-279518Y108635D01*
X-279492Y108615D01*
X-279435Y108558D01*
X-278934Y108158D01*
X-278908Y108092D01*
X-278884Y108006D01*
X-278865Y107977D01*
X-278852Y107945D01*
X-278753Y107810D01*
X-277255Y106196D01*
X-277228Y106175D01*
X-277206Y106148D01*
X-277131Y106100D01*
X-277061Y106045D01*
X-277028Y106034D01*
X-276999Y106015D01*
X-276923Y105992D01*
X-276560Y105460D01*
X-276538Y105436D01*
X-276489Y105371D01*
X-276054Y104901D01*
X-276038Y104831D01*
X-276027Y104743D01*
X-276012Y104712D01*
X-276005Y104678D01*
X-275926Y104530D01*
X-274686Y102711D01*
X-274662Y102685D01*
X-274644Y102655D01*
X-274578Y102597D01*
X-274516Y102532D01*
X-274486Y102516D01*
X-274460Y102493D01*
X-274388Y102459D01*
X-274109Y101879D01*
X-274090Y101852D01*
X-274052Y101781D01*
X-273691Y101251D01*
X-273686Y101180D01*
X-273689Y101091D01*
X-273678Y101058D01*
X-273676Y101023D01*
X-273620Y100865D01*
X-272665Y98881D01*
X-272645Y98853D01*
X-272632Y98821D01*
X-272575Y98753D01*
X-272524Y98680D01*
X-272496Y98659D01*
X-272474Y98633D01*
X-272408Y98588D01*
X-272218Y97973D01*
X-272203Y97943D01*
X-272177Y97867D01*
X-271899Y97290D01*
X-271905Y97219D01*
X-271920Y97131D01*
X-271915Y97097D01*
X-271918Y97062D01*
X-271886Y96898D01*
X-271237Y94793D01*
X-271222Y94762D01*
X-271214Y94729D01*
X-271168Y94653D01*
X-271128Y94573D01*
X-271103Y94549D01*
X-271085Y94519D01*
X-271027Y94465D01*
X-270931Y93829D01*
X-270921Y93797D01*
X-270906Y93718D01*
X-270717Y93106D01*
X-270733Y93036D01*
X-270762Y92952D01*
X-270762Y92917D01*
X-270770Y92883D01*
X-270763Y92716D01*
X-270435Y90539D01*
X-270424Y90506D01*
X-270422Y90471D01*
X-270387Y90389D01*
X-270360Y90304D01*
X-270339Y90276D01*
X-270325Y90245D01*
X-270276Y90183D01*
X-270276Y89539D01*
X-270270Y89506D01*
X-270267Y89426D01*
X-270172Y88792D01*
X-270199Y88726D01*
X-270239Y88647D01*
X-270244Y88612D01*
X-270257Y88580D01*
X-270276Y88413D01*
X-270276Y86212D01*
X-270270Y86177D01*
X-270273Y86143D01*
X-270250Y86057D01*
X-270236Y85969D01*
X-270220Y85938D01*
X-270211Y85905D01*
X-270171Y85836D01*
X-270267Y85199D01*
X-270267Y85166D01*
X-270276Y85086D01*
X-270276Y84446D01*
X-270312Y84384D01*
X-270364Y84312D01*
X-270374Y84278D01*
X-270392Y84249D01*
X-270435Y84086D01*
X-270763Y81909D01*
X-270763Y81874D01*
X-270770Y81841D01*
X-270761Y81752D01*
X-270760Y81663D01*
X-270749Y81631D01*
X-270745Y81596D01*
X-270716Y81522D01*
X-270906Y80907D01*
X-270910Y80874D01*
X-270931Y80796D01*
X-271049Y80012D01*
X-271048Y79935D01*
X-271057Y79859D01*
X-271047Y79813D01*
X-271046Y79766D01*
X-271021Y79693D01*
X-271004Y79619D01*
X-270980Y79578D01*
X-270965Y79534D01*
X-270918Y79473D01*
X-270878Y79408D01*
X-270842Y79377D01*
X-270814Y79340D01*
X-270750Y79298D01*
X-270691Y79248D01*
X-270648Y79230D01*
X-270608Y79204D01*
X-270534Y79184D01*
X-270463Y79156D01*
X-270400Y79149D01*
X-270371Y79141D01*
X-270344Y79143D01*
X-270296Y79137D01*
X-266413Y79137D01*
X-265160Y77884D01*
X-265086Y77831D01*
X-265017Y77772D01*
X-264987Y77759D01*
X-264960Y77741D01*
X-264874Y77714D01*
X-264789Y77680D01*
X-264748Y77675D01*
X-264725Y77668D01*
X-264693Y77669D01*
X-264622Y77661D01*
X-239493Y77661D01*
X-232587Y70755D01*
X-232529Y70713D01*
X-232477Y70663D01*
X-232429Y70642D01*
X-232387Y70611D01*
X-232319Y70590D01*
X-232253Y70560D01*
X-232202Y70554D01*
X-232152Y70539D01*
X-232080Y70541D01*
X-232009Y70533D01*
X-231958Y70544D01*
G37*
G36*
X-249174Y-27292D02*
X-249174Y-27292D01*
X-249167Y-27292D01*
X-249055Y-27260D01*
X-248942Y-27229D01*
X-248937Y-27226D01*
X-248931Y-27224D01*
X-248835Y-27157D01*
X-248738Y-27092D01*
X-248733Y-27087D01*
X-248729Y-27084D01*
X-248717Y-27068D01*
X-248629Y-26965D01*
X-247541Y-25368D01*
X-247526Y-25337D01*
X-247505Y-25310D01*
X-247475Y-25226D01*
X-247437Y-25145D01*
X-247433Y-25111D01*
X-247422Y-25078D01*
X-247416Y-24999D01*
X-246978Y-24527D01*
X-246960Y-24500D01*
X-246907Y-24438D01*
X-246547Y-23909D01*
X-246482Y-23878D01*
X-246398Y-23848D01*
X-246371Y-23826D01*
X-246340Y-23811D01*
X-246213Y-23702D01*
X-244714Y-22086D01*
X-244695Y-22057D01*
X-244670Y-22033D01*
X-244627Y-21955D01*
X-244578Y-21881D01*
X-244569Y-21847D01*
X-244553Y-21816D01*
X-244535Y-21739D01*
X-244032Y-21338D01*
X-244010Y-21313D01*
X-243949Y-21260D01*
X-243514Y-20791D01*
X-243445Y-20770D01*
X-243358Y-20752D01*
X-243328Y-20735D01*
X-243294Y-20725D01*
X-243153Y-20636D01*
X-241430Y-19261D01*
X-241406Y-19235D01*
X-241378Y-19215D01*
X-241324Y-19144D01*
X-241265Y-19078D01*
X-241251Y-19046D01*
X-241230Y-19019D01*
X-241201Y-18945D01*
X-240644Y-18623D01*
X-240618Y-18602D01*
X-240550Y-18559D01*
X-240049Y-18159D01*
X-239979Y-18149D01*
X-239890Y-18145D01*
X-239857Y-18132D01*
X-239823Y-18127D01*
X-239669Y-18060D01*
X-237761Y-16957D01*
X-237734Y-16935D01*
X-237703Y-16920D01*
X-237640Y-16858D01*
X-237571Y-16801D01*
X-237552Y-16772D01*
X-237527Y-16748D01*
X-237488Y-16679D01*
X-236889Y-16443D01*
X-236860Y-16427D01*
X-236786Y-16394D01*
X-236232Y-16074D01*
X-236160Y-16074D01*
X-236072Y-16083D01*
X-236038Y-16075D01*
X-236003Y-16076D01*
X-235841Y-16032D01*
X-233790Y-15226D01*
X-233760Y-15208D01*
X-233727Y-15198D01*
X-233655Y-15146D01*
X-233578Y-15100D01*
X-233556Y-15074D01*
X-233528Y-15054D01*
X-233478Y-14991D01*
X-232851Y-14848D01*
X-232820Y-14835D01*
X-232742Y-14814D01*
X-232146Y-14580D01*
X-232075Y-14592D01*
X-231989Y-14613D01*
X-231954Y-14611D01*
X-231920Y-14616D01*
X-231754Y-14597D01*
X-229605Y-14106D01*
X-229573Y-14093D01*
X-229538Y-14088D01*
X-229459Y-14047D01*
X-229377Y-14013D01*
X-229351Y-13991D01*
X-229320Y-13975D01*
X-229262Y-13920D01*
X-228620Y-13872D01*
X-228588Y-13864D01*
X-228508Y-13855D01*
X-227883Y-13712D01*
X-227815Y-13734D01*
X-227733Y-13769D01*
X-227698Y-13771D01*
X-227665Y-13782D01*
X-227498Y-13788D01*
X-225300Y-13622D01*
X-225266Y-13614D01*
X-225231Y-13614D01*
X-225147Y-13585D01*
X-225061Y-13564D01*
X-225031Y-13546D01*
X-224999Y-13535D01*
X-224933Y-13490D01*
X-224291Y-13538D01*
X-224258Y-13535D01*
X-224177Y-13538D01*
X-223539Y-13490D01*
X-223474Y-13522D01*
X-223399Y-13568D01*
X-223365Y-13575D01*
X-223334Y-13591D01*
X-223169Y-13622D01*
X-220971Y-13786D01*
X-220936Y-13783D01*
X-220902Y-13788D01*
X-220814Y-13772D01*
X-220726Y-13764D01*
X-220694Y-13750D01*
X-220660Y-13744D01*
X-220588Y-13709D01*
X-219961Y-13852D01*
X-219928Y-13854D01*
X-219848Y-13869D01*
X-219210Y-13917D01*
X-219151Y-13958D01*
X-219083Y-14015D01*
X-219050Y-14028D01*
X-219022Y-14047D01*
X-218863Y-14103D01*
X-216714Y-14592D01*
X-216680Y-14594D01*
X-216647Y-14605D01*
X-216558Y-14602D01*
X-216469Y-14608D01*
X-216435Y-14599D01*
X-216401Y-14598D01*
X-216325Y-14574D01*
X-215726Y-14809D01*
X-215693Y-14816D01*
X-215617Y-14842D01*
X-215421Y-14887D01*
X-214993Y-14985D01*
X-214941Y-15034D01*
X-214882Y-15101D01*
X-214852Y-15118D01*
X-214826Y-15142D01*
X-214678Y-15220D01*
X-212626Y-16024D01*
X-212592Y-16032D01*
X-212561Y-16047D01*
X-212472Y-16057D01*
X-212385Y-16076D01*
X-212351Y-16072D01*
X-212316Y-16076D01*
X-212238Y-16064D01*
X-211680Y-16386D01*
X-211650Y-16398D01*
X-211578Y-16435D01*
X-210982Y-16669D01*
X-210938Y-16725D01*
X-210889Y-16800D01*
X-210862Y-16822D01*
X-210841Y-16849D01*
X-210706Y-16948D01*
X-208796Y-18050D01*
X-208764Y-18062D01*
X-208735Y-18082D01*
X-208649Y-18105D01*
X-208566Y-18137D01*
X-208532Y-18138D01*
X-208498Y-18147D01*
X-208419Y-18147D01*
X-207936Y-18532D01*
X-207849Y-18581D01*
X-207765Y-18635D01*
X-207742Y-18640D01*
X-207722Y-18652D01*
X-207623Y-18670D01*
X-207526Y-18695D01*
X-207503Y-18693D01*
X-207480Y-18697D01*
X-207381Y-18683D01*
X-207281Y-18676D01*
X-207260Y-18667D01*
X-207236Y-18663D01*
X-207147Y-18619D01*
X-207055Y-18579D01*
X-207032Y-18561D01*
X-207016Y-18554D01*
X-206993Y-18530D01*
X-206924Y-18475D01*
X-181070Y7379D01*
X-181017Y7453D01*
X-180957Y7523D01*
X-180945Y7553D01*
X-180926Y7579D01*
X-180899Y7666D01*
X-180875Y7726D01*
X-180875Y7727D01*
X-180865Y7751D01*
X-180861Y7792D01*
X-180854Y7814D01*
X-180855Y7846D01*
X-180847Y7918D01*
X-180847Y21400D01*
X-178838Y23409D01*
X-177284Y24963D01*
X-175275Y26972D01*
X-169743Y26972D01*
X-169653Y26986D01*
X-169562Y26994D01*
X-169532Y27006D01*
X-169500Y27011D01*
X-169419Y27054D01*
X-169335Y27090D01*
X-169303Y27116D01*
X-169283Y27127D01*
X-169260Y27150D01*
X-169204Y27195D01*
X-167936Y28463D01*
X-167883Y28537D01*
X-167824Y28606D01*
X-167812Y28636D01*
X-167793Y28663D01*
X-167766Y28750D01*
X-167732Y28834D01*
X-167727Y28875D01*
X-167720Y28898D01*
X-167721Y28930D01*
X-167713Y29001D01*
X-167713Y32602D01*
X-167716Y32621D01*
X-167714Y32641D01*
X-167736Y32742D01*
X-167753Y32844D01*
X-167762Y32862D01*
X-167767Y32881D01*
X-167820Y32970D01*
X-167868Y33062D01*
X-167882Y33075D01*
X-167893Y33092D01*
X-167971Y33160D01*
X-168046Y33231D01*
X-168064Y33239D01*
X-168080Y33252D01*
X-168176Y33291D01*
X-168269Y33335D01*
X-168289Y33337D01*
X-168308Y33344D01*
X-168474Y33363D01*
X-171856Y33363D01*
X-171863Y33368D01*
X-171964Y33393D01*
X-172062Y33423D01*
X-172082Y33423D01*
X-172102Y33428D01*
X-172205Y33420D01*
X-172308Y33417D01*
X-172327Y33410D01*
X-172347Y33409D01*
X-172442Y33368D01*
X-172457Y33363D01*
X-176501Y33363D01*
X-176591Y33348D01*
X-176682Y33341D01*
X-176711Y33328D01*
X-176743Y33323D01*
X-176824Y33280D01*
X-176908Y33245D01*
X-176940Y33219D01*
X-176961Y33208D01*
X-176983Y33185D01*
X-177039Y33140D01*
X-183001Y27178D01*
X-184861Y25318D01*
X-232352Y25318D01*
X-232442Y25303D01*
X-232533Y25296D01*
X-232563Y25283D01*
X-232595Y25278D01*
X-232675Y25235D01*
X-232759Y25200D01*
X-232791Y25174D01*
X-232812Y25163D01*
X-232834Y25140D01*
X-232890Y25095D01*
X-238669Y19316D01*
X-238681Y19300D01*
X-238696Y19287D01*
X-238752Y19200D01*
X-238813Y19116D01*
X-238819Y19097D01*
X-238829Y19080D01*
X-238855Y18980D01*
X-238885Y18881D01*
X-238885Y18861D01*
X-238889Y18842D01*
X-238881Y18739D01*
X-238879Y18635D01*
X-238872Y18616D01*
X-238870Y18597D01*
X-238830Y18502D01*
X-238794Y18404D01*
X-238782Y18389D01*
X-238774Y18370D01*
X-238669Y18239D01*
X-238310Y17880D01*
X-236918Y14519D01*
X-236918Y10881D01*
X-238310Y7520D01*
X-240882Y4947D01*
X-244244Y3555D01*
X-247881Y3555D01*
X-251243Y4947D01*
X-253815Y7520D01*
X-255207Y10881D01*
X-255207Y14519D01*
X-253815Y17880D01*
X-251243Y20453D01*
X-247881Y21845D01*
X-244360Y21845D01*
X-244270Y21859D01*
X-244179Y21867D01*
X-244150Y21879D01*
X-244118Y21884D01*
X-244037Y21927D01*
X-243953Y21963D01*
X-243921Y21989D01*
X-243900Y22000D01*
X-243878Y22023D01*
X-243822Y22068D01*
X-234983Y30907D01*
X-215748Y30907D01*
X-215729Y30910D01*
X-215709Y30908D01*
X-215608Y30930D01*
X-215506Y30947D01*
X-215488Y30956D01*
X-215469Y30961D01*
X-215380Y31014D01*
X-215288Y31062D01*
X-215275Y31076D01*
X-215258Y31087D01*
X-215190Y31165D01*
X-215119Y31240D01*
X-215111Y31258D01*
X-215098Y31274D01*
X-215059Y31370D01*
X-215015Y31463D01*
X-215013Y31483D01*
X-215006Y31502D01*
X-214987Y31668D01*
X-214987Y33519D01*
X-214990Y33539D01*
X-214988Y33558D01*
X-215010Y33660D01*
X-215027Y33762D01*
X-215036Y33779D01*
X-215041Y33799D01*
X-215094Y33888D01*
X-215142Y33979D01*
X-215156Y33993D01*
X-215167Y34010D01*
X-215245Y34077D01*
X-215320Y34149D01*
X-215338Y34157D01*
X-215354Y34170D01*
X-215450Y34209D01*
X-215543Y34252D01*
X-215563Y34254D01*
X-215582Y34262D01*
X-215748Y34280D01*
X-237238Y34280D01*
X-237353Y34261D01*
X-237469Y34244D01*
X-237474Y34242D01*
X-237481Y34241D01*
X-237583Y34186D01*
X-237688Y34133D01*
X-237692Y34128D01*
X-237698Y34125D01*
X-237778Y34041D01*
X-237860Y33957D01*
X-237864Y33951D01*
X-237867Y33947D01*
X-237875Y33930D01*
X-237941Y33810D01*
X-238310Y32920D01*
X-240882Y30347D01*
X-244244Y28955D01*
X-247881Y28955D01*
X-251243Y30347D01*
X-253815Y32920D01*
X-255207Y36281D01*
X-255207Y39919D01*
X-253815Y43280D01*
X-251243Y45853D01*
X-247881Y47245D01*
X-244244Y47245D01*
X-240882Y45853D01*
X-238310Y43280D01*
X-237092Y40340D01*
X-237030Y40240D01*
X-236970Y40140D01*
X-236966Y40136D01*
X-236962Y40131D01*
X-236873Y40056D01*
X-236784Y39980D01*
X-236778Y39978D01*
X-236773Y39974D01*
X-236665Y39932D01*
X-236555Y39888D01*
X-236548Y39887D01*
X-236543Y39886D01*
X-236525Y39885D01*
X-236389Y39870D01*
X-215748Y39870D01*
X-215729Y39873D01*
X-215709Y39871D01*
X-215608Y39893D01*
X-215506Y39909D01*
X-215488Y39919D01*
X-215469Y39923D01*
X-215380Y39976D01*
X-215288Y40025D01*
X-215275Y40039D01*
X-215258Y40049D01*
X-215190Y40128D01*
X-215119Y40203D01*
X-215111Y40221D01*
X-215098Y40236D01*
X-215059Y40332D01*
X-215015Y40426D01*
X-215013Y40446D01*
X-215006Y40464D01*
X-214987Y40631D01*
X-214987Y42707D01*
X-214094Y43600D01*
X-210233Y43600D01*
X-210162Y43611D01*
X-210090Y43613D01*
X-210042Y43631D01*
X-209990Y43639D01*
X-209927Y43673D01*
X-209859Y43698D01*
X-209819Y43730D01*
X-209773Y43755D01*
X-209723Y43807D01*
X-209667Y43851D01*
X-209639Y43895D01*
X-209603Y43933D01*
X-209573Y43998D01*
X-209534Y44058D01*
X-209522Y44109D01*
X-209500Y44156D01*
X-209492Y44227D01*
X-209474Y44297D01*
X-209478Y44349D01*
X-209473Y44400D01*
X-209488Y44471D01*
X-209494Y44542D01*
X-209514Y44590D01*
X-209525Y44641D01*
X-209562Y44702D01*
X-209590Y44768D01*
X-209635Y44824D01*
X-209651Y44852D01*
X-209669Y44867D01*
X-209695Y44899D01*
X-210650Y45854D01*
X-210650Y49396D01*
X-210206Y49839D01*
X-210164Y49898D01*
X-210115Y49949D01*
X-210093Y49997D01*
X-210063Y50039D01*
X-210042Y50107D01*
X-210011Y50173D01*
X-210006Y50224D01*
X-209990Y50274D01*
X-209992Y50346D01*
X-209984Y50417D01*
X-209995Y50468D01*
X-209997Y50520D01*
X-210021Y50587D01*
X-210036Y50657D01*
X-210063Y50702D01*
X-210081Y50751D01*
X-210126Y50807D01*
X-210163Y50868D01*
X-210202Y50902D01*
X-210235Y50943D01*
X-210295Y50982D01*
X-210350Y51028D01*
X-210398Y51048D01*
X-210442Y51076D01*
X-210511Y51093D01*
X-210578Y51120D01*
X-210649Y51128D01*
X-210680Y51136D01*
X-210703Y51134D01*
X-210744Y51139D01*
X-210864Y51139D01*
X-210884Y51136D01*
X-210903Y51138D01*
X-211005Y51116D01*
X-211107Y51099D01*
X-211124Y51090D01*
X-211144Y51085D01*
X-211233Y51032D01*
X-211324Y50984D01*
X-211338Y50970D01*
X-211355Y50959D01*
X-211422Y50881D01*
X-211494Y50806D01*
X-211502Y50788D01*
X-211515Y50772D01*
X-211545Y50697D01*
X-214129Y48113D01*
X-217671Y48113D01*
X-220175Y50617D01*
X-220175Y54158D01*
X-219747Y54586D01*
X-219705Y54645D01*
X-219655Y54696D01*
X-219633Y54744D01*
X-219603Y54786D01*
X-219582Y54854D01*
X-219552Y54920D01*
X-219546Y54971D01*
X-219531Y55021D01*
X-219533Y55093D01*
X-219525Y55164D01*
X-219536Y55215D01*
X-219537Y55267D01*
X-219562Y55334D01*
X-219577Y55404D01*
X-219604Y55449D01*
X-219622Y55498D01*
X-219666Y55554D01*
X-219703Y55615D01*
X-219743Y55649D01*
X-219775Y55690D01*
X-219836Y55729D01*
X-219890Y55775D01*
X-219938Y55795D01*
X-219982Y55823D01*
X-220052Y55840D01*
X-220118Y55867D01*
X-220189Y55875D01*
X-220221Y55883D01*
X-220244Y55881D01*
X-220285Y55886D01*
X-229072Y55886D01*
X-229162Y55871D01*
X-229253Y55864D01*
X-229283Y55851D01*
X-229315Y55846D01*
X-229395Y55803D01*
X-229479Y55768D01*
X-229511Y55742D01*
X-229532Y55731D01*
X-229554Y55708D01*
X-229610Y55663D01*
X-235857Y49416D01*
X-258740Y49416D01*
X-276936Y67612D01*
X-276964Y67632D01*
X-276986Y67658D01*
X-277063Y67703D01*
X-277136Y67755D01*
X-277168Y67765D01*
X-277198Y67783D01*
X-277285Y67801D01*
X-277371Y67828D01*
X-277405Y67827D01*
X-277438Y67834D01*
X-277527Y67824D01*
X-277617Y67821D01*
X-277649Y67810D01*
X-277683Y67806D01*
X-277763Y67768D01*
X-277848Y67737D01*
X-277874Y67715D01*
X-277905Y67701D01*
X-278032Y67591D01*
X-278753Y66815D01*
X-278772Y66786D01*
X-278797Y66762D01*
X-278839Y66684D01*
X-278889Y66610D01*
X-278897Y66577D01*
X-278914Y66546D01*
X-278931Y66469D01*
X-279435Y66067D01*
X-279457Y66043D01*
X-279518Y65990D01*
X-279954Y65520D01*
X-280022Y65500D01*
X-280110Y65482D01*
X-280140Y65465D01*
X-280173Y65455D01*
X-280315Y65365D01*
X-282036Y63993D01*
X-282059Y63967D01*
X-282088Y63947D01*
X-282142Y63876D01*
X-282201Y63810D01*
X-282215Y63778D01*
X-282236Y63751D01*
X-282265Y63677D01*
X-282822Y63355D01*
X-282848Y63334D01*
X-282916Y63291D01*
X-283417Y62892D01*
X-283488Y62882D01*
X-283577Y62877D01*
X-283609Y62864D01*
X-283643Y62860D01*
X-283797Y62792D01*
X-285704Y61691D01*
X-285731Y61669D01*
X-285762Y61654D01*
X-285826Y61592D01*
X-285894Y61535D01*
X-285913Y61506D01*
X-285937Y61482D01*
X-285977Y61413D01*
X-286576Y61178D01*
X-286604Y61161D01*
X-286679Y61129D01*
X-287233Y60808D01*
X-287305Y60809D01*
X-287393Y60818D01*
X-287427Y60810D01*
X-287462Y60810D01*
X-287624Y60767D01*
X-289674Y59962D01*
X-289703Y59944D01*
X-289736Y59934D01*
X-289808Y59882D01*
X-289885Y59837D01*
X-289908Y59810D01*
X-289936Y59790D01*
X-289985Y59728D01*
X-290613Y59584D01*
X-290643Y59572D01*
X-290721Y59551D01*
X-291317Y59317D01*
X-291388Y59328D01*
X-291474Y59350D01*
X-291509Y59348D01*
X-291543Y59353D01*
X-291710Y59334D01*
X-293857Y58844D01*
X-293889Y58831D01*
X-293923Y58826D01*
X-294002Y58785D01*
X-294084Y58751D01*
X-294111Y58729D01*
X-294141Y58713D01*
X-294199Y58659D01*
X-294841Y58611D01*
X-294873Y58603D01*
X-294954Y58594D01*
X-295578Y58451D01*
X-295647Y58473D01*
X-295729Y58507D01*
X-295763Y58510D01*
X-295796Y58521D01*
X-295964Y58526D01*
X-298043Y58371D01*
X-298104Y58356D01*
X-298167Y58351D01*
X-298223Y58327D01*
X-298282Y58313D01*
X-298335Y58279D01*
X-298392Y58255D01*
X-298436Y58248D01*
X-298452Y58240D01*
X-298470Y58236D01*
X-298561Y58182D01*
X-298654Y58133D01*
X-298666Y58120D01*
X-298682Y58111D01*
X-298750Y58031D01*
X-298823Y57955D01*
X-298831Y57938D01*
X-298842Y57924D01*
X-298882Y57827D01*
X-298927Y57732D01*
X-298929Y57713D01*
X-298935Y57697D01*
X-298955Y57530D01*
X-299126Y20243D01*
X-299203Y20250D01*
X-299232Y20246D01*
X-299260Y20251D01*
X-299330Y20234D01*
X-299401Y20226D01*
X-299426Y20211D01*
X-299454Y20205D01*
X-299511Y20162D01*
X-299573Y20127D01*
X-299591Y20104D01*
X-299614Y20087D01*
X-299650Y20025D01*
X-299693Y19968D01*
X-299700Y19940D01*
X-299715Y19915D01*
X-299732Y19817D01*
X-299742Y19776D01*
X-299740Y19765D01*
X-299743Y19751D01*
X-299720Y712D01*
X-299704Y637D01*
X-299696Y560D01*
X-299685Y540D01*
X-299680Y517D01*
X-299636Y454D01*
X-299599Y387D01*
X-299579Y370D01*
X-299567Y353D01*
X-299530Y329D01*
X-299471Y280D01*
X-282994Y-9259D01*
X-282966Y-9268D01*
X-282942Y-9285D01*
X-282873Y-9300D01*
X-282805Y-9322D01*
X-282776Y-9320D01*
X-282748Y-9326D01*
X-282678Y-9313D01*
X-282607Y-9307D01*
X-282581Y-9294D01*
X-282553Y-9288D01*
X-282493Y-9248D01*
X-282430Y-9216D01*
X-282412Y-9193D01*
X-282388Y-9177D01*
X-282330Y-9095D01*
X-282303Y-9063D01*
X-282300Y-9052D01*
X-282292Y-9041D01*
X-281939Y-8297D01*
X-249642Y-27193D01*
X-249534Y-27235D01*
X-249425Y-27279D01*
X-249419Y-27279D01*
X-249413Y-27282D01*
X-249296Y-27287D01*
X-249180Y-27294D01*
X-249174Y-27292D01*
G37*
G36*
X-158700Y101231D02*
X-158700Y101231D01*
X-158649Y101233D01*
X-158617Y101251D01*
X-158581Y101259D01*
X-158542Y101292D01*
X-158497Y101316D01*
X-158476Y101346D01*
X-158448Y101369D01*
X-158427Y101416D01*
X-158397Y101458D01*
X-158389Y101500D01*
X-158377Y101528D01*
X-158378Y101558D01*
X-158370Y101600D01*
X-158370Y107950D01*
X-158387Y108024D01*
X-158400Y108099D01*
X-158407Y108109D01*
X-158409Y108119D01*
X-158433Y108148D01*
X-158481Y108219D01*
X-162467Y112204D01*
X-162531Y112245D01*
X-162593Y112288D01*
X-162605Y112291D01*
X-162614Y112296D01*
X-162651Y112299D01*
X-162736Y112316D01*
X-164163Y112316D01*
X-167734Y115887D01*
X-167734Y115888D01*
X-167746Y115937D01*
X-167748Y115988D01*
X-167765Y116020D01*
X-167774Y116056D01*
X-167806Y116096D01*
X-167831Y116140D01*
X-167860Y116162D01*
X-167884Y116190D01*
X-167931Y116211D01*
X-167972Y116240D01*
X-168014Y116248D01*
X-168042Y116261D01*
X-168073Y116260D01*
X-168114Y116268D01*
X-170393Y116268D01*
X-170467Y116250D01*
X-170542Y116237D01*
X-170552Y116231D01*
X-170562Y116228D01*
X-170591Y116205D01*
X-170662Y116156D01*
X-171106Y115713D01*
X-183369Y115713D01*
X-183813Y116156D01*
X-183877Y116197D01*
X-183939Y116240D01*
X-183951Y116242D01*
X-183960Y116248D01*
X-183997Y116251D01*
X-184082Y116268D01*
X-186945Y116268D01*
X-186945Y176213D01*
X-186956Y176262D01*
X-186958Y176313D01*
X-186976Y176345D01*
X-186984Y176381D01*
X-187017Y176421D01*
X-187041Y176465D01*
X-187071Y176487D01*
X-187094Y176515D01*
X-187141Y176536D01*
X-187183Y176565D01*
X-187225Y176573D01*
X-187253Y176586D01*
X-187283Y176585D01*
X-187325Y176593D01*
X-201421Y176593D01*
X-201471Y176581D01*
X-201522Y176579D01*
X-201554Y176562D01*
X-201590Y176553D01*
X-201629Y176521D01*
X-201674Y176496D01*
X-201695Y176466D01*
X-201723Y176443D01*
X-201744Y176396D01*
X-201774Y176355D01*
X-201782Y176313D01*
X-201794Y176285D01*
X-201793Y176254D01*
X-201801Y176213D01*
X-201801Y109538D01*
X-201790Y109488D01*
X-201788Y109437D01*
X-201770Y109405D01*
X-201762Y109369D01*
X-201729Y109329D01*
X-201705Y109285D01*
X-201675Y109264D01*
X-201652Y109235D01*
X-201605Y109214D01*
X-201563Y109185D01*
X-201521Y109177D01*
X-201493Y109164D01*
X-201463Y109165D01*
X-201421Y109157D01*
X-187299Y109157D01*
X-187225Y109175D01*
X-187151Y109188D01*
X-187141Y109194D01*
X-187131Y109197D01*
X-187102Y109221D01*
X-187031Y109269D01*
X-186787Y109512D01*
X-182552Y109512D01*
X-182438Y109398D01*
X-182395Y109371D01*
X-182357Y109336D01*
X-182322Y109326D01*
X-182291Y109307D01*
X-182240Y109302D01*
X-182191Y109287D01*
X-182155Y109294D01*
X-182118Y109290D01*
X-182071Y109308D01*
X-182020Y109317D01*
X-181985Y109341D01*
X-181956Y109352D01*
X-181936Y109374D01*
X-181900Y109398D01*
X-181786Y109512D01*
X-177551Y109512D01*
X-177436Y109398D01*
X-177393Y109371D01*
X-177356Y109336D01*
X-177320Y109326D01*
X-177289Y109306D01*
X-177238Y109301D01*
X-177189Y109287D01*
X-177153Y109293D01*
X-177117Y109290D01*
X-177069Y109308D01*
X-177019Y109317D01*
X-176983Y109340D01*
X-176955Y109351D01*
X-176934Y109374D01*
X-176899Y109398D01*
X-176784Y109512D01*
X-172549Y109512D01*
X-171656Y108619D01*
X-171656Y101848D01*
X-171657Y101847D01*
X-171676Y101831D01*
X-171702Y101774D01*
X-171734Y101722D01*
X-171737Y101696D01*
X-171747Y101672D01*
X-171745Y101611D01*
X-171751Y101549D01*
X-171742Y101525D01*
X-171741Y101499D01*
X-171711Y101445D01*
X-171689Y101387D01*
X-171670Y101370D01*
X-171658Y101347D01*
X-171608Y101312D01*
X-171562Y101270D01*
X-171537Y101262D01*
X-171516Y101247D01*
X-171432Y101231D01*
X-171396Y101220D01*
X-171386Y101222D01*
X-171374Y101220D01*
X-158750Y101220D01*
X-158700Y101231D01*
G37*
G36*
X-97559Y-56578D02*
X-97559Y-56578D01*
X-97531Y-56578D01*
X-97433Y-56541D01*
X-97394Y-56530D01*
X-97386Y-56524D01*
X-97376Y-56520D01*
X-50576Y-29520D01*
X-50555Y-29502D01*
X-50530Y-29491D01*
X-50481Y-29437D01*
X-50427Y-29388D01*
X-50415Y-29364D01*
X-50396Y-29344D01*
X-50372Y-29275D01*
X-50341Y-29209D01*
X-50340Y-29182D01*
X-50330Y-29156D01*
X-50335Y-29083D01*
X-50332Y-29010D01*
X-50341Y-28985D01*
X-50343Y-28958D01*
X-50387Y-28862D01*
X-50401Y-28824D01*
X-50408Y-28817D01*
X-50412Y-28806D01*
X-52686Y-25470D01*
X-52709Y-25447D01*
X-52732Y-25411D01*
X-55478Y-22451D01*
X-55504Y-22432D01*
X-55532Y-22400D01*
X-58688Y-19881D01*
X-58717Y-19867D01*
X-58750Y-19839D01*
X-62246Y-17819D01*
X-62276Y-17809D01*
X-62313Y-17787D01*
X-66071Y-16311D01*
X-66103Y-16305D01*
X-66143Y-16289D01*
X-70079Y-15389D01*
X-70111Y-15388D01*
X-70153Y-15378D01*
X-74179Y-15075D01*
X-74210Y-15079D01*
X-74254Y-15075D01*
X-78280Y-15375D01*
X-78311Y-15384D01*
X-78354Y-15386D01*
X-82290Y-16283D01*
X-82319Y-16297D01*
X-82362Y-16305D01*
X-86121Y-17779D01*
X-86148Y-17797D01*
X-86188Y-17812D01*
X-89685Y-19829D01*
X-89709Y-19850D01*
X-89747Y-19871D01*
X-92905Y-22388D01*
X-92925Y-22412D01*
X-92959Y-22439D01*
X-95707Y-25397D01*
X-95723Y-25425D01*
X-95753Y-25456D01*
X-98029Y-28791D01*
X-98041Y-28820D01*
X-98066Y-28856D01*
X-99819Y-32493D01*
X-99827Y-32524D01*
X-99846Y-32562D01*
X-101038Y-36420D01*
X-101041Y-36452D01*
X-101054Y-36493D01*
X-101657Y-40485D01*
X-101656Y-40517D01*
X-101663Y-40560D01*
X-101664Y-44598D01*
X-101661Y-44612D01*
X-101663Y-44621D01*
X-101658Y-44641D01*
X-101659Y-44672D01*
X-101058Y-48665D01*
X-101047Y-48695D01*
X-101042Y-48737D01*
X-99853Y-52596D01*
X-99838Y-52624D01*
X-99826Y-52666D01*
X-98075Y-56304D01*
X-98058Y-56326D01*
X-98049Y-56351D01*
X-97999Y-56404D01*
X-97955Y-56462D01*
X-97931Y-56476D01*
X-97912Y-56496D01*
X-97846Y-56525D01*
X-97782Y-56561D01*
X-97755Y-56565D01*
X-97730Y-56576D01*
X-97657Y-56576D01*
X-97585Y-56585D01*
X-97559Y-56578D01*
G37*
G36*
X-74222Y189704D02*
X-74222Y189704D01*
X-74179Y189700D01*
X-70153Y190003D01*
X-70122Y190011D01*
X-70079Y190014D01*
X-66143Y190914D01*
X-66114Y190927D01*
X-66071Y190936D01*
X-62313Y192412D01*
X-62286Y192429D01*
X-62246Y192444D01*
X-58750Y194464D01*
X-58726Y194485D01*
X-58688Y194506D01*
X-55532Y197025D01*
X-55512Y197049D01*
X-55478Y197076D01*
X-52732Y200036D01*
X-52716Y200064D01*
X-52686Y200095D01*
X-50412Y203431D01*
X-50402Y203457D01*
X-50385Y203477D01*
X-50364Y203547D01*
X-50335Y203615D01*
X-50336Y203642D01*
X-50328Y203668D01*
X-50336Y203741D01*
X-50336Y203814D01*
X-50347Y203839D01*
X-50350Y203866D01*
X-50386Y203929D01*
X-50414Y203996D01*
X-50434Y204015D01*
X-50447Y204039D01*
X-50528Y204106D01*
X-50558Y204134D01*
X-50567Y204138D01*
X-50576Y204145D01*
X-97376Y231145D01*
X-97401Y231154D01*
X-97424Y231169D01*
X-97495Y231185D01*
X-97564Y231208D01*
X-97591Y231206D01*
X-97618Y231212D01*
X-97689Y231198D01*
X-97762Y231193D01*
X-97787Y231180D01*
X-97813Y231175D01*
X-97874Y231134D01*
X-97939Y231101D01*
X-97956Y231080D01*
X-97979Y231065D01*
X-98040Y230979D01*
X-98065Y230948D01*
X-98068Y230938D01*
X-98075Y230929D01*
X-99826Y227291D01*
X-99833Y227260D01*
X-99853Y227221D01*
X-101042Y223362D01*
X-101045Y223331D01*
X-101058Y223290D01*
X-101659Y219297D01*
X-101657Y219265D01*
X-101664Y219223D01*
X-101663Y215185D01*
X-101657Y215155D01*
X-101659Y215143D01*
X-101657Y215135D01*
X-101657Y215110D01*
X-101054Y211118D01*
X-101043Y211088D01*
X-101038Y211045D01*
X-99846Y207187D01*
X-99831Y207159D01*
X-99819Y207118D01*
X-98066Y203481D01*
X-98047Y203455D01*
X-98029Y203416D01*
X-95753Y200081D01*
X-95730Y200059D01*
X-95707Y200022D01*
X-92959Y197064D01*
X-92934Y197045D01*
X-92905Y197013D01*
X-89747Y194496D01*
X-89719Y194482D01*
X-89685Y194454D01*
X-86188Y192437D01*
X-86158Y192427D01*
X-86121Y192404D01*
X-82362Y190930D01*
X-82330Y190925D01*
X-82290Y190908D01*
X-78354Y190011D01*
X-78322Y190010D01*
X-78280Y190000D01*
X-74254Y189700D01*
X-74222Y189704D01*
G37*
G36*
X-200761Y-56573D02*
X-200761Y-56573D01*
X-200688Y-56568D01*
X-200663Y-56555D01*
X-200637Y-56550D01*
X-200576Y-56509D01*
X-200511Y-56476D01*
X-200494Y-56455D01*
X-200471Y-56440D01*
X-200410Y-56354D01*
X-200385Y-56323D01*
X-200382Y-56313D01*
X-200375Y-56304D01*
X-198624Y-52666D01*
X-198617Y-52635D01*
X-198597Y-52596D01*
X-197408Y-48737D01*
X-197405Y-48706D01*
X-197392Y-48665D01*
X-196791Y-44672D01*
X-196793Y-44640D01*
X-196786Y-44598D01*
X-196787Y-40560D01*
X-196793Y-40529D01*
X-196793Y-40485D01*
X-197396Y-36493D01*
X-197407Y-36463D01*
X-197412Y-36420D01*
X-198604Y-32562D01*
X-198619Y-32534D01*
X-198631Y-32493D01*
X-200384Y-28856D01*
X-200403Y-28830D01*
X-200421Y-28791D01*
X-202697Y-25456D01*
X-202720Y-25434D01*
X-202743Y-25397D01*
X-205491Y-22439D01*
X-205516Y-22420D01*
X-205545Y-22388D01*
X-208703Y-19871D01*
X-208731Y-19857D01*
X-208765Y-19829D01*
X-212262Y-17812D01*
X-212292Y-17802D01*
X-212329Y-17779D01*
X-216088Y-16305D01*
X-216120Y-16300D01*
X-216160Y-16283D01*
X-220096Y-15386D01*
X-220128Y-15385D01*
X-220170Y-15375D01*
X-224197Y-15075D01*
X-224228Y-15079D01*
X-224271Y-15075D01*
X-228297Y-15378D01*
X-228328Y-15386D01*
X-228371Y-15389D01*
X-232307Y-16289D01*
X-232336Y-16302D01*
X-232379Y-16311D01*
X-236137Y-17787D01*
X-236164Y-17804D01*
X-236204Y-17819D01*
X-239700Y-19839D01*
X-239724Y-19860D01*
X-239762Y-19881D01*
X-242918Y-22400D01*
X-242938Y-22424D01*
X-242972Y-22451D01*
X-245718Y-25411D01*
X-245734Y-25439D01*
X-245764Y-25470D01*
X-248038Y-28806D01*
X-248048Y-28832D01*
X-248065Y-28852D01*
X-248086Y-28922D01*
X-248115Y-28990D01*
X-248115Y-29017D01*
X-248122Y-29043D01*
X-248114Y-29116D01*
X-248114Y-29189D01*
X-248103Y-29214D01*
X-248100Y-29241D01*
X-248064Y-29304D01*
X-248036Y-29371D01*
X-248016Y-29390D01*
X-248003Y-29414D01*
X-247922Y-29481D01*
X-247892Y-29509D01*
X-247883Y-29513D01*
X-247875Y-29520D01*
X-201075Y-56520D01*
X-201049Y-56529D01*
X-201026Y-56544D01*
X-200955Y-56560D01*
X-200886Y-56583D01*
X-200859Y-56581D01*
X-200832Y-56587D01*
X-200761Y-56573D01*
G37*
G36*
X-220170Y190000D02*
X-220170Y190000D01*
X-220139Y190009D01*
X-220096Y190011D01*
X-216160Y190908D01*
X-216131Y190922D01*
X-216088Y190930D01*
X-212329Y192404D01*
X-212302Y192422D01*
X-212262Y192437D01*
X-208765Y194454D01*
X-208741Y194475D01*
X-208703Y194496D01*
X-205545Y197013D01*
X-205525Y197037D01*
X-205491Y197064D01*
X-202743Y200022D01*
X-202727Y200050D01*
X-202697Y200081D01*
X-200421Y203416D01*
X-200409Y203445D01*
X-200384Y203481D01*
X-198631Y207118D01*
X-198623Y207149D01*
X-198604Y207187D01*
X-197412Y211045D01*
X-197409Y211077D01*
X-197396Y211118D01*
X-196793Y215110D01*
X-196794Y215142D01*
X-196787Y215185D01*
X-196786Y219223D01*
X-196792Y219254D01*
X-196791Y219297D01*
X-197392Y223290D01*
X-197403Y223320D01*
X-197408Y223362D01*
X-198597Y227221D01*
X-198612Y227249D01*
X-198624Y227291D01*
X-200375Y230929D01*
X-200392Y230951D01*
X-200401Y230976D01*
X-200451Y231029D01*
X-200495Y231087D01*
X-200519Y231101D01*
X-200538Y231121D01*
X-200604Y231150D01*
X-200668Y231186D01*
X-200695Y231190D01*
X-200720Y231201D01*
X-200793Y231201D01*
X-200865Y231210D01*
X-200891Y231203D01*
X-200919Y231203D01*
X-201017Y231166D01*
X-201056Y231155D01*
X-201064Y231149D01*
X-201075Y231145D01*
X-247875Y204145D01*
X-247895Y204127D01*
X-247920Y204116D01*
X-247969Y204062D01*
X-248024Y204013D01*
X-248035Y203989D01*
X-248054Y203969D01*
X-248078Y203900D01*
X-248109Y203834D01*
X-248111Y203807D01*
X-248120Y203781D01*
X-248115Y203708D01*
X-248118Y203635D01*
X-248109Y203610D01*
X-248107Y203583D01*
X-248063Y203487D01*
X-248049Y203449D01*
X-248042Y203442D01*
X-248038Y203431D01*
X-245764Y200095D01*
X-245741Y200072D01*
X-245718Y200036D01*
X-242972Y197076D01*
X-242946Y197057D01*
X-242918Y197025D01*
X-239762Y194506D01*
X-239733Y194492D01*
X-239700Y194464D01*
X-236204Y192444D01*
X-236174Y192434D01*
X-236137Y192412D01*
X-232379Y190936D01*
X-232347Y190930D01*
X-232307Y190914D01*
X-228371Y190014D01*
X-228339Y190013D01*
X-228297Y190003D01*
X-224271Y189700D01*
X-224240Y189704D01*
X-224197Y189700D01*
X-220170Y190000D01*
G37*
G36*
X-299199Y59816D02*
X-299199Y59816D01*
X-299188Y59815D01*
X-295164Y60116D01*
X-295133Y60125D01*
X-295090Y60127D01*
X-291156Y61025D01*
X-291127Y61038D01*
X-291084Y61047D01*
X-287328Y62522D01*
X-287301Y62539D01*
X-287261Y62554D01*
X-283766Y64572D01*
X-283742Y64593D01*
X-283704Y64614D01*
X-280549Y67130D01*
X-280529Y67154D01*
X-280494Y67181D01*
X-277750Y70139D01*
X-277733Y70166D01*
X-277703Y70197D01*
X-275430Y73531D01*
X-275417Y73561D01*
X-275393Y73596D01*
X-273642Y77232D01*
X-273634Y77263D01*
X-273614Y77301D01*
X-272425Y81157D01*
X-272422Y81189D01*
X-272408Y81230D01*
X-271807Y85220D01*
X-271808Y85252D01*
X-271801Y85295D01*
X-271801Y89330D01*
X-271808Y89361D01*
X-271807Y89405D01*
X-272408Y93395D01*
X-272419Y93425D01*
X-272425Y93468D01*
X-273614Y97324D01*
X-273630Y97352D01*
X-273642Y97393D01*
X-275393Y101029D01*
X-275412Y101055D01*
X-275430Y101094D01*
X-277703Y104428D01*
X-277726Y104450D01*
X-277750Y104486D01*
X-280494Y107444D01*
X-280520Y107463D01*
X-280549Y107495D01*
X-283704Y110011D01*
X-283732Y110026D01*
X-283766Y110053D01*
X-287261Y112071D01*
X-287291Y112081D01*
X-287328Y112103D01*
X-291084Y113578D01*
X-291116Y113583D01*
X-291156Y113600D01*
X-295090Y114498D01*
X-295122Y114498D01*
X-295164Y114509D01*
X-299188Y114810D01*
X-299215Y114807D01*
X-299242Y114811D01*
X-299312Y114795D01*
X-299385Y114785D01*
X-299409Y114772D01*
X-299435Y114765D01*
X-299494Y114722D01*
X-299557Y114685D01*
X-299573Y114664D01*
X-299595Y114648D01*
X-299632Y114585D01*
X-299676Y114526D01*
X-299683Y114500D01*
X-299697Y114477D01*
X-299714Y114373D01*
X-299724Y114333D01*
X-299722Y114324D01*
X-299724Y114313D01*
X-299724Y60313D01*
X-299719Y60286D01*
X-299721Y60259D01*
X-299699Y60189D01*
X-299685Y60118D01*
X-299669Y60095D01*
X-299661Y60069D01*
X-299613Y60014D01*
X-299572Y59954D01*
X-299549Y59939D01*
X-299531Y59918D01*
X-299466Y59886D01*
X-299405Y59847D01*
X-299378Y59842D01*
X-299353Y59830D01*
X-299249Y59820D01*
X-299208Y59814D01*
X-299199Y59816D01*
G37*
%LPC*%
G36*
X222468Y114688D02*
X222468Y114688D01*
X221575Y115581D01*
X221575Y126844D01*
X222468Y127737D01*
X230035Y127737D01*
X230125Y127752D01*
X230216Y127759D01*
X230246Y127772D01*
X230278Y127777D01*
X230359Y127820D01*
X230443Y127855D01*
X230475Y127881D01*
X230495Y127892D01*
X230518Y127915D01*
X230574Y127960D01*
X232602Y129988D01*
X232644Y130046D01*
X232693Y130098D01*
X232715Y130146D01*
X232745Y130188D01*
X232766Y130256D01*
X232797Y130322D01*
X232802Y130373D01*
X232818Y130423D01*
X232816Y130495D01*
X232824Y130566D01*
X232813Y130617D01*
X232811Y130669D01*
X232787Y130736D01*
X232771Y130806D01*
X232745Y130851D01*
X232727Y130900D01*
X232682Y130956D01*
X232645Y131017D01*
X232606Y131051D01*
X232573Y131092D01*
X232513Y131131D01*
X232458Y131177D01*
X232410Y131197D01*
X232366Y131225D01*
X232297Y131242D01*
X232230Y131269D01*
X232159Y131277D01*
X232128Y131285D01*
X232104Y131283D01*
X232063Y131288D01*
X230881Y131288D01*
X229988Y132181D01*
X229988Y147444D01*
X230881Y148337D01*
X242144Y148337D01*
X243037Y147444D01*
X243037Y132181D01*
X242144Y131288D01*
X240322Y131288D01*
X240303Y131285D01*
X240283Y131287D01*
X240182Y131265D01*
X240080Y131248D01*
X240062Y131239D01*
X240043Y131234D01*
X239954Y131181D01*
X239862Y131133D01*
X239849Y131119D01*
X239832Y131108D01*
X239764Y131030D01*
X239693Y130955D01*
X239685Y130937D01*
X239672Y130921D01*
X239633Y130825D01*
X239589Y130732D01*
X239587Y130712D01*
X239580Y130693D01*
X239561Y130527D01*
X239561Y128325D01*
X235848Y124611D01*
X235795Y124537D01*
X235735Y124468D01*
X235723Y124438D01*
X235704Y124411D01*
X235677Y124324D01*
X235643Y124240D01*
X235639Y124199D01*
X235632Y124176D01*
X235633Y124144D01*
X235625Y124073D01*
X235625Y115581D01*
X234732Y114688D01*
X222468Y114688D01*
G37*
%LPD*%
%LPC*%
G36*
X91231Y38988D02*
X91231Y38988D01*
X90338Y39881D01*
X90338Y47714D01*
X90335Y47734D01*
X90337Y47753D01*
X90315Y47855D01*
X90298Y47957D01*
X90289Y47974D01*
X90284Y47994D01*
X90231Y48083D01*
X90183Y48174D01*
X90169Y48188D01*
X90158Y48205D01*
X90080Y48272D01*
X90005Y48344D01*
X89987Y48352D01*
X89971Y48365D01*
X89875Y48404D01*
X89782Y48447D01*
X89762Y48449D01*
X89743Y48457D01*
X89577Y48475D01*
X81181Y48475D01*
X80288Y49368D01*
X80288Y60632D01*
X81181Y61525D01*
X93444Y61525D01*
X94337Y60632D01*
X94337Y56798D01*
X94340Y56779D01*
X94338Y56759D01*
X94360Y56658D01*
X94377Y56556D01*
X94386Y56538D01*
X94391Y56519D01*
X94444Y56430D01*
X94492Y56338D01*
X94506Y56325D01*
X94517Y56308D01*
X94595Y56240D01*
X94670Y56169D01*
X94688Y56161D01*
X94704Y56148D01*
X94800Y56109D01*
X94893Y56065D01*
X94913Y56063D01*
X94932Y56056D01*
X95098Y56037D01*
X102494Y56037D01*
X103387Y55144D01*
X103387Y39881D01*
X102494Y38988D01*
X91231Y38988D01*
G37*
%LPD*%
%LPC*%
G36*
X74768Y18375D02*
X74768Y18375D01*
X73875Y19268D01*
X73875Y29483D01*
X73861Y29573D01*
X73853Y29664D01*
X73841Y29693D01*
X73836Y29725D01*
X73793Y29806D01*
X73757Y29890D01*
X73731Y29922D01*
X73720Y29943D01*
X73697Y29965D01*
X73652Y30021D01*
X72053Y31620D01*
X70738Y34795D01*
X70738Y38230D01*
X72053Y41405D01*
X74483Y43834D01*
X77657Y45149D01*
X81093Y45149D01*
X84267Y43834D01*
X86697Y41405D01*
X88012Y38230D01*
X88012Y34795D01*
X86932Y32189D01*
X86906Y32075D01*
X86877Y31961D01*
X86878Y31955D01*
X86876Y31949D01*
X86887Y31833D01*
X86896Y31716D01*
X86899Y31710D01*
X86899Y31704D01*
X86925Y31647D01*
X86925Y19268D01*
X86032Y18375D01*
X74768Y18375D01*
G37*
%LPD*%
%LPC*%
G36*
X172193Y38988D02*
X172193Y38988D01*
X171300Y39881D01*
X171300Y53291D01*
X171286Y53381D01*
X171278Y53472D01*
X171266Y53501D01*
X171261Y53533D01*
X171218Y53614D01*
X171182Y53698D01*
X171156Y53730D01*
X171145Y53751D01*
X171122Y53773D01*
X171077Y53829D01*
X170775Y54131D01*
X170775Y65394D01*
X171668Y66287D01*
X183932Y66287D01*
X184825Y65394D01*
X184825Y54131D01*
X184573Y53879D01*
X184520Y53805D01*
X184460Y53735D01*
X184448Y53705D01*
X184429Y53679D01*
X184402Y53592D01*
X184368Y53507D01*
X184364Y53466D01*
X184357Y53444D01*
X184358Y53412D01*
X184350Y53341D01*
X184350Y39881D01*
X183457Y38988D01*
X172193Y38988D01*
G37*
%LPD*%
%LPC*%
G36*
X129331Y38988D02*
X129331Y38988D01*
X128438Y39881D01*
X128438Y53291D01*
X128423Y53381D01*
X128416Y53472D01*
X128403Y53501D01*
X128398Y53533D01*
X128355Y53614D01*
X128320Y53698D01*
X128294Y53730D01*
X128283Y53751D01*
X128260Y53773D01*
X128215Y53829D01*
X127913Y54131D01*
X127913Y65394D01*
X128806Y66287D01*
X141069Y66287D01*
X141962Y65394D01*
X141962Y54131D01*
X141710Y53879D01*
X141657Y53805D01*
X141598Y53735D01*
X141585Y53705D01*
X141567Y53679D01*
X141540Y53592D01*
X141506Y53507D01*
X141501Y53466D01*
X141494Y53444D01*
X141495Y53412D01*
X141487Y53341D01*
X141487Y39881D01*
X140594Y38988D01*
X129331Y38988D01*
G37*
%LPD*%
%LPC*%
G36*
X210293Y38988D02*
X210293Y38988D01*
X209400Y39881D01*
X209400Y55144D01*
X210293Y56037D01*
X211289Y56037D01*
X211309Y56040D01*
X211328Y56038D01*
X211430Y56060D01*
X211532Y56077D01*
X211549Y56086D01*
X211569Y56091D01*
X211658Y56144D01*
X211749Y56192D01*
X211763Y56206D01*
X211780Y56217D01*
X211847Y56295D01*
X211919Y56370D01*
X211927Y56388D01*
X211940Y56404D01*
X211979Y56500D01*
X212022Y56593D01*
X212024Y56613D01*
X212032Y56632D01*
X212050Y56798D01*
X212050Y63807D01*
X212943Y64700D01*
X225207Y64700D01*
X226100Y63807D01*
X226100Y52543D01*
X225207Y51650D01*
X223211Y51650D01*
X223191Y51647D01*
X223172Y51649D01*
X223070Y51627D01*
X222968Y51611D01*
X222951Y51601D01*
X222931Y51597D01*
X222842Y51544D01*
X222751Y51495D01*
X222737Y51481D01*
X222720Y51471D01*
X222653Y51392D01*
X222581Y51317D01*
X222573Y51299D01*
X222560Y51284D01*
X222521Y51188D01*
X222478Y51094D01*
X222476Y51074D01*
X222468Y51056D01*
X222450Y50889D01*
X222450Y39881D01*
X221557Y38988D01*
X210293Y38988D01*
G37*
%LPD*%
%LPC*%
G36*
X171668Y16263D02*
X171668Y16263D01*
X170775Y17156D01*
X170775Y28419D01*
X171668Y29312D01*
X180039Y29312D01*
X180059Y29315D01*
X180078Y29313D01*
X180180Y29335D01*
X180282Y29352D01*
X180299Y29361D01*
X180319Y29366D01*
X180408Y29419D01*
X180499Y29467D01*
X180513Y29481D01*
X180530Y29492D01*
X180597Y29570D01*
X180669Y29645D01*
X180677Y29663D01*
X180690Y29679D01*
X180729Y29775D01*
X180772Y29868D01*
X180774Y29888D01*
X180782Y29907D01*
X180800Y30073D01*
X180800Y33144D01*
X181693Y34037D01*
X192957Y34037D01*
X193850Y33144D01*
X193850Y17881D01*
X192957Y16988D01*
X184972Y16988D01*
X184882Y16973D01*
X184791Y16966D01*
X184761Y16953D01*
X184729Y16948D01*
X184648Y16905D01*
X184565Y16870D01*
X184532Y16844D01*
X184512Y16833D01*
X184490Y16810D01*
X184434Y16765D01*
X183932Y16263D01*
X171668Y16263D01*
G37*
%LPD*%
%LPC*%
G36*
X97556Y153288D02*
X97556Y153288D01*
X96663Y154181D01*
X96663Y157314D01*
X96660Y157334D01*
X96662Y157353D01*
X96640Y157455D01*
X96623Y157557D01*
X96614Y157574D01*
X96609Y157594D01*
X96556Y157683D01*
X96508Y157774D01*
X96494Y157788D01*
X96483Y157805D01*
X96405Y157872D01*
X96330Y157944D01*
X96312Y157952D01*
X96296Y157965D01*
X96200Y158004D01*
X96107Y158047D01*
X96087Y158049D01*
X96068Y158057D01*
X95902Y158075D01*
X88593Y158075D01*
X87700Y158968D01*
X87700Y171232D01*
X88593Y172125D01*
X99857Y172125D01*
X100750Y171232D01*
X100750Y171098D01*
X100753Y171079D01*
X100751Y171059D01*
X100773Y170958D01*
X100789Y170856D01*
X100799Y170838D01*
X100803Y170819D01*
X100856Y170730D01*
X100905Y170638D01*
X100919Y170625D01*
X100929Y170608D01*
X101008Y170540D01*
X101083Y170469D01*
X101101Y170461D01*
X101116Y170448D01*
X101212Y170409D01*
X101306Y170365D01*
X101326Y170363D01*
X101344Y170356D01*
X101511Y170337D01*
X108819Y170337D01*
X109712Y169444D01*
X109712Y154181D01*
X108819Y153288D01*
X97556Y153288D01*
G37*
%LPD*%
%LPC*%
G36*
X221381Y153288D02*
X221381Y153288D01*
X220488Y154181D01*
X220488Y157314D01*
X220485Y157334D01*
X220487Y157353D01*
X220465Y157455D01*
X220448Y157557D01*
X220439Y157574D01*
X220434Y157594D01*
X220381Y157683D01*
X220333Y157774D01*
X220319Y157788D01*
X220308Y157805D01*
X220230Y157872D01*
X220155Y157944D01*
X220137Y157952D01*
X220121Y157965D01*
X220025Y158004D01*
X219932Y158047D01*
X219912Y158049D01*
X219893Y158057D01*
X219727Y158075D01*
X212418Y158075D01*
X211525Y158968D01*
X211525Y171232D01*
X212418Y172125D01*
X223682Y172125D01*
X224575Y171232D01*
X224575Y171098D01*
X224578Y171079D01*
X224576Y171059D01*
X224598Y170958D01*
X224614Y170856D01*
X224624Y170838D01*
X224628Y170819D01*
X224681Y170730D01*
X224730Y170638D01*
X224744Y170625D01*
X224754Y170608D01*
X224833Y170540D01*
X224908Y170469D01*
X224926Y170461D01*
X224941Y170448D01*
X225037Y170409D01*
X225131Y170365D01*
X225151Y170363D01*
X225169Y170356D01*
X225336Y170337D01*
X232644Y170337D01*
X233537Y169444D01*
X233537Y154181D01*
X232644Y153288D01*
X221381Y153288D01*
G37*
%LPD*%
%LPC*%
G36*
X138831Y153288D02*
X138831Y153288D01*
X137938Y154181D01*
X137938Y157314D01*
X137935Y157334D01*
X137937Y157353D01*
X137915Y157455D01*
X137898Y157557D01*
X137889Y157574D01*
X137884Y157594D01*
X137831Y157683D01*
X137783Y157774D01*
X137769Y157788D01*
X137758Y157805D01*
X137680Y157872D01*
X137605Y157944D01*
X137587Y157952D01*
X137571Y157965D01*
X137475Y158004D01*
X137382Y158047D01*
X137362Y158049D01*
X137343Y158057D01*
X137177Y158075D01*
X129868Y158075D01*
X128975Y158968D01*
X128975Y171232D01*
X129868Y172125D01*
X141132Y172125D01*
X142025Y171232D01*
X142025Y171098D01*
X142028Y171079D01*
X142026Y171059D01*
X142048Y170958D01*
X142064Y170856D01*
X142074Y170838D01*
X142078Y170819D01*
X142131Y170730D01*
X142180Y170638D01*
X142194Y170625D01*
X142204Y170608D01*
X142283Y170540D01*
X142358Y170469D01*
X142376Y170461D01*
X142391Y170448D01*
X142487Y170409D01*
X142581Y170365D01*
X142601Y170363D01*
X142619Y170356D01*
X142786Y170337D01*
X150094Y170337D01*
X150987Y169444D01*
X150987Y154181D01*
X150094Y153288D01*
X138831Y153288D01*
G37*
%LPD*%
%LPC*%
G36*
X137806Y7263D02*
X137806Y7263D01*
X136913Y8156D01*
X136913Y20419D01*
X137715Y21221D01*
X137768Y21295D01*
X137827Y21364D01*
X137839Y21395D01*
X137858Y21421D01*
X137885Y21508D01*
X137919Y21593D01*
X137924Y21634D01*
X137931Y21656D01*
X137930Y21688D01*
X137938Y21759D01*
X137938Y33144D01*
X138831Y34037D01*
X150094Y34037D01*
X150987Y33144D01*
X150987Y17881D01*
X150185Y17079D01*
X150132Y17005D01*
X150073Y16935D01*
X150060Y16905D01*
X150042Y16879D01*
X150015Y16792D01*
X149981Y16707D01*
X149976Y16666D01*
X149969Y16644D01*
X149970Y16612D01*
X149962Y16541D01*
X149962Y8156D01*
X149069Y7263D01*
X137806Y7263D01*
G37*
%LPD*%
%LPC*%
G36*
X189131Y122625D02*
X189131Y122625D01*
X188238Y123518D01*
X188238Y134782D01*
X188490Y135034D01*
X188543Y135108D01*
X188602Y135177D01*
X188615Y135207D01*
X188633Y135233D01*
X188660Y135320D01*
X188694Y135405D01*
X188699Y135446D01*
X188706Y135468D01*
X188705Y135501D01*
X188713Y135572D01*
X188713Y147444D01*
X189606Y148337D01*
X200869Y148337D01*
X201762Y147444D01*
X201762Y135622D01*
X201777Y135532D01*
X201784Y135441D01*
X201797Y135411D01*
X201802Y135379D01*
X201845Y135298D01*
X201880Y135215D01*
X201906Y135182D01*
X201917Y135162D01*
X201940Y135140D01*
X201985Y135084D01*
X202287Y134782D01*
X202287Y123518D01*
X201394Y122625D01*
X189131Y122625D01*
G37*
%LPD*%
%LPC*%
G36*
X147856Y122625D02*
X147856Y122625D01*
X146963Y123518D01*
X146963Y134782D01*
X147215Y135034D01*
X147268Y135108D01*
X147327Y135177D01*
X147340Y135207D01*
X147358Y135233D01*
X147385Y135320D01*
X147419Y135405D01*
X147424Y135446D01*
X147431Y135468D01*
X147430Y135501D01*
X147438Y135572D01*
X147438Y147444D01*
X148331Y148337D01*
X159594Y148337D01*
X160487Y147444D01*
X160487Y135622D01*
X160502Y135532D01*
X160509Y135441D01*
X160522Y135411D01*
X160527Y135379D01*
X160570Y135298D01*
X160605Y135215D01*
X160631Y135182D01*
X160642Y135162D01*
X160665Y135140D01*
X160710Y135084D01*
X161012Y134782D01*
X161012Y123518D01*
X160119Y122625D01*
X147856Y122625D01*
G37*
%LPD*%
%LPC*%
G36*
X219293Y8325D02*
X219293Y8325D01*
X218400Y9218D01*
X218400Y20482D01*
X218677Y20759D01*
X218731Y20833D01*
X218790Y20902D01*
X218802Y20932D01*
X218821Y20958D01*
X218848Y21045D01*
X218882Y21130D01*
X218886Y21171D01*
X218893Y21193D01*
X218892Y21226D01*
X218900Y21297D01*
X218900Y33144D01*
X219793Y34037D01*
X231057Y34037D01*
X231950Y33144D01*
X231950Y21297D01*
X231964Y21207D01*
X231972Y21116D01*
X231984Y21086D01*
X231989Y21054D01*
X232032Y20974D01*
X232068Y20890D01*
X232094Y20857D01*
X232105Y20837D01*
X232128Y20815D01*
X232173Y20759D01*
X232450Y20482D01*
X232450Y9218D01*
X231557Y8325D01*
X219293Y8325D01*
G37*
%LPD*%
%LPC*%
G36*
X100731Y16988D02*
X100731Y16988D01*
X99726Y17993D01*
X99683Y18074D01*
X99669Y18088D01*
X99658Y18105D01*
X99580Y18172D01*
X99505Y18244D01*
X99487Y18252D01*
X99471Y18265D01*
X99375Y18304D01*
X99282Y18347D01*
X99262Y18349D01*
X99243Y18357D01*
X99077Y18375D01*
X91768Y18375D01*
X90875Y19268D01*
X90875Y31532D01*
X91768Y32425D01*
X99077Y32425D01*
X99096Y32428D01*
X99116Y32426D01*
X99217Y32448D01*
X99319Y32464D01*
X99337Y32474D01*
X99356Y32478D01*
X99445Y32531D01*
X99537Y32580D01*
X99550Y32594D01*
X99567Y32604D01*
X99635Y32683D01*
X99706Y32758D01*
X99714Y32776D01*
X99727Y32791D01*
X99766Y32887D01*
X99810Y32981D01*
X99812Y33001D01*
X99819Y33019D01*
X99833Y33139D01*
X100731Y34037D01*
X111994Y34037D01*
X112887Y33144D01*
X112887Y17881D01*
X111994Y16988D01*
X100731Y16988D01*
G37*
%LPD*%
%LPC*%
G36*
X106581Y124213D02*
X106581Y124213D01*
X105688Y125106D01*
X105688Y136369D01*
X105940Y136621D01*
X105993Y136695D01*
X106052Y136764D01*
X106064Y136795D01*
X106083Y136821D01*
X106110Y136908D01*
X106144Y136993D01*
X106149Y137034D01*
X106156Y137056D01*
X106155Y137088D01*
X106163Y137159D01*
X106163Y147444D01*
X107056Y148337D01*
X118319Y148337D01*
X119212Y147444D01*
X119212Y137209D01*
X119227Y137119D01*
X119234Y137028D01*
X119247Y136999D01*
X119252Y136967D01*
X119295Y136886D01*
X119330Y136802D01*
X119356Y136770D01*
X119367Y136749D01*
X119390Y136727D01*
X119435Y136671D01*
X119737Y136369D01*
X119737Y125106D01*
X118844Y124213D01*
X106581Y124213D01*
G37*
%LPD*%
%LPC*%
G36*
X249045Y115696D02*
X249045Y115696D01*
X244284Y120458D01*
X244284Y127192D01*
X249045Y131954D01*
X255780Y131954D01*
X260541Y127192D01*
X260541Y120458D01*
X255780Y115696D01*
X249045Y115696D01*
G37*
%LPD*%
%LPC*%
G36*
X274445Y42671D02*
X274445Y42671D01*
X269684Y47433D01*
X269684Y54167D01*
X274445Y58929D01*
X281180Y58929D01*
X285941Y54167D01*
X285941Y47433D01*
X281180Y42671D01*
X274445Y42671D01*
G37*
%LPD*%
%LPC*%
G36*
X249045Y42671D02*
X249045Y42671D01*
X244284Y47433D01*
X244284Y54167D01*
X249045Y58929D01*
X255780Y58929D01*
X260541Y54167D01*
X260541Y47433D01*
X255780Y42671D01*
X249045Y42671D01*
G37*
%LPD*%
%LPC*%
G36*
X274445Y115696D02*
X274445Y115696D01*
X269684Y120458D01*
X269684Y127192D01*
X274445Y131954D01*
X281180Y131954D01*
X285941Y127192D01*
X285941Y120458D01*
X281180Y115696D01*
X274445Y115696D01*
G37*
%LPD*%
%LPC*%
G36*
X107758Y-47816D02*
X107758Y-47816D01*
X102996Y-43055D01*
X102996Y-36320D01*
X107758Y-31559D01*
X114492Y-31559D01*
X119254Y-36320D01*
X119254Y-43055D01*
X114492Y-47816D01*
X107758Y-47816D01*
G37*
%LPD*%
%LPC*%
G36*
X185545Y-47816D02*
X185545Y-47816D01*
X180784Y-43055D01*
X180784Y-36320D01*
X185545Y-31559D01*
X192280Y-31559D01*
X197041Y-36320D01*
X197041Y-43055D01*
X192280Y-47816D01*
X185545Y-47816D01*
G37*
%LPD*%
G36*
X-175807Y142887D02*
X-175807Y142887D01*
X-175756Y142889D01*
X-175724Y142907D01*
X-175688Y142915D01*
X-175648Y142948D01*
X-175604Y142972D01*
X-175583Y143002D01*
X-175554Y143026D01*
X-175533Y143072D01*
X-175504Y143114D01*
X-175496Y143156D01*
X-175483Y143184D01*
X-175484Y143214D01*
X-175476Y143256D01*
X-175476Y156781D01*
X-175488Y156831D01*
X-175490Y156882D01*
X-175507Y156914D01*
X-175516Y156950D01*
X-175548Y156990D01*
X-175573Y157034D01*
X-175603Y157055D01*
X-175626Y157084D01*
X-175673Y157105D01*
X-175714Y157134D01*
X-175756Y157142D01*
X-175784Y157155D01*
X-175815Y157154D01*
X-175857Y157162D01*
X-176618Y157162D01*
X-176668Y157150D01*
X-176719Y157148D01*
X-176751Y157131D01*
X-176787Y157122D01*
X-176827Y157090D01*
X-176871Y157065D01*
X-176892Y157035D01*
X-176921Y157012D01*
X-176942Y156965D01*
X-176971Y156924D01*
X-176979Y156882D01*
X-176992Y156854D01*
X-176991Y156823D01*
X-176999Y156781D01*
X-176999Y143256D01*
X-176987Y143206D01*
X-176985Y143155D01*
X-176968Y143123D01*
X-176959Y143087D01*
X-176927Y143048D01*
X-176902Y143003D01*
X-176872Y142982D01*
X-176849Y142954D01*
X-176802Y142933D01*
X-176761Y142903D01*
X-176719Y142895D01*
X-176691Y142883D01*
X-176660Y142884D01*
X-176618Y142876D01*
X-175857Y142876D01*
X-175807Y142887D01*
G37*
G36*
X-175807Y157175D02*
X-175807Y157175D01*
X-175756Y157177D01*
X-175724Y157194D01*
X-175688Y157203D01*
X-175648Y157235D01*
X-175604Y157260D01*
X-175583Y157290D01*
X-175554Y157313D01*
X-175533Y157360D01*
X-175504Y157401D01*
X-175496Y157443D01*
X-175483Y157471D01*
X-175484Y157502D01*
X-175476Y157544D01*
X-175476Y167455D01*
X-175471Y167483D01*
X-175458Y167511D01*
X-175459Y167542D01*
X-175451Y167583D01*
X-175451Y168919D01*
X-175463Y168969D01*
X-175465Y169020D01*
X-175482Y169052D01*
X-175491Y169088D01*
X-175523Y169127D01*
X-175548Y169172D01*
X-175578Y169193D01*
X-175601Y169221D01*
X-175648Y169242D01*
X-175689Y169272D01*
X-175731Y169280D01*
X-175759Y169292D01*
X-175790Y169291D01*
X-175832Y169299D01*
X-176593Y169299D01*
X-176643Y169288D01*
X-176694Y169286D01*
X-176726Y169268D01*
X-176762Y169260D01*
X-176802Y169227D01*
X-176846Y169203D01*
X-176867Y169173D01*
X-176896Y169149D01*
X-176917Y169103D01*
X-176946Y169061D01*
X-176954Y169019D01*
X-176967Y168991D01*
X-176966Y168961D01*
X-176974Y168919D01*
X-176974Y161508D01*
X-176979Y161479D01*
X-176992Y161451D01*
X-176991Y161421D01*
X-176999Y161379D01*
X-176999Y157544D01*
X-176987Y157494D01*
X-176985Y157443D01*
X-176968Y157411D01*
X-176959Y157375D01*
X-176927Y157335D01*
X-176902Y157291D01*
X-176872Y157270D01*
X-176849Y157241D01*
X-176802Y157220D01*
X-176761Y157191D01*
X-176719Y157183D01*
X-176691Y157170D01*
X-176660Y157171D01*
X-176618Y157163D01*
X-175857Y157163D01*
X-175807Y157175D01*
G37*
G36*
X-176807Y122250D02*
X-176807Y122250D01*
X-176756Y122252D01*
X-176724Y122269D01*
X-176688Y122278D01*
X-176648Y122310D01*
X-176604Y122335D01*
X-176583Y122365D01*
X-176554Y122388D01*
X-176533Y122435D01*
X-176504Y122476D01*
X-176496Y122518D01*
X-176483Y122546D01*
X-176484Y122577D01*
X-176476Y122619D01*
X-176476Y131381D01*
X-176488Y131431D01*
X-176490Y131482D01*
X-176507Y131514D01*
X-176516Y131550D01*
X-176548Y131590D01*
X-176573Y131634D01*
X-176603Y131655D01*
X-176626Y131684D01*
X-176673Y131705D01*
X-176714Y131734D01*
X-176756Y131742D01*
X-176784Y131755D01*
X-176815Y131754D01*
X-176857Y131762D01*
X-177618Y131762D01*
X-177668Y131750D01*
X-177719Y131748D01*
X-177751Y131731D01*
X-177787Y131722D01*
X-177827Y131690D01*
X-177871Y131665D01*
X-177892Y131635D01*
X-177921Y131612D01*
X-177942Y131565D01*
X-177971Y131524D01*
X-177979Y131482D01*
X-177992Y131454D01*
X-177991Y131438D01*
X-177992Y131437D01*
X-177991Y131420D01*
X-177999Y131381D01*
X-177999Y122619D01*
X-177987Y122569D01*
X-177985Y122518D01*
X-177968Y122486D01*
X-177959Y122450D01*
X-177927Y122410D01*
X-177902Y122366D01*
X-177872Y122345D01*
X-177849Y122316D01*
X-177802Y122295D01*
X-177761Y122266D01*
X-177719Y122258D01*
X-177691Y122245D01*
X-177660Y122246D01*
X-177618Y122238D01*
X-176857Y122238D01*
X-176807Y122250D01*
G37*
D10*
X-135638Y125413D03*
X-147638Y125413D03*
X-159637Y125413D03*
D11*
X-149225Y252513D03*
X1495Y164833D03*
X1495Y9793D03*
X-149225Y-77888D03*
X-220725Y211213D03*
X-77725Y211213D03*
X-77725Y-36588D03*
X-220725Y-36588D03*
X150775Y252513D03*
X293875Y169913D03*
X293875Y4713D03*
X150775Y-77888D03*
X-292292Y169913D03*
X-292292Y4713D03*
X-292325Y87313D03*
D12*
X103188Y161813D03*
X93688Y139813D03*
X112688Y139813D03*
X144463Y161813D03*
X134963Y139813D03*
X153963Y139813D03*
X144463Y25513D03*
X153963Y47513D03*
X134963Y47513D03*
X187325Y25513D03*
X196825Y47513D03*
X177825Y47513D03*
X225425Y25513D03*
X234925Y47513D03*
X215925Y47513D03*
X227013Y161813D03*
X217513Y139813D03*
X236513Y139813D03*
X185738Y161813D03*
X176238Y139813D03*
X195238Y139813D03*
X106363Y25513D03*
X115863Y47513D03*
X96863Y47513D03*
D13*
X-73025Y36513D03*
X-47625Y36513D03*
X-22225Y36513D03*
X3175Y36513D03*
X28575Y36513D03*
X53975Y36513D03*
X79375Y36513D03*
X79375Y138113D03*
X53975Y138113D03*
X28575Y138113D03*
X3175Y138113D03*
X-22225Y138113D03*
X-47625Y138113D03*
X-73025Y138113D03*
D14*
X-184670Y105238D03*
X-179669Y105238D03*
X-174667Y105238D03*
X-169666Y105238D03*
X-164665Y105238D03*
X-159664Y105238D03*
X-154662Y105238D03*
X-149661Y105238D03*
X-144660Y105238D03*
X-139659Y105238D03*
X-134657Y105238D03*
X-129656Y105238D03*
D15*
X-123363Y98945D03*
X-123363Y93944D03*
X-123363Y88942D03*
X-123363Y83941D03*
X-123363Y78940D03*
X-123363Y73939D03*
X-123363Y68937D03*
X-123363Y63936D03*
X-123363Y58935D03*
X-123363Y53934D03*
X-123363Y48932D03*
X-123363Y43931D03*
D14*
X-129656Y37638D03*
X-134657Y37638D03*
X-139659Y37638D03*
X-144660Y37638D03*
X-149661Y37638D03*
X-154662Y37638D03*
X-159664Y37638D03*
X-164665Y37638D03*
X-169666Y37638D03*
X-174667Y37638D03*
X-179669Y37638D03*
X-184670Y37638D03*
D15*
X-190963Y43931D03*
X-190963Y48932D03*
X-190963Y53934D03*
X-190963Y58935D03*
X-190963Y63936D03*
X-190963Y68937D03*
X-190963Y73939D03*
X-190963Y78940D03*
X-190963Y83941D03*
X-190963Y88942D03*
X-190963Y93944D03*
X-190963Y98945D03*
D16*
X-157163Y71438D03*
D17*
X-150813Y203200D03*
D18*
X277813Y123825D03*
X252413Y123825D03*
X277813Y50800D03*
X252413Y50800D03*
D19*
X188913Y-39688D03*
X188913Y-14288D03*
X111125Y-39688D03*
X111125Y-14288D03*
D20*
X87313Y72000D03*
X87313Y55000D03*
X195263Y112150D03*
X195263Y129150D03*
X228600Y104213D03*
X228600Y121213D03*
X219075Y75175D03*
X219075Y58175D03*
X177800Y76763D03*
X177800Y59763D03*
X134938Y76763D03*
X134938Y59763D03*
X153988Y112150D03*
X153988Y129150D03*
X112713Y113738D03*
X112713Y130738D03*
D21*
X77225Y165100D03*
X94225Y165100D03*
X135500Y165100D03*
X118500Y165100D03*
X143438Y14288D03*
X126438Y14288D03*
D20*
X177800Y22788D03*
X177800Y5788D03*
X225425Y14850D03*
X225425Y-2150D03*
D21*
X218050Y165100D03*
X201050Y165100D03*
X176775Y165100D03*
X159775Y165100D03*
X97400Y25400D03*
X80400Y25400D03*
D20*
X-207963Y20075D03*
X-207963Y37075D03*
X-176213Y169300D03*
X-176213Y186300D03*
X-131200Y146050D03*
X-148200Y146050D03*
X-194238Y131763D03*
X-177238Y131763D03*
X-194238Y122238D03*
X-177238Y122238D03*
X-167250Y15875D03*
X-150250Y15875D03*
D22*
X-195238Y157163D03*
X-176238Y157163D03*
X-195238Y142875D03*
X-176238Y142875D03*
X-168250Y4763D03*
X-149250Y4763D03*
D20*
X-195263Y169300D03*
X-195263Y186300D03*
D23*
X-246063Y63500D03*
X-246063Y38100D03*
X-246063Y12700D03*
D21*
X83575Y-14288D03*
X100575Y-14288D03*
D24*
X-159664Y23462D02*
X-159664Y37638D01*
X-159664Y23462D02*
X-167250Y15875D01*
D25*
X-195263Y186300D02*
X-195263Y193675D01*
X-192088Y196850D01*
D26*
X-192088Y196850D03*
D25*
X-168250Y4763D02*
X-168250Y-7913D01*
X-168275Y-7938D01*
D26*
X-168275Y-7938D03*
D25*
X-168250Y4763D02*
X-168250Y14875D01*
X-167250Y15875D01*
D24*
X-154662Y20287D02*
X-154662Y37638D01*
X-154662Y20287D02*
X-150250Y15875D01*
D26*
X-152400Y11113D03*
X-130175Y9525D03*
X-155575Y49213D03*
X-141288Y49213D03*
X-195263Y14288D03*
X-187325Y19050D03*
X-165100Y95250D03*
X-152400Y95250D03*
X-157163Y158750D03*
X-147638Y153988D03*
X-230188Y150813D03*
X-230188Y141288D03*
X-68263Y161925D03*
X-74613Y152400D03*
X-92075Y15875D03*
X-100013Y9525D03*
D27*
X-247650Y111125D03*
D28*
X-177238Y122238D02*
X-177238Y131763D01*
X-177238Y141875D01*
X-176238Y142875D01*
X-176213Y157188D02*
X-176213Y169300D01*
X-176213Y157188D02*
X-176238Y157163D01*
X-176213Y157138D01*
X-176213Y142900D02*
X-176238Y142875D01*
X-176213Y142900D02*
X-176213Y157138D01*
D24*
X-164685Y117150D02*
X-162900Y115365D01*
X-164685Y117150D02*
X-164685Y119063D01*
X-154662Y108782D02*
X-154662Y105238D01*
X-154662Y108782D02*
X-161244Y115365D01*
X-162900Y115365D01*
X-164685Y119063D02*
X-167860Y122238D01*
X-177238Y122238D01*
D29*
X-128588Y144463D02*
X-128588Y180975D01*
X-150813Y203200D01*
D30*
X-131200Y146050D02*
X-130175Y146050D01*
X-128588Y144463D01*
D29*
X-134832Y115189D02*
X-139659Y110363D01*
X-139659Y105238D01*
X-134832Y115189D02*
X-130175Y115189D01*
X-128588Y116777D01*
X-128588Y144463D01*
D24*
X152375Y138225D02*
X153963Y139813D01*
X152375Y138225D02*
X152375Y128000D01*
X152837Y127999D02*
X153988Y129150D01*
X152837Y127999D02*
X152375Y128000D01*
X134938Y59763D02*
X135500Y48050D01*
X134963Y47513D01*
X176775Y48563D02*
X177800Y59763D01*
X176775Y48563D02*
X177825Y47513D01*
X215925Y55025D02*
X219075Y58175D01*
X215925Y55025D02*
X215925Y47513D01*
X236513Y129588D02*
X236513Y139813D01*
X236513Y129588D02*
X228600Y121675D01*
X228600Y121213D01*
X195238Y137525D02*
X195238Y139813D01*
X195263Y137500D02*
X195263Y129150D01*
X195263Y137500D02*
X195238Y137525D01*
X96863Y47513D02*
X93013Y51362D01*
X87313Y55000D01*
D29*
X108722Y109747D02*
X112713Y113738D01*
X108722Y109747D02*
X-11466Y109747D01*
X-32313Y88900D01*
X-123321Y88900D02*
X-123363Y88942D01*
X-123321Y88900D02*
X-32313Y88900D01*
X141288Y112150D02*
X153988Y112150D01*
X141288Y112150D02*
X133838Y104700D01*
X133714Y104775D01*
X-6913Y104775D01*
X-27747Y83941D01*
X-123363Y83941D01*
X-207963Y37075D02*
X-245038Y37075D01*
X-246063Y38100D01*
X-185232Y37075D02*
X-184670Y37638D01*
X-185232Y37075D02*
X-207963Y37075D01*
X177800Y76200D02*
X177800Y76763D01*
X177800Y76200D02*
X167767Y86233D01*
X12425Y86233D01*
X-9872Y63936D01*
X-123363Y63936D01*
X203953Y90297D02*
X219075Y75175D01*
X10742Y90297D02*
X-10594Y68961D01*
X10742Y90297D02*
X203953Y90297D01*
X-118590Y68937D02*
X-123363Y68937D01*
X-118590Y68937D02*
X-118565Y68961D01*
X-10594Y68961D01*
X227013Y104213D02*
X228600Y104213D01*
X227013Y104213D02*
X217554Y95936D01*
X4283Y95936D02*
X-17714Y73939D01*
X-123363Y73939D01*
X4283Y95936D02*
X217554Y95936D01*
X195263Y112150D02*
X188913Y112150D01*
X176775Y100013D01*
X-563Y100013D01*
X-21636Y78940D01*
X-123363Y78940D01*
D27*
X-106363Y52388D03*
D29*
X84138Y75175D02*
X87313Y72000D01*
X84138Y75175D02*
X22479Y75175D01*
X18447Y74613D01*
X-1295Y54871D01*
X-103880Y54871D02*
X-106363Y52388D01*
X-103880Y54871D02*
X-1295Y54871D01*
D27*
X-120650Y38100D03*
D29*
X-120650Y41218D02*
X-123363Y43931D01*
X-120650Y41218D02*
X-120650Y38100D01*
D31*
X-123825Y112713D03*
D29*
X-134657Y109618D02*
X-134657Y105238D01*
X-125413Y111125D02*
X-123825Y112713D01*
X-125413Y111125D02*
X-133149Y111125D01*
X-134657Y109618D01*
D31*
X-115888Y104775D03*
D29*
X-116350Y105238D02*
X-129656Y105238D01*
X-116350Y105238D02*
X-115888Y104775D01*
D27*
X-222250Y95250D03*
D29*
X-211138Y84138D02*
X-191160Y84138D01*
X-211138Y84138D02*
X-222250Y95250D01*
X-191160Y84138D02*
X-190963Y83941D01*
X-190963Y68937D02*
X-224512Y68937D01*
X-227013Y71438D01*
D31*
X-227013Y71438D03*
X-215900Y52388D03*
D29*
X-214354Y53934D01*
X-190963Y53934D01*
X-190963Y48932D02*
X-205069Y48932D01*
X-206375Y47625D01*
D31*
X-206375Y47625D03*
D27*
X-90488Y187325D03*
D24*
X-90297Y187135D01*
X-90297Y121992D01*
X-113344Y98945D02*
X-123363Y98945D01*
X-113344Y98945D02*
X-90297Y121992D01*
X-84138Y121686D02*
X-111880Y93944D01*
X-123363Y93944D01*
X-84138Y204800D02*
X-77725Y211213D01*
X-84138Y204800D02*
X-84138Y121686D01*
X-118782Y48932D02*
X-123363Y48932D01*
X-118782Y48932D02*
X-114300Y44450D01*
X-114300Y-13D01*
X-77725Y-36588D01*
D27*
X-90488Y-14288D03*
D24*
X-109728Y4953D01*
X-109728Y46344D01*
X-117318Y53934D01*
X-123363Y53934D01*
D29*
X-144660Y105238D02*
X-144660Y114763D01*
X-135638Y123784D02*
X-135638Y125413D01*
X-135638Y123784D02*
X-144660Y114763D01*
X-149661Y114484D02*
X-149661Y105238D01*
X-149661Y114484D02*
X-159637Y124461D01*
X-159637Y125413D01*
X134375Y76763D02*
X134938Y76763D01*
X134375Y76763D02*
X130175Y80963D01*
X14288Y80963D01*
X-7741Y58935D01*
X-123363Y58935D01*
X-179669Y37638D02*
X-179669Y34463D01*
X-186019Y28113D01*
X-233825Y28113D01*
X-246063Y15875D02*
X-246063Y12700D01*
X-246063Y15875D02*
X-233825Y28113D01*
D27*
X-268288Y74613D03*
D24*
X-230079Y63936D02*
X-190963Y63936D01*
X-240756Y74613D02*
X-268288Y74613D01*
X-240756Y74613D02*
X-230079Y63936D01*
X-230650Y58935D02*
X-190963Y58935D01*
X-230650Y58935D02*
X-237120Y52465D01*
X-257477Y52465D01*
X-292325Y87313D01*
X-177798Y6340D02*
X-220725Y-36588D01*
X-174013Y23923D02*
X-168165Y23923D01*
X-177798Y20138D02*
X-177798Y6340D01*
X-177798Y20138D02*
X-174013Y23923D01*
X-164665Y27423D02*
X-164665Y37638D01*
X-164665Y27423D02*
X-168165Y23923D01*
D29*
X-149661Y31324D02*
X-149661Y37638D01*
X-149661Y31324D02*
X-140924Y22588D01*
D24*
X-138113Y19776D01*
X-138113Y-3175D01*
X-171450Y-36513D01*
X-176213Y-36513D01*
D27*
X-176213Y-36513D03*
X-227013Y184150D03*
D24*
X-204033Y93944D02*
X-190963Y93944D01*
X-204033Y93944D02*
X-210898Y100809D01*
X-210898Y168036D01*
X-227013Y184150D01*
X-202075Y98945D02*
X-190963Y98945D01*
X-202075Y98945D02*
X-204850Y101720D01*
X-204850Y195338D01*
X-220725Y211213D01*
D27*
X-219075Y103188D03*
D29*
X-219075Y101600D02*
X-206417Y88942D01*
X-219075Y101600D02*
X-219075Y103188D01*
X-206417Y88942D02*
X-190963Y88942D01*
D24*
X112688Y132763D02*
X112688Y139813D01*
X112713Y132738D02*
X112713Y130738D01*
X112713Y132738D02*
X112688Y132763D01*
X-23831Y122256D02*
X-39688Y138113D01*
X-47625Y138113D01*
X67700Y155575D02*
X77225Y165100D01*
X67700Y155575D02*
X67700Y135882D01*
X54074Y122256D01*
X-23831Y122256D01*
X53975Y28494D02*
X75142Y7327D01*
X53975Y28494D02*
X53975Y36513D01*
X119477Y7327D02*
X126438Y14288D01*
X119477Y7327D02*
X75142Y7327D01*
X100575Y-14288D02*
X111125Y-14288D01*
D27*
X-222250Y85725D03*
D29*
X-215465Y78940D02*
X-190963Y78940D01*
X-215465Y78940D02*
X-222250Y85725D01*
D31*
X-220663Y76200D03*
D29*
X-218401Y73939D01*
X-190963Y73939D01*
D27*
X-122238Y20638D03*
D24*
X-134657Y29882D02*
X-134657Y37638D01*
X-125413Y20638D02*
X-122238Y20638D01*
X-125413Y20638D02*
X-134657Y29882D01*
X78155Y-14288D02*
X83575Y-14288D01*
X78155Y-14288D02*
X66562Y-9486D01*
X22031Y20270D01*
X15948Y26353D01*
X-102553Y26353D02*
X-103188Y26988D01*
D27*
X-103188Y26988D03*
X-120650Y28575D03*
D24*
X-102553Y26353D02*
X15948Y26353D01*
X-120650Y28575D02*
X-123768Y28575D01*
X-129656Y34463D01*
X-129656Y37638D01*
X182450Y165100D02*
X185738Y161813D01*
X182450Y165100D02*
X176775Y165100D01*
X3796Y138734D02*
X3175Y138113D01*
X3796Y138734D02*
X80019Y185738D01*
X159775Y173600D02*
X159775Y165100D01*
X159775Y173600D02*
X147638Y185738D01*
X80019Y185738D01*
X79375Y36513D02*
X79375Y26425D01*
X80400Y25400D01*
X97400Y25400D02*
X97513Y25513D01*
X106363Y25513D01*
X177800Y22788D02*
X186300Y24488D01*
X187325Y25513D01*
X73831Y1168D02*
X38486Y36513D01*
X28575Y36513D01*
X73831Y1168D02*
X164516Y1168D01*
X167713Y4364D01*
X169069Y5788D02*
X177800Y5788D01*
X169069Y5788D02*
X167713Y4364D01*
X144463Y161813D02*
X141175Y165100D01*
X135500Y165100D01*
X-22225Y138113D02*
X-22225Y136525D01*
X-12700Y127000D01*
X33338Y127000D01*
X42863Y136525D01*
X42863Y156528D01*
X82064Y180449D01*
X108476Y180449D01*
X118500Y170425D02*
X118500Y165100D01*
X118500Y170425D02*
X108476Y180449D01*
X225425Y25513D02*
X225988Y25513D01*
X225425Y14850D01*
X14207Y36513D02*
X3175Y36513D01*
X14207Y36513D02*
X25215Y25504D01*
X68516Y-3429D01*
X224146Y-3429D01*
X225425Y-2150D01*
X-60325Y150813D02*
X-73025Y138113D01*
X-60325Y150813D02*
X13290Y150813D01*
X80509Y192088D01*
X174503Y192088D01*
X201050Y165540D02*
X201050Y165100D01*
X201050Y165540D02*
X174503Y192088D01*
X223725Y165100D02*
X227013Y161813D01*
X223725Y165100D02*
X218050Y165100D01*
D30*
X144463Y25513D02*
X144463Y15313D01*
X143438Y14288D01*
D24*
X99900Y165100D02*
X94225Y165100D01*
X99900Y165100D02*
X103188Y161813D01*
M02*
