G04 EAGLE Gerber RS-274X export*
G75*
%MOMM*%
%FSLAX34Y34*%
%LPD*%
%INTop Copper*%
%IPPOS*%
%AMOC8*
5,1,8,0,0,1.08239X$1,22.5*%
G01*
%ADD10R,0.800000X0.800000*%
%ADD11C,1.000000*%
%ADD12R,1.000000X1.400000*%
%ADD13C,1.422400*%
%ADD14P,1.649562X8X22.500000*%
%ADD15P,1.429621X8X202.500000*%
%ADD16P,1.429621X8X112.500000*%
%ADD17R,1.100000X1.000000*%
%ADD18R,1.000000X1.100000*%
%ADD19C,1.524000*%
%ADD20C,0.750000*%
%ADD21C,0.254000*%
%ADD22C,0.600000*%
%ADD23C,0.304800*%
%ADD24C,0.406400*%
%ADD25C,0.550000*%

G36*
X150791Y-86377D02*
X150791Y-86377D01*
X150868Y-86378D01*
X150892Y-86369D01*
X150913Y-86367D01*
X150952Y-86347D01*
X151024Y-86320D01*
X167524Y-76820D01*
X167546Y-76801D01*
X167572Y-76789D01*
X167606Y-76751D01*
X167609Y-76749D01*
X167612Y-76745D01*
X167620Y-76736D01*
X167673Y-76689D01*
X167686Y-76663D01*
X167705Y-76641D01*
X167728Y-76574D01*
X167759Y-76509D01*
X167761Y-76480D01*
X167770Y-76453D01*
X167765Y-76382D01*
X167768Y-76311D01*
X167758Y-76284D01*
X167756Y-76255D01*
X167714Y-76164D01*
X167699Y-76124D01*
X167692Y-76116D01*
X167686Y-76104D01*
X167548Y-75905D01*
X284158Y-9270D01*
X284169Y-9275D01*
X284241Y-9276D01*
X284312Y-9285D01*
X284339Y-9278D01*
X284368Y-9278D01*
X284463Y-9243D01*
X284503Y-9232D01*
X284512Y-9225D01*
X284524Y-9220D01*
X301024Y280D01*
X301083Y331D01*
X301145Y377D01*
X301156Y397D01*
X301173Y411D01*
X301207Y482D01*
X301247Y548D01*
X301251Y573D01*
X301259Y591D01*
X301261Y635D01*
X301274Y713D01*
X301274Y19713D01*
X301269Y19740D01*
X301271Y19769D01*
X301249Y19837D01*
X301235Y19907D01*
X301219Y19931D01*
X301210Y19958D01*
X301163Y20012D01*
X301122Y20071D01*
X301098Y20087D01*
X301080Y20108D01*
X301015Y20140D01*
X300955Y20178D01*
X300927Y20183D01*
X300901Y20196D01*
X300800Y20205D01*
X300799Y20205D01*
X300799Y154415D01*
X300861Y154430D01*
X300933Y154439D01*
X300957Y154453D01*
X300985Y154460D01*
X301043Y154502D01*
X301105Y154538D01*
X301122Y154561D01*
X301145Y154577D01*
X301182Y154639D01*
X301225Y154697D01*
X301232Y154724D01*
X301247Y154748D01*
X301263Y154849D01*
X301274Y154889D01*
X301272Y154900D01*
X301274Y154913D01*
X301274Y173913D01*
X301259Y173989D01*
X301250Y174066D01*
X301239Y174086D01*
X301235Y174107D01*
X301191Y174172D01*
X301152Y174239D01*
X301133Y174255D01*
X301122Y174271D01*
X301084Y174295D01*
X301024Y174345D01*
X284524Y183845D01*
X284497Y183854D01*
X284473Y183871D01*
X284403Y183885D01*
X284335Y183908D01*
X284307Y183906D01*
X284279Y183912D01*
X284209Y183898D01*
X284137Y183892D01*
X284112Y183879D01*
X284084Y183874D01*
X284024Y183834D01*
X283961Y183801D01*
X283943Y183778D01*
X283919Y183762D01*
X283861Y183680D01*
X283834Y183647D01*
X283831Y183637D01*
X283824Y183626D01*
X283498Y182938D01*
X167672Y250709D01*
X167686Y250729D01*
X167697Y250756D01*
X167716Y250778D01*
X167736Y250846D01*
X167764Y250912D01*
X167764Y250941D01*
X167772Y250968D01*
X167764Y251040D01*
X167765Y251111D01*
X167753Y251137D01*
X167750Y251166D01*
X167715Y251228D01*
X167687Y251294D01*
X167667Y251314D01*
X167652Y251339D01*
X167575Y251403D01*
X167545Y251433D01*
X167535Y251437D01*
X167524Y251445D01*
X151024Y260945D01*
X150951Y260969D01*
X150881Y261000D01*
X150857Y261001D01*
X150835Y261008D01*
X150759Y261002D01*
X150682Y261003D01*
X150658Y260994D01*
X150637Y260992D01*
X150598Y260972D01*
X150526Y260945D01*
X134026Y251445D01*
X134004Y251426D01*
X133978Y251414D01*
X133930Y251361D01*
X133877Y251314D01*
X133864Y251288D01*
X133845Y251266D01*
X133822Y251199D01*
X133791Y251134D01*
X133790Y251105D01*
X133780Y251078D01*
X133785Y251007D01*
X133782Y250936D01*
X133792Y250909D01*
X133794Y250880D01*
X133836Y250789D01*
X133851Y250749D01*
X133858Y250741D01*
X133864Y250729D01*
X133911Y250661D01*
X692Y174536D01*
X-15476Y183845D01*
X-15504Y183854D01*
X-15528Y183871D01*
X-15597Y183886D01*
X-15665Y183908D01*
X-15694Y183906D01*
X-15722Y183912D01*
X-15792Y183898D01*
X-15863Y183892D01*
X-15889Y183879D01*
X-15917Y183873D01*
X-15976Y183833D01*
X-16039Y183801D01*
X-16058Y183778D01*
X-16082Y183762D01*
X-16139Y183680D01*
X-16166Y183647D01*
X-16169Y183636D01*
X-16177Y183625D01*
X-16182Y183615D01*
X-48540Y202105D01*
X-48557Y202111D01*
X-48572Y202122D01*
X-48672Y202154D01*
X-48770Y202191D01*
X-48789Y202191D01*
X-48806Y202197D01*
X-48911Y202195D01*
X-49016Y202199D01*
X-49034Y202193D01*
X-49052Y202193D01*
X-49151Y202158D01*
X-49252Y202128D01*
X-49267Y202117D01*
X-49284Y202111D01*
X-49367Y202046D01*
X-49452Y201986D01*
X-49463Y201971D01*
X-49478Y201959D01*
X-49493Y201939D01*
X-49526Y201924D01*
X-49572Y201881D01*
X-49625Y201846D01*
X-49682Y201779D01*
X-49706Y201756D01*
X-49715Y201740D01*
X-49734Y201718D01*
X-49956Y201392D01*
X-50475Y200631D01*
X-50909Y199993D01*
X-50924Y199962D01*
X-50945Y199935D01*
X-50975Y199851D01*
X-51013Y199770D01*
X-51017Y199736D01*
X-51028Y199703D01*
X-51034Y199624D01*
X-51472Y199152D01*
X-51490Y199125D01*
X-51543Y199063D01*
X-51903Y198534D01*
X-51968Y198503D01*
X-52052Y198473D01*
X-52079Y198451D01*
X-52110Y198436D01*
X-52237Y198327D01*
X-53736Y196711D01*
X-53755Y196682D01*
X-53780Y196658D01*
X-53822Y196580D01*
X-53872Y196506D01*
X-53881Y196472D01*
X-53897Y196441D01*
X-53915Y196364D01*
X-54418Y195963D01*
X-54440Y195938D01*
X-54501Y195885D01*
X-54937Y195416D01*
X-55005Y195395D01*
X-55092Y195377D01*
X-55122Y195360D01*
X-55156Y195350D01*
X-55297Y195261D01*
X-57020Y193886D01*
X-57044Y193860D01*
X-57072Y193840D01*
X-57126Y193769D01*
X-57185Y193703D01*
X-57199Y193671D01*
X-57220Y193644D01*
X-57249Y193570D01*
X-57806Y193248D01*
X-57832Y193227D01*
X-57863Y193207D01*
X-57883Y193197D01*
X-57887Y193192D01*
X-57900Y193184D01*
X-58401Y192784D01*
X-58471Y192774D01*
X-58560Y192770D01*
X-58593Y192757D01*
X-58627Y192752D01*
X-58781Y192685D01*
X-60689Y191582D01*
X-60716Y191560D01*
X-60747Y191545D01*
X-60811Y191483D01*
X-60879Y191426D01*
X-60898Y191397D01*
X-60923Y191373D01*
X-60962Y191304D01*
X-61561Y191068D01*
X-61590Y191052D01*
X-61664Y191019D01*
X-62218Y190699D01*
X-62290Y190699D01*
X-62378Y190708D01*
X-62412Y190700D01*
X-62447Y190701D01*
X-62609Y190657D01*
X-64660Y189851D01*
X-64690Y189833D01*
X-64723Y189823D01*
X-64795Y189771D01*
X-64872Y189725D01*
X-64894Y189699D01*
X-64922Y189679D01*
X-64972Y189616D01*
X-65599Y189473D01*
X-65630Y189460D01*
X-65708Y189439D01*
X-66304Y189205D01*
X-66375Y189217D01*
X-66461Y189238D01*
X-66496Y189236D01*
X-66530Y189241D01*
X-66696Y189222D01*
X-68845Y188731D01*
X-68877Y188718D01*
X-68912Y188713D01*
X-68991Y188672D01*
X-69073Y188638D01*
X-69099Y188616D01*
X-69130Y188600D01*
X-69188Y188545D01*
X-69830Y188497D01*
X-69862Y188489D01*
X-69942Y188480D01*
X-70567Y188337D01*
X-70635Y188359D01*
X-70717Y188394D01*
X-70752Y188396D01*
X-70785Y188407D01*
X-70952Y188413D01*
X-73150Y188247D01*
X-73184Y188239D01*
X-73219Y188239D01*
X-73303Y188210D01*
X-73389Y188189D01*
X-73419Y188171D01*
X-73451Y188160D01*
X-73517Y188115D01*
X-74159Y188163D01*
X-74192Y188160D01*
X-74273Y188163D01*
X-74911Y188115D01*
X-74976Y188147D01*
X-75051Y188193D01*
X-75085Y188200D01*
X-75116Y188216D01*
X-75281Y188247D01*
X-77479Y188411D01*
X-77514Y188408D01*
X-77548Y188413D01*
X-77636Y188397D01*
X-77724Y188389D01*
X-77756Y188375D01*
X-77790Y188369D01*
X-77862Y188334D01*
X-78489Y188477D01*
X-78522Y188479D01*
X-78602Y188494D01*
X-79240Y188542D01*
X-79299Y188583D01*
X-79367Y188640D01*
X-79400Y188653D01*
X-79428Y188672D01*
X-79587Y188728D01*
X-81736Y189217D01*
X-81770Y189219D01*
X-81803Y189230D01*
X-81892Y189227D01*
X-81981Y189233D01*
X-82015Y189224D01*
X-82049Y189223D01*
X-82125Y189199D01*
X-82724Y189434D01*
X-82757Y189441D01*
X-82833Y189467D01*
X-83457Y189610D01*
X-83509Y189659D01*
X-83568Y189726D01*
X-83598Y189743D01*
X-83624Y189767D01*
X-83772Y189845D01*
X-85044Y190343D01*
X-85132Y190362D01*
X-85218Y190389D01*
X-85252Y190388D01*
X-85284Y190395D01*
X-85374Y190385D01*
X-85464Y190382D01*
X-85496Y190371D01*
X-85529Y190367D01*
X-85610Y190329D01*
X-85695Y190298D01*
X-85721Y190277D01*
X-85751Y190263D01*
X-85817Y190201D01*
X-85887Y190144D01*
X-85905Y190116D01*
X-85929Y190093D01*
X-85971Y190013D01*
X-86020Y189937D01*
X-86028Y189905D01*
X-86044Y189875D01*
X-86058Y189786D01*
X-86080Y189699D01*
X-86078Y189666D01*
X-86083Y189633D01*
X-86068Y189544D01*
X-86061Y189454D01*
X-86048Y189423D01*
X-86043Y189390D01*
X-86000Y189311D01*
X-85965Y189227D01*
X-85963Y189225D01*
X-85963Y185451D01*
X-88613Y182800D01*
X-92362Y182800D01*
X-95012Y185451D01*
X-95012Y189199D01*
X-93759Y190452D01*
X-93706Y190526D01*
X-93647Y190596D01*
X-93634Y190626D01*
X-93616Y190652D01*
X-93589Y190739D01*
X-93555Y190824D01*
X-93550Y190865D01*
X-93543Y190887D01*
X-93544Y190919D01*
X-93536Y190991D01*
X-93536Y195144D01*
X-93549Y195220D01*
X-93552Y195297D01*
X-93568Y195341D01*
X-93576Y195387D01*
X-93612Y195455D01*
X-93640Y195527D01*
X-93677Y195577D01*
X-93691Y195604D01*
X-93710Y195622D01*
X-93740Y195662D01*
X-93935Y195873D01*
X-93961Y195893D01*
X-94019Y195950D01*
X-94519Y196349D01*
X-94545Y196416D01*
X-94569Y196502D01*
X-94589Y196530D01*
X-94601Y196563D01*
X-94701Y196697D01*
X-96201Y198313D01*
X-96228Y198334D01*
X-96250Y198361D01*
X-96325Y198409D01*
X-96395Y198464D01*
X-96428Y198475D01*
X-96457Y198494D01*
X-96533Y198517D01*
X-96896Y199049D01*
X-96918Y199072D01*
X-96967Y199137D01*
X-97402Y199607D01*
X-97418Y199677D01*
X-97429Y199765D01*
X-97444Y199796D01*
X-97451Y199830D01*
X-97530Y199978D01*
X-98772Y201799D01*
X-98796Y201824D01*
X-98814Y201854D01*
X-98880Y201913D01*
X-98942Y201977D01*
X-98972Y201993D01*
X-98999Y202016D01*
X-99070Y202051D01*
X-99350Y202630D01*
X-99368Y202657D01*
X-99407Y202729D01*
X-99767Y203258D01*
X-99772Y203329D01*
X-99770Y203418D01*
X-99780Y203451D01*
X-99783Y203486D01*
X-99838Y203644D01*
X-100795Y205630D01*
X-100815Y205658D01*
X-100828Y205690D01*
X-100885Y205758D01*
X-100936Y205831D01*
X-100964Y205852D01*
X-100987Y205878D01*
X-101052Y205923D01*
X-101242Y206538D01*
X-101252Y206558D01*
X-101255Y206573D01*
X-101264Y206587D01*
X-101284Y206644D01*
X-101562Y207221D01*
X-101556Y207292D01*
X-101541Y207380D01*
X-101546Y207414D01*
X-101543Y207449D01*
X-101574Y207613D01*
X-102225Y209719D01*
X-102240Y209750D01*
X-102248Y209784D01*
X-102295Y209860D01*
X-102334Y209939D01*
X-102359Y209964D01*
X-102377Y209994D01*
X-102435Y210047D01*
X-102532Y210684D01*
X-102542Y210715D01*
X-102557Y210795D01*
X-102746Y211407D01*
X-102729Y211476D01*
X-102701Y211561D01*
X-102701Y211595D01*
X-102693Y211629D01*
X-102700Y211797D01*
X-103029Y213976D01*
X-103040Y214009D01*
X-103042Y214044D01*
X-103077Y214126D01*
X-103104Y214210D01*
X-103125Y214238D01*
X-103139Y214270D01*
X-103188Y214332D01*
X-103188Y214976D01*
X-103194Y215008D01*
X-103197Y215089D01*
X-103293Y215722D01*
X-103266Y215789D01*
X-103225Y215868D01*
X-103220Y215902D01*
X-103207Y215934D01*
X-103189Y216101D01*
X-103190Y218305D01*
X-103195Y218339D01*
X-103193Y218374D01*
X-103215Y218460D01*
X-103229Y218548D01*
X-103246Y218579D01*
X-103254Y218612D01*
X-103294Y218681D01*
X-103198Y219317D01*
X-103199Y219350D01*
X-103190Y219431D01*
X-103190Y220071D01*
X-103154Y220133D01*
X-103102Y220205D01*
X-103092Y220238D01*
X-103074Y220268D01*
X-103031Y220430D01*
X-102703Y222610D01*
X-102704Y222645D01*
X-102696Y222679D01*
X-102705Y222767D01*
X-102706Y222856D01*
X-102718Y222889D01*
X-102721Y222923D01*
X-102751Y222997D01*
X-102561Y223612D01*
X-102557Y223645D01*
X-102536Y223723D01*
X-102441Y224356D01*
X-102395Y224412D01*
X-102333Y224476D01*
X-102318Y224507D01*
X-102296Y224534D01*
X-102230Y224688D01*
X-101581Y226794D01*
X-101576Y226829D01*
X-101563Y226861D01*
X-101559Y226950D01*
X-101547Y227038D01*
X-101554Y227072D01*
X-101552Y227107D01*
X-101570Y227184D01*
X-101291Y227764D01*
X-101281Y227796D01*
X-101249Y227870D01*
X-101061Y228482D01*
X-101008Y228530D01*
X-100937Y228584D01*
X-100917Y228613D01*
X-100892Y228636D01*
X-100853Y228697D01*
X-100849Y228702D01*
X-100844Y228712D01*
X-100803Y228778D01*
X-99906Y230642D01*
X-99873Y230753D01*
X-99838Y230864D01*
X-99838Y230871D01*
X-99836Y230878D01*
X-99841Y230994D01*
X-99843Y231110D01*
X-99846Y231117D01*
X-99846Y231124D01*
X-99887Y231232D01*
X-99926Y231341D01*
X-99931Y231347D01*
X-99933Y231354D01*
X-100006Y231443D01*
X-100079Y231534D01*
X-100086Y231539D01*
X-100089Y231544D01*
X-100106Y231555D01*
X-100214Y231633D01*
X-132687Y250189D01*
X-132314Y250729D01*
X-132303Y250756D01*
X-132284Y250778D01*
X-132264Y250846D01*
X-132236Y250912D01*
X-132236Y250941D01*
X-132228Y250968D01*
X-132236Y251040D01*
X-132236Y251111D01*
X-132247Y251137D01*
X-132250Y251166D01*
X-132285Y251228D01*
X-132313Y251294D01*
X-132333Y251314D01*
X-132348Y251339D01*
X-132425Y251403D01*
X-132455Y251433D01*
X-132465Y251437D01*
X-132476Y251445D01*
X-148976Y260945D01*
X-149049Y260969D01*
X-149119Y261000D01*
X-149143Y261001D01*
X-149165Y261008D01*
X-149241Y261002D01*
X-149318Y261003D01*
X-149342Y260994D01*
X-149363Y260992D01*
X-149402Y260972D01*
X-149474Y260945D01*
X-165974Y251445D01*
X-165996Y251426D01*
X-166022Y251414D01*
X-166070Y251361D01*
X-166123Y251314D01*
X-166136Y251288D01*
X-166155Y251266D01*
X-166178Y251199D01*
X-166209Y251134D01*
X-166211Y251105D01*
X-166220Y251078D01*
X-166215Y251007D01*
X-166218Y250936D01*
X-166208Y250909D01*
X-166206Y250880D01*
X-166164Y250789D01*
X-166149Y250749D01*
X-166142Y250741D01*
X-166136Y250729D01*
X-166100Y250677D01*
X-198456Y232188D01*
X-198473Y232174D01*
X-198492Y232165D01*
X-198568Y232097D01*
X-198647Y232033D01*
X-198659Y232014D01*
X-198674Y232000D01*
X-198724Y231911D01*
X-198779Y231825D01*
X-198784Y231804D01*
X-198794Y231785D01*
X-198813Y231685D01*
X-198837Y231586D01*
X-198835Y231565D01*
X-198839Y231543D01*
X-198825Y231443D01*
X-198817Y231341D01*
X-198808Y231321D01*
X-198805Y231300D01*
X-198738Y231146D01*
X-198625Y230951D01*
X-198626Y230942D01*
X-198612Y230880D01*
X-198608Y230817D01*
X-198579Y230734D01*
X-198571Y230702D01*
X-198562Y230687D01*
X-198552Y230659D01*
X-197647Y228778D01*
X-197627Y228750D01*
X-197615Y228718D01*
X-197566Y228660D01*
X-197554Y228639D01*
X-197545Y228632D01*
X-197506Y228577D01*
X-197478Y228556D01*
X-197456Y228530D01*
X-197390Y228485D01*
X-197201Y227870D01*
X-197186Y227840D01*
X-197159Y227764D01*
X-196882Y227187D01*
X-196888Y227115D01*
X-196903Y227028D01*
X-196898Y226994D01*
X-196901Y226959D01*
X-196869Y226794D01*
X-196220Y224688D01*
X-196205Y224657D01*
X-196197Y224623D01*
X-196151Y224547D01*
X-196111Y224468D01*
X-196086Y224443D01*
X-196068Y224413D01*
X-196010Y224360D01*
X-195914Y223723D01*
X-195904Y223692D01*
X-195889Y223612D01*
X-195700Y223000D01*
X-195717Y222931D01*
X-195745Y222846D01*
X-195745Y222811D01*
X-195753Y222778D01*
X-195747Y222610D01*
X-195419Y220430D01*
X-195408Y220397D01*
X-195406Y220363D01*
X-195371Y220281D01*
X-195344Y220196D01*
X-195323Y220168D01*
X-195309Y220136D01*
X-195260Y220074D01*
X-195260Y219431D01*
X-195255Y219398D01*
X-195252Y219317D01*
X-195156Y218684D01*
X-195183Y218617D01*
X-195224Y218538D01*
X-195229Y218504D01*
X-195242Y218472D01*
X-195260Y218305D01*
X-195261Y216101D01*
X-195256Y216067D01*
X-195258Y216032D01*
X-195236Y215946D01*
X-195222Y215858D01*
X-195205Y215828D01*
X-195197Y215794D01*
X-195157Y215726D01*
X-195253Y215089D01*
X-195253Y215056D01*
X-195262Y214976D01*
X-195262Y214335D01*
X-195298Y214273D01*
X-195350Y214201D01*
X-195360Y214168D01*
X-195378Y214138D01*
X-195421Y213976D01*
X-195750Y211797D01*
X-195750Y211762D01*
X-195758Y211728D01*
X-195748Y211640D01*
X-195747Y211551D01*
X-195736Y211518D01*
X-195732Y211484D01*
X-195703Y211410D01*
X-195893Y210795D01*
X-195898Y210762D01*
X-195918Y210684D01*
X-196014Y210051D01*
X-196059Y209995D01*
X-196121Y209931D01*
X-196136Y209900D01*
X-196158Y209873D01*
X-196225Y209719D01*
X-196876Y207613D01*
X-196880Y207579D01*
X-196893Y207547D01*
X-196897Y207458D01*
X-196909Y207370D01*
X-196903Y207336D01*
X-196904Y207301D01*
X-196887Y207224D01*
X-197166Y206644D01*
X-197175Y206612D01*
X-197208Y206538D01*
X-197397Y205926D01*
X-197450Y205878D01*
X-197521Y205824D01*
X-197540Y205795D01*
X-197566Y205772D01*
X-197655Y205630D01*
X-198612Y203644D01*
X-198622Y203611D01*
X-198639Y203581D01*
X-198656Y203494D01*
X-198681Y203408D01*
X-198680Y203374D01*
X-198687Y203340D01*
X-198681Y203261D01*
X-199043Y202729D01*
X-199057Y202699D01*
X-199100Y202630D01*
X-199378Y202053D01*
X-199438Y202014D01*
X-199516Y201971D01*
X-199540Y201946D01*
X-199569Y201926D01*
X-199678Y201799D01*
X-199955Y201392D01*
X-199956Y201392D01*
X-200475Y200631D01*
X-200920Y199978D01*
X-200935Y199947D01*
X-200956Y199920D01*
X-200986Y199836D01*
X-201024Y199755D01*
X-201028Y199721D01*
X-201040Y199688D01*
X-201045Y199609D01*
X-201483Y199137D01*
X-201502Y199110D01*
X-201554Y199049D01*
X-201915Y198520D01*
X-201980Y198489D01*
X-202064Y198459D01*
X-202091Y198437D01*
X-202122Y198422D01*
X-202249Y198313D01*
X-203749Y196697D01*
X-203768Y196668D01*
X-203793Y196645D01*
X-203836Y196567D01*
X-203885Y196492D01*
X-203894Y196459D01*
X-203910Y196428D01*
X-203928Y196351D01*
X-204431Y195950D01*
X-204454Y195925D01*
X-204515Y195873D01*
X-204950Y195403D01*
X-205019Y195383D01*
X-205106Y195365D01*
X-205136Y195348D01*
X-205170Y195338D01*
X-205312Y195248D01*
X-207035Y193875D01*
X-207058Y193849D01*
X-207087Y193829D01*
X-207141Y193758D01*
X-207200Y193692D01*
X-207214Y193661D01*
X-207235Y193633D01*
X-207264Y193559D01*
X-207821Y193237D01*
X-207847Y193216D01*
X-207870Y193202D01*
X-207880Y193197D01*
X-207882Y193194D01*
X-207915Y193173D01*
X-208416Y192774D01*
X-208487Y192764D01*
X-208576Y192760D01*
X-208608Y192747D01*
X-208643Y192742D01*
X-208796Y192675D01*
X-210706Y191573D01*
X-210732Y191552D01*
X-210764Y191536D01*
X-210827Y191474D01*
X-210896Y191418D01*
X-210914Y191388D01*
X-210939Y191364D01*
X-210979Y191295D01*
X-211578Y191060D01*
X-211606Y191043D01*
X-211680Y191011D01*
X-212235Y190691D01*
X-212307Y190692D01*
X-212395Y190700D01*
X-212429Y190693D01*
X-212464Y190693D01*
X-212626Y190649D01*
X-214678Y189845D01*
X-214708Y189827D01*
X-214741Y189817D01*
X-214813Y189765D01*
X-214889Y189719D01*
X-214912Y189693D01*
X-214940Y189673D01*
X-214989Y189610D01*
X-215617Y189467D01*
X-215648Y189455D01*
X-215726Y189434D01*
X-216322Y189200D01*
X-216393Y189212D01*
X-216479Y189233D01*
X-216513Y189231D01*
X-216548Y189236D01*
X-216714Y189217D01*
X-217691Y188995D01*
X-217697Y188992D01*
X-217703Y188992D01*
X-217810Y188946D01*
X-217919Y188902D01*
X-217924Y188898D01*
X-217929Y188896D01*
X-218060Y188791D01*
X-219685Y187166D01*
X-222265Y184586D01*
X-222318Y184512D01*
X-222377Y184443D01*
X-222390Y184413D01*
X-222408Y184386D01*
X-222435Y184299D01*
X-222469Y184215D01*
X-222474Y184174D01*
X-222481Y184151D01*
X-222480Y184119D01*
X-222488Y184048D01*
X-222488Y182276D01*
X-225138Y179625D01*
X-228887Y179625D01*
X-231537Y182276D01*
X-231537Y186024D01*
X-229948Y187613D01*
X-229884Y187702D01*
X-229817Y187788D01*
X-229813Y187802D01*
X-229805Y187813D01*
X-229772Y187917D01*
X-229736Y188021D01*
X-229736Y188035D01*
X-229732Y188048D01*
X-229735Y188158D01*
X-229734Y188267D01*
X-229738Y188280D01*
X-229739Y188294D01*
X-229776Y188397D01*
X-229810Y188501D01*
X-229818Y188512D01*
X-229823Y188525D01*
X-229891Y188610D01*
X-229956Y188698D01*
X-229968Y188706D01*
X-229977Y188717D01*
X-230069Y188776D01*
X-230158Y188839D01*
X-230174Y188844D01*
X-230184Y188850D01*
X-230212Y188857D01*
X-230317Y188894D01*
X-231754Y189222D01*
X-231788Y189224D01*
X-231821Y189234D01*
X-231910Y189232D01*
X-231999Y189238D01*
X-232033Y189229D01*
X-232067Y189228D01*
X-232143Y189204D01*
X-232742Y189439D01*
X-232774Y189446D01*
X-232851Y189473D01*
X-233475Y189616D01*
X-233527Y189665D01*
X-233586Y189732D01*
X-233616Y189749D01*
X-233641Y189773D01*
X-233790Y189851D01*
X-235841Y190657D01*
X-235875Y190664D01*
X-235906Y190679D01*
X-235995Y190690D01*
X-236082Y190709D01*
X-236116Y190705D01*
X-236151Y190709D01*
X-236229Y190697D01*
X-236786Y191019D01*
X-236817Y191031D01*
X-236889Y191068D01*
X-237485Y191303D01*
X-237529Y191359D01*
X-237577Y191434D01*
X-237604Y191455D01*
X-237626Y191483D01*
X-237761Y191582D01*
X-239669Y192685D01*
X-239702Y192697D01*
X-239731Y192717D01*
X-239816Y192740D01*
X-239899Y192772D01*
X-239934Y192773D01*
X-239968Y192782D01*
X-240047Y192782D01*
X-240550Y193184D01*
X-240579Y193200D01*
X-240619Y193230D01*
X-240633Y193241D01*
X-240637Y193243D01*
X-240644Y193248D01*
X-241198Y193568D01*
X-241234Y193631D01*
X-241270Y193712D01*
X-241294Y193737D01*
X-241311Y193767D01*
X-241430Y193886D01*
X-243153Y195261D01*
X-243183Y195278D01*
X-243208Y195301D01*
X-243289Y195337D01*
X-243367Y195381D01*
X-243401Y195387D01*
X-243433Y195402D01*
X-243511Y195413D01*
X-243949Y195885D01*
X-243975Y195905D01*
X-244032Y195963D01*
X-244533Y196362D01*
X-244558Y196429D01*
X-244582Y196515D01*
X-244602Y196543D01*
X-244614Y196576D01*
X-244714Y196711D01*
X-246213Y198327D01*
X-246240Y198348D01*
X-246262Y198375D01*
X-246337Y198423D01*
X-246407Y198478D01*
X-246440Y198489D01*
X-246469Y198508D01*
X-246545Y198531D01*
X-246907Y199063D01*
X-246930Y199087D01*
X-246978Y199152D01*
X-247414Y199622D01*
X-247429Y199692D01*
X-247440Y199780D01*
X-247455Y199811D01*
X-247462Y199845D01*
X-247541Y199993D01*
X-248716Y201718D01*
X-248760Y201764D01*
X-248795Y201816D01*
X-248844Y201852D01*
X-248886Y201896D01*
X-248927Y201918D01*
X-249168Y202336D01*
X-249180Y202350D01*
X-249187Y202367D01*
X-249257Y202445D01*
X-249324Y202526D01*
X-249340Y202536D01*
X-249352Y202550D01*
X-249443Y202601D01*
X-249532Y202657D01*
X-249550Y202661D01*
X-249566Y202670D01*
X-249670Y202690D01*
X-249772Y202715D01*
X-249790Y202713D01*
X-249808Y202717D01*
X-249912Y202702D01*
X-250017Y202693D01*
X-250033Y202686D01*
X-250052Y202683D01*
X-250205Y202617D01*
X-282962Y183899D01*
X-282972Y183896D01*
X-282981Y183889D01*
X-282994Y183884D01*
X-283459Y183615D01*
X-298034Y175286D01*
X-298088Y175242D01*
X-298147Y175207D01*
X-298183Y175165D01*
X-298225Y175131D01*
X-298262Y175073D01*
X-298307Y175020D01*
X-298308Y175018D01*
X-299471Y174345D01*
X-299528Y174293D01*
X-299590Y174248D01*
X-299602Y174228D01*
X-299620Y174213D01*
X-299653Y174143D01*
X-299692Y174077D01*
X-299696Y174052D01*
X-299705Y174033D01*
X-299707Y173989D01*
X-299720Y173913D01*
X-299743Y154874D01*
X-299737Y154845D01*
X-299739Y154816D01*
X-299717Y154749D01*
X-299703Y154679D01*
X-299687Y154655D01*
X-299678Y154627D01*
X-299631Y154573D01*
X-299591Y154515D01*
X-299567Y154499D01*
X-299548Y154477D01*
X-299483Y154446D01*
X-299423Y154407D01*
X-299395Y154403D01*
X-299369Y154390D01*
X-299269Y154381D01*
X-299227Y154374D01*
X-299217Y154377D01*
X-299203Y154375D01*
X-298507Y154432D01*
X-298679Y117012D01*
X-298661Y116897D01*
X-298645Y116782D01*
X-298642Y116776D01*
X-298641Y116769D01*
X-298587Y116666D01*
X-298535Y116562D01*
X-298530Y116557D01*
X-298527Y116551D01*
X-298443Y116471D01*
X-298361Y116389D01*
X-298354Y116386D01*
X-298349Y116381D01*
X-298244Y116331D01*
X-298140Y116280D01*
X-298132Y116279D01*
X-298126Y116276D01*
X-298106Y116274D01*
X-297975Y116249D01*
X-295964Y116098D01*
X-295929Y116102D01*
X-295895Y116096D01*
X-295807Y116112D01*
X-295719Y116120D01*
X-295687Y116134D01*
X-295653Y116140D01*
X-295581Y116175D01*
X-294954Y116031D01*
X-294921Y116029D01*
X-294841Y116014D01*
X-294203Y115967D01*
X-294144Y115926D01*
X-294076Y115868D01*
X-294043Y115856D01*
X-294015Y115836D01*
X-293857Y115781D01*
X-293601Y115722D01*
X-293600Y115722D01*
X-291710Y115291D01*
X-291675Y115289D01*
X-291642Y115279D01*
X-291553Y115281D01*
X-291464Y115276D01*
X-291431Y115285D01*
X-291396Y115286D01*
X-291320Y115309D01*
X-290721Y115074D01*
X-290689Y115067D01*
X-290613Y115041D01*
X-290265Y114961D01*
X-289988Y114898D01*
X-289936Y114849D01*
X-289877Y114782D01*
X-289847Y114765D01*
X-289822Y114741D01*
X-289674Y114663D01*
X-287624Y113858D01*
X-287590Y113851D01*
X-287559Y113836D01*
X-287470Y113825D01*
X-287383Y113807D01*
X-287349Y113811D01*
X-287315Y113806D01*
X-287236Y113818D01*
X-286679Y113496D01*
X-286648Y113485D01*
X-286576Y113447D01*
X-285980Y113213D01*
X-285936Y113157D01*
X-285888Y113082D01*
X-285860Y113060D01*
X-285839Y113033D01*
X-285704Y112934D01*
X-283797Y111833D01*
X-283765Y111821D01*
X-283736Y111801D01*
X-283650Y111777D01*
X-283567Y111746D01*
X-283532Y111745D01*
X-283499Y111735D01*
X-283419Y111735D01*
X-282916Y111334D01*
X-282887Y111318D01*
X-282822Y111270D01*
X-282268Y110950D01*
X-282232Y110887D01*
X-282196Y110806D01*
X-282172Y110781D01*
X-282155Y110751D01*
X-282036Y110632D01*
X-280315Y109259D01*
X-280284Y109243D01*
X-280259Y109219D01*
X-280178Y109183D01*
X-280100Y109139D01*
X-280066Y109133D01*
X-280034Y109119D01*
X-279956Y109107D01*
X-279518Y108635D01*
X-279492Y108615D01*
X-279435Y108558D01*
X-278934Y108158D01*
X-278908Y108092D01*
X-278884Y108006D01*
X-278865Y107977D01*
X-278852Y107945D01*
X-278753Y107810D01*
X-277255Y106196D01*
X-277228Y106175D01*
X-277206Y106148D01*
X-277131Y106100D01*
X-277061Y106045D01*
X-277028Y106034D01*
X-276999Y106015D01*
X-276923Y105992D01*
X-276560Y105460D01*
X-276538Y105436D01*
X-276489Y105371D01*
X-276054Y104901D01*
X-276038Y104831D01*
X-276027Y104743D01*
X-276012Y104712D01*
X-276005Y104678D01*
X-275926Y104530D01*
X-274686Y102711D01*
X-274662Y102685D01*
X-274644Y102655D01*
X-274578Y102597D01*
X-274516Y102532D01*
X-274486Y102516D01*
X-274460Y102493D01*
X-274388Y102459D01*
X-274109Y101879D01*
X-274090Y101852D01*
X-274052Y101781D01*
X-273691Y101251D01*
X-273686Y101180D01*
X-273689Y101091D01*
X-273678Y101058D01*
X-273676Y101023D01*
X-273620Y100865D01*
X-272665Y98881D01*
X-272645Y98853D01*
X-272632Y98821D01*
X-272575Y98753D01*
X-272524Y98680D01*
X-272496Y98659D01*
X-272474Y98633D01*
X-272408Y98588D01*
X-272218Y97973D01*
X-272204Y97944D01*
X-272198Y97915D01*
X-272188Y97899D01*
X-272177Y97867D01*
X-271899Y97290D01*
X-271905Y97219D01*
X-271920Y97131D01*
X-271915Y97097D01*
X-271918Y97062D01*
X-271886Y96898D01*
X-271237Y94793D01*
X-271222Y94762D01*
X-271214Y94729D01*
X-271168Y94653D01*
X-271128Y94573D01*
X-271103Y94549D01*
X-271085Y94519D01*
X-271027Y94465D01*
X-270931Y93829D01*
X-270921Y93797D01*
X-270906Y93718D01*
X-270717Y93106D01*
X-270733Y93036D01*
X-270762Y92952D01*
X-270762Y92917D01*
X-270770Y92883D01*
X-270763Y92716D01*
X-270435Y90539D01*
X-270424Y90506D01*
X-270422Y90471D01*
X-270387Y90389D01*
X-270360Y90304D01*
X-270339Y90276D01*
X-270325Y90245D01*
X-270276Y90183D01*
X-270276Y89539D01*
X-270270Y89506D01*
X-270267Y89426D01*
X-270172Y88792D01*
X-270199Y88726D01*
X-270239Y88647D01*
X-270244Y88612D01*
X-270257Y88580D01*
X-270276Y88413D01*
X-270276Y86212D01*
X-270270Y86177D01*
X-270273Y86143D01*
X-270250Y86057D01*
X-270236Y85969D01*
X-270220Y85938D01*
X-270211Y85905D01*
X-270171Y85836D01*
X-270267Y85199D01*
X-270267Y85166D01*
X-270276Y85086D01*
X-270276Y84446D01*
X-270312Y84384D01*
X-270364Y84312D01*
X-270374Y84278D01*
X-270392Y84249D01*
X-270435Y84086D01*
X-270763Y81909D01*
X-270763Y81874D01*
X-270770Y81841D01*
X-270761Y81752D01*
X-270760Y81663D01*
X-270749Y81631D01*
X-270745Y81596D01*
X-270716Y81522D01*
X-270906Y80907D01*
X-270907Y80899D01*
X-270910Y80891D01*
X-270913Y80862D01*
X-270931Y80796D01*
X-271049Y80012D01*
X-271048Y79935D01*
X-271057Y79859D01*
X-271047Y79813D01*
X-271046Y79766D01*
X-271021Y79693D01*
X-271004Y79619D01*
X-270980Y79578D01*
X-270965Y79534D01*
X-270918Y79473D01*
X-270878Y79408D01*
X-270842Y79377D01*
X-270814Y79340D01*
X-270750Y79298D01*
X-270691Y79248D01*
X-270648Y79230D01*
X-270608Y79204D01*
X-270534Y79184D01*
X-270463Y79156D01*
X-270400Y79149D01*
X-270371Y79141D01*
X-270344Y79143D01*
X-270296Y79137D01*
X-266413Y79137D01*
X-263763Y76487D01*
X-263763Y72738D01*
X-266413Y70088D01*
X-270162Y70088D01*
X-271415Y71341D01*
X-271489Y71394D01*
X-271558Y71453D01*
X-271588Y71466D01*
X-271615Y71484D01*
X-271701Y71511D01*
X-271786Y71545D01*
X-271827Y71550D01*
X-271850Y71557D01*
X-271882Y71556D01*
X-271953Y71564D01*
X-274523Y71564D01*
X-274561Y71557D01*
X-274601Y71560D01*
X-274682Y71538D01*
X-274765Y71524D01*
X-274800Y71506D01*
X-274838Y71495D01*
X-274908Y71448D01*
X-274983Y71409D01*
X-275010Y71380D01*
X-275042Y71359D01*
X-275152Y71231D01*
X-275152Y71230D01*
X-275160Y71218D01*
X-275161Y71218D01*
X-275679Y70457D01*
X-275680Y70457D01*
X-275926Y70095D01*
X-275941Y70064D01*
X-275962Y70037D01*
X-275993Y69953D01*
X-276030Y69872D01*
X-276034Y69838D01*
X-276046Y69805D01*
X-276052Y69726D01*
X-276489Y69254D01*
X-276508Y69227D01*
X-276560Y69165D01*
X-276717Y68935D01*
X-276718Y68935D01*
X-276718Y68934D01*
X-276921Y68636D01*
X-276986Y68606D01*
X-277069Y68575D01*
X-277097Y68554D01*
X-277128Y68539D01*
X-277255Y68429D01*
X-278753Y66815D01*
X-278772Y66786D01*
X-278797Y66762D01*
X-278839Y66684D01*
X-278889Y66610D01*
X-278897Y66577D01*
X-278914Y66546D01*
X-278931Y66469D01*
X-279435Y66067D01*
X-279457Y66043D01*
X-279518Y65990D01*
X-279954Y65520D01*
X-280022Y65500D01*
X-280110Y65482D01*
X-280140Y65465D01*
X-280173Y65455D01*
X-280315Y65365D01*
X-282036Y63993D01*
X-282059Y63967D01*
X-282088Y63947D01*
X-282142Y63876D01*
X-282201Y63810D01*
X-282215Y63778D01*
X-282236Y63751D01*
X-282265Y63677D01*
X-282822Y63355D01*
X-282848Y63334D01*
X-282916Y63291D01*
X-283417Y62892D01*
X-283488Y62882D01*
X-283577Y62877D01*
X-283609Y62864D01*
X-283643Y62860D01*
X-283797Y62792D01*
X-285704Y61691D01*
X-285731Y61669D01*
X-285762Y61654D01*
X-285826Y61592D01*
X-285894Y61535D01*
X-285913Y61506D01*
X-285937Y61482D01*
X-285977Y61413D01*
X-286576Y61178D01*
X-286604Y61161D01*
X-286679Y61129D01*
X-287233Y60808D01*
X-287305Y60809D01*
X-287393Y60818D01*
X-287427Y60810D01*
X-287462Y60810D01*
X-287624Y60767D01*
X-289674Y59962D01*
X-289703Y59944D01*
X-289736Y59934D01*
X-289808Y59882D01*
X-289885Y59837D01*
X-289908Y59810D01*
X-289936Y59790D01*
X-289985Y59728D01*
X-290613Y59584D01*
X-290643Y59572D01*
X-290721Y59551D01*
X-291317Y59317D01*
X-291388Y59328D01*
X-291474Y59350D01*
X-291509Y59348D01*
X-291543Y59353D01*
X-291710Y59334D01*
X-293857Y58844D01*
X-293889Y58831D01*
X-293923Y58826D01*
X-294002Y58785D01*
X-294084Y58751D01*
X-294111Y58729D01*
X-294141Y58713D01*
X-294199Y58659D01*
X-294841Y58611D01*
X-294873Y58603D01*
X-294954Y58594D01*
X-295578Y58451D01*
X-295647Y58473D01*
X-295729Y58507D01*
X-295763Y58510D01*
X-295796Y58521D01*
X-295964Y58526D01*
X-298043Y58371D01*
X-298104Y58356D01*
X-298167Y58351D01*
X-298223Y58327D01*
X-298282Y58313D01*
X-298335Y58279D01*
X-298393Y58255D01*
X-298435Y58248D01*
X-298451Y58240D01*
X-298469Y58236D01*
X-298560Y58182D01*
X-298652Y58133D01*
X-298665Y58120D01*
X-298680Y58111D01*
X-298749Y58031D01*
X-298822Y57955D01*
X-298829Y57938D01*
X-298841Y57924D01*
X-298881Y57827D01*
X-298925Y57732D01*
X-298927Y57714D01*
X-298934Y57697D01*
X-298953Y57530D01*
X-299125Y20243D01*
X-299203Y20250D01*
X-299232Y20246D01*
X-299260Y20251D01*
X-299330Y20234D01*
X-299401Y20226D01*
X-299426Y20211D01*
X-299454Y20205D01*
X-299511Y20162D01*
X-299573Y20127D01*
X-299591Y20104D01*
X-299614Y20087D01*
X-299650Y20025D01*
X-299693Y19968D01*
X-299700Y19940D01*
X-299715Y19915D01*
X-299732Y19817D01*
X-299742Y19776D01*
X-299740Y19765D01*
X-299743Y19751D01*
X-299720Y712D01*
X-299704Y637D01*
X-299696Y560D01*
X-299685Y540D01*
X-299680Y517D01*
X-299636Y454D01*
X-299599Y387D01*
X-299579Y370D01*
X-299567Y353D01*
X-299530Y329D01*
X-299471Y280D01*
X-282994Y-9259D01*
X-282966Y-9268D01*
X-282942Y-9285D01*
X-282873Y-9300D01*
X-282805Y-9322D01*
X-282776Y-9320D01*
X-282748Y-9326D01*
X-282678Y-9313D01*
X-282607Y-9307D01*
X-282581Y-9294D01*
X-282553Y-9288D01*
X-282493Y-9248D01*
X-282430Y-9216D01*
X-282412Y-9193D01*
X-282388Y-9177D01*
X-282330Y-9095D01*
X-282303Y-9063D01*
X-282300Y-9052D01*
X-282292Y-9041D01*
X-282165Y-8772D01*
X-249943Y-27525D01*
X-249923Y-27532D01*
X-249906Y-27545D01*
X-249809Y-27576D01*
X-249713Y-27613D01*
X-249692Y-27613D01*
X-249672Y-27620D01*
X-249570Y-27618D01*
X-249468Y-27622D01*
X-249447Y-27616D01*
X-249426Y-27616D01*
X-249329Y-27582D01*
X-249232Y-27553D01*
X-249214Y-27541D01*
X-249194Y-27534D01*
X-249113Y-27471D01*
X-249030Y-27413D01*
X-249017Y-27396D01*
X-249000Y-27382D01*
X-248946Y-27308D01*
X-248924Y-27299D01*
X-248883Y-27260D01*
X-248875Y-27256D01*
X-248869Y-27250D01*
X-248825Y-27221D01*
X-248768Y-27154D01*
X-248744Y-27131D01*
X-248735Y-27115D01*
X-248716Y-27093D01*
X-248187Y-26317D01*
X-247541Y-25368D01*
X-247526Y-25337D01*
X-247505Y-25310D01*
X-247475Y-25226D01*
X-247437Y-25145D01*
X-247433Y-25111D01*
X-247422Y-25078D01*
X-247416Y-24999D01*
X-246978Y-24527D01*
X-246960Y-24500D01*
X-246907Y-24438D01*
X-246631Y-24033D01*
X-246547Y-23909D01*
X-246482Y-23878D01*
X-246398Y-23848D01*
X-246371Y-23826D01*
X-246340Y-23811D01*
X-246213Y-23702D01*
X-244714Y-22086D01*
X-244695Y-22057D01*
X-244670Y-22033D01*
X-244627Y-21955D01*
X-244578Y-21881D01*
X-244569Y-21847D01*
X-244553Y-21816D01*
X-244535Y-21739D01*
X-244032Y-21338D01*
X-244010Y-21313D01*
X-243949Y-21260D01*
X-243514Y-20791D01*
X-243445Y-20770D01*
X-243358Y-20752D01*
X-243328Y-20735D01*
X-243294Y-20725D01*
X-243153Y-20636D01*
X-241430Y-19261D01*
X-241406Y-19235D01*
X-241378Y-19215D01*
X-241324Y-19144D01*
X-241265Y-19078D01*
X-241251Y-19046D01*
X-241230Y-19019D01*
X-241201Y-18945D01*
X-240644Y-18623D01*
X-240618Y-18602D01*
X-240550Y-18559D01*
X-240049Y-18159D01*
X-239979Y-18149D01*
X-239890Y-18145D01*
X-239857Y-18132D01*
X-239823Y-18127D01*
X-239669Y-18060D01*
X-237761Y-16957D01*
X-237734Y-16935D01*
X-237703Y-16920D01*
X-237640Y-16858D01*
X-237571Y-16801D01*
X-237552Y-16772D01*
X-237527Y-16748D01*
X-237488Y-16679D01*
X-236889Y-16443D01*
X-236860Y-16427D01*
X-236786Y-16394D01*
X-236232Y-16074D01*
X-236160Y-16074D01*
X-236072Y-16083D01*
X-236038Y-16075D01*
X-236003Y-16076D01*
X-235841Y-16032D01*
X-233790Y-15226D01*
X-233760Y-15208D01*
X-233727Y-15198D01*
X-233655Y-15146D01*
X-233578Y-15100D01*
X-233556Y-15074D01*
X-233528Y-15054D01*
X-233478Y-14991D01*
X-232851Y-14848D01*
X-232820Y-14835D01*
X-232742Y-14814D01*
X-232146Y-14580D01*
X-232075Y-14592D01*
X-231989Y-14613D01*
X-231954Y-14611D01*
X-231920Y-14616D01*
X-231754Y-14597D01*
X-229605Y-14106D01*
X-229573Y-14093D01*
X-229538Y-14088D01*
X-229459Y-14047D01*
X-229377Y-14013D01*
X-229351Y-13991D01*
X-229320Y-13975D01*
X-229262Y-13920D01*
X-228620Y-13872D01*
X-228588Y-13864D01*
X-228508Y-13855D01*
X-227883Y-13712D01*
X-227815Y-13734D01*
X-227733Y-13769D01*
X-227698Y-13771D01*
X-227665Y-13782D01*
X-227498Y-13788D01*
X-225300Y-13622D01*
X-225266Y-13614D01*
X-225231Y-13614D01*
X-225147Y-13585D01*
X-225061Y-13564D01*
X-225031Y-13546D01*
X-224999Y-13535D01*
X-224933Y-13490D01*
X-224291Y-13538D01*
X-224258Y-13535D01*
X-224177Y-13538D01*
X-223539Y-13490D01*
X-223474Y-13522D01*
X-223399Y-13568D01*
X-223365Y-13575D01*
X-223334Y-13591D01*
X-223169Y-13622D01*
X-220971Y-13786D01*
X-220936Y-13783D01*
X-220902Y-13788D01*
X-220814Y-13772D01*
X-220726Y-13764D01*
X-220694Y-13750D01*
X-220660Y-13744D01*
X-220588Y-13709D01*
X-219961Y-13852D01*
X-219928Y-13854D01*
X-219848Y-13869D01*
X-219210Y-13917D01*
X-219151Y-13958D01*
X-219083Y-14015D01*
X-219050Y-14028D01*
X-219022Y-14047D01*
X-218863Y-14103D01*
X-217333Y-14451D01*
X-216714Y-14592D01*
X-216680Y-14594D01*
X-216647Y-14605D01*
X-216558Y-14602D01*
X-216469Y-14608D01*
X-216435Y-14599D01*
X-216401Y-14598D01*
X-216325Y-14574D01*
X-215726Y-14809D01*
X-215693Y-14816D01*
X-215617Y-14842D01*
X-214993Y-14985D01*
X-214941Y-15034D01*
X-214882Y-15101D01*
X-214852Y-15118D01*
X-214826Y-15142D01*
X-214678Y-15220D01*
X-212626Y-16024D01*
X-212592Y-16032D01*
X-212561Y-16047D01*
X-212472Y-16057D01*
X-212385Y-16076D01*
X-212351Y-16072D01*
X-212316Y-16076D01*
X-212238Y-16064D01*
X-211680Y-16386D01*
X-211650Y-16398D01*
X-211578Y-16435D01*
X-210982Y-16669D01*
X-210938Y-16725D01*
X-210889Y-16800D01*
X-210862Y-16822D01*
X-210841Y-16849D01*
X-210706Y-16948D01*
X-208796Y-18050D01*
X-208764Y-18062D01*
X-208735Y-18082D01*
X-208649Y-18105D01*
X-208566Y-18137D01*
X-208532Y-18138D01*
X-208498Y-18147D01*
X-208419Y-18147D01*
X-207915Y-18548D01*
X-207887Y-18564D01*
X-207821Y-18612D01*
X-207267Y-18932D01*
X-207231Y-18995D01*
X-207195Y-19076D01*
X-207171Y-19101D01*
X-207154Y-19131D01*
X-207035Y-19250D01*
X-205312Y-20623D01*
X-205281Y-20640D01*
X-205256Y-20664D01*
X-205174Y-20700D01*
X-205097Y-20744D01*
X-205063Y-20750D01*
X-205031Y-20764D01*
X-204953Y-20776D01*
X-204515Y-21248D01*
X-204489Y-21268D01*
X-204431Y-21325D01*
X-203930Y-21724D01*
X-203905Y-21791D01*
X-203881Y-21877D01*
X-203861Y-21905D01*
X-203849Y-21938D01*
X-203749Y-22072D01*
X-202249Y-23688D01*
X-202222Y-23709D01*
X-202200Y-23736D01*
X-202125Y-23784D01*
X-202055Y-23839D01*
X-202022Y-23850D01*
X-201993Y-23869D01*
X-201917Y-23892D01*
X-201554Y-24424D01*
X-201532Y-24447D01*
X-201483Y-24512D01*
X-201048Y-24982D01*
X-201032Y-25052D01*
X-201021Y-25140D01*
X-201006Y-25171D01*
X-200999Y-25205D01*
X-200920Y-25353D01*
X-199678Y-27174D01*
X-199654Y-27199D01*
X-199636Y-27229D01*
X-199570Y-27288D01*
X-199508Y-27352D01*
X-199478Y-27368D01*
X-199451Y-27391D01*
X-199380Y-27426D01*
X-199100Y-28005D01*
X-199082Y-28032D01*
X-199043Y-28104D01*
X-198683Y-28633D01*
X-198678Y-28704D01*
X-198680Y-28793D01*
X-198670Y-28826D01*
X-198667Y-28861D01*
X-198612Y-29019D01*
X-197655Y-31005D01*
X-197635Y-31033D01*
X-197622Y-31065D01*
X-197565Y-31133D01*
X-197514Y-31206D01*
X-197486Y-31227D01*
X-197463Y-31253D01*
X-197398Y-31298D01*
X-197208Y-31913D01*
X-197193Y-31942D01*
X-197166Y-32019D01*
X-196888Y-32596D01*
X-196894Y-32667D01*
X-196909Y-32755D01*
X-196904Y-32789D01*
X-196907Y-32823D01*
X-196876Y-32988D01*
X-196871Y-33002D01*
X-196858Y-33028D01*
X-196852Y-33057D01*
X-196804Y-33138D01*
X-196762Y-33222D01*
X-196741Y-33243D01*
X-196726Y-33268D01*
X-196654Y-33330D01*
X-196588Y-33396D01*
X-196561Y-33409D01*
X-196539Y-33428D01*
X-196451Y-33464D01*
X-196367Y-33505D01*
X-196338Y-33509D01*
X-196311Y-33520D01*
X-196144Y-33539D01*
X-179953Y-33539D01*
X-179863Y-33524D01*
X-179772Y-33517D01*
X-179742Y-33504D01*
X-179710Y-33499D01*
X-179630Y-33456D01*
X-179546Y-33421D01*
X-179514Y-33395D01*
X-179493Y-33384D01*
X-179471Y-33361D01*
X-179415Y-33316D01*
X-178087Y-31988D01*
X-174338Y-31988D01*
X-171688Y-34638D01*
X-171688Y-38387D01*
X-174338Y-41037D01*
X-178087Y-41037D01*
X-179265Y-39859D01*
X-179339Y-39806D01*
X-179408Y-39747D01*
X-179438Y-39734D01*
X-179465Y-39716D01*
X-179551Y-39689D01*
X-179636Y-39655D01*
X-179677Y-39650D01*
X-179700Y-39643D01*
X-179732Y-39644D01*
X-179803Y-39636D01*
X-194493Y-39636D01*
X-194569Y-39649D01*
X-194646Y-39652D01*
X-194690Y-39668D01*
X-194736Y-39676D01*
X-194804Y-39712D01*
X-194876Y-39739D01*
X-194912Y-39769D01*
X-194953Y-39791D01*
X-195006Y-39847D01*
X-195066Y-39896D01*
X-195090Y-39935D01*
X-195123Y-39969D01*
X-195155Y-40039D01*
X-195196Y-40104D01*
X-195207Y-40150D01*
X-195226Y-40192D01*
X-195235Y-40269D01*
X-195253Y-40344D01*
X-195250Y-40407D01*
X-195253Y-40437D01*
X-195248Y-40463D01*
X-195246Y-40511D01*
X-195157Y-41097D01*
X-195184Y-41164D01*
X-195225Y-41243D01*
X-195230Y-41277D01*
X-195243Y-41309D01*
X-195261Y-41476D01*
X-195260Y-43680D01*
X-195255Y-43715D01*
X-195257Y-43749D01*
X-195235Y-43835D01*
X-195221Y-43923D01*
X-195204Y-43954D01*
X-195196Y-43987D01*
X-195156Y-44056D01*
X-195252Y-44692D01*
X-195251Y-44725D01*
X-195260Y-44806D01*
X-195260Y-45446D01*
X-195296Y-45508D01*
X-195348Y-45580D01*
X-195358Y-45613D01*
X-195376Y-45643D01*
X-195419Y-45805D01*
X-195747Y-47985D01*
X-195746Y-48020D01*
X-195754Y-48054D01*
X-195745Y-48142D01*
X-195744Y-48231D01*
X-195732Y-48264D01*
X-195729Y-48298D01*
X-195699Y-48372D01*
X-195889Y-48987D01*
X-195893Y-49020D01*
X-195914Y-49098D01*
X-196009Y-49731D01*
X-196055Y-49787D01*
X-196117Y-49851D01*
X-196132Y-49882D01*
X-196154Y-49909D01*
X-196220Y-50063D01*
X-196869Y-52169D01*
X-196874Y-52204D01*
X-196887Y-52236D01*
X-196891Y-52325D01*
X-196903Y-52413D01*
X-196896Y-52447D01*
X-196898Y-52482D01*
X-196880Y-52559D01*
X-197159Y-53139D01*
X-197169Y-53171D01*
X-197201Y-53245D01*
X-197389Y-53857D01*
X-197442Y-53905D01*
X-197513Y-53959D01*
X-197533Y-53988D01*
X-197558Y-54011D01*
X-197647Y-54153D01*
X-198552Y-56034D01*
X-198570Y-56094D01*
X-198597Y-56151D01*
X-198605Y-56212D01*
X-198622Y-56270D01*
X-198620Y-56317D01*
X-198707Y-56467D01*
X-198713Y-56485D01*
X-198724Y-56500D01*
X-198757Y-56600D01*
X-198794Y-56698D01*
X-198794Y-56716D01*
X-198800Y-56734D01*
X-198799Y-56839D01*
X-198803Y-56943D01*
X-198797Y-56961D01*
X-198797Y-56980D01*
X-198762Y-57079D01*
X-198733Y-57179D01*
X-198722Y-57194D01*
X-198716Y-57212D01*
X-198652Y-57294D01*
X-198591Y-57380D01*
X-198576Y-57391D01*
X-198565Y-57406D01*
X-198430Y-57506D01*
X-166203Y-76262D01*
X-166214Y-76287D01*
X-166214Y-76316D01*
X-166222Y-76343D01*
X-166214Y-76415D01*
X-166215Y-76486D01*
X-166203Y-76512D01*
X-166200Y-76541D01*
X-166165Y-76603D01*
X-166137Y-76669D01*
X-166117Y-76689D01*
X-166102Y-76714D01*
X-166039Y-76766D01*
X-166035Y-76772D01*
X-166026Y-76777D01*
X-166025Y-76778D01*
X-165995Y-76808D01*
X-165985Y-76812D01*
X-165974Y-76820D01*
X-149474Y-86320D01*
X-149401Y-86344D01*
X-149331Y-86375D01*
X-149307Y-86376D01*
X-149285Y-86383D01*
X-149209Y-86377D01*
X-149132Y-86378D01*
X-149108Y-86369D01*
X-149087Y-86367D01*
X-149048Y-86347D01*
X-148976Y-86320D01*
X-132476Y-76820D01*
X-132454Y-76801D01*
X-132428Y-76789D01*
X-132394Y-76751D01*
X-132391Y-76749D01*
X-132388Y-76745D01*
X-132380Y-76736D01*
X-132327Y-76689D01*
X-132314Y-76663D01*
X-132295Y-76641D01*
X-132272Y-76574D01*
X-132241Y-76509D01*
X-132240Y-76480D01*
X-132230Y-76453D01*
X-132235Y-76387D01*
X-99861Y-57789D01*
X-99845Y-57776D01*
X-99826Y-57768D01*
X-99751Y-57699D01*
X-99671Y-57634D01*
X-99660Y-57616D01*
X-99644Y-57602D01*
X-99594Y-57513D01*
X-99539Y-57426D01*
X-99535Y-57406D01*
X-99525Y-57388D01*
X-99506Y-57286D01*
X-99481Y-57187D01*
X-99483Y-57166D01*
X-99479Y-57146D01*
X-99494Y-57044D01*
X-99503Y-56942D01*
X-99511Y-56923D01*
X-99514Y-56902D01*
X-99549Y-56822D01*
X-99549Y-56820D01*
X-99551Y-56817D01*
X-99581Y-56749D01*
X-99825Y-56326D01*
X-99824Y-56317D01*
X-99838Y-56255D01*
X-99842Y-56192D01*
X-99871Y-56109D01*
X-99879Y-56077D01*
X-99887Y-56063D01*
X-99888Y-56059D01*
X-99890Y-56055D01*
X-99898Y-56034D01*
X-100803Y-54153D01*
X-100823Y-54125D01*
X-100835Y-54093D01*
X-100893Y-54025D01*
X-100944Y-53952D01*
X-100972Y-53931D01*
X-100994Y-53905D01*
X-101060Y-53860D01*
X-101249Y-53245D01*
X-101264Y-53215D01*
X-101291Y-53139D01*
X-101568Y-52562D01*
X-101562Y-52490D01*
X-101547Y-52403D01*
X-101552Y-52369D01*
X-101549Y-52334D01*
X-101581Y-52169D01*
X-102230Y-50063D01*
X-102245Y-50032D01*
X-102253Y-49998D01*
X-102300Y-49922D01*
X-102339Y-49843D01*
X-102364Y-49818D01*
X-102382Y-49788D01*
X-102440Y-49735D01*
X-102536Y-49098D01*
X-102546Y-49067D01*
X-102561Y-48987D01*
X-102750Y-48375D01*
X-102733Y-48305D01*
X-102705Y-48221D01*
X-102705Y-48186D01*
X-102697Y-48153D01*
X-102703Y-47985D01*
X-103031Y-45805D01*
X-103042Y-45772D01*
X-103044Y-45738D01*
X-103079Y-45656D01*
X-103106Y-45571D01*
X-103127Y-45543D01*
X-103141Y-45511D01*
X-103190Y-45449D01*
X-103190Y-44806D01*
X-103195Y-44773D01*
X-103198Y-44692D01*
X-103294Y-44059D01*
X-103267Y-43993D01*
X-103226Y-43913D01*
X-103221Y-43879D01*
X-103208Y-43847D01*
X-103190Y-43680D01*
X-103189Y-41476D01*
X-103194Y-41442D01*
X-103192Y-41407D01*
X-103214Y-41321D01*
X-103228Y-41233D01*
X-103245Y-41203D01*
X-103253Y-41169D01*
X-103293Y-41101D01*
X-103197Y-40464D01*
X-103197Y-40431D01*
X-103188Y-40351D01*
X-103188Y-39710D01*
X-103152Y-39649D01*
X-103100Y-39576D01*
X-103090Y-39543D01*
X-103072Y-39513D01*
X-103029Y-39351D01*
X-102700Y-37172D01*
X-102700Y-37137D01*
X-102693Y-37103D01*
X-102702Y-37015D01*
X-102703Y-36926D01*
X-102714Y-36893D01*
X-102718Y-36859D01*
X-102747Y-36785D01*
X-102557Y-36170D01*
X-102552Y-36137D01*
X-102532Y-36059D01*
X-102436Y-35426D01*
X-102391Y-35370D01*
X-102329Y-35306D01*
X-102314Y-35275D01*
X-102292Y-35248D01*
X-102225Y-35094D01*
X-101574Y-32988D01*
X-101570Y-32954D01*
X-101557Y-32922D01*
X-101553Y-32833D01*
X-101541Y-32745D01*
X-101547Y-32711D01*
X-101546Y-32676D01*
X-101563Y-32599D01*
X-101284Y-32019D01*
X-101275Y-31987D01*
X-101242Y-31913D01*
X-101053Y-31301D01*
X-101000Y-31253D01*
X-100929Y-31199D01*
X-100910Y-31170D01*
X-100884Y-31147D01*
X-100795Y-31005D01*
X-99838Y-29019D01*
X-99829Y-28986D01*
X-99811Y-28956D01*
X-99794Y-28869D01*
X-99769Y-28783D01*
X-99770Y-28749D01*
X-99763Y-28715D01*
X-99769Y-28636D01*
X-99407Y-28104D01*
X-99393Y-28074D01*
X-99350Y-28005D01*
X-99072Y-27428D01*
X-99012Y-27389D01*
X-98934Y-27346D01*
X-98910Y-27321D01*
X-98881Y-27301D01*
X-98772Y-27174D01*
X-98707Y-27078D01*
X-97530Y-25353D01*
X-97515Y-25322D01*
X-97494Y-25295D01*
X-97464Y-25211D01*
X-97426Y-25130D01*
X-97422Y-25096D01*
X-97410Y-25063D01*
X-97405Y-24984D01*
X-96967Y-24512D01*
X-96948Y-24485D01*
X-96896Y-24424D01*
X-96629Y-24033D01*
X-96535Y-23895D01*
X-96470Y-23864D01*
X-96386Y-23834D01*
X-96359Y-23812D01*
X-96328Y-23797D01*
X-96201Y-23688D01*
X-94701Y-22072D01*
X-94682Y-22043D01*
X-94657Y-22020D01*
X-94614Y-21942D01*
X-94565Y-21867D01*
X-94556Y-21834D01*
X-94540Y-21803D01*
X-94522Y-21726D01*
X-94019Y-21325D01*
X-93997Y-21300D01*
X-93935Y-21248D01*
X-93740Y-21037D01*
X-93710Y-20992D01*
X-93706Y-20988D01*
X-93703Y-20982D01*
X-93697Y-20972D01*
X-93647Y-20914D01*
X-93629Y-20871D01*
X-93604Y-20832D01*
X-93584Y-20757D01*
X-93555Y-20686D01*
X-93548Y-20624D01*
X-93540Y-20594D01*
X-93542Y-20568D01*
X-93536Y-20519D01*
X-93536Y-17953D01*
X-93551Y-17863D01*
X-93558Y-17772D01*
X-93571Y-17742D01*
X-93576Y-17710D01*
X-93619Y-17630D01*
X-93654Y-17546D01*
X-93680Y-17514D01*
X-93691Y-17493D01*
X-93714Y-17471D01*
X-93759Y-17415D01*
X-95012Y-16162D01*
X-95012Y-12413D01*
X-92362Y-9763D01*
X-88613Y-9763D01*
X-85963Y-12413D01*
X-85963Y-14963D01*
X-85957Y-15001D01*
X-85959Y-15039D01*
X-85937Y-15121D01*
X-85923Y-15205D01*
X-85905Y-15240D01*
X-85895Y-15277D01*
X-85848Y-15348D01*
X-85808Y-15423D01*
X-85780Y-15449D01*
X-85758Y-15482D01*
X-85691Y-15534D01*
X-85630Y-15592D01*
X-85594Y-15608D01*
X-85564Y-15632D01*
X-85484Y-15660D01*
X-85407Y-15696D01*
X-85368Y-15700D01*
X-85332Y-15713D01*
X-85246Y-15713D01*
X-85162Y-15723D01*
X-85124Y-15715D01*
X-85086Y-15715D01*
X-84924Y-15671D01*
X-84922Y-15671D01*
X-83772Y-15220D01*
X-83742Y-15202D01*
X-83709Y-15192D01*
X-83637Y-15140D01*
X-83561Y-15094D01*
X-83538Y-15068D01*
X-83510Y-15048D01*
X-83461Y-14985D01*
X-82833Y-14842D01*
X-82802Y-14830D01*
X-82724Y-14809D01*
X-82128Y-14575D01*
X-82057Y-14587D01*
X-81971Y-14608D01*
X-81937Y-14606D01*
X-81902Y-14611D01*
X-81736Y-14592D01*
X-79587Y-14103D01*
X-79555Y-14089D01*
X-79520Y-14084D01*
X-79441Y-14043D01*
X-79359Y-14010D01*
X-79332Y-13987D01*
X-79302Y-13971D01*
X-79244Y-13917D01*
X-78602Y-13869D01*
X-78570Y-13862D01*
X-78489Y-13852D01*
X-77865Y-13710D01*
X-77797Y-13732D01*
X-77715Y-13766D01*
X-77680Y-13769D01*
X-77647Y-13780D01*
X-77479Y-13786D01*
X-75281Y-13622D01*
X-75248Y-13613D01*
X-75213Y-13613D01*
X-75128Y-13585D01*
X-75042Y-13564D01*
X-75013Y-13545D01*
X-74980Y-13534D01*
X-74914Y-13489D01*
X-74273Y-13538D01*
X-74240Y-13535D01*
X-74159Y-13538D01*
X-73520Y-13490D01*
X-73456Y-13522D01*
X-73380Y-13568D01*
X-73346Y-13576D01*
X-73315Y-13591D01*
X-73150Y-13622D01*
X-70952Y-13788D01*
X-70918Y-13785D01*
X-70883Y-13790D01*
X-70796Y-13774D01*
X-70707Y-13766D01*
X-70675Y-13752D01*
X-70641Y-13746D01*
X-70570Y-13712D01*
X-69942Y-13855D01*
X-69909Y-13857D01*
X-69830Y-13872D01*
X-69191Y-13920D01*
X-69133Y-13961D01*
X-69064Y-14018D01*
X-69032Y-14031D01*
X-69004Y-14051D01*
X-68845Y-14106D01*
X-66696Y-14597D01*
X-66662Y-14599D01*
X-66629Y-14609D01*
X-66540Y-14607D01*
X-66451Y-14613D01*
X-66417Y-14604D01*
X-66383Y-14603D01*
X-66307Y-14579D01*
X-65708Y-14814D01*
X-65676Y-14821D01*
X-65599Y-14848D01*
X-64975Y-14991D01*
X-64923Y-15040D01*
X-64864Y-15107D01*
X-64834Y-15124D01*
X-64809Y-15148D01*
X-64660Y-15226D01*
X-62609Y-16032D01*
X-62575Y-16039D01*
X-62544Y-16054D01*
X-62455Y-16065D01*
X-62368Y-16084D01*
X-62334Y-16080D01*
X-62299Y-16084D01*
X-62221Y-16072D01*
X-61664Y-16394D01*
X-61633Y-16406D01*
X-61561Y-16443D01*
X-60965Y-16678D01*
X-60921Y-16734D01*
X-60873Y-16809D01*
X-60846Y-16830D01*
X-60824Y-16858D01*
X-60689Y-16957D01*
X-58781Y-18060D01*
X-58748Y-18072D01*
X-58719Y-18092D01*
X-58634Y-18115D01*
X-58551Y-18147D01*
X-58516Y-18148D01*
X-58482Y-18157D01*
X-58403Y-18157D01*
X-57900Y-18559D01*
X-57871Y-18575D01*
X-57806Y-18623D01*
X-57252Y-18943D01*
X-57216Y-19006D01*
X-57180Y-19087D01*
X-57156Y-19112D01*
X-57139Y-19142D01*
X-57020Y-19261D01*
X-55297Y-20636D01*
X-55267Y-20653D01*
X-55242Y-20676D01*
X-55161Y-20712D01*
X-55083Y-20756D01*
X-55049Y-20762D01*
X-55017Y-20777D01*
X-54939Y-20788D01*
X-54501Y-21260D01*
X-54475Y-21280D01*
X-54418Y-21338D01*
X-53917Y-21737D01*
X-53892Y-21804D01*
X-53868Y-21890D01*
X-53848Y-21918D01*
X-53836Y-21951D01*
X-53736Y-22086D01*
X-52237Y-23702D01*
X-52210Y-23723D01*
X-52188Y-23750D01*
X-52113Y-23798D01*
X-52043Y-23853D01*
X-52010Y-23864D01*
X-51981Y-23883D01*
X-51905Y-23906D01*
X-51543Y-24438D01*
X-51520Y-24462D01*
X-51472Y-24527D01*
X-51036Y-24997D01*
X-51021Y-25067D01*
X-51010Y-25155D01*
X-50995Y-25186D01*
X-50988Y-25220D01*
X-50909Y-25368D01*
X-49734Y-27093D01*
X-49710Y-27118D01*
X-49696Y-27141D01*
X-49678Y-27156D01*
X-49655Y-27191D01*
X-49606Y-27227D01*
X-49564Y-27271D01*
X-49522Y-27293D01*
X-49219Y-27820D01*
X-49206Y-27835D01*
X-49199Y-27853D01*
X-49164Y-27891D01*
X-49158Y-27902D01*
X-49142Y-27915D01*
X-49129Y-27930D01*
X-49063Y-28011D01*
X-49047Y-28021D01*
X-49034Y-28035D01*
X-48943Y-28086D01*
X-48855Y-28141D01*
X-48836Y-28146D01*
X-48819Y-28155D01*
X-48717Y-28175D01*
X-48615Y-28199D01*
X-48596Y-28197D01*
X-48577Y-28201D01*
X-48474Y-28186D01*
X-48370Y-28177D01*
X-48353Y-28170D01*
X-48334Y-28167D01*
X-48180Y-28100D01*
X-2Y-423D01*
X133786Y-76471D01*
X133786Y-76486D01*
X133797Y-76512D01*
X133800Y-76541D01*
X133835Y-76603D01*
X133863Y-76669D01*
X133883Y-76689D01*
X133898Y-76714D01*
X133961Y-76766D01*
X133965Y-76772D01*
X133974Y-76777D01*
X133975Y-76778D01*
X134005Y-76808D01*
X134015Y-76812D01*
X134026Y-76820D01*
X150526Y-86320D01*
X150599Y-86344D01*
X150669Y-86375D01*
X150693Y-86376D01*
X150715Y-86383D01*
X150791Y-86377D01*
G37*
%LPC*%
G36*
X107758Y-22416D02*
X107758Y-22416D01*
X102996Y-17655D01*
X102996Y-10920D01*
X104933Y-8984D01*
X104975Y-8926D01*
X105024Y-8874D01*
X105046Y-8826D01*
X105077Y-8784D01*
X105098Y-8716D01*
X105128Y-8650D01*
X105134Y-8599D01*
X105149Y-8549D01*
X105147Y-8477D01*
X105155Y-8406D01*
X105144Y-8355D01*
X105143Y-8303D01*
X105118Y-8236D01*
X105103Y-8166D01*
X105076Y-8121D01*
X105058Y-8072D01*
X105013Y-8016D01*
X104976Y-7955D01*
X104937Y-7921D01*
X104904Y-7880D01*
X104844Y-7841D01*
X104790Y-7795D01*
X104741Y-7775D01*
X104697Y-7747D01*
X104628Y-7730D01*
X104561Y-7703D01*
X104490Y-7695D01*
X104459Y-7687D01*
X104436Y-7689D01*
X104395Y-7684D01*
X68460Y-7684D01*
X38648Y22128D01*
X38574Y22181D01*
X38504Y22241D01*
X38474Y22253D01*
X38448Y22272D01*
X38361Y22299D01*
X38276Y22333D01*
X38235Y22337D01*
X38213Y22344D01*
X38181Y22343D01*
X38109Y22351D01*
X-79053Y22351D01*
X-79069Y22349D01*
X-79085Y22351D01*
X-79190Y22329D01*
X-79296Y22312D01*
X-79310Y22304D01*
X-79326Y22301D01*
X-79419Y22246D01*
X-79513Y22196D01*
X-79524Y22185D01*
X-79538Y22177D01*
X-79609Y22096D01*
X-79682Y22018D01*
X-79689Y22003D01*
X-79700Y21991D01*
X-79741Y21892D01*
X-79786Y21795D01*
X-79788Y21779D01*
X-79794Y21764D01*
X-79801Y21657D01*
X-79813Y21551D01*
X-79810Y21535D01*
X-79811Y21519D01*
X-79784Y21415D01*
X-79761Y21310D01*
X-79753Y21296D01*
X-79748Y21281D01*
X-79664Y21136D01*
X-79260Y20593D01*
X-79237Y20570D01*
X-79188Y20509D01*
X-78672Y19993D01*
X-78672Y19988D01*
X-78650Y19903D01*
X-78636Y19816D01*
X-78619Y19784D01*
X-78610Y19750D01*
X-78561Y19665D01*
X-78668Y18938D01*
X-78667Y18905D01*
X-78676Y18827D01*
X-78676Y18098D01*
X-78680Y18094D01*
X-78724Y18018D01*
X-78776Y17947D01*
X-78786Y17912D01*
X-78804Y17881D01*
X-78829Y17787D01*
X-79419Y17348D01*
X-79442Y17324D01*
X-79503Y17275D01*
X-94303Y2476D01*
X-114427Y2476D01*
X-114447Y2473D01*
X-114466Y2475D01*
X-114568Y2453D01*
X-114670Y2436D01*
X-114687Y2427D01*
X-114707Y2422D01*
X-114796Y2369D01*
X-114887Y2321D01*
X-114901Y2307D01*
X-114918Y2296D01*
X-114985Y2218D01*
X-115057Y2143D01*
X-115065Y2125D01*
X-115078Y2109D01*
X-115117Y2013D01*
X-115160Y1920D01*
X-115162Y1900D01*
X-115170Y1881D01*
X-115188Y1715D01*
X-115188Y-2535D01*
X-116528Y-3874D01*
X-148585Y-3874D01*
X-150147Y-2312D01*
X-161062Y8603D01*
X-161136Y8656D01*
X-161205Y8715D01*
X-161235Y8728D01*
X-161261Y8746D01*
X-161348Y8773D01*
X-161433Y8807D01*
X-161474Y8812D01*
X-161497Y8819D01*
X-161529Y8818D01*
X-161600Y8826D01*
X-200972Y8826D01*
X-205487Y13340D01*
X-205487Y29522D01*
X-203924Y31085D01*
X-200972Y34037D01*
X-164777Y34037D01*
X-164660Y34056D01*
X-164544Y34073D01*
X-164539Y34076D01*
X-164534Y34076D01*
X-164430Y34131D01*
X-164325Y34185D01*
X-164321Y34189D01*
X-164316Y34192D01*
X-164236Y34276D01*
X-164153Y34361D01*
X-164151Y34366D01*
X-164147Y34370D01*
X-164098Y34476D01*
X-164047Y34582D01*
X-164045Y34589D01*
X-164043Y34593D01*
X-164042Y34610D01*
X-164017Y34747D01*
X-162626Y55614D01*
X-162628Y55633D01*
X-162624Y55664D01*
X-162624Y56565D01*
X-162621Y56569D01*
X-162607Y56616D01*
X-161920Y57217D01*
X-161907Y57231D01*
X-161883Y57251D01*
X-161246Y57888D01*
X-161240Y57889D01*
X-161197Y57912D01*
X-160287Y57851D01*
X-160268Y57853D01*
X-160236Y57849D01*
X-135578Y57849D01*
X-132651Y54922D01*
X-132651Y29620D01*
X-132637Y29534D01*
X-132631Y29446D01*
X-132617Y29413D01*
X-132611Y29377D01*
X-132570Y29300D01*
X-132537Y29219D01*
X-132513Y29192D01*
X-132496Y29160D01*
X-132433Y29100D01*
X-132375Y29034D01*
X-132344Y29015D01*
X-132318Y28991D01*
X-132238Y28954D01*
X-132163Y28909D01*
X-132118Y28898D01*
X-132095Y28887D01*
X-132064Y28883D01*
X-132000Y28867D01*
X-126047Y27991D01*
X-125971Y27993D01*
X-125897Y27984D01*
X-125849Y27995D01*
X-125801Y27995D01*
X-125730Y28021D01*
X-125656Y28037D01*
X-125615Y28061D01*
X-125569Y28078D01*
X-125510Y28124D01*
X-125445Y28163D01*
X-125414Y28200D01*
X-125375Y28229D01*
X-125334Y28292D01*
X-125285Y28350D01*
X-125267Y28395D01*
X-125240Y28435D01*
X-125221Y28508D01*
X-125193Y28578D01*
X-125186Y28643D01*
X-125178Y28673D01*
X-125180Y28698D01*
X-125175Y28745D01*
X-125175Y30449D01*
X-122825Y32799D01*
X-122813Y32815D01*
X-122798Y32828D01*
X-122741Y32915D01*
X-122681Y32999D01*
X-122675Y33018D01*
X-122665Y33035D01*
X-122639Y33135D01*
X-122609Y33234D01*
X-122609Y33254D01*
X-122604Y33273D01*
X-122613Y33376D01*
X-122615Y33480D01*
X-122622Y33499D01*
X-122624Y33519D01*
X-122664Y33613D01*
X-122700Y33711D01*
X-122712Y33727D01*
X-122720Y33745D01*
X-122825Y33876D01*
X-125175Y36226D01*
X-125175Y39974D01*
X-122524Y42625D01*
X-120393Y42625D01*
X-120303Y42639D01*
X-120212Y42647D01*
X-120182Y42659D01*
X-120150Y42664D01*
X-120070Y42707D01*
X-119986Y42743D01*
X-119954Y42769D01*
X-119933Y42780D01*
X-119911Y42803D01*
X-119855Y42848D01*
X-111110Y51592D01*
X-111057Y51666D01*
X-110998Y51736D01*
X-110985Y51766D01*
X-110967Y51792D01*
X-110940Y51879D01*
X-110906Y51964D01*
X-110901Y52005D01*
X-110894Y52027D01*
X-110895Y52059D01*
X-110887Y52130D01*
X-110887Y54262D01*
X-108237Y56912D01*
X-104488Y56912D01*
X-101838Y54262D01*
X-101838Y50513D01*
X-104488Y47863D01*
X-106620Y47863D01*
X-106710Y47848D01*
X-106801Y47841D01*
X-106830Y47828D01*
X-106862Y47823D01*
X-106943Y47780D01*
X-107027Y47745D01*
X-107059Y47719D01*
X-107080Y47708D01*
X-107102Y47685D01*
X-107158Y47640D01*
X-115902Y38895D01*
X-115955Y38821D01*
X-116015Y38752D01*
X-116027Y38722D01*
X-116046Y38696D01*
X-116073Y38609D01*
X-116107Y38524D01*
X-116111Y38483D01*
X-116118Y38461D01*
X-116117Y38428D01*
X-116125Y38357D01*
X-116125Y36226D01*
X-118475Y33876D01*
X-118487Y33860D01*
X-118502Y33847D01*
X-118559Y33760D01*
X-118619Y33676D01*
X-118625Y33657D01*
X-118635Y33640D01*
X-118661Y33540D01*
X-118691Y33441D01*
X-118691Y33421D01*
X-118696Y33402D01*
X-118687Y33299D01*
X-118685Y33195D01*
X-118678Y33176D01*
X-118676Y33157D01*
X-118636Y33062D01*
X-118600Y32964D01*
X-118588Y32948D01*
X-118580Y32930D01*
X-118475Y32799D01*
X-115935Y30259D01*
X-115861Y30206D01*
X-115792Y30147D01*
X-115762Y30134D01*
X-115735Y30116D01*
X-115649Y30089D01*
X-115564Y30055D01*
X-115523Y30050D01*
X-115500Y30043D01*
X-115468Y30044D01*
X-115397Y30036D01*
X-106853Y30036D01*
X-106763Y30051D01*
X-106672Y30058D01*
X-106642Y30071D01*
X-106610Y30076D01*
X-106530Y30119D01*
X-106446Y30154D01*
X-106414Y30180D01*
X-106393Y30191D01*
X-106371Y30214D01*
X-106315Y30259D01*
X-105062Y31512D01*
X-101313Y31512D01*
X-98663Y28862D01*
X-98663Y28013D01*
X-98651Y27943D01*
X-98649Y27871D01*
X-98631Y27822D01*
X-98623Y27771D01*
X-98589Y27707D01*
X-98565Y27640D01*
X-98532Y27599D01*
X-98508Y27553D01*
X-98456Y27504D01*
X-98411Y27448D01*
X-98367Y27420D01*
X-98330Y27384D01*
X-98265Y27354D01*
X-98204Y27315D01*
X-98154Y27302D01*
X-98107Y27280D01*
X-98035Y27272D01*
X-97966Y27255D01*
X-97914Y27259D01*
X-97862Y27253D01*
X-97792Y27268D01*
X-97721Y27274D01*
X-97673Y27294D01*
X-97622Y27305D01*
X-97560Y27342D01*
X-97494Y27370D01*
X-97438Y27415D01*
X-97411Y27432D01*
X-97395Y27449D01*
X-97363Y27475D01*
X-96390Y28449D01*
X-79013Y28449D01*
X-78943Y28460D01*
X-78871Y28462D01*
X-78822Y28480D01*
X-78770Y28488D01*
X-78707Y28522D01*
X-78640Y28547D01*
X-78599Y28579D01*
X-78553Y28604D01*
X-78504Y28656D01*
X-78448Y28700D01*
X-78420Y28744D01*
X-78384Y28782D01*
X-78354Y28847D01*
X-78315Y28907D01*
X-78302Y28958D01*
X-78280Y29005D01*
X-78272Y29076D01*
X-78255Y29146D01*
X-78259Y29198D01*
X-78253Y29249D01*
X-78268Y29320D01*
X-78274Y29391D01*
X-78294Y29439D01*
X-78305Y29490D01*
X-78342Y29551D01*
X-78370Y29617D01*
X-78415Y29673D01*
X-78431Y29701D01*
X-78449Y29716D01*
X-78475Y29748D01*
X-80347Y31620D01*
X-81662Y34795D01*
X-81662Y38230D01*
X-80347Y41405D01*
X-77917Y43834D01*
X-74743Y45149D01*
X-71307Y45149D01*
X-68133Y43834D01*
X-65703Y41405D01*
X-65324Y40489D01*
X-65300Y40450D01*
X-65284Y40407D01*
X-65235Y40346D01*
X-65194Y40280D01*
X-65159Y40251D01*
X-65130Y40215D01*
X-65065Y40173D01*
X-65005Y40123D01*
X-64962Y40107D01*
X-64923Y40082D01*
X-64848Y40063D01*
X-64775Y40035D01*
X-64729Y40033D01*
X-64685Y40022D01*
X-64607Y40028D01*
X-64529Y40024D01*
X-64485Y40037D01*
X-64439Y40041D01*
X-64368Y40071D01*
X-64293Y40093D01*
X-64255Y40119D01*
X-64213Y40137D01*
X-64106Y40222D01*
X-64091Y40233D01*
X-64088Y40237D01*
X-64082Y40242D01*
X-45363Y58961D01*
X-45321Y59019D01*
X-45272Y59071D01*
X-45250Y59119D01*
X-45219Y59161D01*
X-45198Y59229D01*
X-45168Y59295D01*
X-45162Y59346D01*
X-45147Y59396D01*
X-45149Y59468D01*
X-45141Y59539D01*
X-45152Y59590D01*
X-45153Y59642D01*
X-45178Y59709D01*
X-45193Y59779D01*
X-45220Y59824D01*
X-45238Y59873D01*
X-45283Y59929D01*
X-45319Y59990D01*
X-45359Y60024D01*
X-45391Y60065D01*
X-45452Y60104D01*
X-45506Y60150D01*
X-45555Y60170D01*
X-45598Y60198D01*
X-45668Y60215D01*
X-45734Y60242D01*
X-45806Y60250D01*
X-45837Y60258D01*
X-45860Y60256D01*
X-45901Y60261D01*
X-189472Y60261D01*
X-189562Y60246D01*
X-189653Y60239D01*
X-189682Y60226D01*
X-189714Y60221D01*
X-189795Y60178D01*
X-189879Y60143D01*
X-189911Y60117D01*
X-189932Y60106D01*
X-189954Y60083D01*
X-190010Y60038D01*
X-201877Y48170D01*
X-201930Y48096D01*
X-201990Y48027D01*
X-202002Y47997D01*
X-202021Y47971D01*
X-202048Y47884D01*
X-202082Y47799D01*
X-202086Y47758D01*
X-202093Y47736D01*
X-202092Y47703D01*
X-202100Y47632D01*
X-202100Y45854D01*
X-204604Y43350D01*
X-208146Y43350D01*
X-210650Y45854D01*
X-210650Y49396D01*
X-208146Y51900D01*
X-206368Y51900D01*
X-206278Y51914D01*
X-206187Y51922D01*
X-206157Y51934D01*
X-206125Y51939D01*
X-206045Y51982D01*
X-205961Y52018D01*
X-205929Y52044D01*
X-205908Y52055D01*
X-205886Y52078D01*
X-205830Y52123D01*
X-193962Y63990D01*
X-193784Y64168D01*
X-193742Y64227D01*
X-193693Y64278D01*
X-193671Y64326D01*
X-193641Y64368D01*
X-193619Y64437D01*
X-193589Y64502D01*
X-193584Y64553D01*
X-193568Y64603D01*
X-193570Y64675D01*
X-193562Y64746D01*
X-193573Y64797D01*
X-193575Y64849D01*
X-193599Y64916D01*
X-193614Y64986D01*
X-193641Y65031D01*
X-193659Y65080D01*
X-193704Y65136D01*
X-193741Y65197D01*
X-193780Y65231D01*
X-193813Y65272D01*
X-193873Y65311D01*
X-193928Y65357D01*
X-193976Y65377D01*
X-194020Y65405D01*
X-194089Y65422D01*
X-194156Y65449D01*
X-194227Y65457D01*
X-194258Y65465D01*
X-194281Y65463D01*
X-194322Y65468D01*
X-198552Y65468D01*
X-198642Y65453D01*
X-198733Y65446D01*
X-198763Y65433D01*
X-198795Y65428D01*
X-198876Y65385D01*
X-198959Y65350D01*
X-198992Y65324D01*
X-199012Y65313D01*
X-199018Y65307D01*
X-199036Y65289D01*
X-199090Y65245D01*
X-211402Y52933D01*
X-211455Y52859D01*
X-211515Y52789D01*
X-211527Y52759D01*
X-211546Y52733D01*
X-211573Y52646D01*
X-211607Y52561D01*
X-211611Y52520D01*
X-211618Y52498D01*
X-211617Y52466D01*
X-211625Y52395D01*
X-211625Y50617D01*
X-214129Y48113D01*
X-217671Y48113D01*
X-220175Y50617D01*
X-220175Y54158D01*
X-217671Y56662D01*
X-215893Y56662D01*
X-215803Y56677D01*
X-215712Y56684D01*
X-215682Y56697D01*
X-215650Y56702D01*
X-215570Y56745D01*
X-215486Y56780D01*
X-215454Y56806D01*
X-215433Y56817D01*
X-215411Y56840D01*
X-215355Y56885D01*
X-203309Y68931D01*
X-203267Y68989D01*
X-203218Y69041D01*
X-203196Y69088D01*
X-203166Y69130D01*
X-203144Y69199D01*
X-203114Y69264D01*
X-203109Y69316D01*
X-203093Y69366D01*
X-203095Y69437D01*
X-203087Y69508D01*
X-203098Y69559D01*
X-203100Y69611D01*
X-203124Y69679D01*
X-203139Y69749D01*
X-203166Y69794D01*
X-203184Y69842D01*
X-203229Y69898D01*
X-203266Y69960D01*
X-203305Y69994D01*
X-203338Y70034D01*
X-203398Y70073D01*
X-203453Y70120D01*
X-203501Y70139D01*
X-203545Y70167D01*
X-203614Y70185D01*
X-203681Y70212D01*
X-203752Y70220D01*
X-203783Y70228D01*
X-203806Y70226D01*
X-203847Y70230D01*
X-206587Y70230D01*
X-206677Y70216D01*
X-206768Y70208D01*
X-206797Y70196D01*
X-206829Y70191D01*
X-206910Y70148D01*
X-206994Y70112D01*
X-207026Y70086D01*
X-207047Y70075D01*
X-207069Y70052D01*
X-207125Y70007D01*
X-210016Y67116D01*
X-226769Y67116D01*
X-226839Y67144D01*
X-226880Y67149D01*
X-226902Y67156D01*
X-226934Y67155D01*
X-227005Y67163D01*
X-228783Y67163D01*
X-231287Y69667D01*
X-231287Y73208D01*
X-228783Y75712D01*
X-225698Y75712D01*
X-225679Y75715D01*
X-225659Y75713D01*
X-225558Y75735D01*
X-225456Y75752D01*
X-225438Y75761D01*
X-225419Y75766D01*
X-225330Y75819D01*
X-225238Y75867D01*
X-225225Y75881D01*
X-225208Y75892D01*
X-225140Y75970D01*
X-225069Y76045D01*
X-225061Y76063D01*
X-225048Y76079D01*
X-225009Y76175D01*
X-224965Y76268D01*
X-224963Y76288D01*
X-224956Y76307D01*
X-224937Y76473D01*
X-224937Y77971D01*
X-223007Y79901D01*
X-222965Y79959D01*
X-222916Y80011D01*
X-222894Y80058D01*
X-222864Y80100D01*
X-222843Y80169D01*
X-222812Y80234D01*
X-222807Y80286D01*
X-222791Y80336D01*
X-222793Y80407D01*
X-222785Y80478D01*
X-222796Y80529D01*
X-222798Y80581D01*
X-222822Y80649D01*
X-222837Y80719D01*
X-222864Y80764D01*
X-222882Y80812D01*
X-222927Y80868D01*
X-222964Y80930D01*
X-223003Y80964D01*
X-223036Y81004D01*
X-223096Y81043D01*
X-223151Y81090D01*
X-223199Y81109D01*
X-223243Y81137D01*
X-223312Y81155D01*
X-223379Y81182D01*
X-223450Y81190D01*
X-223481Y81198D01*
X-223504Y81196D01*
X-223545Y81200D01*
X-224124Y81200D01*
X-226775Y83851D01*
X-226775Y87599D01*
X-224425Y89949D01*
X-224413Y89965D01*
X-224398Y89978D01*
X-224341Y90065D01*
X-224281Y90149D01*
X-224275Y90168D01*
X-224265Y90185D01*
X-224239Y90285D01*
X-224209Y90384D01*
X-224209Y90404D01*
X-224204Y90423D01*
X-224213Y90526D01*
X-224215Y90630D01*
X-224222Y90649D01*
X-224224Y90668D01*
X-224264Y90763D01*
X-224300Y90861D01*
X-224312Y90877D01*
X-224320Y90895D01*
X-224425Y91026D01*
X-226775Y93376D01*
X-226775Y97124D01*
X-224806Y99093D01*
X-224764Y99151D01*
X-224714Y99203D01*
X-224693Y99251D01*
X-224662Y99293D01*
X-224641Y99361D01*
X-224611Y99427D01*
X-224605Y99478D01*
X-224590Y99528D01*
X-224592Y99600D01*
X-224584Y99671D01*
X-224595Y99722D01*
X-224596Y99774D01*
X-224621Y99841D01*
X-224636Y99911D01*
X-224663Y99956D01*
X-224681Y100005D01*
X-224725Y100061D01*
X-224762Y100122D01*
X-224802Y100156D01*
X-224834Y100197D01*
X-224895Y100236D01*
X-224949Y100282D01*
X-224997Y100302D01*
X-225041Y100330D01*
X-225111Y100347D01*
X-225177Y100374D01*
X-225249Y100382D01*
X-225280Y100390D01*
X-225303Y100388D01*
X-225344Y100393D01*
X-225558Y100393D01*
X-228980Y103815D01*
X-229054Y103868D01*
X-229123Y103927D01*
X-229153Y103940D01*
X-229179Y103958D01*
X-229266Y103985D01*
X-229351Y104019D01*
X-229392Y104024D01*
X-229414Y104031D01*
X-229447Y104030D01*
X-229518Y104038D01*
X-237907Y104038D01*
X-238800Y104931D01*
X-238800Y116194D01*
X-237907Y117087D01*
X-225643Y117087D01*
X-224750Y116194D01*
X-224750Y107805D01*
X-224736Y107716D01*
X-224728Y107624D01*
X-224716Y107595D01*
X-224711Y107563D01*
X-224668Y107482D01*
X-224632Y107398D01*
X-224606Y107366D01*
X-224595Y107345D01*
X-224572Y107323D01*
X-224527Y107267D01*
X-223499Y106239D01*
X-223483Y106227D01*
X-223470Y106212D01*
X-223383Y106156D01*
X-223299Y106095D01*
X-223280Y106090D01*
X-223264Y106079D01*
X-223163Y106053D01*
X-223064Y106023D01*
X-223044Y106024D01*
X-223025Y106019D01*
X-222922Y106027D01*
X-222818Y106029D01*
X-222800Y106036D01*
X-222780Y106038D01*
X-222685Y106078D01*
X-222587Y106114D01*
X-222572Y106126D01*
X-222553Y106134D01*
X-222423Y106239D01*
X-220949Y107712D01*
X-217201Y107712D01*
X-214550Y105062D01*
X-214550Y101313D01*
X-217201Y98663D01*
X-217426Y98663D01*
X-217497Y98651D01*
X-217568Y98649D01*
X-217617Y98631D01*
X-217669Y98623D01*
X-217732Y98590D01*
X-217799Y98565D01*
X-217840Y98532D01*
X-217886Y98508D01*
X-217936Y98456D01*
X-217991Y98411D01*
X-218020Y98367D01*
X-218056Y98330D01*
X-218086Y98264D01*
X-218124Y98204D01*
X-218137Y98154D01*
X-218159Y98107D01*
X-218167Y98035D01*
X-218185Y97966D01*
X-218180Y97914D01*
X-218186Y97862D01*
X-218171Y97792D01*
X-218165Y97720D01*
X-218145Y97673D01*
X-218134Y97622D01*
X-218097Y97560D01*
X-218069Y97494D01*
X-218024Y97438D01*
X-218008Y97411D01*
X-217990Y97395D01*
X-217964Y97363D01*
X-217725Y97124D01*
X-217725Y94993D01*
X-217711Y94903D01*
X-217703Y94812D01*
X-217691Y94782D01*
X-217686Y94750D01*
X-217643Y94670D01*
X-217607Y94586D01*
X-217581Y94554D01*
X-217570Y94533D01*
X-217547Y94511D01*
X-217502Y94455D01*
X-213378Y90330D01*
X-213304Y90277D01*
X-213234Y90218D01*
X-213204Y90205D01*
X-213178Y90187D01*
X-213091Y90160D01*
X-213006Y90126D01*
X-212965Y90121D01*
X-212943Y90114D01*
X-212911Y90115D01*
X-212840Y90107D01*
X-171323Y90107D01*
X-171303Y90110D01*
X-171284Y90108D01*
X-171182Y90130D01*
X-171080Y90147D01*
X-171063Y90156D01*
X-171043Y90161D01*
X-170954Y90214D01*
X-170863Y90262D01*
X-170849Y90276D01*
X-170832Y90287D01*
X-170765Y90365D01*
X-170693Y90440D01*
X-170685Y90458D01*
X-170672Y90474D01*
X-170633Y90570D01*
X-170590Y90663D01*
X-170588Y90683D01*
X-170580Y90702D01*
X-170562Y90868D01*
X-170562Y104135D01*
X-166864Y107833D01*
X-166831Y107878D01*
X-166791Y107917D01*
X-166759Y107978D01*
X-166720Y108033D01*
X-166704Y108086D01*
X-166678Y108136D01*
X-166668Y108203D01*
X-166648Y108268D01*
X-166649Y108324D01*
X-166641Y108379D01*
X-166652Y108446D01*
X-166654Y108514D01*
X-166673Y108566D01*
X-166683Y108622D01*
X-166715Y108681D01*
X-166738Y108745D01*
X-166774Y108788D01*
X-166800Y108838D01*
X-166850Y108884D01*
X-166892Y108937D01*
X-166939Y108967D01*
X-166980Y109005D01*
X-167073Y109053D01*
X-167099Y109070D01*
X-167112Y109073D01*
X-167130Y109082D01*
X-223717Y130754D01*
X-223752Y130761D01*
X-223784Y130776D01*
X-223871Y130786D01*
X-223958Y130803D01*
X-223993Y130799D01*
X-224028Y130803D01*
X-224114Y130784D01*
X-224202Y130774D01*
X-224234Y130758D01*
X-224269Y130751D01*
X-224344Y130706D01*
X-224424Y130668D01*
X-224449Y130643D01*
X-224480Y130625D01*
X-224537Y130558D01*
X-224600Y130496D01*
X-224617Y130465D01*
X-224640Y130438D01*
X-224673Y130356D01*
X-224713Y130278D01*
X-224718Y130243D01*
X-224732Y130210D01*
X-224750Y130043D01*
X-224750Y121931D01*
X-225643Y121038D01*
X-237907Y121038D01*
X-238800Y121931D01*
X-238800Y122753D01*
X-238803Y122772D01*
X-238801Y122792D01*
X-238823Y122893D01*
X-238839Y122995D01*
X-238849Y123013D01*
X-238853Y123032D01*
X-238906Y123121D01*
X-238955Y123213D01*
X-238969Y123226D01*
X-238979Y123243D01*
X-239058Y123311D01*
X-239133Y123382D01*
X-239151Y123390D01*
X-239166Y123403D01*
X-239262Y123442D01*
X-239356Y123486D01*
X-239376Y123488D01*
X-239394Y123495D01*
X-239561Y123514D01*
X-247714Y123514D01*
X-247734Y123511D01*
X-247753Y123513D01*
X-247855Y123491D01*
X-247957Y123474D01*
X-247974Y123465D01*
X-247994Y123460D01*
X-248083Y123407D01*
X-248174Y123359D01*
X-248188Y123345D01*
X-248205Y123334D01*
X-248272Y123256D01*
X-248344Y123181D01*
X-248352Y123163D01*
X-248365Y123147D01*
X-248404Y123051D01*
X-248447Y122958D01*
X-248449Y122938D01*
X-248457Y122919D01*
X-248475Y122753D01*
X-248475Y121931D01*
X-249368Y121038D01*
X-258632Y121038D01*
X-259525Y121931D01*
X-259525Y131194D01*
X-258632Y132087D01*
X-249368Y132087D01*
X-248475Y131194D01*
X-248475Y130372D01*
X-248472Y130353D01*
X-248474Y130333D01*
X-248452Y130232D01*
X-248436Y130130D01*
X-248426Y130112D01*
X-248422Y130093D01*
X-248369Y130004D01*
X-248320Y129912D01*
X-248306Y129899D01*
X-248296Y129882D01*
X-248217Y129814D01*
X-248142Y129743D01*
X-248124Y129735D01*
X-248109Y129722D01*
X-248013Y129683D01*
X-247919Y129639D01*
X-247899Y129637D01*
X-247881Y129630D01*
X-247714Y129611D01*
X-239561Y129611D01*
X-239541Y129614D01*
X-239522Y129612D01*
X-239420Y129634D01*
X-239318Y129651D01*
X-239301Y129660D01*
X-239281Y129665D01*
X-239192Y129718D01*
X-239101Y129766D01*
X-239087Y129780D01*
X-239070Y129791D01*
X-239003Y129869D01*
X-238931Y129944D01*
X-238923Y129962D01*
X-238910Y129978D01*
X-238871Y130074D01*
X-238828Y130167D01*
X-238826Y130187D01*
X-238818Y130206D01*
X-238800Y130372D01*
X-238800Y133194D01*
X-237907Y134087D01*
X-236537Y134087D01*
X-236431Y134105D01*
X-236324Y134118D01*
X-236310Y134124D01*
X-236294Y134127D01*
X-236200Y134177D01*
X-236102Y134224D01*
X-236091Y134235D01*
X-236077Y134242D01*
X-236003Y134320D01*
X-235926Y134395D01*
X-235919Y134409D01*
X-235908Y134420D01*
X-235862Y134518D01*
X-235813Y134613D01*
X-235811Y134629D01*
X-235804Y134643D01*
X-235792Y134750D01*
X-235776Y134857D01*
X-235779Y134872D01*
X-235777Y134888D01*
X-235800Y134993D01*
X-235818Y135099D01*
X-235826Y135113D01*
X-235829Y135128D01*
X-235884Y135221D01*
X-235936Y135315D01*
X-235947Y135326D01*
X-235955Y135339D01*
X-236037Y135409D01*
X-236116Y135483D01*
X-236133Y135491D01*
X-236142Y135499D01*
X-236170Y135511D01*
X-236265Y135559D01*
X-236829Y135775D01*
X-236883Y135787D01*
X-236934Y135807D01*
X-237040Y135819D01*
X-237070Y135825D01*
X-237082Y135824D01*
X-237101Y135826D01*
X-237485Y135826D01*
X-237695Y136037D01*
X-237757Y136081D01*
X-237812Y136132D01*
X-237830Y136142D01*
X-237837Y136147D01*
X-237858Y136156D01*
X-237870Y136162D01*
X-237895Y136180D01*
X-237920Y136188D01*
X-237962Y136209D01*
X-238240Y136316D01*
X-238396Y136666D01*
X-238427Y136712D01*
X-238448Y136763D01*
X-238515Y136846D01*
X-238531Y136871D01*
X-238541Y136879D01*
X-238553Y136894D01*
X-238824Y137165D01*
X-238824Y137463D01*
X-238836Y137538D01*
X-238839Y137614D01*
X-238859Y137676D01*
X-238864Y137706D01*
X-238876Y137729D01*
X-238890Y137774D01*
X-239012Y138046D01*
X-238875Y138404D01*
X-238863Y138458D01*
X-238843Y138509D01*
X-238831Y138615D01*
X-238825Y138645D01*
X-238826Y138657D01*
X-238824Y138676D01*
X-238824Y154350D01*
X-238838Y154432D01*
X-238842Y154516D01*
X-238847Y154527D01*
X-238824Y155591D01*
X-238825Y155598D01*
X-238824Y155608D01*
X-238824Y156551D01*
X-238143Y157204D01*
X-238139Y157209D01*
X-238131Y157215D01*
X-237464Y157882D01*
X-236522Y157862D01*
X-236515Y157863D01*
X-236505Y157862D01*
X-235441Y157862D01*
X-235431Y157857D01*
X-235378Y157850D01*
X-235352Y157842D01*
X-235322Y157843D01*
X-235264Y157835D01*
X-164989Y156340D01*
X-164961Y156344D01*
X-164934Y156341D01*
X-164840Y156361D01*
X-164746Y156375D01*
X-164721Y156387D01*
X-164693Y156393D01*
X-164611Y156442D01*
X-164526Y156485D01*
X-164506Y156505D01*
X-164482Y156519D01*
X-164420Y156592D01*
X-164353Y156660D01*
X-164340Y156685D01*
X-164322Y156706D01*
X-164286Y156795D01*
X-164244Y156880D01*
X-164241Y156908D01*
X-164230Y156934D01*
X-164212Y157101D01*
X-164212Y165052D01*
X-164213Y165062D01*
X-164212Y165076D01*
X-164242Y166017D01*
X-163576Y166683D01*
X-163570Y166691D01*
X-163559Y166700D01*
X-162914Y167387D01*
X-161973Y167387D01*
X-161964Y167388D01*
X-161949Y167387D01*
X-61603Y170523D01*
X-61525Y170538D01*
X-61445Y170544D01*
X-61405Y170562D01*
X-60372Y170562D01*
X-60363Y170563D01*
X-60349Y170562D01*
X-59408Y170592D01*
X-58742Y169926D01*
X-58734Y169920D01*
X-58725Y169909D01*
X-58038Y169264D01*
X-58038Y168323D01*
X-58037Y168313D01*
X-58038Y168299D01*
X-58006Y167270D01*
X-58020Y167235D01*
X-58026Y167176D01*
X-58034Y167148D01*
X-58032Y167120D01*
X-58038Y167068D01*
X-58038Y154926D01*
X-58035Y154906D01*
X-58037Y154886D01*
X-58015Y154785D01*
X-57999Y154683D01*
X-57989Y154665D01*
X-57985Y154646D01*
X-57906Y154498D01*
X-57901Y154490D01*
X-58025Y153842D01*
X-58026Y153815D01*
X-58038Y153700D01*
X-58038Y153040D01*
X-58045Y153034D01*
X-58056Y153018D01*
X-58072Y153005D01*
X-58128Y152918D01*
X-58188Y152834D01*
X-58194Y152815D01*
X-58205Y152798D01*
X-58254Y152638D01*
X-58256Y152629D01*
X-58801Y152258D01*
X-58822Y152239D01*
X-58912Y152167D01*
X-59378Y151701D01*
X-59387Y151701D01*
X-59407Y151698D01*
X-59426Y151700D01*
X-59528Y151678D01*
X-59630Y151661D01*
X-59647Y151652D01*
X-59667Y151647D01*
X-59815Y151569D01*
X-67657Y146237D01*
X-67723Y146174D01*
X-67794Y146117D01*
X-67812Y146089D01*
X-67835Y146067D01*
X-67878Y145987D01*
X-67927Y145910D01*
X-67935Y145878D01*
X-67950Y145850D01*
X-67965Y145760D01*
X-67987Y145671D01*
X-67985Y145639D01*
X-67990Y145607D01*
X-67975Y145517D01*
X-67968Y145426D01*
X-67956Y145396D01*
X-67950Y145364D01*
X-67908Y145283D01*
X-67872Y145200D01*
X-67846Y145168D01*
X-67835Y145147D01*
X-67812Y145125D01*
X-67767Y145069D01*
X-65703Y143005D01*
X-64388Y139830D01*
X-64388Y136395D01*
X-65703Y133220D01*
X-68133Y130791D01*
X-71307Y129476D01*
X-74743Y129476D01*
X-77917Y130791D01*
X-80347Y133220D01*
X-81407Y135779D01*
X-81458Y135862D01*
X-81504Y135948D01*
X-81523Y135966D01*
X-81536Y135988D01*
X-81612Y136050D01*
X-81682Y136117D01*
X-81706Y136128D01*
X-81726Y136145D01*
X-81817Y136180D01*
X-81905Y136221D01*
X-81931Y136224D01*
X-81955Y136233D01*
X-82053Y136237D01*
X-82150Y136248D01*
X-82175Y136242D01*
X-82201Y136244D01*
X-82295Y136216D01*
X-82390Y136196D01*
X-82419Y136180D01*
X-82437Y136175D01*
X-82464Y136156D01*
X-82538Y136117D01*
X-110802Y116898D01*
X-110816Y116884D01*
X-110834Y116875D01*
X-110905Y116800D01*
X-110980Y116729D01*
X-110989Y116711D01*
X-111003Y116697D01*
X-111047Y116603D01*
X-111095Y116511D01*
X-111098Y116492D01*
X-111107Y116473D01*
X-111118Y116371D01*
X-111135Y116269D01*
X-111132Y116249D01*
X-111134Y116229D01*
X-111112Y116128D01*
X-111095Y116026D01*
X-111086Y116008D01*
X-111082Y115989D01*
X-111029Y115900D01*
X-110980Y115808D01*
X-110966Y115795D01*
X-110955Y115778D01*
X-110877Y115710D01*
X-110802Y115639D01*
X-110784Y115631D01*
X-110769Y115618D01*
X-110672Y115579D01*
X-110579Y115535D01*
X-110559Y115533D01*
X-110540Y115526D01*
X-110374Y115507D01*
X92227Y115507D01*
X92246Y115510D01*
X92266Y115508D01*
X92367Y115530D01*
X92469Y115547D01*
X92487Y115556D01*
X92506Y115561D01*
X92595Y115614D01*
X92687Y115662D01*
X92700Y115676D01*
X92717Y115687D01*
X92785Y115765D01*
X92856Y115840D01*
X92864Y115858D01*
X92877Y115874D01*
X92916Y115970D01*
X92960Y116063D01*
X92962Y116083D01*
X92969Y116102D01*
X92988Y116268D01*
X92988Y117782D01*
X93881Y118675D01*
X106144Y118675D01*
X107037Y117782D01*
X107037Y106743D01*
X107040Y106724D01*
X107038Y106704D01*
X107060Y106603D01*
X107077Y106501D01*
X107086Y106483D01*
X107091Y106464D01*
X107144Y106375D01*
X107192Y106283D01*
X107206Y106270D01*
X107217Y106253D01*
X107295Y106185D01*
X107370Y106114D01*
X107388Y106106D01*
X107404Y106093D01*
X107500Y106054D01*
X107593Y106010D01*
X107613Y106008D01*
X107632Y106001D01*
X107798Y105982D01*
X129265Y105982D01*
X129355Y105997D01*
X129446Y106004D01*
X129475Y106017D01*
X129507Y106022D01*
X129588Y106065D01*
X129672Y106100D01*
X129704Y106126D01*
X129725Y106137D01*
X129747Y106160D01*
X129803Y106205D01*
X132452Y108855D01*
X132505Y108929D01*
X132565Y108998D01*
X132577Y109028D01*
X132596Y109054D01*
X132623Y109141D01*
X132657Y109226D01*
X132661Y109267D01*
X132668Y109289D01*
X132667Y109322D01*
X132675Y109393D01*
X132675Y117782D01*
X133568Y118675D01*
X145832Y118675D01*
X146725Y117782D01*
X146725Y106518D01*
X145832Y105625D01*
X137443Y105625D01*
X137353Y105611D01*
X137262Y105603D01*
X137232Y105591D01*
X137200Y105586D01*
X137120Y105543D01*
X137036Y105507D01*
X137004Y105481D01*
X136983Y105470D01*
X136961Y105447D01*
X136905Y105402D01*
X131895Y100393D01*
X-115493Y100393D01*
X-115516Y100402D01*
X-115542Y100421D01*
X-115629Y100448D01*
X-115714Y100482D01*
X-115755Y100486D01*
X-115777Y100493D01*
X-115809Y100492D01*
X-115880Y100500D01*
X-117658Y100500D01*
X-120162Y103004D01*
X-120162Y106546D01*
X-118090Y108618D01*
X-118048Y108676D01*
X-117998Y108728D01*
X-117976Y108776D01*
X-117946Y108818D01*
X-117925Y108886D01*
X-117895Y108952D01*
X-117889Y109003D01*
X-117874Y109053D01*
X-117876Y109125D01*
X-117868Y109196D01*
X-117879Y109247D01*
X-117880Y109299D01*
X-117905Y109366D01*
X-117920Y109436D01*
X-117947Y109481D01*
X-117965Y109530D01*
X-118009Y109586D01*
X-118046Y109647D01*
X-118086Y109681D01*
X-118118Y109722D01*
X-118179Y109761D01*
X-118233Y109807D01*
X-118281Y109827D01*
X-118325Y109855D01*
X-118395Y109872D01*
X-118461Y109899D01*
X-118533Y109907D01*
X-118564Y109915D01*
X-118587Y109913D01*
X-118628Y109918D01*
X-120259Y109918D01*
X-120349Y109903D01*
X-120440Y109896D01*
X-120470Y109883D01*
X-120502Y109878D01*
X-120582Y109835D01*
X-120666Y109800D01*
X-120698Y109774D01*
X-120719Y109763D01*
X-120741Y109740D01*
X-120797Y109695D01*
X-122054Y108438D01*
X-123009Y108438D01*
X-123029Y108435D01*
X-123048Y108437D01*
X-123150Y108415D01*
X-123252Y108398D01*
X-123269Y108389D01*
X-123289Y108384D01*
X-123437Y108306D01*
X-138176Y98283D01*
X-138197Y98264D01*
X-138287Y98192D01*
X-145072Y91407D01*
X-145114Y91349D01*
X-145163Y91297D01*
X-145185Y91249D01*
X-145215Y91207D01*
X-145236Y91139D01*
X-145267Y91073D01*
X-145272Y91022D01*
X-145288Y90972D01*
X-145286Y90900D01*
X-145294Y90829D01*
X-145283Y90778D01*
X-145281Y90726D01*
X-145257Y90659D01*
X-145242Y90589D01*
X-145215Y90544D01*
X-145197Y90495D01*
X-145152Y90439D01*
X-145115Y90378D01*
X-145076Y90344D01*
X-145043Y90303D01*
X-144983Y90264D01*
X-144928Y90218D01*
X-144880Y90198D01*
X-144836Y90170D01*
X-144767Y90153D01*
X-144700Y90126D01*
X-144629Y90118D01*
X-144598Y90110D01*
X-144574Y90112D01*
X-144534Y90107D01*
X158003Y90107D01*
X158093Y90122D01*
X158184Y90129D01*
X158214Y90142D01*
X158246Y90147D01*
X158327Y90190D01*
X158411Y90225D01*
X158443Y90251D01*
X158463Y90262D01*
X158486Y90285D01*
X158542Y90330D01*
X172537Y104326D01*
X172579Y104384D01*
X172628Y104436D01*
X172650Y104483D01*
X172681Y104525D01*
X172702Y104594D01*
X172732Y104659D01*
X172738Y104711D01*
X172753Y104761D01*
X172751Y104832D01*
X172759Y104903D01*
X172748Y104954D01*
X172747Y105006D01*
X172722Y105074D01*
X172707Y105144D01*
X172680Y105189D01*
X172662Y105237D01*
X172617Y105293D01*
X172581Y105355D01*
X172541Y105389D01*
X172509Y105429D01*
X172448Y105468D01*
X172394Y105515D01*
X172345Y105534D01*
X172302Y105562D01*
X172232Y105580D01*
X172166Y105607D01*
X172094Y105615D01*
X172063Y105623D01*
X172040Y105621D01*
X171999Y105625D01*
X171668Y105625D01*
X170775Y106518D01*
X170775Y117782D01*
X171668Y118675D01*
X183932Y118675D01*
X184825Y117782D01*
X184825Y106518D01*
X183932Y105625D01*
X181356Y105625D01*
X181336Y105622D01*
X181317Y105624D01*
X181215Y105602D01*
X181113Y105586D01*
X181096Y105576D01*
X181076Y105572D01*
X180987Y105519D01*
X180896Y105470D01*
X180882Y105456D01*
X180865Y105446D01*
X180798Y105367D01*
X180726Y105292D01*
X180718Y105274D01*
X180705Y105259D01*
X180666Y105163D01*
X180623Y105069D01*
X180621Y105049D01*
X180613Y105031D01*
X180595Y104864D01*
X180595Y104479D01*
X162760Y86644D01*
X162719Y86586D01*
X162669Y86534D01*
X162647Y86487D01*
X162617Y86445D01*
X162596Y86376D01*
X162566Y86311D01*
X162560Y86259D01*
X162545Y86209D01*
X162546Y86138D01*
X162538Y86067D01*
X162550Y86016D01*
X162551Y85964D01*
X162576Y85896D01*
X162591Y85826D01*
X162617Y85781D01*
X162635Y85733D01*
X162680Y85677D01*
X162717Y85615D01*
X162756Y85581D01*
X162789Y85541D01*
X162849Y85502D01*
X162904Y85455D01*
X162952Y85436D01*
X162996Y85408D01*
X163065Y85390D01*
X163132Y85363D01*
X163203Y85355D01*
X163234Y85347D01*
X163258Y85349D01*
X163299Y85345D01*
X186877Y85345D01*
X186967Y85359D01*
X187058Y85367D01*
X187088Y85379D01*
X187120Y85384D01*
X187200Y85427D01*
X187284Y85463D01*
X187316Y85489D01*
X187337Y85500D01*
X187359Y85523D01*
X187415Y85568D01*
X199892Y98045D01*
X211227Y98045D01*
X211246Y98048D01*
X211266Y98046D01*
X211367Y98068D01*
X211469Y98084D01*
X211487Y98094D01*
X211506Y98098D01*
X211595Y98151D01*
X211687Y98200D01*
X211700Y98214D01*
X211717Y98224D01*
X211785Y98303D01*
X211856Y98378D01*
X211864Y98396D01*
X211877Y98411D01*
X211916Y98507D01*
X211960Y98601D01*
X211962Y98621D01*
X211969Y98639D01*
X211988Y98806D01*
X211988Y101382D01*
X212881Y102275D01*
X224144Y102275D01*
X225037Y101382D01*
X225037Y89118D01*
X224144Y88225D01*
X212881Y88225D01*
X211988Y89118D01*
X211988Y91694D01*
X211985Y91714D01*
X211987Y91733D01*
X211965Y91835D01*
X211948Y91937D01*
X211939Y91954D01*
X211934Y91974D01*
X211881Y92063D01*
X211833Y92154D01*
X211819Y92168D01*
X211808Y92185D01*
X211730Y92252D01*
X211655Y92324D01*
X211637Y92332D01*
X211621Y92345D01*
X211525Y92384D01*
X211432Y92427D01*
X211412Y92429D01*
X211393Y92437D01*
X211227Y92455D01*
X202523Y92455D01*
X202433Y92441D01*
X202342Y92433D01*
X202312Y92421D01*
X202280Y92416D01*
X202200Y92373D01*
X202116Y92337D01*
X202084Y92311D01*
X202063Y92300D01*
X202041Y92277D01*
X201985Y92232D01*
X190936Y81183D01*
X190894Y81125D01*
X190844Y81073D01*
X190822Y81026D01*
X190792Y80984D01*
X190771Y80915D01*
X190741Y80850D01*
X190735Y80798D01*
X190720Y80748D01*
X190722Y80677D01*
X190714Y80606D01*
X190725Y80555D01*
X190726Y80503D01*
X190751Y80435D01*
X190766Y80365D01*
X190793Y80320D01*
X190811Y80272D01*
X190855Y80216D01*
X190892Y80154D01*
X190932Y80120D01*
X190964Y80080D01*
X191025Y80041D01*
X191079Y79994D01*
X191127Y79975D01*
X191171Y79947D01*
X191241Y79929D01*
X191307Y79902D01*
X191379Y79894D01*
X191410Y79886D01*
X191433Y79888D01*
X191474Y79884D01*
X211227Y79884D01*
X211246Y79887D01*
X211266Y79885D01*
X211367Y79907D01*
X211469Y79923D01*
X211487Y79933D01*
X211506Y79937D01*
X211595Y79990D01*
X211687Y80039D01*
X211700Y80053D01*
X211717Y80063D01*
X211785Y80142D01*
X211856Y80217D01*
X211864Y80235D01*
X211877Y80250D01*
X211916Y80346D01*
X211960Y80440D01*
X211962Y80460D01*
X211969Y80478D01*
X211988Y80645D01*
X211988Y82332D01*
X212881Y83225D01*
X224144Y83225D01*
X225037Y82332D01*
X225037Y70068D01*
X224144Y69175D01*
X212881Y69175D01*
X211988Y70068D01*
X211988Y73533D01*
X211985Y73553D01*
X211987Y73572D01*
X211965Y73674D01*
X211948Y73776D01*
X211939Y73793D01*
X211934Y73813D01*
X211881Y73902D01*
X211833Y73993D01*
X211819Y74007D01*
X211808Y74024D01*
X211730Y74091D01*
X211655Y74163D01*
X211637Y74171D01*
X211621Y74184D01*
X211525Y74223D01*
X211432Y74266D01*
X211412Y74268D01*
X211393Y74276D01*
X211227Y74294D01*
X165056Y74294D01*
X164985Y74283D01*
X164913Y74281D01*
X164864Y74263D01*
X164813Y74255D01*
X164749Y74221D01*
X164682Y74196D01*
X164641Y74164D01*
X164595Y74139D01*
X164546Y74087D01*
X164490Y74043D01*
X164462Y73999D01*
X164426Y73961D01*
X164396Y73896D01*
X164357Y73836D01*
X164344Y73785D01*
X164322Y73738D01*
X164314Y73667D01*
X164297Y73597D01*
X164301Y73545D01*
X164295Y73494D01*
X164311Y73423D01*
X164316Y73352D01*
X164336Y73304D01*
X164348Y73253D01*
X164384Y73192D01*
X164412Y73126D01*
X164457Y73070D01*
X164474Y73042D01*
X164492Y73027D01*
X164517Y72995D01*
X173114Y64398D01*
X173188Y64345D01*
X173258Y64285D01*
X173288Y64273D01*
X173314Y64254D01*
X173401Y64227D01*
X173486Y64193D01*
X173527Y64189D01*
X173549Y64182D01*
X173581Y64183D01*
X173653Y64175D01*
X181282Y64175D01*
X182175Y63282D01*
X182175Y51018D01*
X181282Y50125D01*
X170018Y50125D01*
X169125Y51018D01*
X169125Y60167D01*
X169111Y60257D01*
X169103Y60348D01*
X169091Y60377D01*
X169086Y60409D01*
X169043Y60490D01*
X169007Y60574D01*
X168981Y60606D01*
X168970Y60627D01*
X168947Y60649D01*
X168902Y60705D01*
X159600Y70007D01*
X159526Y70060D01*
X159457Y70120D01*
X159426Y70132D01*
X159400Y70151D01*
X159313Y70178D01*
X159228Y70212D01*
X159187Y70216D01*
X159165Y70223D01*
X159133Y70222D01*
X159062Y70230D01*
X127085Y70230D01*
X127014Y70219D01*
X126942Y70217D01*
X126893Y70199D01*
X126842Y70191D01*
X126779Y70157D01*
X126711Y70132D01*
X126671Y70100D01*
X126625Y70075D01*
X126575Y70024D01*
X126519Y69979D01*
X126491Y69935D01*
X126455Y69897D01*
X126425Y69832D01*
X126386Y69772D01*
X126374Y69721D01*
X126352Y69674D01*
X126344Y69603D01*
X126326Y69533D01*
X126330Y69481D01*
X126325Y69430D01*
X126340Y69359D01*
X126345Y69288D01*
X126366Y69240D01*
X126377Y69189D01*
X126414Y69128D01*
X126442Y69062D01*
X126487Y69006D01*
X126503Y68978D01*
X126521Y68963D01*
X126547Y68931D01*
X131080Y64398D01*
X131154Y64345D01*
X131223Y64285D01*
X131253Y64273D01*
X131279Y64254D01*
X131366Y64227D01*
X131451Y64193D01*
X131492Y64189D01*
X131514Y64182D01*
X131547Y64183D01*
X131618Y64175D01*
X140007Y64175D01*
X140900Y63282D01*
X140900Y51018D01*
X140007Y50125D01*
X128743Y50125D01*
X127850Y51018D01*
X127850Y59407D01*
X127836Y59497D01*
X127828Y59588D01*
X127816Y59618D01*
X127811Y59650D01*
X127768Y59731D01*
X127732Y59814D01*
X127706Y59847D01*
X127695Y59867D01*
X127672Y59889D01*
X127627Y59945D01*
X122328Y65245D01*
X122254Y65298D01*
X122184Y65357D01*
X122154Y65370D01*
X122128Y65388D01*
X122041Y65415D01*
X121956Y65449D01*
X121915Y65454D01*
X121893Y65461D01*
X121861Y65460D01*
X121790Y65468D01*
X121039Y65468D01*
X120968Y65456D01*
X120896Y65454D01*
X120847Y65436D01*
X120796Y65428D01*
X120733Y65394D01*
X120665Y65370D01*
X120625Y65337D01*
X120579Y65313D01*
X120529Y65261D01*
X120473Y65216D01*
X120445Y65172D01*
X120409Y65135D01*
X120379Y65070D01*
X120340Y65009D01*
X120328Y64959D01*
X120306Y64912D01*
X120298Y64840D01*
X120280Y64771D01*
X120284Y64719D01*
X120279Y64667D01*
X120294Y64597D01*
X120299Y64526D01*
X120320Y64478D01*
X120331Y64427D01*
X120368Y64365D01*
X120396Y64299D01*
X120441Y64243D01*
X120457Y64216D01*
X120462Y64211D01*
X120463Y64209D01*
X120477Y64198D01*
X120501Y64168D01*
X121387Y63282D01*
X121387Y51018D01*
X120494Y50125D01*
X118672Y50125D01*
X118653Y50122D01*
X118633Y50124D01*
X118532Y50102D01*
X118430Y50086D01*
X118412Y50076D01*
X118393Y50072D01*
X118304Y50019D01*
X118212Y49970D01*
X118199Y49956D01*
X118182Y49946D01*
X118114Y49867D01*
X118043Y49792D01*
X118035Y49774D01*
X118022Y49759D01*
X117983Y49663D01*
X117939Y49569D01*
X117937Y49549D01*
X117930Y49531D01*
X117911Y49364D01*
X117911Y47273D01*
X117914Y47254D01*
X117912Y47234D01*
X117934Y47133D01*
X117951Y47031D01*
X117960Y47013D01*
X117965Y46994D01*
X118018Y46905D01*
X118066Y46813D01*
X118080Y46800D01*
X118091Y46783D01*
X118169Y46715D01*
X118244Y46644D01*
X118262Y46636D01*
X118278Y46623D01*
X118374Y46584D01*
X118467Y46540D01*
X118487Y46538D01*
X118506Y46531D01*
X118672Y46512D01*
X124669Y46512D01*
X125562Y45619D01*
X125562Y30356D01*
X124669Y29463D01*
X113406Y29463D01*
X112513Y30356D01*
X112513Y39885D01*
X112498Y39975D01*
X112491Y40066D01*
X112478Y40096D01*
X112473Y40128D01*
X112430Y40209D01*
X112395Y40293D01*
X112369Y40325D01*
X112358Y40345D01*
X112335Y40368D01*
X112290Y40424D01*
X111814Y40900D01*
X111814Y49364D01*
X111811Y49384D01*
X111813Y49403D01*
X111791Y49505D01*
X111774Y49607D01*
X111765Y49624D01*
X111760Y49644D01*
X111707Y49733D01*
X111659Y49824D01*
X111645Y49838D01*
X111634Y49855D01*
X111556Y49922D01*
X111481Y49994D01*
X111463Y50002D01*
X111447Y50015D01*
X111351Y50054D01*
X111258Y50097D01*
X111238Y50099D01*
X111219Y50107D01*
X111053Y50125D01*
X109231Y50125D01*
X108338Y51018D01*
X108338Y63282D01*
X109224Y64168D01*
X109266Y64226D01*
X109316Y64278D01*
X109338Y64326D01*
X109368Y64368D01*
X109389Y64436D01*
X109419Y64502D01*
X109425Y64553D01*
X109440Y64603D01*
X109438Y64675D01*
X109446Y64746D01*
X109435Y64797D01*
X109434Y64849D01*
X109409Y64916D01*
X109394Y64986D01*
X109367Y65031D01*
X109350Y65080D01*
X109305Y65136D01*
X109268Y65197D01*
X109228Y65231D01*
X109196Y65272D01*
X109136Y65311D01*
X109081Y65357D01*
X109033Y65377D01*
X108989Y65405D01*
X108919Y65422D01*
X108853Y65449D01*
X108782Y65457D01*
X108750Y65465D01*
X108727Y65463D01*
X108686Y65468D01*
X104039Y65468D01*
X103968Y65456D01*
X103896Y65454D01*
X103847Y65436D01*
X103796Y65428D01*
X103733Y65394D01*
X103665Y65370D01*
X103625Y65337D01*
X103579Y65313D01*
X103529Y65261D01*
X103473Y65216D01*
X103445Y65172D01*
X103409Y65135D01*
X103379Y65070D01*
X103340Y65009D01*
X103328Y64959D01*
X103306Y64912D01*
X103298Y64840D01*
X103280Y64771D01*
X103284Y64719D01*
X103279Y64667D01*
X103294Y64597D01*
X103299Y64526D01*
X103320Y64478D01*
X103331Y64427D01*
X103368Y64365D01*
X103396Y64299D01*
X103441Y64243D01*
X103457Y64216D01*
X103462Y64211D01*
X103463Y64209D01*
X103477Y64198D01*
X103501Y64168D01*
X104387Y63282D01*
X104387Y51018D01*
X103494Y50125D01*
X92231Y50125D01*
X91338Y51018D01*
X91338Y53594D01*
X91335Y53614D01*
X91337Y53633D01*
X91315Y53735D01*
X91298Y53837D01*
X91289Y53854D01*
X91284Y53874D01*
X91231Y53963D01*
X91183Y54054D01*
X91169Y54068D01*
X91158Y54085D01*
X91080Y54152D01*
X91005Y54224D01*
X90987Y54232D01*
X90971Y54245D01*
X90875Y54284D01*
X90782Y54327D01*
X90762Y54329D01*
X90743Y54337D01*
X90577Y54355D01*
X82050Y54355D01*
X81979Y54344D01*
X81908Y54342D01*
X81859Y54324D01*
X81807Y54316D01*
X81744Y54282D01*
X81677Y54257D01*
X81636Y54225D01*
X81590Y54200D01*
X81541Y54148D01*
X81485Y54104D01*
X81456Y54060D01*
X81421Y54022D01*
X81390Y53957D01*
X81352Y53897D01*
X81339Y53846D01*
X81317Y53799D01*
X81309Y53728D01*
X81292Y53658D01*
X81296Y53606D01*
X81290Y53555D01*
X81305Y53484D01*
X81311Y53413D01*
X81331Y53365D01*
X81342Y53314D01*
X81379Y53253D01*
X81407Y53187D01*
X81452Y53131D01*
X81468Y53103D01*
X81486Y53088D01*
X81512Y53056D01*
X92584Y41984D01*
X92584Y33758D01*
X92598Y33668D01*
X92606Y33577D01*
X92618Y33547D01*
X92623Y33515D01*
X92666Y33434D01*
X92702Y33350D01*
X92728Y33318D01*
X92739Y33298D01*
X92762Y33275D01*
X92807Y33219D01*
X94815Y31211D01*
X94889Y31158D01*
X94958Y31099D01*
X94988Y31086D01*
X95015Y31068D01*
X95102Y31041D01*
X95186Y31007D01*
X95227Y31002D01*
X95250Y30995D01*
X95282Y30996D01*
X95353Y30988D01*
X98848Y30988D01*
X105101Y24735D01*
X105175Y24682D01*
X105245Y24623D01*
X105275Y24610D01*
X105301Y24592D01*
X105388Y24565D01*
X105473Y24531D01*
X105514Y24526D01*
X105536Y24519D01*
X105568Y24520D01*
X105640Y24512D01*
X115169Y24512D01*
X116062Y23619D01*
X116062Y9398D01*
X116065Y9378D01*
X116063Y9359D01*
X116085Y9257D01*
X116102Y9155D01*
X116111Y9138D01*
X116116Y9118D01*
X116169Y9029D01*
X116217Y8938D01*
X116231Y8924D01*
X116242Y8907D01*
X116320Y8840D01*
X116395Y8768D01*
X116413Y8760D01*
X116429Y8747D01*
X116525Y8708D01*
X116618Y8665D01*
X116638Y8663D01*
X116657Y8655D01*
X116823Y8637D01*
X134072Y8637D01*
X134162Y8651D01*
X134253Y8659D01*
X134283Y8671D01*
X134315Y8676D01*
X134396Y8719D01*
X134480Y8755D01*
X134512Y8781D01*
X134532Y8792D01*
X134555Y8815D01*
X134611Y8860D01*
X139302Y13551D01*
X139355Y13625D01*
X139415Y13695D01*
X139427Y13725D01*
X139446Y13751D01*
X139473Y13838D01*
X139507Y13923D01*
X139511Y13964D01*
X139518Y13986D01*
X139517Y14018D01*
X139525Y14090D01*
X139525Y23619D01*
X140418Y24512D01*
X151682Y24512D01*
X152575Y23619D01*
X152575Y8356D01*
X151682Y7463D01*
X142152Y7463D01*
X142062Y7448D01*
X141971Y7441D01*
X141941Y7428D01*
X141909Y7423D01*
X141829Y7380D01*
X141745Y7345D01*
X141713Y7319D01*
X141692Y7308D01*
X141670Y7285D01*
X141614Y7240D01*
X138922Y4548D01*
X138722Y4348D01*
X138680Y4290D01*
X138631Y4238D01*
X138609Y4191D01*
X138579Y4149D01*
X138558Y4080D01*
X138527Y4015D01*
X138522Y3963D01*
X138506Y3914D01*
X138508Y3842D01*
X138500Y3771D01*
X138511Y3720D01*
X138513Y3668D01*
X138537Y3600D01*
X138553Y3530D01*
X138579Y3485D01*
X138597Y3437D01*
X138642Y3381D01*
X138679Y3319D01*
X138718Y3285D01*
X138751Y3245D01*
X138811Y3206D01*
X138866Y3159D01*
X138914Y3140D01*
X138958Y3112D01*
X139027Y3094D01*
X139094Y3067D01*
X139165Y3059D01*
X139196Y3051D01*
X139220Y3053D01*
X139261Y3049D01*
X163409Y3049D01*
X163499Y3063D01*
X163590Y3071D01*
X163620Y3083D01*
X163652Y3088D01*
X163733Y3131D01*
X163817Y3167D01*
X163849Y3193D01*
X163869Y3204D01*
X163892Y3227D01*
X163948Y3272D01*
X175815Y15139D01*
X175868Y15213D01*
X175927Y15282D01*
X175939Y15312D01*
X175958Y15339D01*
X175985Y15426D01*
X176019Y15510D01*
X176024Y15551D01*
X176031Y15574D01*
X176030Y15606D01*
X176038Y15677D01*
X176038Y25207D01*
X176931Y26100D01*
X188194Y26100D01*
X189087Y25207D01*
X189087Y9943D01*
X188194Y9050D01*
X178665Y9050D01*
X178575Y9036D01*
X178484Y9028D01*
X178454Y9016D01*
X178422Y9011D01*
X178341Y8968D01*
X178257Y8932D01*
X178225Y8906D01*
X178205Y8895D01*
X178182Y8872D01*
X178126Y8827D01*
X166250Y-3049D01*
X154686Y-3049D01*
X154615Y-3060D01*
X154543Y-3062D01*
X154494Y-3080D01*
X154443Y-3088D01*
X154380Y-3122D01*
X154312Y-3147D01*
X154271Y-3179D01*
X154225Y-3204D01*
X154176Y-3255D01*
X154120Y-3300D01*
X154092Y-3344D01*
X154056Y-3382D01*
X154026Y-3447D01*
X153987Y-3507D01*
X153974Y-3558D01*
X153952Y-3605D01*
X153945Y-3676D01*
X153927Y-3746D01*
X153931Y-3798D01*
X153925Y-3849D01*
X153941Y-3920D01*
X153946Y-3991D01*
X153967Y-4039D01*
X153978Y-4090D01*
X154014Y-4151D01*
X154043Y-4217D01*
X154087Y-4273D01*
X154104Y-4301D01*
X154106Y-4303D01*
X154122Y-4317D01*
X154147Y-4348D01*
X156839Y-7040D01*
X156913Y-7093D01*
X156982Y-7152D01*
X157012Y-7165D01*
X157039Y-7183D01*
X157126Y-7210D01*
X157210Y-7244D01*
X157251Y-7249D01*
X157274Y-7256D01*
X157306Y-7255D01*
X157377Y-7263D01*
X165407Y-7263D01*
X166300Y-8156D01*
X166300Y-20419D01*
X165407Y-21312D01*
X154143Y-21312D01*
X153250Y-20419D01*
X153250Y-12390D01*
X153236Y-12300D01*
X153228Y-12209D01*
X153216Y-12179D01*
X153211Y-12147D01*
X153168Y-12066D01*
X153132Y-11982D01*
X153106Y-11950D01*
X153095Y-11930D01*
X153072Y-11907D01*
X153027Y-11851D01*
X149210Y-8034D01*
X149136Y-7981D01*
X149067Y-7922D01*
X149037Y-7909D01*
X149010Y-7891D01*
X148923Y-7864D01*
X148839Y-7830D01*
X148798Y-7825D01*
X148775Y-7818D01*
X148743Y-7819D01*
X148672Y-7811D01*
X117982Y-7811D01*
X117912Y-7823D01*
X117840Y-7825D01*
X117791Y-7843D01*
X117740Y-7851D01*
X117676Y-7885D01*
X117609Y-7909D01*
X117568Y-7942D01*
X117522Y-7966D01*
X117473Y-8018D01*
X117417Y-8063D01*
X117389Y-8107D01*
X117353Y-8144D01*
X117323Y-8209D01*
X117284Y-8270D01*
X117271Y-8320D01*
X117249Y-8367D01*
X117241Y-8439D01*
X117224Y-8508D01*
X117228Y-8560D01*
X117222Y-8612D01*
X117237Y-8682D01*
X117243Y-8753D01*
X117263Y-8801D01*
X117274Y-8852D01*
X117311Y-8914D01*
X117339Y-8980D01*
X117384Y-9036D01*
X117401Y-9063D01*
X117418Y-9079D01*
X117444Y-9111D01*
X119254Y-10920D01*
X119254Y-17655D01*
X114492Y-22416D01*
X107758Y-22416D01*
G37*
%LPD*%
G36*
X-148754Y90122D02*
X-148754Y90122D01*
X-148663Y90129D01*
X-148633Y90142D01*
X-148601Y90147D01*
X-148521Y90190D01*
X-148437Y90225D01*
X-148405Y90251D01*
X-148384Y90262D01*
X-148362Y90285D01*
X-148306Y90330D01*
X-139213Y99423D01*
X-126502Y108066D01*
X-126436Y108129D01*
X-126365Y108186D01*
X-126347Y108213D01*
X-126324Y108236D01*
X-126281Y108316D01*
X-126232Y108393D01*
X-126224Y108425D01*
X-126209Y108453D01*
X-126194Y108543D01*
X-126172Y108632D01*
X-126174Y108664D01*
X-126169Y108696D01*
X-126184Y108786D01*
X-126191Y108877D01*
X-126204Y108907D01*
X-126209Y108939D01*
X-126252Y109019D01*
X-126287Y109103D01*
X-126313Y109135D01*
X-126324Y109156D01*
X-126347Y109178D01*
X-126392Y109234D01*
X-128100Y110942D01*
X-128100Y114483D01*
X-125596Y116987D01*
X-122054Y116987D01*
X-120797Y115730D01*
X-120723Y115677D01*
X-120654Y115618D01*
X-120624Y115605D01*
X-120598Y115587D01*
X-120511Y115560D01*
X-120426Y115526D01*
X-120385Y115521D01*
X-120362Y115514D01*
X-120330Y115515D01*
X-120259Y115507D01*
X-115794Y115507D01*
X-115774Y115510D01*
X-115755Y115508D01*
X-115653Y115530D01*
X-115551Y115547D01*
X-115534Y115556D01*
X-115514Y115561D01*
X-115366Y115639D01*
X-81995Y138331D01*
X-81966Y138359D01*
X-81932Y138379D01*
X-81877Y138443D01*
X-81817Y138501D01*
X-81798Y138536D01*
X-81772Y138566D01*
X-81741Y138644D01*
X-81701Y138718D01*
X-81695Y138757D01*
X-81680Y138794D01*
X-81662Y138961D01*
X-81662Y139830D01*
X-80347Y143005D01*
X-77917Y145434D01*
X-74743Y146749D01*
X-71307Y146749D01*
X-70636Y146471D01*
X-70591Y146461D01*
X-70549Y146441D01*
X-70472Y146433D01*
X-70396Y146415D01*
X-70350Y146419D01*
X-70305Y146414D01*
X-70229Y146431D01*
X-70151Y146438D01*
X-70109Y146457D01*
X-70064Y146466D01*
X-69944Y146530D01*
X-69927Y146538D01*
X-69923Y146541D01*
X-69916Y146545D01*
X-59897Y153358D01*
X-59868Y153385D01*
X-59834Y153406D01*
X-59780Y153469D01*
X-59719Y153527D01*
X-59700Y153562D01*
X-59674Y153593D01*
X-59643Y153671D01*
X-59604Y153745D01*
X-59597Y153784D01*
X-59582Y153821D01*
X-59564Y153988D01*
X-59564Y168275D01*
X-59569Y168306D01*
X-59566Y168338D01*
X-59589Y168427D01*
X-59604Y168518D01*
X-59618Y168546D01*
X-59626Y168577D01*
X-59676Y168654D01*
X-59719Y168735D01*
X-59742Y168757D01*
X-59759Y168784D01*
X-59830Y168841D01*
X-59897Y168905D01*
X-59926Y168918D01*
X-59951Y168938D01*
X-60037Y168969D01*
X-60120Y169008D01*
X-60152Y169012D01*
X-60182Y169023D01*
X-60349Y169036D01*
X-161949Y165861D01*
X-161957Y165859D01*
X-161964Y165860D01*
X-162077Y165836D01*
X-162190Y165814D01*
X-162197Y165810D01*
X-162205Y165808D01*
X-162304Y165749D01*
X-162404Y165692D01*
X-162409Y165686D01*
X-162416Y165682D01*
X-162491Y165594D01*
X-162568Y165508D01*
X-162571Y165501D01*
X-162576Y165495D01*
X-162619Y165388D01*
X-162664Y165282D01*
X-162665Y165274D01*
X-162668Y165267D01*
X-162686Y165100D01*
X-162686Y154765D01*
X-236521Y156336D01*
X-236523Y156336D01*
X-236524Y156336D01*
X-236538Y156336D01*
X-236556Y156333D01*
X-236577Y156335D01*
X-236670Y156315D01*
X-236765Y156302D01*
X-236773Y156297D01*
X-236780Y156296D01*
X-236797Y156287D01*
X-236817Y156283D01*
X-236899Y156234D01*
X-236985Y156191D01*
X-236991Y156185D01*
X-236998Y156181D01*
X-237011Y156167D01*
X-237028Y156157D01*
X-237090Y156084D01*
X-237158Y156016D01*
X-237162Y156008D01*
X-237167Y156003D01*
X-237175Y155985D01*
X-237188Y155970D01*
X-237224Y155881D01*
X-237266Y155796D01*
X-237267Y155787D01*
X-237271Y155780D01*
X-237273Y155760D01*
X-237280Y155742D01*
X-237299Y155575D01*
X-237299Y138113D01*
X-237298Y138109D01*
X-237299Y138104D01*
X-237278Y137987D01*
X-237259Y137870D01*
X-237257Y137866D01*
X-237256Y137862D01*
X-237200Y137758D01*
X-237144Y137652D01*
X-237141Y137650D01*
X-237139Y137646D01*
X-237052Y137565D01*
X-236966Y137483D01*
X-236962Y137481D01*
X-236959Y137479D01*
X-236810Y137402D01*
X-228287Y134138D01*
X-228233Y134126D01*
X-228181Y134106D01*
X-228076Y134094D01*
X-228046Y134088D01*
X-228034Y134089D01*
X-228015Y134087D01*
X-225643Y134087D01*
X-224728Y133172D01*
X-224711Y133064D01*
X-224709Y133060D01*
X-224708Y133056D01*
X-224651Y132952D01*
X-224595Y132847D01*
X-224592Y132844D01*
X-224591Y132840D01*
X-224504Y132759D01*
X-224417Y132677D01*
X-224413Y132675D01*
X-224410Y132673D01*
X-224261Y132596D01*
X-163293Y109246D01*
X-168813Y103726D01*
X-168866Y103652D01*
X-168926Y103582D01*
X-168938Y103552D01*
X-168957Y103526D01*
X-168984Y103439D01*
X-169018Y103354D01*
X-169022Y103313D01*
X-169029Y103291D01*
X-169028Y103259D01*
X-169036Y103188D01*
X-169036Y90868D01*
X-169033Y90849D01*
X-169035Y90829D01*
X-169013Y90728D01*
X-168997Y90626D01*
X-168987Y90608D01*
X-168983Y90589D01*
X-168930Y90500D01*
X-168881Y90408D01*
X-168867Y90395D01*
X-168857Y90378D01*
X-168778Y90310D01*
X-168703Y90239D01*
X-168685Y90231D01*
X-168670Y90218D01*
X-168574Y90179D01*
X-168480Y90135D01*
X-168460Y90133D01*
X-168442Y90126D01*
X-168275Y90107D01*
X-148844Y90107D01*
X-148754Y90122D01*
G37*
%LPC*%
G36*
X26857Y129476D02*
X26857Y129476D01*
X23683Y130791D01*
X21253Y133220D01*
X19938Y136395D01*
X19938Y139830D01*
X21253Y143005D01*
X23683Y145434D01*
X26857Y146749D01*
X30293Y146749D01*
X33467Y145434D01*
X34879Y144023D01*
X34935Y143983D01*
X34984Y143935D01*
X35034Y143911D01*
X35079Y143879D01*
X35144Y143859D01*
X35206Y143829D01*
X35261Y143823D01*
X35314Y143807D01*
X35383Y143808D01*
X35451Y143800D01*
X35505Y143812D01*
X35560Y143813D01*
X35624Y143837D01*
X35691Y143851D01*
X35760Y143886D01*
X35791Y143897D01*
X35808Y143911D01*
X35840Y143928D01*
X97377Y185045D01*
X97395Y185062D01*
X97492Y185140D01*
X98120Y185768D01*
X98227Y185768D01*
X98244Y185770D01*
X98260Y185768D01*
X98365Y185790D01*
X98470Y185807D01*
X98485Y185815D01*
X98501Y185819D01*
X98650Y185896D01*
X98739Y185956D01*
X99610Y185782D01*
X99633Y185782D01*
X99758Y185768D01*
X167681Y185768D01*
X169690Y183759D01*
X182889Y170560D01*
X182963Y170507D01*
X183032Y170448D01*
X183062Y170435D01*
X183089Y170417D01*
X183176Y170390D01*
X183260Y170356D01*
X183301Y170351D01*
X183324Y170344D01*
X183356Y170345D01*
X183427Y170337D01*
X192957Y170337D01*
X193850Y169444D01*
X193850Y154181D01*
X192957Y153288D01*
X181693Y153288D01*
X180800Y154181D01*
X180800Y163710D01*
X180786Y163800D01*
X180778Y163891D01*
X180766Y163921D01*
X180761Y163953D01*
X180718Y164034D01*
X180682Y164118D01*
X180656Y164150D01*
X180645Y164170D01*
X180622Y164193D01*
X180577Y164249D01*
X165379Y179447D01*
X165305Y179500D01*
X165235Y179560D01*
X165205Y179572D01*
X165179Y179591D01*
X165092Y179618D01*
X165007Y179652D01*
X164966Y179656D01*
X164944Y179663D01*
X164912Y179662D01*
X164840Y179670D01*
X100539Y179670D01*
X100522Y179668D01*
X100505Y179670D01*
X100401Y179648D01*
X100296Y179631D01*
X100281Y179623D01*
X100265Y179619D01*
X100116Y179542D01*
X96029Y176811D01*
X96012Y176796D01*
X95992Y176785D01*
X95923Y176712D01*
X95849Y176644D01*
X95838Y176623D01*
X95823Y176607D01*
X95780Y176515D01*
X95733Y176427D01*
X95729Y176404D01*
X95719Y176383D01*
X95708Y176284D01*
X95691Y176185D01*
X95694Y176162D01*
X95692Y176139D01*
X95713Y176041D01*
X95729Y175942D01*
X95739Y175921D01*
X95744Y175899D01*
X95796Y175812D01*
X95842Y175723D01*
X95858Y175707D01*
X95870Y175688D01*
X95947Y175622D01*
X96019Y175553D01*
X96040Y175543D01*
X96057Y175528D01*
X96151Y175490D01*
X96241Y175447D01*
X96264Y175444D01*
X96285Y175436D01*
X96452Y175417D01*
X140963Y175417D01*
X142749Y173631D01*
X142749Y172916D01*
X142763Y172826D01*
X142771Y172735D01*
X142783Y172705D01*
X142788Y172673D01*
X142831Y172592D01*
X142867Y172508D01*
X142893Y172476D01*
X142904Y172456D01*
X142927Y172433D01*
X142972Y172377D01*
X144789Y170560D01*
X144863Y170507D01*
X144932Y170448D01*
X144962Y170435D01*
X144989Y170417D01*
X145076Y170390D01*
X145160Y170356D01*
X145201Y170351D01*
X145224Y170344D01*
X145256Y170345D01*
X145327Y170337D01*
X154857Y170337D01*
X155750Y169444D01*
X155750Y154181D01*
X154857Y153288D01*
X143593Y153288D01*
X142700Y154181D01*
X142700Y163710D01*
X142686Y163800D01*
X142678Y163891D01*
X142666Y163921D01*
X142661Y163953D01*
X142618Y164034D01*
X142582Y164118D01*
X142556Y164150D01*
X142545Y164170D01*
X142522Y164193D01*
X142477Y164249D01*
X137629Y169097D01*
X137555Y169150D01*
X137486Y169209D01*
X137456Y169222D01*
X137429Y169240D01*
X137342Y169267D01*
X137258Y169301D01*
X137217Y169306D01*
X137194Y169313D01*
X137162Y169312D01*
X137091Y169320D01*
X116823Y169320D01*
X116804Y169317D01*
X116784Y169319D01*
X116683Y169297D01*
X116581Y169280D01*
X116563Y169271D01*
X116544Y169266D01*
X116455Y169213D01*
X116363Y169165D01*
X116350Y169151D01*
X116333Y169140D01*
X116265Y169062D01*
X116194Y168987D01*
X116186Y168969D01*
X116173Y168953D01*
X116134Y168857D01*
X116090Y168764D01*
X116088Y168744D01*
X116081Y168725D01*
X116062Y168559D01*
X116062Y154181D01*
X115169Y153288D01*
X103906Y153288D01*
X103013Y154181D01*
X103013Y158003D01*
X103010Y158022D01*
X103012Y158042D01*
X102990Y158143D01*
X102973Y158245D01*
X102964Y158263D01*
X102959Y158282D01*
X102906Y158371D01*
X102858Y158463D01*
X102844Y158476D01*
X102833Y158493D01*
X102755Y158561D01*
X102680Y158632D01*
X102662Y158640D01*
X102646Y158653D01*
X102550Y158692D01*
X102457Y158736D01*
X102437Y158738D01*
X102418Y158745D01*
X102252Y158764D01*
X101478Y158764D01*
X101388Y158749D01*
X101297Y158742D01*
X101267Y158729D01*
X101235Y158724D01*
X101155Y158681D01*
X101071Y158646D01*
X101039Y158620D01*
X101018Y158609D01*
X100996Y158586D01*
X100940Y158541D01*
X86589Y144190D01*
X86577Y144173D01*
X86561Y144161D01*
X86505Y144074D01*
X86445Y143990D01*
X86439Y143971D01*
X86428Y143954D01*
X86403Y143854D01*
X86373Y143755D01*
X86373Y143735D01*
X86368Y143715D01*
X86376Y143612D01*
X86379Y143509D01*
X86386Y143490D01*
X86388Y143470D01*
X86428Y143375D01*
X86464Y143278D01*
X86476Y143262D01*
X86484Y143244D01*
X86589Y143113D01*
X86697Y143005D01*
X88012Y139830D01*
X88012Y136395D01*
X86697Y133220D01*
X84267Y130791D01*
X81093Y129476D01*
X77657Y129476D01*
X74483Y130791D01*
X72053Y133220D01*
X70738Y136395D01*
X70738Y139201D01*
X70727Y139272D01*
X70725Y139344D01*
X70707Y139393D01*
X70699Y139444D01*
X70665Y139507D01*
X70640Y139575D01*
X70608Y139616D01*
X70583Y139662D01*
X70532Y139711D01*
X70487Y139767D01*
X70443Y139795D01*
X70405Y139831D01*
X70340Y139861D01*
X70280Y139900D01*
X70229Y139913D01*
X70182Y139935D01*
X70111Y139942D01*
X70041Y139960D01*
X69989Y139956D01*
X69938Y139962D01*
X69867Y139946D01*
X69796Y139941D01*
X69748Y139920D01*
X69697Y139909D01*
X69636Y139873D01*
X69570Y139844D01*
X69514Y139800D01*
X69486Y139783D01*
X69471Y139765D01*
X69439Y139740D01*
X66772Y137073D01*
X64763Y135064D01*
X62569Y135064D01*
X62454Y135045D01*
X62338Y135028D01*
X62333Y135025D01*
X62326Y135024D01*
X62224Y134970D01*
X62119Y134916D01*
X62115Y134912D01*
X62109Y134909D01*
X62029Y134825D01*
X61947Y134741D01*
X61943Y134734D01*
X61940Y134731D01*
X61932Y134714D01*
X61866Y134594D01*
X61297Y133220D01*
X58867Y130791D01*
X55693Y129476D01*
X52257Y129476D01*
X49083Y130791D01*
X46653Y133220D01*
X45338Y136395D01*
X45338Y139830D01*
X46159Y141813D01*
X46165Y141835D01*
X46176Y141855D01*
X46193Y141954D01*
X46215Y142052D01*
X46213Y142075D01*
X46217Y142098D01*
X46202Y142197D01*
X46192Y142297D01*
X46183Y142318D01*
X46179Y142341D01*
X46133Y142430D01*
X46092Y142522D01*
X46077Y142539D01*
X46066Y142559D01*
X45994Y142629D01*
X45926Y142703D01*
X45906Y142714D01*
X45889Y142730D01*
X45799Y142773D01*
X45710Y142821D01*
X45688Y142826D01*
X45667Y142835D01*
X45567Y142847D01*
X45468Y142865D01*
X45446Y142862D01*
X45423Y142864D01*
X45324Y142844D01*
X45225Y142829D01*
X45205Y142819D01*
X45182Y142814D01*
X45033Y142737D01*
X37550Y137737D01*
X37519Y137708D01*
X37482Y137686D01*
X37430Y137624D01*
X37370Y137569D01*
X37350Y137531D01*
X37322Y137499D01*
X37292Y137424D01*
X37253Y137353D01*
X37246Y137310D01*
X37230Y137271D01*
X37214Y137121D01*
X37212Y137110D01*
X37212Y137108D01*
X37212Y137104D01*
X37212Y136395D01*
X35897Y133220D01*
X33467Y130791D01*
X30293Y129476D01*
X26857Y129476D01*
G37*
%LPD*%
G36*
X-117455Y-2346D02*
X-117455Y-2346D01*
X-117436Y-2348D01*
X-117334Y-2326D01*
X-117232Y-2309D01*
X-117215Y-2300D01*
X-117195Y-2295D01*
X-117106Y-2242D01*
X-117015Y-2194D01*
X-117001Y-2180D01*
X-116984Y-2169D01*
X-116917Y-2091D01*
X-116846Y-2016D01*
X-116837Y-1998D01*
X-116824Y-1982D01*
X-116785Y-1886D01*
X-116742Y-1793D01*
X-116740Y-1773D01*
X-116732Y-1754D01*
X-116714Y-1588D01*
X-116714Y4001D01*
X-95250Y4001D01*
X-95160Y4016D01*
X-95069Y4023D01*
X-95039Y4036D01*
X-95007Y4041D01*
X-94927Y4084D01*
X-94843Y4119D01*
X-94811Y4145D01*
X-94790Y4156D01*
X-94768Y4179D01*
X-94712Y4224D01*
X-80424Y18512D01*
X-80415Y18525D01*
X-80402Y18535D01*
X-80343Y18625D01*
X-80281Y18711D01*
X-80276Y18727D01*
X-80267Y18741D01*
X-80240Y18844D01*
X-80208Y18947D01*
X-80209Y18963D01*
X-80205Y18978D01*
X-80212Y19085D01*
X-80215Y19192D01*
X-80220Y19208D01*
X-80221Y19224D01*
X-80262Y19323D01*
X-80299Y19423D01*
X-80309Y19436D01*
X-80315Y19451D01*
X-80386Y19532D01*
X-80453Y19615D01*
X-80467Y19624D01*
X-80477Y19636D01*
X-80570Y19690D01*
X-80660Y19748D01*
X-80676Y19752D01*
X-80689Y19761D01*
X-80852Y19803D01*
X-94039Y21742D01*
X-94062Y21742D01*
X-94085Y21748D01*
X-94185Y21740D01*
X-94285Y21738D01*
X-94307Y21731D01*
X-94330Y21729D01*
X-94422Y21690D01*
X-94516Y21656D01*
X-94535Y21642D01*
X-94557Y21632D01*
X-94688Y21528D01*
X-96316Y19900D01*
X-98324Y17891D01*
X-118270Y17891D01*
X-118360Y17876D01*
X-118451Y17869D01*
X-118481Y17856D01*
X-118513Y17851D01*
X-118593Y17808D01*
X-118677Y17773D01*
X-118709Y17747D01*
X-118730Y17736D01*
X-118752Y17713D01*
X-118808Y17668D01*
X-120363Y16113D01*
X-124112Y16113D01*
X-126762Y18763D01*
X-126762Y22512D01*
X-124412Y24862D01*
X-124401Y24878D01*
X-124385Y24890D01*
X-124329Y24977D01*
X-124269Y25061D01*
X-124263Y25080D01*
X-124252Y25097D01*
X-124227Y25198D01*
X-124196Y25297D01*
X-124197Y25316D01*
X-124192Y25336D01*
X-124200Y25439D01*
X-124203Y25542D01*
X-124210Y25561D01*
X-124211Y25581D01*
X-124252Y25676D01*
X-124287Y25773D01*
X-124300Y25789D01*
X-124307Y25807D01*
X-124412Y25938D01*
X-124551Y26078D01*
X-124581Y26099D01*
X-124604Y26126D01*
X-124680Y26170D01*
X-124751Y26221D01*
X-124786Y26232D01*
X-124817Y26250D01*
X-124979Y26292D01*
X-134176Y27645D01*
X-134176Y53975D01*
X-134191Y54065D01*
X-134198Y54156D01*
X-134211Y54186D01*
X-134216Y54218D01*
X-134237Y54257D01*
X-134238Y54264D01*
X-134256Y54292D01*
X-134259Y54298D01*
X-134294Y54382D01*
X-134320Y54414D01*
X-134331Y54435D01*
X-134354Y54457D01*
X-134364Y54475D01*
X-134377Y54485D01*
X-134399Y54513D01*
X-135987Y56101D01*
X-136061Y56154D01*
X-136130Y56213D01*
X-136160Y56226D01*
X-136186Y56244D01*
X-136273Y56271D01*
X-136358Y56305D01*
X-136399Y56310D01*
X-136422Y56317D01*
X-136454Y56316D01*
X-136525Y56324D01*
X-160338Y56324D01*
X-160454Y56305D01*
X-160570Y56288D01*
X-160575Y56285D01*
X-160580Y56284D01*
X-160684Y56229D01*
X-160789Y56176D01*
X-160793Y56172D01*
X-160798Y56169D01*
X-160878Y56084D01*
X-160961Y56000D01*
X-160963Y55995D01*
X-160967Y55991D01*
X-161017Y55884D01*
X-161068Y55778D01*
X-161069Y55772D01*
X-161071Y55768D01*
X-161073Y55750D01*
X-161097Y55613D01*
X-162637Y32511D01*
X-200025Y32511D01*
X-200115Y32497D01*
X-200206Y32489D01*
X-200236Y32477D01*
X-200268Y32472D01*
X-200348Y32429D01*
X-200432Y32393D01*
X-200464Y32367D01*
X-200485Y32356D01*
X-200507Y32333D01*
X-200563Y32288D01*
X-203738Y29113D01*
X-203791Y29039D01*
X-203851Y28970D01*
X-203863Y28940D01*
X-203882Y28914D01*
X-203909Y28827D01*
X-203943Y28742D01*
X-203947Y28701D01*
X-203954Y28678D01*
X-203953Y28646D01*
X-203961Y28575D01*
X-203961Y14288D01*
X-203947Y14197D01*
X-203939Y14107D01*
X-203927Y14077D01*
X-203922Y14045D01*
X-203879Y13964D01*
X-203843Y13880D01*
X-203817Y13848D01*
X-203806Y13827D01*
X-203783Y13805D01*
X-203738Y13749D01*
X-200563Y10574D01*
X-200489Y10521D01*
X-200420Y10462D01*
X-200390Y10450D01*
X-200364Y10431D01*
X-200277Y10404D01*
X-200192Y10370D01*
X-200151Y10365D01*
X-200128Y10358D01*
X-200096Y10359D01*
X-200025Y10351D01*
X-160653Y10351D01*
X-148176Y-2126D01*
X-148102Y-2179D01*
X-148032Y-2238D01*
X-148002Y-2251D01*
X-147976Y-2269D01*
X-147889Y-2296D01*
X-147804Y-2330D01*
X-147763Y-2335D01*
X-147741Y-2342D01*
X-147709Y-2341D01*
X-147638Y-2349D01*
X-117475Y-2349D01*
X-117455Y-2346D01*
G37*
G36*
X-97559Y-56578D02*
X-97559Y-56578D01*
X-97531Y-56578D01*
X-97433Y-56541D01*
X-97394Y-56530D01*
X-97386Y-56524D01*
X-97376Y-56520D01*
X-50576Y-29520D01*
X-50555Y-29502D01*
X-50530Y-29491D01*
X-50481Y-29437D01*
X-50427Y-29388D01*
X-50415Y-29364D01*
X-50396Y-29344D01*
X-50372Y-29275D01*
X-50341Y-29209D01*
X-50340Y-29182D01*
X-50330Y-29156D01*
X-50335Y-29083D01*
X-50332Y-29010D01*
X-50341Y-28985D01*
X-50343Y-28958D01*
X-50387Y-28862D01*
X-50401Y-28824D01*
X-50408Y-28817D01*
X-50412Y-28806D01*
X-52686Y-25470D01*
X-52709Y-25447D01*
X-52732Y-25411D01*
X-55478Y-22451D01*
X-55504Y-22432D01*
X-55532Y-22400D01*
X-58688Y-19881D01*
X-58717Y-19867D01*
X-58750Y-19839D01*
X-62246Y-17819D01*
X-62276Y-17809D01*
X-62313Y-17787D01*
X-66071Y-16311D01*
X-66103Y-16305D01*
X-66143Y-16289D01*
X-70079Y-15389D01*
X-70111Y-15388D01*
X-70153Y-15378D01*
X-74179Y-15075D01*
X-74210Y-15079D01*
X-74254Y-15075D01*
X-78280Y-15375D01*
X-78311Y-15384D01*
X-78354Y-15386D01*
X-82290Y-16283D01*
X-82319Y-16297D01*
X-82362Y-16305D01*
X-86121Y-17779D01*
X-86148Y-17797D01*
X-86188Y-17812D01*
X-89685Y-19829D01*
X-89709Y-19850D01*
X-89747Y-19871D01*
X-92905Y-22388D01*
X-92925Y-22412D01*
X-92959Y-22439D01*
X-95707Y-25397D01*
X-95723Y-25425D01*
X-95753Y-25456D01*
X-98029Y-28791D01*
X-98041Y-28820D01*
X-98066Y-28856D01*
X-99819Y-32493D01*
X-99827Y-32524D01*
X-99846Y-32562D01*
X-101038Y-36420D01*
X-101041Y-36452D01*
X-101054Y-36493D01*
X-101657Y-40485D01*
X-101656Y-40517D01*
X-101663Y-40560D01*
X-101664Y-44598D01*
X-101661Y-44612D01*
X-101663Y-44621D01*
X-101658Y-44641D01*
X-101659Y-44672D01*
X-101058Y-48665D01*
X-101047Y-48695D01*
X-101042Y-48737D01*
X-99853Y-52596D01*
X-99838Y-52624D01*
X-99826Y-52666D01*
X-98075Y-56304D01*
X-98058Y-56326D01*
X-98049Y-56351D01*
X-97999Y-56404D01*
X-97955Y-56462D01*
X-97931Y-56476D01*
X-97912Y-56496D01*
X-97846Y-56525D01*
X-97782Y-56561D01*
X-97755Y-56565D01*
X-97730Y-56576D01*
X-97657Y-56576D01*
X-97585Y-56585D01*
X-97559Y-56578D01*
G37*
G36*
X-74222Y189704D02*
X-74222Y189704D01*
X-74179Y189700D01*
X-70153Y190003D01*
X-70122Y190011D01*
X-70079Y190014D01*
X-66143Y190914D01*
X-66114Y190927D01*
X-66071Y190936D01*
X-62313Y192412D01*
X-62286Y192429D01*
X-62246Y192444D01*
X-58750Y194464D01*
X-58726Y194485D01*
X-58688Y194506D01*
X-55532Y197025D01*
X-55512Y197049D01*
X-55478Y197076D01*
X-52732Y200036D01*
X-52716Y200064D01*
X-52686Y200095D01*
X-50412Y203431D01*
X-50402Y203457D01*
X-50385Y203477D01*
X-50364Y203547D01*
X-50335Y203615D01*
X-50336Y203642D01*
X-50328Y203668D01*
X-50336Y203741D01*
X-50336Y203814D01*
X-50347Y203839D01*
X-50350Y203866D01*
X-50386Y203929D01*
X-50414Y203996D01*
X-50434Y204015D01*
X-50447Y204039D01*
X-50528Y204106D01*
X-50558Y204134D01*
X-50567Y204138D01*
X-50576Y204145D01*
X-97376Y231145D01*
X-97401Y231154D01*
X-97424Y231169D01*
X-97495Y231185D01*
X-97564Y231208D01*
X-97591Y231206D01*
X-97618Y231212D01*
X-97689Y231198D01*
X-97762Y231193D01*
X-97787Y231180D01*
X-97813Y231175D01*
X-97874Y231134D01*
X-97939Y231101D01*
X-97956Y231080D01*
X-97979Y231065D01*
X-98040Y230979D01*
X-98065Y230948D01*
X-98068Y230938D01*
X-98075Y230929D01*
X-99826Y227291D01*
X-99833Y227260D01*
X-99853Y227221D01*
X-101042Y223362D01*
X-101045Y223331D01*
X-101058Y223290D01*
X-101659Y219297D01*
X-101657Y219265D01*
X-101664Y219223D01*
X-101663Y215185D01*
X-101657Y215155D01*
X-101659Y215143D01*
X-101657Y215135D01*
X-101657Y215110D01*
X-101054Y211118D01*
X-101043Y211088D01*
X-101038Y211045D01*
X-99846Y207187D01*
X-99831Y207159D01*
X-99819Y207118D01*
X-98066Y203481D01*
X-98047Y203455D01*
X-98029Y203416D01*
X-95753Y200081D01*
X-95730Y200059D01*
X-95707Y200022D01*
X-92959Y197064D01*
X-92934Y197045D01*
X-92905Y197013D01*
X-89747Y194496D01*
X-89719Y194482D01*
X-89685Y194454D01*
X-86188Y192437D01*
X-86158Y192427D01*
X-86121Y192404D01*
X-82362Y190930D01*
X-82330Y190925D01*
X-82290Y190908D01*
X-78354Y190011D01*
X-78322Y190010D01*
X-78280Y190000D01*
X-74254Y189700D01*
X-74222Y189704D01*
G37*
G36*
X-200761Y-56573D02*
X-200761Y-56573D01*
X-200688Y-56568D01*
X-200663Y-56555D01*
X-200637Y-56550D01*
X-200576Y-56509D01*
X-200511Y-56476D01*
X-200494Y-56455D01*
X-200471Y-56440D01*
X-200410Y-56354D01*
X-200385Y-56323D01*
X-200382Y-56313D01*
X-200375Y-56304D01*
X-198624Y-52666D01*
X-198617Y-52635D01*
X-198597Y-52596D01*
X-197408Y-48737D01*
X-197405Y-48706D01*
X-197392Y-48665D01*
X-196791Y-44672D01*
X-196793Y-44640D01*
X-196786Y-44598D01*
X-196787Y-40560D01*
X-196793Y-40529D01*
X-196793Y-40485D01*
X-197396Y-36493D01*
X-197407Y-36463D01*
X-197412Y-36420D01*
X-198604Y-32562D01*
X-198619Y-32534D01*
X-198631Y-32493D01*
X-200384Y-28856D01*
X-200403Y-28830D01*
X-200421Y-28791D01*
X-202697Y-25456D01*
X-202720Y-25434D01*
X-202743Y-25397D01*
X-205491Y-22439D01*
X-205516Y-22420D01*
X-205545Y-22388D01*
X-208703Y-19871D01*
X-208731Y-19857D01*
X-208765Y-19829D01*
X-212262Y-17812D01*
X-212292Y-17802D01*
X-212329Y-17779D01*
X-216088Y-16305D01*
X-216120Y-16300D01*
X-216160Y-16283D01*
X-220096Y-15386D01*
X-220128Y-15385D01*
X-220170Y-15375D01*
X-224197Y-15075D01*
X-224228Y-15079D01*
X-224271Y-15075D01*
X-228297Y-15378D01*
X-228328Y-15386D01*
X-228371Y-15389D01*
X-232307Y-16289D01*
X-232336Y-16302D01*
X-232379Y-16311D01*
X-236137Y-17787D01*
X-236164Y-17804D01*
X-236204Y-17819D01*
X-239700Y-19839D01*
X-239724Y-19860D01*
X-239762Y-19881D01*
X-242918Y-22400D01*
X-242938Y-22424D01*
X-242972Y-22451D01*
X-245718Y-25411D01*
X-245734Y-25439D01*
X-245764Y-25470D01*
X-248038Y-28806D01*
X-248048Y-28832D01*
X-248065Y-28852D01*
X-248086Y-28922D01*
X-248115Y-28990D01*
X-248115Y-29017D01*
X-248122Y-29043D01*
X-248114Y-29116D01*
X-248114Y-29189D01*
X-248103Y-29214D01*
X-248100Y-29241D01*
X-248064Y-29304D01*
X-248036Y-29371D01*
X-248016Y-29390D01*
X-248003Y-29414D01*
X-247922Y-29481D01*
X-247892Y-29509D01*
X-247883Y-29513D01*
X-247875Y-29520D01*
X-201075Y-56520D01*
X-201049Y-56529D01*
X-201026Y-56544D01*
X-200955Y-56560D01*
X-200886Y-56583D01*
X-200859Y-56581D01*
X-200832Y-56587D01*
X-200761Y-56573D01*
G37*
G36*
X-220170Y190000D02*
X-220170Y190000D01*
X-220139Y190009D01*
X-220096Y190011D01*
X-216160Y190908D01*
X-216131Y190922D01*
X-216088Y190930D01*
X-212329Y192404D01*
X-212302Y192422D01*
X-212262Y192437D01*
X-208765Y194454D01*
X-208741Y194475D01*
X-208703Y194496D01*
X-205545Y197013D01*
X-205525Y197037D01*
X-205491Y197064D01*
X-202743Y200022D01*
X-202727Y200050D01*
X-202697Y200081D01*
X-200421Y203416D01*
X-200409Y203445D01*
X-200384Y203481D01*
X-198631Y207118D01*
X-198623Y207149D01*
X-198604Y207187D01*
X-197412Y211045D01*
X-197409Y211077D01*
X-197396Y211118D01*
X-196793Y215110D01*
X-196794Y215142D01*
X-196787Y215185D01*
X-196786Y219223D01*
X-196792Y219254D01*
X-196791Y219297D01*
X-197392Y223290D01*
X-197403Y223320D01*
X-197408Y223362D01*
X-198597Y227221D01*
X-198612Y227249D01*
X-198624Y227291D01*
X-200375Y230929D01*
X-200392Y230951D01*
X-200401Y230976D01*
X-200451Y231029D01*
X-200495Y231087D01*
X-200519Y231101D01*
X-200538Y231121D01*
X-200604Y231150D01*
X-200668Y231186D01*
X-200695Y231190D01*
X-200720Y231201D01*
X-200793Y231201D01*
X-200865Y231210D01*
X-200891Y231203D01*
X-200919Y231203D01*
X-201017Y231166D01*
X-201056Y231155D01*
X-201064Y231149D01*
X-201075Y231145D01*
X-247875Y204145D01*
X-247895Y204127D01*
X-247920Y204116D01*
X-247969Y204062D01*
X-248024Y204013D01*
X-248035Y203989D01*
X-248054Y203969D01*
X-248078Y203900D01*
X-248109Y203834D01*
X-248111Y203807D01*
X-248120Y203781D01*
X-248115Y203708D01*
X-248118Y203635D01*
X-248109Y203610D01*
X-248107Y203583D01*
X-248063Y203487D01*
X-248049Y203449D01*
X-248042Y203442D01*
X-248038Y203431D01*
X-245764Y200095D01*
X-245741Y200072D01*
X-245718Y200036D01*
X-242972Y197076D01*
X-242946Y197057D01*
X-242918Y197025D01*
X-239762Y194506D01*
X-239733Y194492D01*
X-239700Y194464D01*
X-236204Y192444D01*
X-236174Y192434D01*
X-236137Y192412D01*
X-232379Y190936D01*
X-232347Y190930D01*
X-232307Y190914D01*
X-228371Y190014D01*
X-228339Y190013D01*
X-228297Y190003D01*
X-224271Y189700D01*
X-224240Y189704D01*
X-224197Y189700D01*
X-220170Y190000D01*
G37*
G36*
X-299199Y59816D02*
X-299199Y59816D01*
X-299188Y59815D01*
X-295164Y60116D01*
X-295133Y60125D01*
X-295090Y60127D01*
X-291156Y61025D01*
X-291127Y61038D01*
X-291084Y61047D01*
X-287328Y62522D01*
X-287301Y62539D01*
X-287261Y62554D01*
X-283766Y64572D01*
X-283742Y64593D01*
X-283704Y64614D01*
X-280549Y67130D01*
X-280529Y67154D01*
X-280494Y67181D01*
X-277750Y70139D01*
X-277733Y70166D01*
X-277703Y70197D01*
X-275430Y73531D01*
X-275417Y73561D01*
X-275393Y73596D01*
X-273642Y77232D01*
X-273634Y77263D01*
X-273614Y77301D01*
X-272425Y81157D01*
X-272422Y81189D01*
X-272408Y81230D01*
X-271807Y85220D01*
X-271808Y85252D01*
X-271801Y85295D01*
X-271801Y89330D01*
X-271808Y89361D01*
X-271807Y89405D01*
X-272408Y93395D01*
X-272419Y93425D01*
X-272425Y93468D01*
X-273614Y97324D01*
X-273630Y97352D01*
X-273642Y97393D01*
X-275393Y101029D01*
X-275412Y101055D01*
X-275430Y101094D01*
X-277703Y104428D01*
X-277726Y104450D01*
X-277750Y104486D01*
X-280494Y107444D01*
X-280520Y107463D01*
X-280549Y107495D01*
X-283704Y110011D01*
X-283732Y110026D01*
X-283766Y110053D01*
X-287261Y112071D01*
X-287291Y112081D01*
X-287328Y112103D01*
X-291084Y113578D01*
X-291116Y113583D01*
X-291156Y113600D01*
X-295090Y114498D01*
X-295122Y114498D01*
X-295164Y114509D01*
X-299188Y114810D01*
X-299215Y114807D01*
X-299242Y114811D01*
X-299312Y114795D01*
X-299385Y114785D01*
X-299409Y114772D01*
X-299435Y114765D01*
X-299494Y114722D01*
X-299557Y114685D01*
X-299573Y114664D01*
X-299595Y114648D01*
X-299632Y114585D01*
X-299676Y114526D01*
X-299683Y114500D01*
X-299697Y114477D01*
X-299714Y114373D01*
X-299724Y114333D01*
X-299722Y114324D01*
X-299724Y114313D01*
X-299724Y60313D01*
X-299719Y60286D01*
X-299721Y60259D01*
X-299699Y60189D01*
X-299685Y60118D01*
X-299669Y60095D01*
X-299661Y60069D01*
X-299613Y60014D01*
X-299572Y59954D01*
X-299549Y59939D01*
X-299531Y59918D01*
X-299466Y59886D01*
X-299405Y59847D01*
X-299378Y59842D01*
X-299353Y59830D01*
X-299249Y59820D01*
X-299208Y59814D01*
X-299199Y59816D01*
G37*
%LPC*%
G36*
X-247881Y28955D02*
X-247881Y28955D01*
X-251243Y30347D01*
X-253815Y32920D01*
X-255207Y36281D01*
X-255207Y39919D01*
X-253815Y43280D01*
X-251243Y45853D01*
X-250089Y46330D01*
X-249989Y46392D01*
X-249890Y46452D01*
X-249886Y46457D01*
X-249880Y46460D01*
X-249805Y46550D01*
X-249730Y46639D01*
X-249727Y46645D01*
X-249723Y46649D01*
X-249682Y46758D01*
X-249638Y46867D01*
X-249637Y46874D01*
X-249635Y46879D01*
X-249634Y46897D01*
X-249619Y47034D01*
X-249619Y54566D01*
X-249638Y54681D01*
X-249655Y54797D01*
X-249658Y54803D01*
X-249659Y54809D01*
X-249713Y54912D01*
X-249767Y55017D01*
X-249771Y55021D01*
X-249774Y55027D01*
X-249858Y55106D01*
X-249942Y55189D01*
X-249949Y55192D01*
X-249952Y55196D01*
X-249969Y55204D01*
X-250089Y55270D01*
X-251243Y55747D01*
X-253815Y58320D01*
X-255207Y61681D01*
X-255207Y65319D01*
X-253815Y68680D01*
X-251243Y71253D01*
X-247881Y72645D01*
X-244244Y72645D01*
X-240882Y71253D01*
X-238310Y68680D01*
X-236918Y65319D01*
X-236918Y61681D01*
X-238310Y58320D01*
X-240882Y55747D01*
X-242036Y55270D01*
X-242136Y55208D01*
X-242235Y55148D01*
X-242239Y55143D01*
X-242245Y55140D01*
X-242320Y55050D01*
X-242395Y54961D01*
X-242398Y54955D01*
X-242402Y54951D01*
X-242443Y54842D01*
X-242487Y54733D01*
X-242488Y54726D01*
X-242490Y54721D01*
X-242491Y54703D01*
X-242506Y54566D01*
X-242506Y47034D01*
X-242487Y46919D01*
X-242470Y46803D01*
X-242467Y46797D01*
X-242466Y46791D01*
X-242412Y46688D01*
X-242358Y46583D01*
X-242354Y46579D01*
X-242351Y46573D01*
X-242267Y46494D01*
X-242183Y46411D01*
X-242176Y46408D01*
X-242173Y46404D01*
X-242156Y46396D01*
X-242036Y46330D01*
X-240882Y45853D01*
X-238310Y43280D01*
X-236918Y39919D01*
X-236918Y36281D01*
X-238310Y32920D01*
X-240882Y30347D01*
X-244244Y28955D01*
X-247881Y28955D01*
G37*
%LPD*%
%LPC*%
G36*
X229881Y88225D02*
X229881Y88225D01*
X228988Y89118D01*
X228988Y101382D01*
X229881Y102275D01*
X241144Y102275D01*
X242037Y101382D01*
X242037Y99060D01*
X242040Y99040D01*
X242038Y99021D01*
X242060Y98919D01*
X242077Y98817D01*
X242086Y98800D01*
X242091Y98780D01*
X242144Y98691D01*
X242192Y98600D01*
X242206Y98586D01*
X242217Y98569D01*
X242295Y98502D01*
X242370Y98430D01*
X242388Y98422D01*
X242404Y98409D01*
X242500Y98370D01*
X242593Y98327D01*
X242613Y98325D01*
X242632Y98317D01*
X242798Y98299D01*
X242897Y98299D01*
X242987Y98313D01*
X243078Y98321D01*
X243108Y98333D01*
X243140Y98338D01*
X243220Y98381D01*
X243304Y98417D01*
X243336Y98443D01*
X243357Y98454D01*
X243379Y98477D01*
X243435Y98522D01*
X249141Y104227D01*
X249194Y104301D01*
X249253Y104371D01*
X249266Y104401D01*
X249284Y104427D01*
X249311Y104514D01*
X249345Y104599D01*
X249350Y104640D01*
X249357Y104662D01*
X249356Y104694D01*
X249364Y104766D01*
X249364Y115063D01*
X249349Y115153D01*
X249342Y115244D01*
X249329Y115273D01*
X249324Y115305D01*
X249281Y115386D01*
X249246Y115470D01*
X249220Y115502D01*
X249209Y115523D01*
X249186Y115545D01*
X249141Y115601D01*
X244284Y120458D01*
X244284Y127192D01*
X249045Y131954D01*
X255780Y131954D01*
X260541Y127192D01*
X260541Y120458D01*
X255684Y115601D01*
X255631Y115527D01*
X255572Y115458D01*
X255559Y115427D01*
X255541Y115401D01*
X255514Y115314D01*
X255480Y115229D01*
X255475Y115188D01*
X255468Y115166D01*
X255469Y115134D01*
X255461Y115063D01*
X255461Y101925D01*
X245738Y92201D01*
X242798Y92201D01*
X242779Y92198D01*
X242759Y92200D01*
X242658Y92178D01*
X242556Y92162D01*
X242538Y92152D01*
X242519Y92148D01*
X242430Y92095D01*
X242338Y92046D01*
X242325Y92032D01*
X242308Y92022D01*
X242240Y91943D01*
X242169Y91868D01*
X242161Y91850D01*
X242148Y91835D01*
X242109Y91739D01*
X242065Y91645D01*
X242063Y91625D01*
X242056Y91607D01*
X242037Y91440D01*
X242037Y89118D01*
X241144Y88225D01*
X229881Y88225D01*
G37*
%LPD*%
%LPC*%
G36*
X249045Y42671D02*
X249045Y42671D01*
X244284Y47433D01*
X244284Y54302D01*
X244269Y54392D01*
X244262Y54483D01*
X244249Y54513D01*
X244244Y54545D01*
X244201Y54625D01*
X244166Y54709D01*
X244140Y54741D01*
X244129Y54762D01*
X244106Y54784D01*
X244061Y54840D01*
X232464Y66437D01*
X232464Y68414D01*
X232461Y68434D01*
X232463Y68453D01*
X232441Y68555D01*
X232424Y68657D01*
X232415Y68674D01*
X232410Y68694D01*
X232357Y68783D01*
X232309Y68874D01*
X232295Y68888D01*
X232284Y68905D01*
X232206Y68972D01*
X232131Y69044D01*
X232113Y69052D01*
X232097Y69065D01*
X232001Y69104D01*
X231908Y69147D01*
X231888Y69149D01*
X231869Y69157D01*
X231703Y69175D01*
X229881Y69175D01*
X228988Y70068D01*
X228988Y82332D01*
X229881Y83225D01*
X241144Y83225D01*
X242037Y82332D01*
X242037Y70068D01*
X241144Y69175D01*
X240187Y69175D01*
X240116Y69164D01*
X240044Y69162D01*
X239995Y69144D01*
X239944Y69136D01*
X239881Y69102D01*
X239813Y69077D01*
X239773Y69045D01*
X239726Y69020D01*
X239677Y68968D01*
X239621Y68924D01*
X239593Y68880D01*
X239557Y68842D01*
X239527Y68777D01*
X239488Y68717D01*
X239475Y68666D01*
X239453Y68619D01*
X239446Y68548D01*
X239428Y68478D01*
X239432Y68426D01*
X239426Y68375D01*
X239442Y68304D01*
X239447Y68233D01*
X239468Y68185D01*
X239479Y68134D01*
X239515Y68073D01*
X239544Y68007D01*
X239588Y67951D01*
X239605Y67923D01*
X239623Y67908D01*
X239648Y67876D01*
X248372Y59152D01*
X248446Y59099D01*
X248516Y59039D01*
X248546Y59027D01*
X248572Y59008D01*
X248659Y58981D01*
X248744Y58947D01*
X248785Y58943D01*
X248807Y58936D01*
X248839Y58937D01*
X248911Y58929D01*
X255780Y58929D01*
X260541Y54167D01*
X260541Y47433D01*
X255780Y42671D01*
X249045Y42671D01*
G37*
%LPD*%
%LPC*%
G36*
X149918Y29463D02*
X149918Y29463D01*
X149025Y30356D01*
X149025Y39885D01*
X149011Y39975D01*
X149003Y40066D01*
X148991Y40096D01*
X148986Y40128D01*
X148943Y40209D01*
X148907Y40293D01*
X148881Y40325D01*
X148870Y40345D01*
X148847Y40368D01*
X148802Y40424D01*
X148326Y40900D01*
X148326Y49364D01*
X148323Y49384D01*
X148325Y49403D01*
X148303Y49505D01*
X148287Y49607D01*
X148277Y49624D01*
X148273Y49644D01*
X148220Y49733D01*
X148171Y49824D01*
X148157Y49838D01*
X148147Y49855D01*
X148068Y49922D01*
X147993Y49994D01*
X147975Y50002D01*
X147960Y50015D01*
X147864Y50054D01*
X147770Y50097D01*
X147750Y50099D01*
X147732Y50107D01*
X147565Y50125D01*
X145743Y50125D01*
X144850Y51018D01*
X144850Y63282D01*
X145743Y64175D01*
X157007Y64175D01*
X157900Y63282D01*
X157900Y51018D01*
X157007Y50125D01*
X155185Y50125D01*
X155165Y50122D01*
X155146Y50124D01*
X155044Y50102D01*
X154942Y50086D01*
X154925Y50076D01*
X154905Y50072D01*
X154816Y50019D01*
X154725Y49970D01*
X154711Y49956D01*
X154694Y49946D01*
X154627Y49867D01*
X154555Y49792D01*
X154547Y49774D01*
X154534Y49759D01*
X154495Y49663D01*
X154452Y49569D01*
X154450Y49549D01*
X154442Y49531D01*
X154424Y49364D01*
X154424Y47273D01*
X154427Y47254D01*
X154425Y47234D01*
X154447Y47133D01*
X154463Y47031D01*
X154473Y47013D01*
X154477Y46994D01*
X154530Y46905D01*
X154579Y46813D01*
X154593Y46800D01*
X154603Y46783D01*
X154682Y46715D01*
X154757Y46644D01*
X154775Y46636D01*
X154790Y46623D01*
X154886Y46584D01*
X154980Y46540D01*
X155000Y46538D01*
X155018Y46531D01*
X155185Y46512D01*
X161182Y46512D01*
X162075Y45619D01*
X162075Y30356D01*
X161182Y29463D01*
X149918Y29463D01*
G37*
%LPD*%
%LPC*%
G36*
X186431Y31050D02*
X186431Y31050D01*
X185538Y31943D01*
X185538Y47207D01*
X186431Y48100D01*
X188840Y48100D01*
X188860Y48103D01*
X188879Y48101D01*
X188981Y48123D01*
X189083Y48139D01*
X189100Y48149D01*
X189120Y48153D01*
X189209Y48206D01*
X189300Y48255D01*
X189314Y48269D01*
X189331Y48279D01*
X189398Y48358D01*
X189470Y48433D01*
X189478Y48451D01*
X189491Y48466D01*
X189530Y48562D01*
X189573Y48656D01*
X189575Y48676D01*
X189583Y48694D01*
X189601Y48861D01*
X189601Y49364D01*
X189598Y49384D01*
X189600Y49403D01*
X189578Y49505D01*
X189562Y49607D01*
X189552Y49624D01*
X189548Y49644D01*
X189495Y49733D01*
X189446Y49824D01*
X189432Y49838D01*
X189422Y49855D01*
X189343Y49922D01*
X189268Y49994D01*
X189250Y50002D01*
X189235Y50015D01*
X189139Y50054D01*
X189045Y50097D01*
X189025Y50099D01*
X189007Y50107D01*
X188840Y50125D01*
X187018Y50125D01*
X186125Y51018D01*
X186125Y63282D01*
X187018Y64175D01*
X198282Y64175D01*
X199175Y63282D01*
X199175Y51018D01*
X198282Y50125D01*
X196460Y50125D01*
X196440Y50122D01*
X196421Y50124D01*
X196319Y50102D01*
X196217Y50086D01*
X196200Y50076D01*
X196180Y50072D01*
X196091Y50019D01*
X196000Y49970D01*
X195986Y49956D01*
X195969Y49946D01*
X195902Y49867D01*
X195830Y49792D01*
X195822Y49774D01*
X195809Y49759D01*
X195770Y49663D01*
X195727Y49569D01*
X195725Y49549D01*
X195717Y49531D01*
X195699Y49364D01*
X195699Y48861D01*
X195702Y48841D01*
X195700Y48822D01*
X195722Y48720D01*
X195738Y48618D01*
X195748Y48601D01*
X195752Y48581D01*
X195805Y48492D01*
X195854Y48401D01*
X195868Y48387D01*
X195878Y48370D01*
X195957Y48303D01*
X196032Y48231D01*
X196050Y48223D01*
X196065Y48210D01*
X196161Y48171D01*
X196255Y48128D01*
X196275Y48126D01*
X196293Y48118D01*
X196460Y48100D01*
X197694Y48100D01*
X198587Y47207D01*
X198587Y31943D01*
X197694Y31050D01*
X186431Y31050D01*
G37*
%LPD*%
%LPC*%
G36*
X185545Y-22416D02*
X185545Y-22416D01*
X183962Y-20833D01*
X183946Y-20821D01*
X183934Y-20806D01*
X183847Y-20750D01*
X183763Y-20690D01*
X183744Y-20684D01*
X183727Y-20673D01*
X183626Y-20648D01*
X183527Y-20617D01*
X183508Y-20618D01*
X183488Y-20613D01*
X183385Y-20621D01*
X183282Y-20624D01*
X183263Y-20630D01*
X183243Y-20632D01*
X183148Y-20672D01*
X183051Y-20708D01*
X183035Y-20720D01*
X183017Y-20728D01*
X182886Y-20833D01*
X182407Y-21312D01*
X171143Y-21312D01*
X170250Y-20419D01*
X170250Y-8156D01*
X171143Y-7263D01*
X182407Y-7263D01*
X182886Y-7742D01*
X182902Y-7754D01*
X182914Y-7769D01*
X183001Y-7825D01*
X183085Y-7885D01*
X183104Y-7891D01*
X183121Y-7902D01*
X183222Y-7927D01*
X183321Y-7958D01*
X183340Y-7957D01*
X183360Y-7962D01*
X183463Y-7954D01*
X183566Y-7951D01*
X183585Y-7945D01*
X183605Y-7943D01*
X183700Y-7903D01*
X183797Y-7867D01*
X183813Y-7855D01*
X183831Y-7847D01*
X183962Y-7742D01*
X185545Y-6159D01*
X192280Y-6159D01*
X197041Y-10920D01*
X197041Y-17655D01*
X192280Y-22416D01*
X185545Y-22416D01*
G37*
%LPD*%
%LPC*%
G36*
X93881Y122625D02*
X93881Y122625D01*
X92988Y123518D01*
X92988Y134782D01*
X93290Y135084D01*
X93343Y135158D01*
X93402Y135227D01*
X93414Y135257D01*
X93433Y135283D01*
X93460Y135370D01*
X93494Y135455D01*
X93499Y135496D01*
X93506Y135518D01*
X93505Y135551D01*
X93513Y135622D01*
X93513Y147444D01*
X94406Y148337D01*
X105669Y148337D01*
X106562Y147444D01*
X106562Y135572D01*
X106577Y135482D01*
X106584Y135391D01*
X106597Y135361D01*
X106602Y135329D01*
X106645Y135249D01*
X106680Y135165D01*
X106706Y135132D01*
X106717Y135112D01*
X106740Y135090D01*
X106785Y135034D01*
X107037Y134782D01*
X107037Y123518D01*
X106144Y122625D01*
X93881Y122625D01*
G37*
%LPD*%
%LPC*%
G36*
X133568Y122625D02*
X133568Y122625D01*
X132675Y123518D01*
X132675Y134782D01*
X132977Y135084D01*
X133031Y135158D01*
X133090Y135227D01*
X133102Y135257D01*
X133121Y135283D01*
X133148Y135370D01*
X133182Y135455D01*
X133186Y135496D01*
X133193Y135518D01*
X133192Y135551D01*
X133200Y135622D01*
X133200Y147444D01*
X134093Y148337D01*
X145357Y148337D01*
X146250Y147444D01*
X146250Y135572D01*
X146264Y135482D01*
X146272Y135391D01*
X146284Y135361D01*
X146289Y135329D01*
X146332Y135249D01*
X146368Y135165D01*
X146394Y135132D01*
X146405Y135112D01*
X146428Y135090D01*
X146473Y135034D01*
X146725Y134782D01*
X146725Y123518D01*
X145832Y122625D01*
X133568Y122625D01*
G37*
%LPD*%
%LPC*%
G36*
X171668Y122625D02*
X171668Y122625D01*
X170775Y123518D01*
X170775Y134782D01*
X171077Y135084D01*
X171131Y135158D01*
X171190Y135227D01*
X171202Y135257D01*
X171221Y135283D01*
X171248Y135370D01*
X171282Y135455D01*
X171286Y135496D01*
X171293Y135518D01*
X171292Y135551D01*
X171300Y135622D01*
X171300Y147444D01*
X172193Y148337D01*
X183457Y148337D01*
X184350Y147444D01*
X184350Y135572D01*
X184364Y135482D01*
X184372Y135391D01*
X184384Y135361D01*
X184389Y135329D01*
X184432Y135249D01*
X184468Y135165D01*
X184494Y135132D01*
X184505Y135112D01*
X184528Y135090D01*
X184573Y135034D01*
X184825Y134782D01*
X184825Y123518D01*
X183932Y122625D01*
X171668Y122625D01*
G37*
%LPD*%
%LPC*%
G36*
X-154600Y194055D02*
X-154600Y194055D01*
X-159957Y199412D01*
X-159957Y206988D01*
X-154600Y212345D01*
X-147025Y212345D01*
X-141668Y206988D01*
X-141668Y199412D01*
X-147025Y194055D01*
X-154600Y194055D01*
G37*
%LPD*%
%LPC*%
G36*
X-247881Y3555D02*
X-247881Y3555D01*
X-251243Y4947D01*
X-253815Y7520D01*
X-255207Y10881D01*
X-255207Y14519D01*
X-253815Y17880D01*
X-251243Y20453D01*
X-247881Y21845D01*
X-244244Y21845D01*
X-240882Y20453D01*
X-238310Y17880D01*
X-236918Y14519D01*
X-236918Y10881D01*
X-238310Y7520D01*
X-240882Y4947D01*
X-244244Y3555D01*
X-247881Y3555D01*
G37*
%LPD*%
%LPC*%
G36*
X-49343Y129476D02*
X-49343Y129476D01*
X-52517Y130791D01*
X-54947Y133220D01*
X-56262Y136395D01*
X-56262Y139830D01*
X-54947Y143005D01*
X-52517Y145434D01*
X-49343Y146749D01*
X-45907Y146749D01*
X-42733Y145434D01*
X-40303Y143005D01*
X-38988Y139830D01*
X-38988Y136395D01*
X-40303Y133220D01*
X-42733Y130791D01*
X-45907Y129476D01*
X-49343Y129476D01*
G37*
%LPD*%
%LPC*%
G36*
X-23943Y129476D02*
X-23943Y129476D01*
X-27117Y130791D01*
X-29547Y133220D01*
X-30862Y136395D01*
X-30862Y139830D01*
X-29547Y143005D01*
X-27117Y145434D01*
X-23943Y146749D01*
X-20507Y146749D01*
X-17333Y145434D01*
X-14903Y143005D01*
X-13588Y139830D01*
X-13588Y136395D01*
X-14903Y133220D01*
X-17333Y130791D01*
X-20507Y129476D01*
X-23943Y129476D01*
G37*
%LPD*%
%LPC*%
G36*
X1457Y129476D02*
X1457Y129476D01*
X-1717Y130791D01*
X-4147Y133220D01*
X-5462Y136395D01*
X-5462Y139830D01*
X-4147Y143005D01*
X-1717Y145434D01*
X1457Y146749D01*
X4893Y146749D01*
X8067Y145434D01*
X10497Y143005D01*
X11812Y139830D01*
X11812Y136395D01*
X10497Y133220D01*
X8067Y130791D01*
X4893Y129476D01*
X1457Y129476D01*
G37*
%LPD*%
%LPC*%
G36*
X-258632Y106038D02*
X-258632Y106038D01*
X-259525Y106931D01*
X-259525Y116194D01*
X-258632Y117087D01*
X-249368Y117087D01*
X-248425Y116143D01*
X-248422Y116131D01*
X-248369Y116042D01*
X-248320Y115951D01*
X-248306Y115937D01*
X-248296Y115920D01*
X-248217Y115853D01*
X-248142Y115781D01*
X-248124Y115773D01*
X-248109Y115760D01*
X-248013Y115721D01*
X-247919Y115678D01*
X-247899Y115676D01*
X-247881Y115668D01*
X-247714Y115650D01*
X-245776Y115650D01*
X-243125Y112999D01*
X-243125Y109251D01*
X-245776Y106600D01*
X-248491Y106600D01*
X-248581Y106586D01*
X-248672Y106578D01*
X-248701Y106566D01*
X-248733Y106561D01*
X-248814Y106518D01*
X-248898Y106482D01*
X-248930Y106456D01*
X-248951Y106445D01*
X-248973Y106422D01*
X-249029Y106377D01*
X-249368Y106038D01*
X-258632Y106038D01*
G37*
%LPD*%
D10*
X-254000Y126563D03*
X-254000Y111563D03*
D11*
X-149225Y252513D03*
X1495Y164833D03*
X1495Y9793D03*
X-149225Y-77888D03*
X-220725Y211213D03*
X-77725Y211213D03*
X-77725Y-36588D03*
X-220725Y-36588D03*
X150775Y252513D03*
X293875Y169913D03*
X293875Y4713D03*
X150775Y-77888D03*
X-292292Y169913D03*
X-292292Y4713D03*
X-292325Y87313D03*
D12*
X100038Y139813D03*
X119038Y139813D03*
X109538Y161813D03*
X139725Y139813D03*
X158725Y139813D03*
X149225Y161813D03*
X177825Y139813D03*
X196825Y139813D03*
X187325Y161813D03*
X192063Y39575D03*
X173063Y39575D03*
X182563Y17575D03*
X155550Y37988D03*
X136550Y37988D03*
X146050Y15988D03*
X119038Y37988D03*
X100038Y37988D03*
X109538Y15988D03*
D13*
X-73025Y36513D03*
X-47625Y36513D03*
X-22225Y36513D03*
X3175Y36513D03*
X28575Y36513D03*
X53975Y36513D03*
X79375Y36513D03*
X79375Y138113D03*
X53975Y138113D03*
X28575Y138113D03*
X3175Y138113D03*
X-22225Y138113D03*
X-47625Y138113D03*
X-73025Y138113D03*
D14*
X-150813Y203200D03*
D15*
X277813Y123825D03*
X252413Y123825D03*
X277813Y50800D03*
X252413Y50800D03*
D16*
X188913Y-39688D03*
X188913Y-14288D03*
X111125Y-39688D03*
X111125Y-14288D03*
D17*
X100013Y112150D03*
X100013Y129150D03*
X139700Y112150D03*
X139700Y129150D03*
X177800Y112150D03*
X177800Y129150D03*
D18*
X175650Y57150D03*
X192650Y57150D03*
X134375Y57150D03*
X151375Y57150D03*
X97863Y57150D03*
X114863Y57150D03*
D17*
X-231775Y110563D03*
X-231775Y127563D03*
D19*
X-246063Y63500D03*
X-246063Y38100D03*
X-246063Y12700D03*
D18*
X159775Y-14288D03*
X176775Y-14288D03*
X218513Y76200D03*
X235513Y76200D03*
X218513Y95250D03*
X235513Y95250D03*
D20*
X-192088Y196850D03*
X-168275Y-7938D03*
X-152400Y11113D03*
X-130175Y9525D03*
X-155575Y49213D03*
X-141288Y49213D03*
X-195263Y14288D03*
X-187325Y19050D03*
X-165100Y95250D03*
X-152400Y95250D03*
X-157163Y158750D03*
X-147638Y153988D03*
X-230188Y150813D03*
X-230188Y141288D03*
X-68263Y161925D03*
X-74613Y152400D03*
X-92075Y15875D03*
X-100013Y9525D03*
D21*
X-248088Y111563D02*
X-254000Y111563D01*
X-248088Y111563D02*
X-247650Y111125D01*
D22*
X-247650Y111125D03*
D23*
X-254000Y126563D02*
X-232775Y126563D01*
X-231775Y127563D01*
X100013Y129150D02*
X100017Y129154D01*
X100038Y139813D01*
X139725Y139813D02*
X139725Y133888D01*
X139715Y133877D01*
X139700Y129150D01*
X177825Y129175D02*
X177825Y139813D01*
X177825Y129175D02*
X177800Y129150D01*
X192650Y57150D02*
X192650Y40163D01*
X192063Y39575D01*
X151375Y42163D02*
X151375Y57150D01*
X151375Y42163D02*
X155550Y37988D01*
X114863Y42163D02*
X114863Y57150D01*
X114863Y42163D02*
X119038Y37988D01*
D24*
X-246063Y38100D02*
X-246063Y63500D01*
D22*
X-106363Y52388D03*
D21*
X-120650Y38100D01*
D22*
X-120650Y38100D03*
D25*
X-123825Y112713D03*
D21*
X99450Y112713D02*
X100013Y112150D01*
X99450Y112713D02*
X-123825Y112713D01*
X130738Y103188D02*
X139700Y112150D01*
D25*
X-115888Y104775D03*
D21*
X-114300Y103188D02*
X130738Y103188D01*
X-114300Y103188D02*
X-115888Y104775D01*
X177800Y105636D02*
X177800Y112150D01*
X177800Y105636D02*
X159476Y87313D01*
D22*
X-222250Y95250D03*
D21*
X-214313Y87313D02*
X159476Y87313D01*
X-214313Y87313D02*
X-222250Y95250D01*
X175650Y57910D02*
X175650Y57150D01*
X175650Y57910D02*
X160535Y73025D01*
D25*
X-227013Y71438D03*
D21*
X-211174Y69911D02*
X-208060Y73025D01*
X-211174Y69911D02*
X-225486Y69911D01*
X-227013Y71438D01*
X-208060Y73025D02*
X160535Y73025D01*
X134375Y57150D02*
X123263Y68263D01*
X-200025Y68263D02*
X-215900Y52388D01*
D25*
X-215900Y52388D03*
D21*
X-200025Y68263D02*
X123263Y68263D01*
X97863Y57150D02*
X79213Y57150D01*
X73307Y63056D01*
D25*
X-206375Y47625D03*
D21*
X-190945Y63056D01*
X73307Y63056D01*
D23*
X-77725Y211213D02*
X-90488Y198450D01*
X-90488Y187325D01*
D22*
X-90488Y187325D03*
D23*
X-90488Y-23825D02*
X-77725Y-36588D01*
X-90488Y-23825D02*
X-90488Y-14288D01*
D22*
X-90488Y-14288D03*
X-268288Y74613D03*
D23*
X-279625Y74613D01*
X-292325Y87313D01*
D22*
X-176213Y-36513D03*
D23*
X-176288Y-36588D01*
X-220725Y-36588D01*
D22*
X-227013Y184150D03*
D23*
X-220725Y190438D01*
X-220725Y211213D01*
D22*
X-219075Y103188D03*
D21*
X-224400Y103188D01*
X-231775Y110563D01*
D23*
X176775Y-14288D02*
X188913Y-14288D01*
X235513Y67700D02*
X235513Y76200D01*
X235513Y67700D02*
X252413Y50800D01*
X244475Y95250D02*
X252413Y103188D01*
X244475Y95250D02*
X235513Y95250D01*
X252413Y103188D02*
X252413Y123825D01*
D21*
X218513Y95250D02*
X201050Y95250D01*
X188350Y82550D01*
D22*
X-222250Y85725D03*
D21*
X-219075Y82550D02*
X188350Y82550D01*
X-219075Y82550D02*
X-222250Y85725D01*
X217624Y77089D02*
X218513Y76200D01*
D25*
X-220663Y76200D03*
D21*
X-214313Y76200D02*
X-213424Y77089D01*
X-214313Y76200D02*
X-220663Y76200D01*
X-213424Y77089D02*
X217624Y77089D01*
D23*
X150250Y-4763D02*
X159775Y-14288D01*
X115250Y-4763D02*
X115123Y-4636D01*
X69723Y-4636D02*
X39688Y25400D01*
X69723Y-4636D02*
X115123Y-4636D01*
X115250Y-4763D02*
X150250Y-4763D01*
D22*
X-122238Y20638D03*
D23*
X-99587Y20940D02*
X-95127Y25400D01*
X-99587Y20940D02*
X-121936Y20940D01*
X-122238Y20638D01*
X-95127Y25400D02*
X39688Y25400D01*
D22*
X-103188Y26988D03*
D23*
X-119063Y26988D01*
X-120650Y28575D01*
D22*
X-120650Y28575D03*
D23*
X-63500Y36513D02*
X-41275Y58738D01*
X-63500Y36513D02*
X-73025Y36513D01*
X97586Y27940D02*
X109538Y15988D01*
X97586Y27940D02*
X93775Y27940D01*
X89535Y32180D01*
X89535Y40721D01*
X71518Y58738D01*
X-41275Y58738D01*
X99900Y161813D02*
X109538Y161813D01*
X99900Y161813D02*
X79375Y141288D01*
X79375Y138113D01*
X139700Y171338D02*
X139700Y172369D01*
X139700Y171338D02*
X149225Y161813D01*
X139700Y172369D02*
X97756Y172369D01*
X63500Y138113D01*
X53975Y138113D01*
X166419Y182719D02*
X187325Y161813D01*
X166419Y182719D02*
X99383Y182719D01*
X32625Y138113D01*
X28575Y138113D01*
X-11113Y47625D02*
X-22225Y36513D01*
X-11113Y47625D02*
X31750Y47625D01*
X164988Y0D02*
X182563Y17575D01*
X164988Y0D02*
X74532Y0D01*
X32703Y46673D02*
X31750Y47625D01*
X32703Y46673D02*
X32783Y46673D01*
X43815Y35641D01*
X43815Y30717D01*
X74532Y0D01*
X-37312Y36513D02*
X-47625Y36513D01*
X66231Y39344D02*
X66231Y27432D01*
X-20611Y53213D02*
X-37312Y36513D01*
X-20611Y53213D02*
X52361Y53213D01*
X66231Y39344D01*
X66231Y27432D02*
X88075Y5588D01*
X135651Y5588D02*
X146050Y15988D01*
X135651Y5588D02*
X88075Y5588D01*
M02*
