G04 EAGLE Gerber RS-274X export*
G75*
%MOMM*%
%FSLAX34Y34*%
%LPD*%
%INSolderpaste Top*%
%IPPOS*%
%AMOC8*
5,1,8,0,0,1.08239X$1,22.5*%
G01*
%ADD10R,0.800000X0.800000*%
%ADD11R,1.000000X1.400000*%
%ADD12R,1.100000X1.000000*%
%ADD13R,1.000000X1.100000*%


D10*
X-254000Y126563D03*
X-254000Y111563D03*
D11*
X100038Y139813D03*
X119038Y139813D03*
X109538Y161813D03*
X139725Y139813D03*
X158725Y139813D03*
X149225Y161813D03*
X177825Y139813D03*
X196825Y139813D03*
X187325Y161813D03*
X192063Y39575D03*
X173063Y39575D03*
X182563Y17575D03*
X155550Y37988D03*
X136550Y37988D03*
X146050Y15988D03*
X119038Y37988D03*
X100038Y37988D03*
X109538Y15988D03*
D12*
X100013Y112150D03*
X100013Y129150D03*
X139700Y112150D03*
X139700Y129150D03*
X177800Y112150D03*
X177800Y129150D03*
D13*
X175650Y57150D03*
X192650Y57150D03*
X134375Y57150D03*
X151375Y57150D03*
X97863Y57150D03*
X114863Y57150D03*
D12*
X-231775Y110563D03*
X-231775Y127563D03*
D13*
X159775Y-14288D03*
X176775Y-14288D03*
X218513Y76200D03*
X235513Y76200D03*
X218513Y95250D03*
X235513Y95250D03*
M02*
